<svg width="340" height="272" viewBox="0 0 340 272" fill="none" xmlns="http://www.w3.org/2000/svg">
  <path fill-rule="evenodd" clip-rule="evenodd" d="M58.7812 259.645C69.1419 259.645 79.4478 259.645 89.8085 259.645C90.85 259.645 90.85 258 89.8085 258C79.4478 258 69.1419 258 58.7812 258C57.7396 258 57.7396 259.645 58.7812 259.645Z" fill="#E0F2FA"/>
  <path fill-rule="evenodd" clip-rule="evenodd" d="M152.851 271.304C197.528 271.304 242.205 271.304 286.882 271.304C299.6 271.304 312.318 271.304 325.036 271.304C326.078 271.304 326.078 269.659 325.036 269.659C280.359 269.659 235.682 269.659 191.005 269.659C178.287 269.659 165.569 269.659 152.851 269.659C151.809 269.659 151.809 271.304 152.851 271.304Z" fill="#E0F2FA"/>
  <path fill-rule="evenodd" clip-rule="evenodd" d="M310.807 121.998C305.326 119.915 301.872 114.433 302.859 108.568C303.845 102.592 309.711 97.2751 315.741 100.838C319.907 103.305 322.045 108.897 320.456 113.447C318.811 118.325 313.439 121.231 308.45 120.463C307.409 120.299 306.97 121.889 308.012 122.053C313.877 122.93 320.072 119.696 322.045 113.885C324.019 108.074 320.839 101.058 315.138 98.7004C308.45 95.9594 302.365 101.715 301.214 108.129C300.008 114.927 304.01 121.176 310.314 123.588C311.356 123.972 311.794 122.382 310.807 121.998Z" fill="#E0F2FA"/>
  <path fill-rule="evenodd" clip-rule="evenodd" d="M322.044 120.957C311.135 120.628 315.247 103.141 324.895 103.799C334.543 104.511 330.596 124.191 320.016 120.573C319.029 120.244 318.591 121.834 319.577 122.163C331.802 126.329 337.284 104.073 325.607 102.209C319.906 101.277 314.753 106.649 313.876 111.967C312.999 117.229 316.562 122.382 322.044 122.547C323.086 122.656 323.086 121.012 322.044 120.957Z" fill="#E0F2FA"/>
  <path fill-rule="evenodd" clip-rule="evenodd" d="M334.001 127.201C333.069 126.215 332.631 124.625 333.343 123.419C334.056 122.268 335.81 121.72 336.906 122.597C337.893 123.364 338.112 125.009 337.18 125.831C336.084 126.818 334.33 126.324 333.288 125.502C332.466 124.844 331.315 125.995 332.137 126.653C333.837 127.969 336.468 128.627 338.277 127.037C339.921 125.557 339.757 122.816 338.112 121.391C336.413 119.911 333.727 120.349 332.302 121.994C330.712 123.858 331.15 126.653 332.795 128.353C333.562 129.12 334.714 127.969 334.001 127.201Z" fill="#E0F2FA"/>
  <path fill-rule="evenodd" clip-rule="evenodd" d="M259.204 50.5492C258.984 50.0559 258.765 49.5077 258.601 48.9595C259.313 48.1372 259.971 47.3149 260.684 46.4927C260.903 46.4378 261.89 47.0957 262.219 47.0957C263.041 47.2053 263.753 46.986 264.411 46.4927C266.44 44.9029 265.727 42.3813 266.33 40.2434C267.317 36.5705 271.647 39.0922 273.621 36.3512C275.594 33.6651 274.882 27.964 280.144 29.4989C281.186 29.773 281.624 28.1833 280.583 27.9092C277.568 27.0321 274.827 28.4574 273.73 31.3627C273.402 32.185 273.292 33.1169 272.963 33.9392C272.25 35.8579 271.483 36.132 269.4 36.2416C267.865 36.3512 266.659 36.2416 265.617 37.5572C264.74 38.7084 264.74 40.1885 264.576 41.559C264.411 43.5873 264.576 45.2867 261.561 45.0674C260.958 45.0126 260.464 44.4644 259.807 44.4644C256.189 44.4096 256.792 48.8499 257.669 50.9878C257.998 51.9745 259.642 51.536 259.204 50.5492Z" fill="#E0F2FA"/>
  <path fill-rule="evenodd" clip-rule="evenodd" d="M269.512 55.0993C268.635 53.9481 267.154 50.6042 269.731 49.7271C270.663 49.3981 271.869 49.7819 272.856 49.7819C273.733 49.7819 274.5 49.7819 275.213 49.1789C277.405 47.4247 275.816 44.3 276.967 42.1073C278.831 38.5441 282.558 41.3398 285.19 39.476C287.054 38.1603 287.547 35.6387 287.876 33.5556C288.04 32.514 286.451 32.0755 286.286 33.117C285.902 35.5839 285.464 38.3248 282.394 38.5989C280.804 38.7633 279.598 38.2152 278.118 38.9278C275.706 40.079 274.939 42.2169 274.884 44.6837C274.829 46.7669 275.322 47.8084 271.814 47.9729C271.375 47.9729 270.937 47.8632 270.498 47.8632C269.238 47.9729 268.141 48.6307 267.429 49.6722C265.894 51.865 266.771 54.3866 268.306 56.3053C269.018 57.1276 270.169 55.9216 269.512 55.0993Z" fill="#E0F2FA"/>
  <path fill-rule="evenodd" clip-rule="evenodd" d="M1.42974 161.136C5.97967 155.654 12.4483 151.159 19.9036 151.927C28.0167 152.749 32.0185 159.217 32.7859 166.782C34.1016 179.336 31.0317 194.356 39.5286 205.046C42.8726 209.267 47.861 211.514 53.2333 210.199C59.7018 208.664 64.7451 203.566 70.5011 200.551C77.2986 196.987 86.6726 195.069 92.8122 201.044C97.3074 205.429 98.2941 212.117 99.7742 217.928C101.145 223.191 103.502 229.001 108.216 232.126C111.067 233.99 114.191 234.154 117.481 233.935C121.153 233.661 128.664 233.442 127.896 239.198C127.786 240.239 129.431 240.239 129.541 239.198C129.815 236.95 128.773 235.141 126.964 233.825C124.114 231.742 120.825 232.071 117.481 232.291C113.698 232.565 110.464 232.236 107.558 229.55C104.927 227.138 103.337 223.739 102.186 220.395C100.268 214.639 99.7194 208.335 96.4303 203.072C93.196 197.865 87.6045 195.343 81.5744 195.562C73.9547 195.836 67.5409 200.222 61.456 204.278C58.5507 206.197 55.426 208.225 51.8628 208.828C47.5869 209.541 43.8045 207.677 41.0635 204.498C35.9106 198.468 35.0883 189.861 34.8142 182.296C34.5401 175.224 35.472 167.55 33.1149 160.698C30.9769 154.448 25.5499 150.556 19.0265 150.227C11.4615 149.843 4.82849 154.393 0.168909 159.985C-0.434094 160.807 0.717095 161.958 1.42974 161.136Z" fill="#E0F2FA"/>
  <path fill-rule="evenodd" clip-rule="evenodd" d="M190.263 58.3757C196.22 68.3045 201.528 78.577 206.226 89.1549C206.531 89.8423 207.524 89.2313 207.218 88.5821C202.521 78.0042 197.175 67.7317 191.256 57.8029C190.874 57.1537 189.881 57.7265 190.263 58.3757Z" fill="#E0F2FA"/>
  <path fill-rule="evenodd" clip-rule="evenodd" d="M190.99 57.9171C200.27 52.1508 209.817 46.7664 219.631 41.8783C220.28 41.5347 219.707 40.5418 219.058 40.8855C209.282 45.7735 199.735 51.1579 190.417 56.9243C189.768 57.3443 190.341 58.3372 190.99 57.9171Z" fill="#E0F2FA"/>
  <path fill-rule="evenodd" clip-rule="evenodd" d="M218.942 41.3829C223.792 51.579 228.909 61.6223 234.331 71.5129C234.675 72.1621 235.668 71.5893 235.324 70.9401C229.902 61.0495 224.746 51.0061 219.935 40.81C219.591 40.1227 218.636 40.6955 218.942 41.3829Z" fill="#E0F2FA"/>
  <path fill-rule="evenodd" clip-rule="evenodd" d="M207.525 89.3844C216.652 83.8854 225.665 78.2336 234.6 72.4291C235.211 72.0472 234.639 71.0544 234.028 71.4362C225.092 77.2407 216.079 82.8925 206.953 88.3915C206.342 88.7734 206.914 89.7663 207.525 89.3844Z" fill="#E0F2FA"/>
  <path fill-rule="evenodd" clip-rule="evenodd" d="M206.799 54.5569C206.57 61.8889 206.99 69.1827 208.059 76.4384C208.174 77.1639 209.281 76.8584 209.167 76.1329C208.097 68.9918 207.715 61.7743 207.945 54.5569C207.983 53.8313 206.837 53.8313 206.799 54.5569Z" fill="#E0F2FA"/>
  <path fill-rule="evenodd" clip-rule="evenodd" d="M206.838 54.1753C212.146 58.3378 217.454 62.4239 222.839 66.4718C223.412 66.93 223.984 65.9371 223.412 65.4789C218.104 61.5074 212.834 57.4595 207.64 53.3734C207.067 52.9151 206.265 53.7171 206.838 54.1753Z" fill="#E0F2FA"/>
  <path fill-rule="evenodd" clip-rule="evenodd" d="M209.244 76.6675C213.635 72.7341 219.363 70.6338 223.526 66.395C224.06 65.8604 223.22 65.0584 222.724 65.5931C218.561 69.7937 212.871 71.9322 208.442 75.8655C207.869 76.3238 208.709 77.1257 209.244 76.6675Z" fill="#E0F2FA"/>
  <path fill-rule="evenodd" clip-rule="evenodd" d="M191.792 64.3713C193.014 63.7603 194.236 63.1874 195.458 62.5764C196.107 62.2709 195.534 61.2781 194.885 61.5836C193.663 62.1946 192.441 62.7674 191.219 63.3784C190.57 63.7221 191.143 64.6768 191.792 64.3713Z" fill="#E0F2FA"/>
  <path fill-rule="evenodd" clip-rule="evenodd" d="M195.726 70.8631C196.757 70.1758 197.864 69.6029 199.01 69.1065C199.697 68.8392 199.392 67.7318 198.704 67.9991C197.444 68.5337 196.26 69.1447 195.115 69.8703C194.542 70.2903 195.115 71.2832 195.726 70.8631Z" fill="#E0F2FA"/>
  <path fill-rule="evenodd" clip-rule="evenodd" d="M200.041 78.3482C201.11 77.8136 202.179 77.279 203.248 76.7825C203.897 76.4388 203.325 75.4842 202.675 75.7897C201.606 76.3243 200.537 76.8589 199.468 77.3553C198.819 77.6608 199.391 78.6537 200.041 78.3482Z" fill="#E0F2FA"/>
  <path fill-rule="evenodd" clip-rule="evenodd" d="M202.255 85.8326C203.439 84.8016 204.661 83.9232 206.035 83.1595C206.685 82.7776 206.112 81.8229 205.463 82.1666C204.05 82.9685 202.713 83.9232 201.453 85.0307C200.88 85.5271 201.682 86.3291 202.255 85.8326Z" fill="#E0F2FA"/>
  <path fill-rule="evenodd" clip-rule="evenodd" d="M221.12 48.9061C221.999 48.2949 222.915 47.8747 223.947 47.6073C224.673 47.4163 224.367 46.3467 223.641 46.4995C222.533 46.7669 221.464 47.2253 220.509 47.9129C219.936 48.3331 220.509 49.3263 221.12 48.9061Z" fill="#E0F2FA"/>
  <path fill-rule="evenodd" clip-rule="evenodd" d="M224.518 55.4353C225.74 54.6716 226.962 53.9078 228.145 53.1059C228.756 52.724 228.184 51.7311 227.573 52.113C226.351 52.8767 225.129 53.6405 223.945 54.4424C223.296 54.8625 223.868 55.8554 224.518 55.4353Z" fill="#E0F2FA"/>
  <path fill-rule="evenodd" clip-rule="evenodd" d="M228.413 63.2641C229.712 62.6913 231.048 62.1185 232.347 61.5457C233.034 61.2402 232.423 60.2473 231.774 60.5528C230.476 61.1256 229.139 61.6984 227.841 62.2712C227.153 62.5767 227.764 63.5696 228.413 63.2641Z" fill="#E0F2FA"/>
  <path fill-rule="evenodd" clip-rule="evenodd" d="M231.2 68.3808C232.231 67.3879 233.377 66.5478 234.637 65.8222C235.286 65.4785 234.714 64.4856 234.064 64.8293C232.728 65.5931 231.506 66.4714 230.398 67.5406C229.864 68.0753 230.666 68.8772 231.2 68.3808Z" fill="#E0F2FA"/>
  <path fill-rule="evenodd" clip-rule="evenodd" d="M210.771 84.3437C211.726 85.7566 212.528 87.2459 213.139 88.8116C213.406 89.499 214.514 89.1935 214.246 88.5061C213.597 86.8259 212.795 85.222 211.764 83.7327C211.344 83.1598 210.351 83.7327 210.771 84.3437Z" fill="#E0F2FA"/>
  <path fill-rule="evenodd" clip-rule="evenodd" d="M216.613 81.1741C217.339 82.4724 218.026 83.7326 218.752 85.031C219.095 85.6802 220.088 85.1074 219.745 84.4582C219.019 83.1598 218.332 81.8996 217.606 80.6012C217.262 79.9521 216.27 80.5249 216.613 81.1741Z" fill="#E0F2FA"/>
  <path fill-rule="evenodd" clip-rule="evenodd" d="M223.373 76.3242C224.136 77.699 224.9 79.0737 225.664 80.4485C226.007 81.0977 227 80.5248 226.657 79.8757C225.893 78.5009 225.129 77.1261 224.365 75.7514C224.022 75.1022 223.029 75.675 223.373 76.3242Z" fill="#E0F2FA"/>
  <path fill-rule="evenodd" clip-rule="evenodd" d="M229.442 72.6958C230.053 74.1469 230.664 75.5981 231.314 77.011C231.619 77.6984 232.574 77.0874 232.307 76.4382C231.696 74.987 231.085 73.5359 230.435 72.123C230.13 71.4738 229.137 72.0466 229.442 72.6958Z" fill="#E0F2FA"/>
  <path fill-rule="evenodd" clip-rule="evenodd" d="M194.807 52.0369C195.533 53.2207 196.22 54.4045 196.946 55.5502C197.327 56.1994 198.32 55.5884 197.938 54.9774C197.213 53.7935 196.526 52.6097 195.8 51.4641C195.418 50.8531 194.425 51.4259 194.807 52.0369Z" fill="#E0F2FA"/>
  <path fill-rule="evenodd" clip-rule="evenodd" d="M201.376 48.2178C202.064 49.7453 202.751 51.2728 203.438 52.8003C203.744 53.4877 204.737 52.8767 204.431 52.2275C203.744 50.7 203.057 49.1725 202.369 47.645C202.026 46.9576 201.071 47.5304 201.376 48.2178Z" fill="#E0F2FA"/>
  <path fill-rule="evenodd" clip-rule="evenodd" d="M207.295 44.5518C208.326 45.9266 209.128 47.4159 209.662 49.0198C209.892 49.7071 210.999 49.4016 210.77 48.7142C210.197 46.9958 209.395 45.3919 208.288 43.979C207.868 43.4062 206.875 43.9408 207.295 44.5518Z" fill="#E0F2FA"/>
  <path fill-rule="evenodd" clip-rule="evenodd" d="M213.673 41.6111C214.475 42.8331 215.238 44.017 216.04 45.239C216.422 45.85 217.415 45.2771 217.033 44.6661C216.231 43.4441 215.468 42.2603 214.666 41.0383C214.246 40.4273 213.253 41.0001 213.673 41.6111Z" fill="#E0F2FA"/>
  <path fill-rule="evenodd" clip-rule="evenodd" d="M53.2291 75.6991C47.9117 74.0546 47.6376 68.4083 50.1593 64.1872C52.6261 60.0759 57.3953 58.9795 61.123 62.3782C64.1928 65.2288 64.4669 70.1076 61.6164 73.2323C58.7658 76.4118 54.1062 76.357 50.8171 73.9449C49.9948 73.2871 49.1726 74.7124 49.9948 75.3702C54.161 78.4401 60.2459 77.9467 63.3706 73.616C66.6049 69.2305 65.4537 63.0909 60.9037 60.1307C49.94 53.0591 40.5112 73.4516 52.7906 77.2889C53.8321 77.6178 54.2707 76.028 53.2291 75.6991Z" fill="#E0F2FA"/>
  <path fill-rule="evenodd" clip-rule="evenodd" d="M62.056 77.1244C57.9446 78.3853 56.9578 73.4516 58.7669 70.8203C60.247 68.6824 63.1523 67.4216 65.7836 68.1342C68.3053 68.792 70.1143 71.3685 69.4565 73.945C68.6342 77.1793 65.2354 78.3305 62.2204 77.8371C61.1789 77.6726 60.7403 79.2624 61.7819 79.4268C65.8384 80.1395 70.2239 78.3853 71.101 73.9998C71.8685 70.2173 68.9083 66.7637 65.2354 66.3252C61.1789 65.8318 56.7386 68.792 56.1904 72.9582C55.697 76.5763 58.9861 79.8106 62.6042 78.6594C63.5361 78.3853 63.0975 76.7955 62.056 77.1244Z" fill="#E0F2FA"/>
  <path fill-rule="evenodd" clip-rule="evenodd" d="M66.4451 150.063C65.1294 152.749 66.9933 155.435 69.7342 156.147C71.8173 156.696 74.01 156.202 76.148 156.312C78.4503 156.421 80.7527 156.97 82.8358 157.902C87.4406 159.985 90.4008 163.767 90.5652 168.865C90.7297 173.141 89.4689 177.581 91.3327 181.638C95.2796 190.19 106.134 183.666 111.725 189.203C116.385 193.863 114.466 202.359 120.715 205.923C121.647 206.471 122.47 205.046 121.538 204.497C115.946 201.318 117.262 193.04 113.315 188.436C111.232 186.023 108.217 185.366 105.147 185.146C101.419 184.927 96.5953 185.695 93.8543 182.515C90.6749 178.787 92.3742 173.196 92.2098 168.81C92.1002 165.357 90.949 162.232 88.537 159.765C86.399 157.627 83.6033 156.147 80.6979 155.38C79.2178 154.996 77.6829 154.722 76.148 154.667C74.1745 154.558 65.6228 155.544 67.9252 150.885C68.3637 149.953 66.9384 149.131 66.4451 150.063Z" fill="#E0F2FA"/>
  <path fill-rule="evenodd" clip-rule="evenodd" d="M149.318 31.5669C146.968 32.6784 143.474 34.0159 141.349 31.7762C139.156 29.4342 141.589 28.1804 142.041 25.9726C142.659 23.0379 139.586 21.4536 137.228 21.0419C134.918 20.6576 129.436 19.5181 133.278 16.4823C134.178 15.7995 135.179 15.4912 135.45 14.2549C135.713 13.141 135.133 12.1729 134.368 11.4147C133.67 10.7589 132.734 10.4079 131.852 9.96203C131.227 9.72806 130.583 9.41922 130.013 9.09031C128.526 8.48533 128.45 7.30189 129.729 5.63491C130.658 6.10821 131.481 4.68398 130.551 4.21068C129.167 3.53817 127.642 3.98695 126.867 5.43858C125.955 7.12759 127.049 8.96152 128.458 10.0285C129.421 10.7739 132.335 11.3173 132.916 12.2854C132.966 13.0743 133.065 13.8907 133.088 14.7272C132.809 14.8823 132.529 15.0374 132.25 15.1926C131.861 15.5376 131.384 15.7055 131.042 16.0779C129.86 17.3578 130.077 19.0654 131.105 20.3551C132.863 22.5727 135.694 22.055 138.104 22.8137C141.404 23.8959 139.783 25.9353 138.992 28.0736C138.641 29.0104 138.657 29.9692 138.945 30.8952C140.684 35.8869 146.531 34.6415 150.169 32.9442C151.102 32.5336 150.279 31.1088 149.318 31.5669Z" fill="#E0F2FA"/>
  <path fill-rule="evenodd" clip-rule="evenodd" d="M153.389 21.4481C150.681 21.9732 147.527 21.7347 148.332 18.1482C148.533 17.2516 149.121 16.4519 149.057 15.4657C148.87 13.2686 147.015 13.0835 145.331 12.4913C144.394 12.1403 143.063 11.8148 142.51 10.7993C142.112 10.0631 142.67 8.54934 142.938 7.755C143.276 6.621 143.737 5.49434 143.661 4.31089C143.499 2.50831 142.159 1.10165 140.289 1.16132C139.255 1.19751 139.254 2.84298 140.288 2.80679C143.389 2.6982 140.169 9.70092 141.173 11.7996C142.352 14.2527 147.387 13.4252 147.278 16.4641C147.232 17.6402 146.242 18.5877 146.366 19.7985C146.437 20.6624 146.855 21.4734 147.457 22.0744C149.197 23.7752 151.749 23.4126 153.886 23.0006C154.879 22.8146 154.458 21.2421 153.389 21.4481Z" fill="#E0F2FA"/>
  <path fill-rule="evenodd" clip-rule="evenodd" d="M97.8268 112.443C96.5832 111.582 96.4397 110.051 96.8224 108.712C97.0615 107.803 98.2094 105.316 99.3095 105.22C101.127 105.029 102.036 107.325 102.514 108.664C102.945 109.956 103.088 111.247 103.136 112.586C103.136 113.495 104.571 113.495 104.571 112.586C104.523 109.908 102.753 101.681 98.3529 104.073C96.6789 104.981 95.4353 107.612 95.244 109.429C95.0527 111.151 95.7223 112.682 97.1094 113.686C97.8268 114.212 98.5442 112.969 97.8268 112.443Z" fill="#E0F2FA"/>
  <path fill-rule="evenodd" clip-rule="evenodd" d="M97.2534 113.208C95.5315 113.639 93.8096 114.069 92.0399 114.5C91.0355 114.739 89.3136 114.834 88.5005 115.6C87.1135 116.891 87.4961 120.861 87.4961 122.535C87.4961 123.013 87.9744 123.348 88.4049 123.205C88.644 123.157 88.8832 123.061 89.1702 123.013C90.4137 122.344 91.0355 122.774 91.0833 124.209C92.0399 125.166 92.0399 125.74 91.0833 125.835C90.5094 126.074 89.9354 126.17 89.3136 126.17C88.931 126.218 88.5962 126.457 88.5962 126.888C88.6919 129.949 88.931 132.962 89.2658 136.023C89.3615 136.932 90.7964 136.932 90.7007 136.023C90.3659 132.962 90.1268 129.949 90.0311 126.888C89.7919 127.127 89.5528 127.366 89.3136 127.605C91.3225 127.366 94.5271 126.553 94.0966 123.826C93.6183 120.909 90.0789 121.244 88.0701 121.818C88.3571 122.057 88.6919 122.296 88.9788 122.487C88.9788 121.387 88.9788 120.335 89.0745 119.235C89.218 117.513 89.1223 116.891 90.7007 116.269C92.853 115.408 95.388 115.121 97.636 114.547C98.5448 114.404 98.1621 113.017 97.2534 113.208Z" fill="#E0F2FA"/>
  <path fill-rule="evenodd" clip-rule="evenodd" d="M104.142 113.638C106.15 113.543 108.207 113.543 110.216 113.782C112.129 114.021 112.033 114.308 112.32 115.982C112.512 117.034 112.56 118.134 112.655 119.187C113.038 123.3 113.325 127.413 113.564 131.527C113.612 132.435 115.047 132.435 114.999 131.527C114.712 125.931 114.521 120.191 113.612 114.643C113.373 113.256 113.133 112.825 111.699 112.586C109.211 112.108 106.629 112.108 104.142 112.251C103.233 112.251 103.233 113.686 104.142 113.638Z" fill="#E0F2FA"/>
  <path fill-rule="evenodd" clip-rule="evenodd" d="M90.3173 137.027C93.1392 136.549 95.9612 136.071 98.7353 135.592C101.94 135.066 105.001 135.305 108.206 135.066C109.688 134.923 116.719 134.205 114.136 131.288C113.515 130.618 112.51 131.623 113.132 132.292C113.515 132.723 107.01 133.679 106.866 133.679C104.857 133.727 102.849 133.631 100.84 133.871C97.2048 134.301 93.5697 135.066 89.9347 135.688C89.0259 135.784 89.4085 137.171 90.3173 137.027Z" fill="#E0F2FA"/>
</svg>
