<svg width="249" height="202" viewBox="0 0 249 202" fill="none" xmlns="http://www.w3.org/2000/svg">
  <path d="M102.266 2.43256L31.5974 73.2393C30.8952 73.9429 30.4482 74.9665 30.4482 75.99V191.506C30.4482 192.722 31.4059 193.681 32.6188 193.681H147.91C148.932 193.681 149.889 193.298 150.655 192.53L221.324 121.723C221.835 121.212 222.026 120.508 221.962 119.804C217.366 91.2126 204.088 63.7729 182.127 41.7057C160.167 19.7025 132.78 6.33428 104.181 1.79293C103.479 1.72897 102.777 1.98482 102.266 2.43256Z" fill="#A9DDFA" stroke="white" stroke-width="2"/>
  <path fill-rule="evenodd" clip-rule="evenodd" d="M121.747 184.602L121.769 184.624L121.498 174.188L135.915 169.457L137.338 172.4C137.609 174.098 138.332 175.637 139.258 176.995C140.072 178.218 141.043 179.282 142.015 180.187C142.467 180.617 142.897 180.98 143.326 181.342C144.23 182.089 145.201 182.655 146.264 183.04C146.67 183.175 147.099 183.311 147.506 183.379C153.223 184.465 155.031 188.744 155.596 191.234C155.596 191.234 157.042 194.698 145.473 194.698C133.926 194.72 126.13 188.948 121.747 184.602Z" fill="#A9DDFA"/>
  <path d="M95.7162 178.354C94.1796 179.214 89.9087 180.368 78.1813 180.368C67.4932 180.368 62.861 178.738 61.2114 177.923C62.4769 171.834 66.3634 172.196 70.1145 172.264C71.5828 172.287 73.9104 172.446 75.1757 171.97C78.249 170.793 78.701 166.628 78.701 166.628L95.5802 168.755L95.7162 178.354Z" fill="#A9DDFA" stroke="#0F2C37" stroke-width="1.2" stroke-miterlimit="10" stroke-linecap="round" stroke-linejoin="round"/>
  <path d="M76.8707 175.275C76.8707 175.275 76.8707 173.306 75.1758 171.97" stroke="#0F2C37" stroke-width="1.2" stroke-miterlimit="10" stroke-linecap="round" stroke-linejoin="round"/>
  <path d="M79.2431 173.306C79.2431 173.306 79.2431 171.133 77.3682 170.227" stroke="#0F2C37" stroke-width="1.2" stroke-miterlimit="10" stroke-linecap="round" stroke-linejoin="round"/>
  <path d="M79.1528 135.886L78.7231 166.628C78.7231 166.628 86.7899 171.177 95.603 168.755C97.9983 157.256 101.727 138.467 101.727 138.467L79.1528 135.886Z" fill="#0F2C37" stroke="#0F2C37" stroke-width="1.2" stroke-miterlimit="10" stroke-linecap="round" stroke-linejoin="round"/>
  <path d="M196.247 129.05C196.247 132.355 194.801 133.6 190.349 136.158L171.414 145.507L77.4135 132.989C74.5885 132.672 72.5099 130.091 72.7129 127.149L78.8594 36.5098C79.0631 33.6122 81.413 31.3712 84.2373 31.4164L167.662 32.7973L190.801 35.5816C191.388 35.6496 191.953 35.7401 192.518 35.8985C195.388 36.7135 196.631 38.4339 196.631 41.1051L196.247 129.05Z" fill="#A9DDFA" stroke="#0F2C37" stroke-width="1.2" stroke-miterlimit="10" stroke-linecap="round" stroke-linejoin="round"/>
  <path d="M72.8033 135.253L50.5912 132.604C47.7667 132.287 45.6878 129.706 45.8912 126.764L51.4724 44.2744L172.475 50.2053L173.56 141.093C173.56 143.9 171.549 146.186 168.995 146.548C168.566 146.617 168.114 146.617 167.662 146.571L72.8033 135.253Z" fill="white"/>
  <path d="M163.166 136.067L142.151 133.464C140.457 133.26 139.169 131.812 139.191 130.091L139.417 105.734C139.44 103.764 141.157 102.226 143.123 102.429L164.093 104.557C165.765 104.738 167.075 106.119 167.097 107.817L166.939 132.627C166.962 134.71 165.2 136.317 163.166 136.067Z" fill="#A9DDFA"/>
  <path fill-rule="evenodd" clip-rule="evenodd" d="M135.078 102.723L134.694 130.771C134.672 131.744 133.835 132.491 132.887 132.355L108.166 129.412C107.33 129.322 106.72 128.597 106.742 127.76L107.488 100.256C107.511 99.3054 108.324 98.5808 109.274 98.6709L133.609 101.071C134.446 101.161 135.078 101.863 135.078 102.723Z" fill="#A9DDFA"/>
  <path d="M134.604 112.661L140.479 114.155L133.723 124.93L128.91 118.66C127.148 121.444 125.905 123.459 125.204 124.658C124.888 125.202 124.097 125.179 123.781 124.636C122.899 123.029 120.933 119.678 116.617 112.955C114.087 109.016 111.985 105.711 110.9 103.991L111.488 101.207L130.492 114.948L134.604 112.661Z" fill="#A9DDFA" stroke="#0F2C37" stroke-width="1.2" stroke-miterlimit="10" stroke-linecap="round" stroke-linejoin="round"/>
  <path d="M127.893 103.38L111.669 100.89C111.375 100.844 111.149 101.161 111.307 101.433C113.589 105.032 124.39 122.078 124.707 121.806C125.068 121.512 128.82 115.581 128.82 115.581L133.587 121.806L139.123 112.57C139.213 112.412 139.146 112.185 138.965 112.118L134.898 110.714" fill="white"/>
  <path d="M172.475 50.2055L51.4727 44.2746L52.015 36.1252C52.2184 33.2277 54.5684 30.9866 57.3929 31.0319L163.912 32.8202L167.12 32.8655C170.012 32.9108 172.34 35.333 172.34 38.321L172.475 50.2055Z" fill="white" stroke="#0F2C37" stroke-width="1.2" stroke-miterlimit="10" stroke-linecap="round" stroke-linejoin="round"/>
  <path d="M64.488 134.257L50.5687 132.604C47.7442 132.287 45.6653 129.706 45.8687 126.764L51.4726 44.2744" stroke="#0F2C37" stroke-width="1.2" stroke-miterlimit="10" stroke-linecap="round" stroke-linejoin="round"/>
  <path d="M167.007 98.2412L108.302 92.2422" stroke="#0F2C37" stroke-width="1.2" stroke-miterlimit="10" stroke-linecap="round" stroke-linejoin="round"/>
  <path d="M130.672 86.4695L108.302 84.4102" stroke="#0F2C37" stroke-width="1.2" stroke-miterlimit="10" stroke-linecap="round" stroke-linejoin="round"/>
  <path d="M167.007 89.8424L152.297 88.4617" stroke="#0F2C37" stroke-width="1.2" stroke-miterlimit="10" stroke-linecap="round" stroke-linejoin="round"/>
  <path d="M127.757 78.1848L108.935 76.6223" stroke="#0F2C37" stroke-width="1.2" stroke-miterlimit="10" stroke-linecap="round" stroke-linejoin="round"/>
  <path d="M167.007 81.4447L151.1 80.1086" stroke="#0F2C37" stroke-width="1.2" stroke-miterlimit="10" stroke-linecap="round" stroke-linejoin="round"/>
  <path d="M148.41 71.7106L121.769 69.7407" stroke="#A9DDFA" stroke-width="1.2" stroke-miterlimit="10" stroke-linecap="round" stroke-linejoin="round"/>
  <path d="M166.827 73.0914L154.15 72.1404" stroke="#A9DDFA" stroke-width="1.2" stroke-miterlimit="10" stroke-linecap="round" stroke-linejoin="round"/>
  <path d="M166.645 64.6931L125.272 61.9993" stroke="#A9DDFA" stroke-width="1.2" stroke-miterlimit="10" stroke-linecap="round" stroke-linejoin="round"/>
  <path d="M166.849 56.3172L127.757 54.144" stroke="#0F2C37" stroke-width="1.2" stroke-miterlimit="10" stroke-linecap="round" stroke-linejoin="round"/>
  <path d="M173.379 117.189L172.475 50.2053" stroke="#0F2C37" stroke-width="1.2" stroke-miterlimit="10" stroke-linecap="round" stroke-linejoin="round"/>
  <path d="M173.56 130.272V141.093C173.56 143.9 171.549 146.186 168.995 146.548C168.566 146.617 168.114 146.617 167.662 146.571L110.155 139.712" stroke="#0F2C37" stroke-width="1.2" stroke-miterlimit="10" stroke-linecap="round" stroke-linejoin="round"/>
  <path d="M166.037 44.3691C167.543 42.8722 167.532 40.414 166.011 38.8786C164.49 37.3432 162.037 37.312 160.531 38.8088C159.024 40.3057 159.037 42.7639 160.557 44.2993C162.077 45.8348 164.531 45.8659 166.037 44.3691Z" fill="#A9DDFA" stroke="#0F2C37" stroke-width="1.2" stroke-miterlimit="10" stroke-linecap="round" stroke-linejoin="round"/>
  <path d="M154.947 43.7831C156.453 42.2862 156.442 39.8281 154.921 38.2927C153.4 36.7573 150.947 36.726 149.441 38.2229C147.934 39.7198 147.947 42.178 149.467 43.7134C150.987 45.2488 153.441 45.28 154.947 43.7831Z" fill="#0F2C37" stroke="#0F2C37" stroke-width="1.2" stroke-miterlimit="10" stroke-linecap="round" stroke-linejoin="round"/>
  <path d="M144.286 43.1945C145.792 41.6976 145.78 39.2394 144.259 37.704C142.739 36.1686 140.286 36.1374 138.779 37.6343C137.273 39.1312 137.285 41.5894 138.805 43.1248C140.326 44.6602 142.78 44.6914 144.286 43.1945Z" fill="#0F2C37" stroke="#0F2C37" stroke-width="1.2" stroke-miterlimit="10" stroke-linecap="round" stroke-linejoin="round"/>
  <path d="M95.8737 38.9774C94.9704 41.0146 92.8911 42.1012 91.2414 41.4448L68.4424 35.5139L75.6505 18.355L94.6314 34.1557C96.145 35.3554 96.7776 36.9853 95.8737 38.9774Z" fill="#0F2C37" stroke="#0F2C37" stroke-width="1.2" stroke-miterlimit="10" stroke-linecap="round" stroke-linejoin="round"/>
  <path d="M93.2979 37.1891C91.9426 40.1999 88.8693 41.8523 86.4287 40.8563L52.5571 32.0279L63.2677 6.53857L91.4676 30.0132C93.6822 31.8241 94.6085 34.2463 93.2979 37.1891Z" fill="#A9DDFA" stroke="#0F2C37" stroke-width="1.2" stroke-miterlimit="10" stroke-linecap="round" stroke-linejoin="round"/>
  <path d="M97.501 52.4464L63.3354 50.6581C62.1604 50.5902 61.1436 51.4957 61.0532 52.6728L58.6354 86.7191C58.545 87.8958 59.4037 88.9146 60.5787 89.0502L88.8239 91.7446" stroke="#0F2C37" stroke-width="1.2" stroke-miterlimit="10" stroke-linecap="round" stroke-linejoin="round"/>
  <path d="M92.7104 91.9703L99.1053 92.5594C100.348 92.695 101.433 91.7439 101.501 90.4994L102.292 75.468" stroke="#0F2C37" stroke-width="1.2" stroke-miterlimit="10" stroke-linecap="round" stroke-linejoin="round"/>
  <path d="M123.306 54.7779C123.306 55.7966 123.261 56.8378 123.125 57.9018C121.995 67.0472 115.849 74.4267 109.364 74.359C102.879 74.3135 98.5405 66.8434 99.6475 57.6981C99.8512 56.0908 100.19 54.5515 100.664 53.1027C104.438 51.7898 114.222 49.345 123.306 54.7779Z" fill="#A9DDFA" stroke="#0F2C37" stroke-width="1.2" stroke-miterlimit="10" stroke-linecap="round" stroke-linejoin="round"/>
  <path d="M138.694 175.705C138.943 175.478 139.463 174.935 139.44 174.279C139.395 173.351 138.604 172.762 137.609 172.4C135.757 171.721 133.135 171.789 133.135 171.789C121.837 171.789 120.007 176.565 120.075 177.81C120.143 179.417 121.408 179.802 121.408 179.802" stroke="#0F2C37" stroke-width="1.2" stroke-miterlimit="10" stroke-linecap="round" stroke-linejoin="round"/>
  <path d="M139.417 174.03C139.236 173.261 137.338 172.649 133.135 172.649C121.837 172.649 120.007 176.588 120.075 177.833L116.091 140.502C124.971 141.566 130.492 142.147 139.439 143.234C139.439 143.384 139.439 143.074 139.439 143.234C139.439 152.118 139.417 174.03 139.417 174.03Z" fill="#0F2C37"/>
  <path d="M139.439 143.234C130.492 142.147 124.971 141.566 116.091 140.502L120.075 177.833C120.007 176.588 121.837 172.649 133.135 172.649C137.338 172.649 139.236 173.261 139.417 174.03C139.417 174.03 139.439 152.118 139.439 143.234ZM139.439 143.234C139.439 143.384 139.439 143.074 139.439 143.234Z" stroke="#0F2C37" stroke-width="1.2" stroke-miterlimit="10" stroke-linecap="round" stroke-linejoin="round"/>
  <path d="M155.618 191.28C155.799 192.095 155.867 192.955 155.844 193.792L155.731 196.781C155.709 197.323 155.505 197.822 155.144 198.161C155.144 198.184 155.122 198.184 155.099 198.207C153.494 199.723 151.438 200.492 149.292 200.606C131.169 201.421 122.266 188.993 121.95 188.631C121.905 188.269 121.837 186.662 121.769 184.692C122.425 185.439 131.418 195.943 149.02 194.652C155.709 194.155 155.573 191.845 155.596 191.302C155.618 191.257 155.618 191.257 155.618 191.28Z" fill="white" stroke="#0F2C37" stroke-width="1.2" stroke-miterlimit="10" stroke-linecap="round" stroke-linejoin="round"/>
  <path d="M121.521 174.211L135.938 169.48L137.361 172.423C137.632 174.121 138.356 175.66 139.282 177.018C140.095 178.241 141.067 179.304 142.038 180.21C142.49 180.64 142.92 181.002 143.349 181.364C144.253 182.111 145.225 182.677 146.287 183.062C146.694 183.198 147.123 183.334 147.529 183.402C153.246 184.488 155.054 188.767 155.619 191.257" stroke="#0F2C37" stroke-width="1.2" stroke-miterlimit="10" stroke-linecap="round" stroke-linejoin="round"/>
  <path d="M121.792 184.647C121.725 182.383 121.634 179.621 121.589 177.629C121.543 176.067 121.521 174.958 121.521 174.958" stroke="#0F2C37" stroke-width="1.2" stroke-miterlimit="10" stroke-linecap="round" stroke-linejoin="round"/>
  <path d="M121.793 184.648C121.769 184.624 121.769 184.624 121.769 184.624" stroke="#0F2C37" stroke-width="1.2" stroke-miterlimit="10" stroke-linecap="round" stroke-linejoin="round"/>
  <path d="M135.259 189.717C135.96 186.39 141.044 181.84 147.123 183.311" stroke="#0F2C37" stroke-width="1.2" stroke-miterlimit="10" stroke-linecap="round" stroke-linejoin="round"/>
  <path d="M133.406 184.602C133.406 184.602 135.598 179.327 142.038 180.187" stroke="#0F2C37" stroke-width="1.2" stroke-miterlimit="10" stroke-linecap="round" stroke-linejoin="round"/>
  <path d="M130.492 181.387C130.492 181.387 132.819 176.158 139.259 177.018" stroke="#0F2C37" stroke-width="1.2" stroke-miterlimit="10" stroke-linecap="round" stroke-linejoin="round"/>
  <path d="M121.588 177.607C121.588 177.607 126.04 180.007 126.447 188.654" stroke="#0F2C37" stroke-width="1.2" stroke-miterlimit="10" stroke-linecap="round" stroke-linejoin="round"/>
  <path d="M150.06 71.937C149.834 73.9062 149.156 75.6489 148.162 77.0982C146.106 80.0861 142.693 81.7387 139.078 81.0595C135.644 80.4257 132.864 77.8675 131.486 74.5399C131.486 74.5176 131.463 74.4945 131.463 74.4722C130.718 72.6162 130.401 70.5108 130.65 68.36C131.305 62.8141 135.508 58.8978 140.367 59.1016C140.796 59.1242 141.202 59.1695 141.632 59.2374C146.987 60.2108 150.76 65.8927 150.06 71.937Z" fill="#0F2C37" stroke="#0F2C37" stroke-width="1.2" stroke-miterlimit="10" stroke-linecap="round" stroke-linejoin="round"/>
  <path d="M81.6611 78.7732C77.5709 79.8375 73.9103 76.2835 73.1194 70.6919C73.0747 70.3523 73.0294 69.9903 73.0064 69.6277C72.5544 63.4253 75.7183 57.4718 80.0569 56.3399C81.4121 55.9777 82.7228 56.1362 83.8981 56.7248C86.474 57.9925 88.4173 61.2522 88.711 65.5079C89.1629 71.6876 85.9997 77.6189 81.6611 78.7732Z" fill="#0F2C37" stroke="#0F2C37" stroke-width="1.2" stroke-miterlimit="10" stroke-linecap="round" stroke-linejoin="round"/>
  <path d="M148.433 82.0784C148.433 95.9778 142.151 105.598 142.151 105.598C142.151 105.598 135.124 99.6674 128.526 97.7206C135.598 84.8854 131.87 75.5589 131.485 74.5177C131.463 74.4946 131.463 74.4499 131.463 74.4499C130.717 72.5932 130.401 70.4878 130.65 68.3377C131.305 62.7916 134.807 60.8221 135.824 60.1431C141.27 63.5386 146.67 68.9037 148.162 77.0752C148.433 78.6377 148.433 80.3126 148.433 82.0784Z" fill="#A9DDFA"/>
  <path d="M148.433 82.0784C148.433 95.9778 142.151 105.598 142.151 105.598C142.151 105.598 135.124 99.6674 128.526 97.7206C135.598 84.8854 131.87 75.5589 131.485 74.5177C131.463 74.4946 131.463 74.4499 131.463 74.4499C130.717 72.5932 130.401 70.4878 130.65 68.3377C131.305 62.7916 134.807 60.8221 135.824 60.1431C141.27 63.5386 146.67 68.9037 148.162 77.0752C148.433 78.6377 148.433 80.3126 148.433 82.0784Z" stroke="#0F2C37" stroke-width="1.2" stroke-miterlimit="10" stroke-linecap="round" stroke-linejoin="round"/>
  <path d="M142.558 105.214C142.083 106.028 141.021 106.39 139.621 106.345C137.993 106.277 135.937 105.643 133.904 104.467C130.468 102.474 128.322 99.6443 128.751 97.8337C128.796 97.6528 128.864 97.4941 128.932 97.3355C129.248 96.7926 129.813 96.453 130.581 96.2943C132.299 95.9324 134.965 96.5662 137.587 98.0601C139.824 99.3501 141.518 101.026 142.309 102.52C142.851 103.538 142.964 104.489 142.558 105.214Z" fill="#0F2C37" stroke="#0F2C37" stroke-width="1.2" stroke-miterlimit="10" stroke-linecap="round" stroke-linejoin="round"/>
  <path d="M142.038 102.067L141.157 104.195C141.157 104.195 140.389 105.281 139.213 106.707C137.7 108.541 135.53 110.895 133.52 112.117C129.949 114.291 128.458 113.091 128.458 113.091C128.187 113.159 127.916 113.182 127.644 113.204C125.272 113.249 126.266 112.321 126.266 112.321L126.334 112.163C126.244 112.185 126.175 112.208 126.085 112.231C124.006 112.751 124.752 111.031 124.752 111.031C123.442 111.303 122.312 110.804 124.752 108.563C126.582 106.888 127.486 105.032 127.916 103.719L124.752 103.086C125.701 101.003 127.192 99.3053 128.345 98.1733C129.339 97.2223 129.678 96.3167 129.678 96.3167L130.198 96.6562C131.915 96.2943 134.785 96.4075 137.383 97.9015C139.598 99.2368 141.27 100.573 142.038 102.067Z" fill="#A9DDFA"/>
  <path d="M128.933 97.3355C129.249 96.7926 129.814 96.453 130.582 96.2943C132.299 95.9324 134.965 96.5662 137.587 98.0601C139.824 99.3501 141.519 101.026 142.31 102.52C142.852 103.538 142.965 104.489 142.558 105.19" stroke="#0F2C37" stroke-width="1.2" stroke-miterlimit="10" stroke-linecap="round" stroke-linejoin="round"/>
  <path d="M84.7115 77.0527C69.4819 72.2312 62.251 48.7791 62.251 48.7791C62.251 48.7791 65.3015 47.0587 74.3854 43.2783C79.4243 56.1135 83.8981 56.6568 83.8981 56.6568C86.4741 57.8113 88.4174 60.8447 88.711 64.7835C89.163 70.5108 86.9714 74.7894 84.7115 77.0527Z" fill="#A9DDFA" stroke="#0F2C37" stroke-width="1.2" stroke-miterlimit="10" stroke-linecap="round" stroke-linejoin="round"/>
  <path d="M69.808 49.5216C73.1776 48.0664 75.2555 45.3698 74.4503 43.4984C73.6451 41.6271 70.2613 41.2897 66.8918 42.7449C63.5225 44.2 61.4441 46.8967 62.2495 48.7681C63.0548 50.6394 66.4389 50.9768 69.808 49.5216Z" fill="#0F2C37" stroke="#0F2C37" stroke-width="1.2" stroke-miterlimit="10" stroke-linecap="round" stroke-linejoin="round"/>
  <path d="M75.5145 36.4194C75.4015 37.1211 74.9048 39.6339 73.8879 39.4301L72.8032 42.8483C73.2999 42.9162 73.7972 42.9841 74.2715 43.0521C76.1248 43.3237 77.8421 42.0787 78.2034 40.2451L78.8814 36.9853C79.0397 36.691 78.4294 36.2609 77.5031 36.0798C76.5768 35.8761 75.6951 35.9667 75.5375 36.2609C75.5375 36.2609 75.5145 36.3289 75.5145 36.4194Z" fill="white" stroke="#0F2C37" stroke-width="1.2" stroke-miterlimit="10" stroke-linecap="round" stroke-linejoin="round"/>
  <path d="M58.6131 181.817H30.752" stroke="#0F2C37" stroke-width="1.2" stroke-miterlimit="10" stroke-linecap="round" stroke-linejoin="round"/>
  <path d="M99.4897 181.817H58.6128" stroke="#0F2C37" stroke-width="1.2" stroke-miterlimit="10" stroke-linecap="round" stroke-linejoin="round"/>
  <path d="M115.782 181.817H99.4897" stroke="#0F2C37" stroke-width="1.2" stroke-miterlimit="10" stroke-linecap="round" stroke-linejoin="round"/>
  <path d="M152.41 180.911H188.451" stroke="#0F2C37" stroke-width="1.2" stroke-miterlimit="10" stroke-linecap="round" stroke-linejoin="round"/>
  <path d="M101.049 99.1922L99.5799 126.764C99.5352 127.624 98.7666 128.28 97.9079 128.167L57.4155 123.323C56.6247 123.232 56.0371 122.531 56.1049 121.738L57.8448 94.8906C57.89 94.0304 58.6583 93.3966 59.4944 93.4874L99.7159 97.5844C100.484 97.6976 101.094 98.3998 101.049 99.1922Z" fill="#A9DDFA"/>
  <path d="M95.7836 181.817C95.7836 181.817 95.7836 184.602 78.0004 184.602C64.3071 184.602 60.895 181.817 60.895 181.817C60.895 180.301 61.008 179.01 61.2566 177.923C62.9061 178.738 67.5383 180.368 78.2264 180.368C89.9538 180.368 94.2247 179.191 95.7613 178.354L95.7836 181.817Z" fill="white" stroke="#0F2C37" stroke-width="1.2" stroke-miterlimit="10" stroke-linecap="round" stroke-linejoin="round"/>
  <path d="M31.5974 73.2393C30.8952 73.9429 30.4482 74.9664 30.4482 75.99V191.506C30.4482 192.722 31.4059 193.681 32.6188 193.681" stroke="white" stroke-width="2"/>
  <path d="M84.7567 108.473C87.0031 108.473 88.8239 106.649 88.8239 104.399C88.8239 102.148 87.0031 100.323 84.7567 100.323C82.5103 100.323 80.6895 102.148 80.6895 104.399C80.6895 106.649 82.5103 108.473 84.7567 108.473Z" fill="white"/>
  <path d="M64.3074 41.6258C64.3074 41.6258 63.7876 45.1119 64.1718 50.2279C64.1718 50.2279 69.6626 51.473 73.8428 46.4928C73.6399 45.6099 73.3909 44.8177 73.1649 44.1385C72.3062 41.6484 73.5945 39.9507 73.5945 39.9507L64.3074 41.6258Z" fill="#A9DDFA" stroke="#0F2C37" stroke-width="1.2" stroke-miterlimit="10" stroke-linecap="round" stroke-linejoin="round"/>
  <path d="M71.4253 43.6632C72.4646 44.365 73.7752 43.5727 74.0912 41.4901C74.4079 39.4075 73.5039 38.4341 71.9903 38.4341" fill="#A9DDFA"/>
  <path d="M71.4253 43.6632C72.4646 44.365 73.7752 43.5727 74.0912 41.4901C74.4079 39.4075 73.5039 38.4341 71.9903 38.4341" stroke="#0F2C37" stroke-width="1.2" stroke-miterlimit="10" stroke-linecap="round" stroke-linejoin="round"/>
  <path d="M69.6626 43.4369C70.9732 44.2066 72.5545 43.4143 72.8935 41.1959C73.2102 38.9775 72.0802 37.9361 70.2046 37.8909" fill="#A9DDFA"/>
  <path d="M69.6626 43.4369C70.9732 44.2066 72.5545 43.4143 72.8935 41.1959C73.2102 38.9775 72.0802 37.9361 70.2046 37.8909" stroke="#0F2C37" stroke-width="1.2" stroke-miterlimit="10" stroke-linecap="round" stroke-linejoin="round"/>
  <path d="M67.8999 43.1879C69.3689 43.9576 71.1085 43.1427 71.3798 40.9242C71.6511 38.7058 70.3628 37.6645 68.3066 37.6418" fill="#A9DDFA"/>
  <path d="M67.8999 43.1879C69.3689 43.9576 71.1085 43.1427 71.3798 40.9242C71.6511 38.7058 70.3628 37.6645 68.3066 37.6418" stroke="#0F2C37" stroke-width="1.2" stroke-miterlimit="10" stroke-linecap="round" stroke-linejoin="round"/>
  <path d="M68.3517 38.4341L67.945 42.1918C67.0186 42.056 66.1599 41.9428 65.4368 41.8522C64.3522 41.7165 61.3921 40.8562 62.6801 37.3928C63.3805 35.4686 64.3974 32.4579 64.3974 32.4579C64.4426 32.0957 65.3464 32.0504 66.2729 32.2994C67.0637 32.5032 67.719 32.888 67.8544 33.2276C67.8774 33.2728 67.832 33.4539 67.7867 33.5445C67.4931 34.382 66.2503 37.8908 66.5441 37.8908L68.3517 38.4341Z" fill="white" stroke="#0F2C37" stroke-width="1.2" stroke-miterlimit="10" stroke-linecap="round" stroke-linejoin="round"/>
  <path d="M66.6572 37.3928C66.6572 37.3928 67.4933 37.7097 67.1317 40.4715C66.951 42.0108 65.8211 41.8297 65.8211 41.8297C65.8211 41.8297 65.5952 43.1426 66.7702 43.3011C67.9453 43.4595 69.1883 42.9162 69.4589 40.6978C69.7526 38.4568 68.7363 37.3928 66.6572 37.3928Z" fill="#A9DDFA" stroke="#0F2C37" stroke-width="1.2" stroke-miterlimit="10" stroke-linecap="round" stroke-linejoin="round"/>
  <path d="M123.306 54.7779C114.2 49.3451 104.438 51.7899 100.688 53.1028C102.947 46.2211 108.076 41.1957 113.431 41.241C119.148 41.2863 123.216 47.1267 123.306 54.7779Z" fill="#0F2C37" stroke="#0F2C37" stroke-width="1.2" stroke-miterlimit="10" stroke-linecap="round" stroke-linejoin="round"/>
  <path d="M62.6124 3.88994C56.5114 0.879218 48.422 4.93125 44.5354 12.9447C40.6715 20.9583 42.4791 29.8999 48.5801 32.9106C54.6811 35.9213 62.7706 31.8693 66.6571 23.8558C70.5435 15.8423 68.7362 6.90065 62.6124 3.88994Z" fill="#A9DDFA" stroke="#0F2C37" stroke-width="1.2" stroke-miterlimit="10" stroke-linecap="round" stroke-linejoin="round"/>
  <path d="M59.4943 2.35064C53.3932 -0.660092 45.3038 3.39194 41.4173 11.4055C37.5533 19.419 39.361 28.3606 45.462 31.3713C51.5629 34.382 59.6524 30.33 63.539 22.3165C67.4029 14.303 65.5952 5.36136 59.4943 2.35064Z" fill="white" stroke="#0F2C37" stroke-width="1.2" stroke-miterlimit="10" stroke-linecap="round" stroke-linejoin="round"/>
  <path d="M61.8442 13.9861C61.8442 14.303 61.8216 14.6425 61.7991 14.9594C61.6635 16.8384 61.1437 18.8304 60.2173 20.7545C59.2231 22.8598 57.8673 24.6028 56.3307 25.9158C55.9918 26.2101 55.6528 26.4591 55.3139 26.7081C55.1106 26.8439 54.9298 26.9797 54.7264 27.0929C52.2408 28.6323 49.5067 28.9944 47.2018 27.8399C42.9312 25.6894 41.8014 19.0115 44.7163 12.9448C47.6312 6.90065 53.461 3.7315 57.7317 5.88202C59.9687 7.01385 61.3471 9.3681 61.7313 12.243C61.799 12.809 61.8442 13.3749 61.8442 13.9861Z" fill="#0F2C37" stroke="#0F2C37" stroke-width="1.2" stroke-miterlimit="10" stroke-linecap="round" stroke-linejoin="round"/>
  <path d="M117.68 54.5968C117.68 56.2267 115.058 57.5396 111.804 57.5396C108.573 57.5396 105.929 56.2267 105.929 54.5968C105.929 54.3252 105.998 54.0762 106.133 53.8272L108.167 47.7152L117.047 40.8335L117.68 54.5968Z" fill="#A9DDFA" stroke="#0F2C37" stroke-width="1.2" stroke-miterlimit="10" stroke-linecap="round" stroke-linejoin="round"/>
  <path d="M106.607 36.7138C106.607 36.7138 106.359 32.5939 108.754 30.6924L109.703 31.9827C109.726 31.96 107.488 34.9255 106.607 36.7138Z" fill="#0F2C37" stroke="#0F2C37" stroke-width="1.2" stroke-miterlimit="10" stroke-linecap="round" stroke-linejoin="round"/>
  <path d="M111.714 47.6021C109.658 48.8698 107.918 48.8245 106.675 48.168C103.715 46.606 102.947 40.8336 109.613 32.1183C112.957 27.7494 113.726 29.3793 116.685 30.9412C119.284 32.2994 119.736 36.3967 117.95 40.5846" fill="#A9DDFA"/>
  <path d="M116.256 30.6924C115.194 30.4886 114.132 31.0772 112.302 33.4767C106.607 40.9469 106.336 46.244 108.257 48.5983C107.669 48.553 107.149 48.3945 106.697 48.1682C103.738 46.6062 102.969 40.8337 109.635 32.1184C112.776 27.9532 113.635 29.221 116.256 30.6924Z" fill="white"/>
  <path d="M111.714 47.6021C109.658 48.8698 107.918 48.8245 106.675 48.168C103.715 46.606 102.947 40.8336 109.613 32.1183C112.957 27.7494 113.726 29.3793 116.685 30.9412C119.284 32.2994 119.736 36.3967 117.95 40.5846" stroke="#0F2C37" stroke-width="1.2" stroke-miterlimit="10" stroke-linecap="round" stroke-linejoin="round"/>
  <path d="M108.799 37.4834C107.759 36.8722 106.02 36.012 105.703 36.6005C105.387 37.1891 106.472 38.4568 107.828 39.4528" fill="white"/>
  <path d="M108.799 37.4834C107.759 36.8722 106.02 36.012 105.703 36.6005C105.387 37.1891 106.472 38.4568 107.828 39.4528" stroke="#0F2C37" stroke-width="1.2" stroke-miterlimit="10" stroke-linecap="round" stroke-linejoin="round"/>
  <path d="M109.183 40.4714C109.726 40.4714 110.336 40.6526 110.652 41.0827C110.991 41.558 110.901 42.2145 110.585 42.6672C109.907 43.6632 108.053 44.1386 107.262 42.9162C106.449 41.6712 107.873 40.4941 109.183 40.4714Z" fill="#0F2C37"/>
  <path d="M116.233 42.2371C116.233 42.2371 116.662 36.7589 116.165 36.2835C115.668 35.8081 111.94 35.4912 109.431 31.8693C106.494 27.6136 111.262 23.4709 111.262 23.4709C111.262 23.4709 112.12 27.8852 113.815 28.5191C113.521 27.6136 114.471 26.527 115.058 26.5496C115.645 29.9905 122.018 30.6922 120.571 37.6644C119.464 42.9614 116.639 44.0028 116.639 44.0028" fill="#0F2C37"/>
  <path d="M116.233 42.2371C116.233 42.2371 116.662 36.7589 116.165 36.2835C115.668 35.8081 111.94 35.4912 109.431 31.8693C106.494 27.6136 111.262 23.4709 111.262 23.4709C111.262 23.4709 112.12 27.8852 113.815 28.5191C113.521 27.6136 114.471 26.527 115.058 26.5496C115.645 29.9905 122.018 30.6922 120.571 37.6644C119.464 42.9614 116.639 44.0028 116.639 44.0028" stroke="#0F2C37" stroke-width="1.2" stroke-miterlimit="10" stroke-linecap="round" stroke-linejoin="round"/>
  <path d="M115.985 40.2904C116.346 40.1999 116.73 40.1999 117.092 40.3131C118.199 40.6752 118.741 41.9882 118.312 43.2559C117.905 44.5235 116.663 45.248 115.578 44.8631C115.126 44.7047 114.787 44.4103 114.539 44.0255" fill="#A9DDFA"/>
  <path d="M115.985 40.2904C116.346 40.1999 116.73 40.1999 117.092 40.3131C118.199 40.6752 118.741 41.9882 118.312 43.2559C117.905 44.5235 116.663 45.248 115.578 44.8631C115.126 44.7047 114.787 44.4103 114.539 44.0255" stroke="#0F2C37" stroke-width="1.2" stroke-miterlimit="10" stroke-linecap="round" stroke-linejoin="round"/>
  <path d="M129.881 96.4978C128.82 97.1546 126.401 99.6898 124.842 102.882" stroke="#0F2C37" stroke-width="1.2" stroke-miterlimit="10" stroke-linecap="round" stroke-linejoin="round"/>
  <path d="M127.893 103.38L111.94 100.935C111.533 100.867 111.239 101.32 111.465 101.66C114.019 105.689 124.413 122.078 124.729 121.806C125.091 121.512 128.842 115.581 128.842 115.581L133.135 121.195C133.361 121.49 133.835 121.466 134.017 121.15L139.056 112.774C139.213 112.503 139.078 112.163 138.807 112.072L135.237 110.85" stroke="#0F2C37" stroke-width="1.2" stroke-miterlimit="10" stroke-linecap="round" stroke-linejoin="round"/>
  <path d="M128.3 101.954C128.3 101.954 128.074 105.576 124.73 108.609C122.29 110.828 123.419 111.348 124.73 111.054C126.04 110.782 128.503 108.881 130.492 106.323" stroke="#0F2C37" stroke-width="1.2" stroke-miterlimit="10" stroke-linecap="round" stroke-linejoin="round"/>
  <path d="M124.729 111.076C124.729 111.076 123.984 112.797 126.062 112.276C128.141 111.756 130.717 109.809 132.593 107.998" stroke="#0F2C37" stroke-width="1.2" stroke-miterlimit="10" stroke-linecap="round" stroke-linejoin="round"/>
  <path d="M126.243 112.367C126.243 112.367 125.249 113.295 127.622 113.227C129.768 113.182 132.276 111.122 134.061 109.175" stroke="#0F2C37" stroke-width="1.2" stroke-miterlimit="10" stroke-linecap="round" stroke-linejoin="round"/>
  <path d="M128.458 113.136C128.458 113.136 129.949 114.336 133.519 112.141C137.089 109.967 142.197 102.678 142.197 102.678" stroke="#0F2C37" stroke-width="1.2" stroke-miterlimit="10" stroke-linecap="round" stroke-linejoin="round"/>
  <path d="M130.672 103.81C130.672 103.81 134.672 106.413 135.78 107.726" stroke="#0F2C37" stroke-width="1.2" stroke-miterlimit="10" stroke-linecap="round" stroke-linejoin="round"/>
  <path d="M146.558 111.416V126.198C146.558 127.307 147.732 128.009 148.704 127.511L159.731 121.761C160.657 121.263 160.793 119.996 159.98 119.316L148.953 110.284C147.981 109.492 146.558 110.171 146.558 111.416Z" fill="white"/>
  <mask id="mask0_3967_31379" style="mask-type:alpha" maskUnits="userSpaceOnUse" x="56" y="93" width="46" height="36">
    <path d="M101.049 99.1922L99.5799 126.764C99.5352 127.624 98.7666 128.28 97.9079 128.167L57.4155 123.323C56.6247 123.232 56.0371 122.531 56.1049 121.738L57.8448 94.8906C57.89 94.0304 58.6583 93.3966 59.4944 93.4874L99.7159 97.5844C100.484 97.6976 101.094 98.3998 101.049 99.1922Z" fill="#FFE84D"/>
  </mask>
  <g mask="url(#mask0_3967_31379)">
    <path d="M55.4043 118.365L70.7696 102.112L86.6549 128.19" stroke="#0F2C37" stroke-width="1.2" stroke-miterlimit="10" stroke-linecap="round" stroke-linejoin="round"/>
    <path d="M82.0679 120.675L90.9256 110.669L100.732 125.157" stroke="#0F2C37" stroke-width="1.2" stroke-miterlimit="10" stroke-linecap="round" stroke-linejoin="round"/>
  </g>
  <path d="M61.844 13.986C61.844 14.3029 61.8214 14.6425 61.7988 14.9594C61.6632 16.8382 61.1435 18.8303 60.217 20.7545C59.2228 22.8597 57.867 24.6028 56.3305 25.9157C55.9916 26.21 55.6526 26.459 55.3136 26.708C55.1103 26.8438 54.9295 26.9797 54.7262 27.0929C51.3141 26.2327 48.6703 23.2898 48.4218 19.6C48.1055 15.0046 51.5853 11.0206 56.2175 10.7036C58.2512 10.5678 60.1718 11.1563 61.7084 12.2429C61.7988 12.8089 61.844 13.3748 61.844 13.986Z" fill="#A9DDFA" stroke="#0F2C37" stroke-width="1.2" stroke-miterlimit="10" stroke-linecap="round" stroke-linejoin="round"/>
  <path d="M51.4496 18.6039C51.9693 19.2831 52.9636 19.532 53.7545 19.1699C55.2232 18.5134 55.4266 16.3402 56.8049 15.48C57.1439 15.2763 57.5506 15.1631 57.8896 14.9594C58.2511 14.7557 58.5675 14.4614 58.6126 14.0539C58.6578 13.6917 58.4319 13.3295 58.1381 13.1031C57.8444 12.8767 57.4828 12.7862 57.0987 12.741C55.517 12.5372 53.8674 13.1937 52.7828 14.3255C51.8338 15.3442 50.365 17.2457 51.4496 18.6039Z" fill="white"/>
  <path d="M87.5811 179.802C87.5811 179.802 89.05 172.242 95.6478 173.056" stroke="#0F2C37" stroke-width="1.2" stroke-miterlimit="10" stroke-linecap="round" stroke-linejoin="round"/>
</svg>
