<svg width="345" height="10" viewBox="0 0 345 10" fill="none" xmlns="http://www.w3.org/2000/svg">
<path d="M1.94727 1.19995C10.4749 1.19995 10.4749 8.73328 19.0025 8.73328C27.5301 8.73328 27.5301 1.19995 36.0578 1.19995C44.5854 1.19995 44.5854 8.73328 53.113 8.73328C61.6406 8.73328 61.6406 1.19995 70.1683 1.19995C78.6959 1.19995 78.6959 8.73328 87.2235 8.73328C95.7511 8.73328 95.7511 1.19995 104.279 1.19995C112.806 1.19995 112.806 8.73328 121.334 8.73328C129.862 8.73328 129.862 1.19995 138.389 1.19995C146.917 1.19995 146.917 8.73328 155.445 8.73328C163.972 8.73328 163.972 1.19995 172.5 1.19995C181.027 1.19995 181.027 8.73328 189.555 8.73328C198.083 8.73328 198.083 1.19995 206.61 1.19995C213.361 1.19995 215.138 8.73328 223.665 8.73328C232.193 8.73328 232.193 1.19995 240.721 1.19995C249.248 1.19995 249.248 8.73328 257.776 8.73328C266.304 8.73328 266.304 1.19995 274.831 1.19995C283.359 1.19995 283.359 8.73328 291.886 8.73328C300.414 8.73328 300.414 1.19995 308.942 1.19995C317.469 1.19995 317.469 8.73328 325.997 8.73328C334.525 8.73328 334.525 1.19995 343.052 1.19995" stroke="#E9F5F9" stroke-width="2" stroke-linecap="round"/>
</svg>
