<svg width="100" height="79" viewBox="0 0 100 79" fill="none" xmlns="http://www.w3.org/2000/svg">
  <path d="M79.9547 21.7236C79.669 16.1997 77.9097 10.7362 74.376 6.41969C72.7369 4.41238 70.6769 2.69182 68.3311 1.59007C65.865 0.427939 63.1884 -0.115397 60.4517 0.0204356C55.0684 0.261917 49.8506 2.66164 46.1364 6.6008C44.1214 8.74395 42.5576 11.2644 41.4749 13.9962C40.9486 15.3394 40.5577 16.7128 40.302 18.1315C40.2569 18.4032 40.2118 18.6598 40.1667 18.9314C35.0391 14.4489 28.0769 12.17 21.2952 12.6831C13.6263 13.2566 5.97244 17.3316 2.39362 24.3799C0.559101 27.987 -0.207787 32.1072 0.0478429 36.137C0.303473 40.1818 1.56658 44.1058 3.5214 47.6526C5.47622 51.1994 8.12274 54.3688 11.1301 57.0704C14.318 59.9229 17.8818 62.4131 21.611 64.4808C25.5056 66.6391 29.5806 68.4501 33.7609 69.9594C35.8511 70.714 37.9863 71.3781 40.1216 71.9516C42.2568 72.5402 44.4372 73.0836 46.6176 73.4458C46.9935 73.5062 47.3544 73.5665 47.7303 73.6118C48.1814 73.7175 48.6476 73.808 49.1137 73.8684C49.7002 73.9438 50.2866 74.0495 50.8731 73.974C51.0836 74.0193 51.3242 73.9589 51.4445 73.7326C52.1512 72.4648 52.5121 71.0159 52.9632 69.6425C53.4143 68.2841 53.8654 66.9258 54.3767 65.5977C55.3842 62.9414 56.5872 60.3756 58.0006 57.9306C59.354 55.5913 60.8577 53.5236 62.617 51.5012C63.4741 50.5202 64.4064 49.5995 65.3538 48.7091C65.8199 48.2714 66.3011 47.8488 66.7973 47.4413C67.0379 47.2451 67.2785 47.0489 67.5191 46.8527C67.8499 46.5961 67.8198 46.6112 68.1507 46.3697C69.3085 45.5095 70.5115 44.7095 71.7746 44.0153C72.4061 43.6682 73.0377 43.3361 73.6993 43.0343C73.8647 42.9588 76.6015 42.0985 76.827 41.525C77.4736 39.9403 77.624 38.7932 78.03 37.1331C78.436 35.4578 78.8119 33.7825 79.1277 32.0922C79.7593 28.6812 80.1352 25.1948 79.9547 21.7236ZM9.08511 41.3137C9.02496 41.7816 8.79941 42.1589 8.33326 42.3098C7.91222 42.4457 7.37089 42.2193 7.17541 41.842C6.97993 41.4646 6.96488 41.027 6.8897 40.6195C6.82955 40.1969 6.76941 39.7894 6.7243 39.3668C6.67918 39.0196 6.63407 38.6574 6.61903 38.3103C6.604 37.9179 6.63407 37.5557 6.70926 37.1633C6.75437 36.9218 7.01 36.7407 7.23555 36.7105C7.49118 36.6803 7.73177 36.7859 7.86711 37.0123C7.91222 37.0878 7.92726 37.1029 7.88215 37.0576C7.97237 37.1482 8.03252 37.2538 8.06259 37.3746C8.07763 37.4047 8.07763 37.4198 8.09266 37.45C8.07763 37.3897 8.07763 37.4047 8.12274 37.4802C8.228 37.6613 8.27311 37.8726 8.3483 38.0688C8.45355 38.4008 8.54378 38.7329 8.634 39.0649C8.70918 39.397 8.79941 39.729 8.87459 40.0761C8.9197 40.2572 8.94977 40.4232 8.99489 40.6044C9.02496 40.8157 9.11518 41.0722 9.08511 41.3137ZM20.0772 20.335C19.7163 20.4105 19.4005 20.6218 19.0547 20.7274C18.7389 20.8331 18.4081 20.8633 18.0773 20.9387C17.4006 21.1048 16.739 21.2859 16.0924 21.5273C15.0849 21.9047 13.9421 22.5687 13.0098 23.2932C12.9647 23.3385 12.9045 23.3686 12.8594 23.4139C12.8444 23.429 12.7692 23.4894 12.7692 23.4894C12.6639 23.5799 12.5436 23.6705 12.4384 23.7761C12.2128 23.9724 12.0023 24.1686 11.8068 24.3799C11.5963 24.6062 11.3858 24.8326 11.1753 25.0741C10.9497 25.3609 10.9647 25.3307 10.7693 25.6174C10.4084 26.1306 10.0926 26.6588 9.82192 27.2323C9.74674 27.3833 9.68659 27.5342 9.61141 27.6851C9.61141 27.7002 9.58133 27.7606 9.5663 27.7908C9.55126 27.836 9.53622 27.8662 9.52118 27.9115C9.41592 28.1832 9.31067 28.4548 9.23548 28.7416C9.05504 29.3151 8.9197 29.9037 8.81444 30.4923C8.81444 30.5225 8.79941 30.5527 8.79941 30.5678V30.5829C8.78437 30.6584 8.78437 30.7489 8.76933 30.8244C8.75429 30.9753 8.73926 31.1111 8.73926 31.2621C8.70918 31.7903 8.634 32.1525 8.28815 32.5751C7.77689 33.209 6.87466 32.877 6.4837 32.3487C6.16792 31.911 6.24311 31.3375 6.30326 30.8395C6.34837 30.4169 6.40852 29.9943 6.4837 29.5868C6.61903 28.8472 6.81452 28.1228 7.08518 27.4286C8.07763 24.8024 9.852 22.4178 12.2429 20.9236C13.4158 20.1992 14.709 19.671 16.0473 19.3691C16.7239 19.2182 17.4156 19.1125 18.1073 19.0823C18.4833 19.0673 18.8291 19.0824 19.19 19.1729C19.5208 19.2484 19.7915 19.4144 20.1073 19.505C20.4832 19.5804 20.5283 20.2445 20.0772 20.335Z" fill="#F9D278"/>
  <path fill-rule="evenodd" clip-rule="evenodd" d="M81.3341 74.3001L81.3341 65.7058C83.2941 65.7058 86.7469 65.5429 86.7471 57.6967L86.7471 53.6201L78.3798 53.6201L78.3798 36.7001L95.2998 36.7001L95.2998 53.6201L95.2998 57.6967C95.2998 63.8654 93.7034 68.4463 90.2156 71.3123C87.8029 73.2949 84.9445 74.3 81.3341 74.3001ZM60.6541 74.3001L60.6541 65.7058C62.6141 65.7058 66.0669 65.5429 66.0671 57.6967L66.0671 53.6201L57.6998 53.6201L57.6998 36.7001L74.6198 36.7001L74.6198 53.6201L74.6198 57.6967C74.6198 63.8654 73.0234 68.4463 69.5356 71.3123C67.1229 73.2949 64.2645 74.3001 60.6541 74.3001Z" fill="#0F2C37"/>
</svg>
