<svg width="120" height="17" viewBox="0 0 120 17" fill="none" xmlns="http://www.w3.org/2000/svg">
<path fill-rule="evenodd" clip-rule="evenodd" d="M31.9841 9.74044C26.8286 11.2352 20.8763 12.7227 15.1502 13.0941C10.2559 13.4111 5.52856 12.9187 1.65914 10.8237C1.11368 10.5287 0.430632 10.7315 0.135648 11.2774C-0.159786 11.8229 0.0434631 12.5059 0.588915 12.8014C4.80998 15.0861 9.9569 15.6838 15.2954 15.3375C21.1245 14.9598 27.1843 13.4624 32.4432 11.9461C33.0534 13.1822 34.317 14.3347 36.5429 15.1851C39.9617 16.4914 44.6297 16.4752 49.5474 15.7391C56.6796 14.672 64.3519 12.1273 69.2848 10.3192C69.4872 10.2454 69.7884 10.1281 70.1572 9.97338C70.2696 10.2216 70.3955 10.4662 70.5349 10.7063C71.7445 12.7991 73.8849 14.4912 76.0659 15.0956C89.8978 18.9277 106.041 14.3361 119.185 10.5993C119.778 10.4298 120.125 9.80745 119.958 9.21074C119.787 8.61403 119.167 8.26733 118.569 8.43685C105.794 12.0693 90.1091 16.6523 76.6639 12.9286C75.0091 12.4699 73.3993 11.1695 72.482 9.58126C72.3785 9.40409 72.2886 9.22287 72.2032 9.03896C74.0153 8.14096 76.1468 6.88908 77.2934 5.54906C78.4716 4.17531 78.7639 2.70893 77.7386 1.32395C76.8573 0.13996 75.5217 0.0392311 74.1322 0.653033C72.6348 1.31045 71.0925 2.84741 70.5933 3.56868C69.658 4.9159 69.3612 6.37735 69.5321 7.80236C69.0914 7.98852 68.7335 8.12701 68.5127 8.20795C63.6877 9.97606 56.1886 12.4718 49.2146 13.5154C44.7273 14.1873 40.4649 14.2767 37.3451 13.0851C36.0145 12.5765 35.1354 11.983 34.6583 11.2941C35.5999 11.0126 36.5078 10.7356 37.3752 10.4712C39.0907 9.94819 42.6624 9.08258 45.2143 7.53976C47.2437 6.31305 48.6197 4.64432 48.5397 2.55245C48.4987 1.47773 47.8768 0.760492 46.8871 0.358485C45.4081 -0.241827 42.8504 0.0486549 41.898 0.251007C39.0093 0.86346 35.1538 3.39872 33.2463 6.25549C32.485 7.39541 32.0322 8.58794 31.9841 9.74044ZM34.357 9.03805C35.1731 8.79253 35.9619 8.5515 36.7196 8.32037C38.3209 7.83203 41.6682 7.05634 44.051 5.61559C45.3128 4.85295 46.343 3.93922 46.2931 2.63832C46.289 2.53715 46.1888 2.50838 46.1002 2.46701C45.963 2.4036 45.8061 2.35997 45.6388 2.3258C44.507 2.09467 42.9866 2.31814 42.3643 2.45035C39.9406 2.96432 36.7164 5.10702 35.116 7.50422C34.7779 8.01055 34.5085 8.52632 34.357 9.03805ZM71.7535 6.76721C72.8102 6.22356 73.9164 5.56613 74.7888 4.8507C75.2519 4.47073 75.6432 4.07998 75.8905 3.67438C76.0973 3.33892 76.1783 2.99535 75.9309 2.66349C75.832 2.52904 75.6836 2.52636 75.5307 2.55154C75.3689 2.57852 75.2025 2.63606 75.0361 2.71026C73.9389 3.19321 72.8057 4.32144 72.4415 4.8507C72.0143 5.4645 71.803 6.11384 71.7535 6.76721Z" fill="#F9D278"/>
</svg>
