<svg xmlns="http://www.w3.org/2000/svg" width="568" height="404" fill="#f1e6d5" fill-rule="evenodd" xmlns:v="https://vecta.io/nano"><path d="M548.534 377.505a889.34 889.34 0 0 1-59.223-.263c-.804-.044-.804-1.359 0-1.315a889.34 889.34 0 0 0 59.223.263c.847-.044.847 1.271 0 1.315h0zm-83.143-7.219c-26.18 1.842-51.936-5.174-78.074-5.086-.805 0-.805-1.315 0-1.315 26.138-.088 51.894 6.884 78.074 5.086.805-.088.805 1.271 0 1.315h0zM177.668 145.721c1.694-2.324-.721-5.876-3.347-4.122-1.186.789-1.737 2.412-.89 3.683.763 1.14 2.33 1.622 3.516 1.009.721-.395 1.356.745.636 1.14-1.737.877-3.855.35-5.084-1.228-1.313-1.71-.847-4.122.763-5.437 1.567-1.272 3.77-1.272 5.126.307 1.228 1.447 1.44 3.771.296 5.349-.381.614-1.482-.044-1.016-.701h0zM85.126 288.788a91.1 91.1 0 0 0 8.515 13.417c.508.658-.381 1.579-.89.921-3.304-4.297-6.227-8.857-8.727-13.68-.381-.746.72-1.404 1.101-.658h0z"/><path d="M85.17 289.84c-1.525 4.166-3.135 8.331-4.787 12.453-.297.789-1.525.438-1.229-.351l4.787-12.452c.296-.79 1.525-.439 1.228.35h0z"/><path d="M85.465 290.454c.296 16.311 2.33 32.535 6.1 48.364.212.833-1.017 1.184-1.228.351-3.813-15.961-5.846-32.272-6.143-48.715-.042-.877 1.228-.877 1.271 0h0zm-7.328 26.791c-1.102 9.383-.847 18.854.805 28.15.127.833-1.059 1.184-1.229.35-1.652-9.427-1.949-18.985-.847-28.5.127-.833 1.398-.833 1.271 0h0z"/><path d="M83.008 335.485c-1.483 3.508-4.067 6.709-4.236 10.655-.042.658-.847.921-1.186.351l-4.49-8.024c-.424-.745.678-1.403 1.101-.658l4.49 8.024c-.381.132-.805.22-1.186.351.169-4.253 2.838-7.542 4.406-11.313.339-.833 1.44-.175 1.101.614h0zM74.13 176.851c.381 8.2.635 16.443.72 24.686 0 .833-1.271.833-1.271 0-.085-8.243-.339-16.443-.72-24.686-.042-.833 1.228-.833 1.271 0h0z"/><path d="M73.283 177.465c-9.786-1.403-19.741-2.763-29.484-.395-.805.176-1.144-1.052-.339-1.271 9.955-2.456 20.164-1.053 30.162.394.805.088.466 1.36-.339 1.272h0z"/><path d="M44.604 177.509c-.212 16.662.085 33.368.932 50.03.042.833-1.229.833-1.271 0-.847-16.662-1.144-33.324-.932-50.03 0-.833 1.271-.833 1.271 0h0zm29.187 45.557l-.678 6.358c-.212 1.008-.551 1.71-1.398 2.324-2.669 1.797-6.99.745-9.913.57l-12.497-.789c-1.864-.132-4.829-.658-3.685-3.333.339-.789 1.44-.088 1.101.658-.212.482 2.16 1.271 2.584 1.359.678.132 1.398.088 2.076.132l3.728.219 7.498.482c2.288.132 4.829.614 7.117.088 2.881-.702 2.499-5.525 2.796-8.024.085-.877 1.356-.877 1.271-.044h0zm7.71-1.622c3.728 5.656 7.583 11.225 11.48 16.749a.62.62 0 0 1 0 .658c-.678 1.096-1.822 1.535-3.05 1.14-1.822-.57-2.711-2.718-3.643-4.209-1.525-2.456-3.262-4.78-5.126-7.016-.805-.921-1.61-1.841-2.457-2.718-.974-1.009-2.626-3.157-4.024-3.377-.805-.131-.466-1.403.339-1.271 1.271.219 2.118 1.271 3.05 2.148 1.228 1.184 2.415 2.412 3.558 3.727a65.16 65.16 0 0 1 6.015 8.112c.508.789.932 1.754 1.567 2.456.678 1.008 1.398 1.096 2.245.263-.254-.351-.508-.702-.72-1.053l-3.389-4.867-6.863-10.172c-.551-.614.551-1.272 1.017-.57h0z"/><path d="M74.892 223.066c-5.253.132-10.294-3.157-12.37-8.155-1.864-4.517-.847-10.392 3.092-13.374 4.533-3.376 10.336-.833 13.853 2.85 2.076 2.193 3.813 4.955 4.236 8.024.169 1.228.127 2.456-.169 3.64a7.89 7.89 0 0 1-.763 1.973c-.085.175-2.033 3.025-1.186 2.981.805-.087.805 1.228 0 1.316-1.313.131-1.991-1.096-1.61-2.324.297-1.009 1.228-1.71 1.737-2.631.763-1.447.932-3.113.72-4.735-.72-5.613-6.482-11.488-12.073-11.401-5.507.044-8.388 6.402-7.244 11.401 1.271 5.437 6.439 9.251 11.777 9.076.847.044.847 1.359 0 1.359h0zm-6.015-40.953l.042-.044v.921c-.551-.658-4.363-.614-5.38-.746l-4.872-.394-4.914-.22c-.72 0-4.49.351-4.745-.35.297.789-.932 1.14-1.228.35-.042-.087-.042-.131-.085-.219-.085-.219 0-.482.169-.657.932-.965 2.627-.527 3.855-.527l6.948.263 6.524.57c1.101.132 3.855-.043 4.66.921.212.263.254.658 0 .921l-.042.044c-.635.701-1.525-.263-.932-.833h0zm.594 6.401c-4.279.614-8.43.439-12.709.264-.805-.044-.805-1.36 0-1.316 4.194.175 8.218.351 12.37-.219.805-.088 1.144 1.184.339 1.271h0zm2.88 4.955c.127.132.254.307.381.439.381.438.127 1.096-.466 1.14a168.84 168.84 0 0 1-22.071-1.053c-.805-.087-.805-1.403 0-1.315a168.67 168.67 0 0 0 22.071 1.052c-.169.395-.296.746-.466 1.14-.127-.131-.254-.307-.381-.438-.508-.658.381-1.579.932-.965h0zm-9.107 7.191a46.1 46.1 0 0 1-11.523-.526c-.805-.132-.466-1.403.339-1.272 3.728.614 7.456.79 11.184.483.847-.044.847 1.271 0 1.315h0zm10.335 17.758c3.431.176 6.354-2.937 5.253-6.533-.847-2.85-4.024-5.875-6.905-6.358-1.398-.219-2.923.132-3.982 1.14-1.567 1.491-1.144 3.683-.424 5.481 1.229 3.157 3.474 6.007 6.905 6.402.805.088.805 1.403 0 1.315-4.406-.482-7.54-4.384-8.6-8.681-1.017-4.034 1.864-7.367 5.888-7.016 3.728.351 7.837 4.253 8.515 8.068.72 4.253-2.627 7.717-6.651 7.498-.805-.044-.805-1.359 0-1.316h0z"/><path d="M72.858 206.097c1.694 3.771 3.262 7.586 4.66 11.444.297.79-.932 1.14-1.228.351-1.398-3.771-2.881-7.498-4.533-11.137-.339-.789.72-1.447 1.101-.658h0zm-1.948 3.771l3.262 7.103c.339.746-.763 1.447-1.101.658l-3.262-7.103c-.339-.746.72-1.447 1.101-.658h0zm219.914 109.679v12.014c0 .833-1.271.833-1.271 0v-12.014c0-.833 1.271-.833 1.271 0h0z"/><path d="M290.02 332.131h-10.76c-.805 0-.805-1.316 0-1.316h10.76c.805 0 .805 1.316 0 1.316h0z"/><path d="M278.497 330.728v-13.067c0-.833 1.271-.833 1.271 0v13.067c0 .833-1.271.833-1.271 0h0z"/><path d="M278.963 316.828h11.014c.805 0 .805 1.316 0 1.316h-11.014c-.805 0-.805-1.316 0-1.316h0zm6.482 16.004v13.374c0 .833-1.271.833-1.271 0v-13.374c0-.833 1.271-.833 1.271 0h0zm14.91 13.198a240.38 240.38 0 0 0-14.699-13.373c-.636-.526.254-1.447.889-.921 5.084 4.253 9.955 8.682 14.7 13.374.593.57-.296 1.49-.89.92h0z"/><path d="M284.089 333.096l-15.25 11.97c-.636.526-1.271-.614-.636-1.14l15.251-11.97c.635-.527 1.271.613.635 1.14h0zm21.182 14.513h-8.431c-.804 0-.804-1.316 0-1.316h8.431c.804 0 .804 1.316 0 1.316h0z"/><path d="M297.603 347.872v9.91c0 .833-1.271.833-1.271 0v-9.91c0-.877 1.271-.877 1.271 0h0zm8.599-.614v11.576c0 .833-1.271.833-1.271 0v-11.576c0-.877 1.271-.877 1.271 0h0z"/><path d="M305.694 359.623h-7.837c-.805 0-.805-1.315 0-1.315h7.837c.805 0 .805 1.315 0 1.315h0zm-16.352-12.058v11.4c0 .833-1.272.833-1.272 0v-11.4c0-.877 1.272-.877 1.272 0h0z"/><path d="M288.706 359.316h-7.71c-.805 0-.805-1.315 0-1.315h7.71c.805 0 .805 1.315 0 1.315h0zm-.423-11.093h-6.82c-.805 0-.805-1.316 0-1.316h6.82c.805 0 .805 1.316 0 1.316h0z"/><path d="M281.929 347.39v10.83c0 .833-1.272.833-1.272 0v-10.83c0-.833 1.272-.833 1.272 0h0zm-10.549 0l.212 8.55c0 .833-1.271.833-1.271 0l-.212-8.55c-.043-.833 1.229-.833 1.271 0h0z"/><path d="M270.829 347.697l-8.388-.965c-.805-.088-.805-1.403 0-1.315l8.388.964c.805.088.847 1.403 0 1.316h0z"/><path d="M262.866 346.337c.297 2.938.212 5.832-.297 8.726-.127.833-1.356.482-1.229-.351.467-2.806.551-5.568.255-8.375-.085-.833 1.186-.833 1.271 0h0z"/><path d="M270.406 357.08l-8.388-1.315c-.805-.132-.466-1.404.339-1.272l8.388 1.315c.804.132.466 1.36-.339 1.272h0zm15.207 2.631c1.568 2.455 2.923 5.042 4.152 7.673.339.746-.763 1.447-1.102.658-1.228-2.675-2.626-5.218-4.151-7.673-.424-.702.677-1.36 1.101-.658h0z"/><path d="M285.232 360.237c-1.567 2.192-2.923 4.472-4.067 6.884-.381.745-1.482.088-1.101-.658 1.186-2.411 2.542-4.735 4.067-6.884.466-.701 1.567-.044 1.101.658h0zm6.821 8.857l-2.711.044c-.424 0-.805.044-1.229.088-.762.044-.677-.22-.805.482-.296 1.666.043 3.815.17 5.525.085.833-1.186.833-1.271 0l-.169-3.99c0-.746-.212-1.973.169-2.675.381-.658 1.271-.57 1.906-.614l3.94-.131c.805-.044.805 1.271 0 1.271h0z"/><path d="M292.901 369.05l-.381 4.56c-.085 1.228.085 3.026-.381 4.21-.17.482-.382.657-.848.745-1.101.219-2.753-.351-3.855-.526-.804-.132-.466-1.359.339-1.272.763.088 1.949.57 2.669.395.805-.219.636-1.359.678-2.236l.508-5.876c.085-.833 1.356-.877 1.271 0h0zm-9.575-.175l.085 3.859c0 .307-.382 3.201-.254 3.288-.212-.044-.424-.131-.636-.175.042 0 .085-.044.169-.044-.169.219-.296.438-.466.614v-.176c.17.22.297.439.466.614-.042 0-.084 0-.127-.044-.805-.175-.466-1.446.339-1.271.043 0 .085 0 .127.044.297.044.467.351.467.614v.175c0 .263-.212.57-.467.614-1.101.219-1.101-.833-1.059-1.666.169-2.193.254-4.341.085-6.577-.043-.746 1.229-.702 1.271.131h0z"/><path d="M282.564 369.182c0-.307-2.711-.395-3.093-.351-1.059.176-.847.263-1.016 1.053-.127.526.042 1.271.084 1.797v3.245c0 .614-.423 2.455-.127 2.894l-.889-.219c.042 0 .084-.044.127-.044-.085.263-.212.482-.297.745 0-.044-.042-.087-.042-.131-.212-.833 1.017-1.184 1.228-.351 0 .044.043.088.043.131.084.264-.043.614-.297.746-.042 0-.084.044-.127.044-.339.131-.678.087-.889-.22-.297-.438-.17-.877-.128-1.403l.128-3.595-.085-3.596c-.043-.526-.17-1.227.169-1.71.72-1.008 3.008-.701 3.94-.57 1.059.132 2.457.263 2.542 1.579 0 .789-1.271.789-1.271-.044h0z"/><path d="M282.437 378.083c-1.271-.088-2.541.044-3.77.351-.805.219-1.144-1.053-.339-1.272 1.356-.394 2.711-.526 4.109-.438.848.087.848 1.403 0 1.359h0zm-15.928-20.74c1.017 2.324 1.907 4.736 2.711 7.147.255.789-.974 1.14-1.228.351l-2.584-6.84c-.339-.789.762-1.447 1.101-.658h0zm6.481 10.392c-2.118-.614-4.279-.921-6.524-.833-.805.044-.805-1.272 0-1.316 2.33-.087 4.618.22 6.863.877.805.22.466 1.491-.339 1.272h0z"/><path d="M273.033 367.121c.381 1.228.084 2.368-.043 3.596-.127 1.49-.127 2.937-.084 4.428.084 1.929-.382 2.149-2.246 1.973-1.27-.131-3.007.22-3.473-1.227-.424-1.404-.297-3.289-.424-4.78l-.424-4.779c-.084-.833 1.187-.833 1.271 0l.509 5.568c.084.746.042 1.667.211 2.412.255 1.228.382 1.315 1.61 1.447l1.102.132c.72.263.932.043.635-.702.17-.614-.085-1.578-.042-2.236.042-1.666.678-3.903.212-5.481-.297-.833.932-1.184 1.186-.351h0zm-8.304-8.55c-.974 1.534-1.821 3.157-2.626 4.823-.339.745-1.44.088-1.101-.658.762-1.666 1.652-3.244 2.626-4.823.466-.745 1.567-.088 1.101.658h0zm-1.441 6.752h-6.354c-.805 0-.805-1.315 0-1.315h.381c.805 0 .805 1.315 0 1.315h-.381c-.805 0-.805-1.315 0-1.315h6.354c.848 0 .848 1.315 0 1.315h0z"/><path d="M263.924 365.279l-.338 4.999c-.043 1.184.338 3.201-.17 4.297-.296.658-.678.745-1.356.745-1.567-.043-3.261-.438-4.829-.657-.254-.044-.466-.395-.466-.614l.127-8.901c0-.833 1.271-.833 1.271 0l-.127 8.901c-.169-.219-.297-.439-.466-.614l3.05.438c.339.044 1.313.351 1.61.088.212-.175 0-1.535 0-1.798l.381-6.796c.127-.921 1.398-.921 1.313-.088h0zm47.023 3.596c-2.203-2.105-4.448-4.078-6.863-5.876-.635-.482 0-1.622.635-1.14 2.5 1.886 4.872 3.903 7.117 6.095.593.57-.296 1.491-.889.921h0z"/><path d="M304.466 362.429c-1.271 1.886-2.33 3.859-3.178 5.92-.339.789-1.44.087-1.101-.658.89-2.105 1.949-4.078 3.177-5.919.466-.702 1.568-.044 1.102.657h0zm12.115 8.857l-3.389-.263c-.508-.043-1.059-.175-1.525-.131-.593-.219-.762-.176-.508.175.169.263.254.526.212.833.466 2.149.55 4.429.635 6.621l-1.101-.482c.042-.044.084-.088.127-.175.55-.614 1.44.307.889.92-.042.044-.084.088-.127.176-.381.438-1.059.087-1.101-.483-.043-1.885-.212-3.77-.466-5.612-.127-.789-.678-2.105-.212-2.894.381-.614 1.017-.482 1.61-.438l4.914.394c.847.132.847 1.447.042 1.359h0z"/><path d="M315.734 370.015h.17c.211 0 .423.131.55.307.678 1.184.636 3.245.848 4.604l.889 5.788c.042.35-.085.745-.424.789-1.991.438-3.854.351-5.761-.395-.762-.307-.423-1.578.339-1.271 1.695.657 3.304.789 5.084.394l-.424.79-1.186-9.735c-.89.132-.89-1.183-.085-1.271h0zm-11.523-.219l.042.043h-.889c.042 0 .042-.043.085-.043v.92c-.043-.043-.805-.043-.975-.043l-1.44-.088c-.89-.044-1.779 0-2.669.088l.466-1.14c.085.043.17.131.212.175.805.088.805 1.403 0 1.315-.466-.043-.805-.175-1.144-.57-.381-.438-.127-1.096.466-1.14 1.229-.087 2.457-.131 3.686-.044.593.044 1.821-.087 2.245.483.212.263.296.701 0 .921-.043 0-.043.043-.085.043-.254.22-.678.307-.889 0l-.043-.043c-.508-.57.381-1.491.932-.877h0z"/><path d="M304.719 370.102l.339 5.394c.043 1.008.593 3.595 0 4.516-.296.438-.593.614-1.144.57-.55 0-1.143-.395-1.652-.526-1.016-.307-2.075-.395-3.134-.395-.805 0-.805-1.315 0-1.315.932 0 1.863.087 2.795.307.424.087 1.229.57 1.61.482.297.219.424.175.339-.175.042-.351.042-.702 0-1.097l-.423-7.673c-.085-.964 1.186-.964 1.27-.088h0z"/><path d="M299.254 370.234c.339 2.938.509 5.876.466 8.857 0 .833-1.271.833-1.271 0 .042-2.981-.127-5.919-.466-8.857-.127-.833 1.144-.833 1.271 0h0zm177.232-90.403l-.17 21.354-.042 5.218c0 1.184-.254 2.675.212 3.815.72 1.929 3.134 1.403 4.024 3.025l.212-.921c-3.093 1.579-3.898 5.13-4.152 8.419-.211 3.157-.339 8.243 3.643 8.857l-.169-1.184c-6.015 2.85-3.601 13.988-1.059 18.46 1.864 3.289 4.617 5.963 7.456 8.331 1.61 1.359 3.219 2.631 4.871 3.946l2.881 2.324c.508.395 2.669 1.623 2.754 2.368.169-.219.296-.439.466-.614h.084c.085.307.17.614.212.921.043-.044.043-.088.085-.132.339-.745-.72-1.403-1.102-.657-.042.043-.042.087-.084.131-.17.351-.085.658.212.921s.508.263.889.131c.254-.087.509-.35.466-.613-.169-1.36-1.483-1.974-2.499-2.763l-4.491-3.639c-2.796-2.236-5.634-4.473-8.048-7.103-2.712-2.938-4.576-6.358-5.126-10.436-.466-3.332-.89-8.682 2.668-10.392.466-.219.382-1.14-.169-1.184-3.389-.526-2.923-5.524-2.669-8.199.254-2.631.975-5.393 3.474-6.665.296-.175.381-.614.212-.921-.89-1.578-3.05-1.271-3.855-2.674-.636-1.053-.212-3.508-.17-4.78l.043-5.218.169-20.038c.042-.921-1.228-.965-1.228-.088h0z"/><path d="M477.163 280.182c5.93.307 10.082 4.999 13.64 9.384 1.695 2.104 3.474 4.077 5.211 6.051 1.779 1.973 4.109 5.963.89 7.892-.551.351-.297 1.228.339 1.228 4.914.131 7.074 6.314 8.599 10.216a96.99 96.99 0 0 1 4.321 14.558c2.161 10.172 2.584 20.652 1.356 30.956-.085.833 1.186.833 1.271 0 1.313-11.488.635-23.152-2.119-34.333-1.27-5.261-2.965-10.567-5.253-15.478-1.609-3.508-4.109-7.147-8.175-7.235.127.395.211.833.338 1.228 6.185-3.683-1.482-10.699-3.982-13.724-4.448-5.35-8.938-11.707-16.394-12.102-.847 0-.847 1.315-.042 1.359h0z"/><path d="M498.429 295.967c2.965-10.874 7.116-21.353 12.454-31.219-.296.088-.593.175-.889.219l3.473 2.105c.593.351 1.144-.351.89-.921-3.05-6.314 6.1-10.348 9.193-14.119-.255.044-.509.088-.763.088l1.822 1.052c.296.176.677.088.889-.219 3.389-5.963 9.362-9.296 15.124-12.365-.297-.263-.636-.482-.932-.745-1.822 6.182 1.059 12.935 1.609 19.117.297 3.332.339 6.709.085 10.085-.127 1.666 0 4.165-.635 5.656 0 1.096-.593 1.71-1.822 1.93l-1.101.131-2.584.263c-.339.044-.678.263-.636.658.042.877.297 1.14.932 1.71.805.701 1.44.789 1.822 2.017.211.658.211 1.403.211 2.061-.042 3.551-.55 7.191-1.143 10.698-.593 3.421-1.441 6.797-2.457 10.085-.89 2.763-2.076 6.884-5.38 7.323-.424.044-.848.526-.551 1.008 2.457 3.903-1.186 8.638-2.965 12.015-1.949 3.595-3.728 7.278-5.38 11.005-3.305 7.41-6.016 15.084-8.219 22.932-.212.833 1.017 1.184 1.229.351 2.499-9.032 5.761-17.802 9.743-26.221 1.864-3.99 4.109-7.761 6.058-11.707 1.398-2.85 2.499-6.182.678-9.076-.17.351-.382.658-.551 1.008 2.499-.307 4.109-2.148 5.211-4.384 1.652-3.421 2.541-7.367 3.346-11.094.89-4.121 1.483-8.331 1.695-12.54.084-1.403.212-2.982-.382-4.297-.338-.877-2.499-2.236-2.541-2.85l-.636.657c2.373-.263 5.762.351 6.566-2.455 1.06-3.508 1.017-7.849.975-11.444 0-3.859-.381-7.673-1.059-11.444-.763-4.254-2.118-8.507-.848-12.804.17-.57-.465-1.008-.931-.745-5.974 3.201-12.116 6.665-15.59 12.847.297-.088.593-.175.89-.219l-1.822-1.052c-.212-.132-.593-.132-.762.087-3.559 4.341-12.921 8.463-9.405 15.698l.89-.921-3.474-2.105c-.297-.175-.72-.088-.89.219-5.337 9.998-9.574 20.565-12.581 31.527-.339.877.889 1.227 1.144.394h0zm-15.886-7.761c9.997 22.757 16.987 46.785 20.842 71.472.127.833 1.356.482 1.229-.351-3.898-24.774-10.93-48.934-20.97-71.778-.339-.746-1.44-.088-1.101.657h0zm52.743-38.498c-12.37 19.556-23.13 40.164-30.755 62.22-.297.789.932 1.14 1.228.35 7.583-21.967 18.301-42.444 30.628-61.912.424-.702-.678-1.359-1.101-.658h0z"/><path d="M478.222 312.235c6.863 1.929 12.751 6.314 16.691 12.452.466.702 1.567.044 1.101-.657-4.109-6.402-10.252-11.05-17.453-13.067-.805-.219-1.144 1.052-.339 1.272h0zm16.521-18.197c-2.33 3.99-3.897 8.331-4.533 12.979-.127.833 1.102 1.184 1.229.351a34.37 34.37 0 0 1 4.405-12.672c.424-.702-.677-1.36-1.101-.658h0zm13.176-24.642c2.075 2.368 3.516 5.086 4.617 8.024.508 1.315.932 2.675 1.313 3.99.382 1.272 1.271 3.157.763 4.429-.297.789.932 1.14 1.228.35.509-1.271 0-2.543-.381-3.771l-1.737-5.349c-1.186-3.157-2.753-6.095-4.956-8.638-.508-.614-1.398.307-.847.965h0zm14.361 5.042c5.295-6.314 12.158-10.786 19.953-12.979.805-.219.466-1.49-.339-1.271-7.964 2.236-15.081 6.84-20.504 13.286-.508.657.382 1.622.89.964h0zm-14.955 35.21c3.813-3.508 8.303-5.964 13.048-7.805 2.16-.833 4.321-1.491 6.524-2.149l3.643-1.008c.593-.132 3.092-1.184 3.558-.921-.084-.307-.169-.614-.211-.921-.043.044-.043.088-.085.132.296-.088.593-.176.889-.22-.042 0-.084-.043-.127-.043-.72-.395-1.355.745-.635 1.14.042 0 .085.043.127.043.297.176.678.088.89-.219.042-.044.042-.088.084-.131.17-.307.085-.702-.211-.921-.594-.351-1.229-.044-1.864.088l-4.321 1.096c-2.754.745-5.508 1.578-8.219 2.543-5.083 1.885-9.913 4.472-13.937 8.243-.635.658.254 1.623.847 1.053h0zm-21.604 54.107c9.616 2.412 19.402.614 29.018-.57 10.422-1.271 20.885-1.491 31.349-1.666.805 0 .805-1.315 0-1.315-10.21.175-20.419.394-30.544 1.578-9.785 1.184-19.741 3.157-29.484.702-.763-.22-1.101 1.052-.339 1.271h0zm30.332-3.727l51.344-2.806c.805-.044.805-1.359 0-1.315l-51.344 2.806c-.805.044-.805 1.359 0 1.315h0zM204.21 331.805c-1.568 1.842-2.923 3.859-4.067 6.051-.381.746.72 1.404 1.101.658 1.102-2.061 2.373-3.99 3.898-5.788.508-.614-.381-1.578-.932-.921h0z"/><path d="M204.168 332.332l3.813 5.481c.466.701 1.567.043 1.101-.658l-3.813-5.481c-.508-.702-1.609-.044-1.101.658h0zm-.085 2.587l1.101 46.478c0 .833 1.271.833 1.271 0l-1.102-46.478c-.042-.833-1.313-.877-1.27 0h0z"/><path d="M206.582 382.625h56.427c.805 0 .805-1.316 0-1.316h-56.427c-.804 0-.804 1.316 0 1.316h0z"/><path d="M260.552 381.309l3.897 1.579-.551-1.447c-.635 1.184-1.525 2.104-2.626 2.806-1.059.658-.085 2.368.974 1.71 1.398-.833 2.542-2.061 3.347-3.508.339-.614 0-1.228-.551-1.447l-3.897-1.578c-1.229-.483-1.737 1.403-.593 1.885h0zm-41.303-1.184c5.973-12.408 6.905-26.396 10.421-39.594.89-3.376 1.779-7.322 4.236-9.865 3.601-3.727 8.176-1.097 9.659 3.288 1.101 3.333 1.144 7.191 1.355 10.699l.593 11.312c.466 8.068 1.271 16.18 3.898 23.853.254.79 1.483.439 1.228-.35-2.753-8.068-3.516-16.618-3.939-25.125l-.678-12.54c-.254-3.333-.381-6.972-1.906-9.997-1.187-2.368-3.474-4.297-6.143-4.297-2.754 0-5.041 1.973-6.439 4.253-1.822 3.025-2.669 6.84-3.516 10.26-.932 3.815-1.695 7.673-2.457 11.532-1.695 8.857-3.432 17.758-7.371 25.914-.424.745.677 1.403 1.059.657h0zm5.803-54.37c-.847-1.272.89-2.982 1.907-1.579.974 1.316-.848 2.631-1.864 1.623-.593-.571-1.483.35-.89.92.89.877 2.33.965 3.347.22 1.144-.834 1.271-2.412.423-3.552s-2.414-1.447-3.473-.482c-.932.877-1.229 2.411-.509 3.507.424.702 1.525.044 1.059-.657h0zm9.362-5.832c-.678-1.008.805-1.929 1.441-.877.677 1.14-1.229 2.412-1.864 1.14-.382-.745-1.441-.088-1.102.658.551 1.184 2.034 1.491 3.093.833 1.101-.658 1.609-2.149.932-3.332-.593-1.009-1.991-1.535-3.008-.877-.974.657-1.313 2.06-.678 3.069.551.745 1.652.088 1.186-.614h0zm-3.686-9.646c-.339-1.009.721-2.061 1.568-1.228s-.127 2.017-1.102 1.666c-.762-.263-1.101 1.009-.339 1.272 2.203.745 4.067-2.149 2.33-3.859-.762-.789-1.948-.921-2.838-.263-.805.614-1.228 1.754-.847 2.762.296.79 1.525.483 1.228-.35h0zm16.183 11.707c-.127-.088.043.044.085.131v.132c0 .044 0 .044 0-.044v.044c.085-.044 0 0 0 0-.042 0 .127 0 .17 0 .127 0 .254.044.381.088-.17-.22-.297-.439-.466-.614v1.052c.169-.219.296-.438.466-.614-.339.132-.678.176-1.017.088-.762-.263-1.101 1.008-.339 1.271.551.176 1.186.176 1.695-.087.254-.132.466-.307.466-.614v-1.052c0-.307-.212-.57-.466-.614-.678-.176-1.483-.263-1.907.438-.338.526-.296 1.359.339 1.623.297.175.678.087.89-.22.127-.394.042-.833-.297-1.008h0zm37.583-240.455l1.567 18.416c.085.833 1.186.833 1.271 0 0-.132.042-.307.042-.438.085-.833-1.186-.833-1.27 0 0 .132-.043.307-.043.438h1.271l-1.567-18.416c-.085-.833-1.356-.877-1.271 0h0z"/><path d="M285.468 82.011c1.779-.395 4.871-.965 6.227.57 1.228 1.359.932 4.034 1.101 5.876l.89 11.006c.085.833 1.356.833 1.271 0-.424-5.262-.466-10.787-1.313-16.004-.636-4.078-5.55-3.332-8.515-2.719-.805.175-.466 1.447.339 1.272h0zm10.844-24.73c1.356 14.031 1.822 28.106 1.398 42.225-.042.833 1.228.833 1.271 0a334.87 334.87 0 0 0-1.398-42.225c-.085-.833-1.356-.877-1.271 0h0z"/><path d="M297.838 57.281c1.737.263 3.855.263 5.464.877 2.161.789 1.822 4.823 2.034 6.884.381 3.99.635 7.98.889 11.97.466 8.287.636 16.574.805 24.861 0 .833 1.271.833 1.271 0-.212-9.559-.423-19.161-1.059-28.72-.296-4.472-.508-8.989-1.186-13.417-.593-3.771-4.956-3.289-7.879-3.771-.805-.044-1.144 1.184-.339 1.316h0zm10.759-8.243l4.364 49.942c.085.833 1.355.833 1.271 0l-4.364-49.942c-.042-.833-1.313-.833-1.271 0h0z"/><path d="M309.404 49.696c2.033-.395 4.109-.526 6.185-.307 1.736.175 2.965.526 3.05 2.455l.042 2.017.424 9.866 1.821 37.708c.043.834 1.313.834 1.271 0l-1.949-40.734-.338-8.506c-.043-1.272-.043-2.543-1.187-3.376-1.059-.745-2.711-.789-3.939-.833-1.907-.132-3.813.044-5.719.438-.805.175-.466 1.447.339 1.272h0zm-34.019-4.867l-4.151 8.55c-.382.745.72 1.403 1.101.658l4.152-8.55c.338-.745-.763-1.447-1.102-.658h0z"/><path d="M275.555 46.144c.593 2.543 1.906 4.779 3.855 6.446.635.526 1.525-.395.889-.921-1.779-1.535-2.965-3.508-3.516-5.832-.212-.877-1.44-.526-1.228.307h0z"/><path d="M274.665 46.758a206.08 206.08 0 0 0 7.202 56.87c.212.833 1.44.482 1.229-.351a204.93 204.93 0 0 1-7.16-56.519c0-.833-1.271-.833-1.271 0h0z"/><path d="M283.392 104.768c9.912-.965 19.868-1.491 29.823-1.535 9.277-.044 19.317-.438 27.874 3.903.72.35 1.356-.746.636-1.14-8.303-4.21-17.793-4.122-26.858-4.078-10.506 0-21.012.526-31.475 1.534-.805.088-.805 1.404 0 1.316h0z"/><path d="M335.878 102.619c2.288 1.447 4.491 3.026 6.524 4.78l.127-1.053-5.168 4.078c-.635.526 0 1.666.635 1.14l5.169-4.078c.296-.219.466-.745.127-1.052-2.161-1.842-4.406-3.508-6.778-4.955-.72-.394-1.356.702-.636 1.14h0zm-57.273-33.631l1.906 2.368c.255.307.805.219 1.017-.132l10.167-20.696c.89-1.754 2.118-.307 3.389.175.805.307 1.652.219 2.457-.088 2.034-.789 3.389-2.982 4.321-4.911 1.525-3.288 2.881-6.709 4.364-10.041.381-.921.804-1.842 1.186-2.719.211-.526.466-1.622.889-2.017 1.314-1.228 4.533 1.578 5.634 2.28 1.822 1.14 4.449 3.683 6.821 3.026 1.779-.482 2.626-2.499 3.135-4.166 2.457-7.498 5.592-14.294 10.421-20.477.381-.482.042-1.315-.636-1.096-2.202.745-4.193 1.885-6.015 3.332-.593.482.169 1.359.762 1.052l4.999-2.543c-.296-.132-.635-.263-.932-.395l1.483 7.893c.169.833 1.398.482 1.228-.351l-1.482-7.892c-.085-.438-.593-.57-.932-.395l-4.999 2.543.763 1.052c1.652-1.359 3.431-2.324 5.464-3.025-.212-.351-.423-.745-.635-1.096-3.686 4.736-6.736 9.953-8.939 15.61-.593 1.491-1.101 3.026-1.567 4.56-.381 1.228-.974 3.858-2.542 4.122-1.779.307-4.067-1.798-5.507-2.718s-2.838-1.929-4.321-2.762c-1.694-.921-2.753-.57-3.601 1.14-1.609 3.289-2.923 6.796-4.405 10.173-1.102 2.543-2.5 7.673-5.508 8.506-2.033.57-3.897-2.587-5.718-.745-1.06 1.052-1.61 3.026-2.246 4.341l-2.88 5.876-5.762 11.707 1.017-.132-1.906-2.368c-.551-.57-1.441.351-.89 1.008h0zM69.211 62.339c4.151-2.368 5.931-8.375 3.304-12.628-2.669-4.341-9.15-5.13-12.921-1.929-3.855 3.332-3.897 10.173-.212 13.637 3.813 3.639 10.209 2.675 13.344-1.359.508-.658 1.398.263.89.921-2.923 3.683-8.134 4.999-12.412 3.157-4.151-1.798-6.312-6.446-5.761-10.962.551-4.648 3.897-8.112 8.388-8.638 4.279-.526 8.854 1.666 10.464 5.963 1.779 4.736-.212 10.48-4.49 12.891-.678.482-1.313-.658-.593-1.052h0zm-18.385 8.068c1.779-3.42-2.796-7.191-5.084-3.508-2.033 3.245 2.965 5.7 4.575 2.675.381-.745 1.483-.088 1.101.658-1.017 1.929-3.389 2.456-5.253 1.622-2.203-.965-2.754-3.596-1.525-5.612 1.271-2.105 3.897-2.938 5.931-1.447 1.906 1.403 2.499 4.165 1.398 6.314-.466.702-1.567.044-1.144-.702h0z"/></svg>