<svg xmlns="http://www.w3.org/2000/svg" width="568" height="404" fill="#d2e8ee" fill-rule="evenodd" xmlns:v="https://vecta.io/nano"><path d="M548.534 377.505a889.34 889.34 0 0 1-59.223-.263c-.805-.044-.805-1.359 0-1.315a889.34 889.34 0 0 0 59.223.263c.847-.044.847 1.271 0 1.315h0zm-83.143-7.219c-26.18 1.842-51.936-5.174-78.074-5.086-.805 0-.805-1.315 0-1.315 26.138-.088 51.894 6.884 78.074 5.086.805-.088.805 1.271 0 1.315h0zM177.668 145.721c1.694-2.324-.721-5.876-3.347-4.122-1.186.789-1.737 2.412-.89 3.683.763 1.14 2.33 1.622 3.516 1.009.721-.395 1.356.745.636 1.14-1.737.877-3.855.35-5.084-1.228-1.313-1.71-.847-4.122.763-5.437 1.567-1.272 3.77-1.272 5.126.307 1.228 1.447 1.44 3.771.296 5.349-.381.614-1.482-.044-1.016-.701h0zm7.589 88.045c2.457 4.736 5.295 9.208 8.515 13.417.508.658-.382 1.579-.89.921-3.304-4.297-6.227-8.857-8.727-13.68-.381-.746.72-1.403 1.102-.658h0z"/><path d="M185.3 234.819a441.64 441.64 0 0 1-4.787 12.452c-.297.79-1.525.439-1.229-.351l4.787-12.452c.297-.789 1.525-.439 1.229.351h0z"/><path d="M185.595 235.432c.296 16.312 2.33 32.535 6.1 48.364.212.833-1.017 1.184-1.229.351-3.812-15.961-5.846-32.272-6.142-48.715-.042-.877 1.228-.877 1.271 0h0zm-7.327 26.791c-1.102 9.383-.848 18.854.804 28.15.127.833-1.059 1.184-1.228.351-1.652-9.427-1.949-18.986-.847-28.501.127-.833 1.398-.833 1.271 0h0z"/><path d="M183.138 280.464c-1.482 3.507-4.066 6.708-4.236 10.654-.042.658-.847.921-1.186.351l-4.49-8.024c-.424-.745.677-1.403 1.101-.658l4.49 8.025c-.381.131-.804.219-1.186.35.17-4.253 2.839-7.541 4.406-11.312.339-.833 1.44-.176 1.101.614h0zm293.347-.633l-.169 21.354-.042 5.218c0 1.184-.255 2.675.211 3.815.721 1.929 3.135 1.403 4.025 3.025l.212-.921c-3.093 1.579-3.898 5.13-4.152 8.419-.212 3.157-.339 8.243 3.643 8.857l-.169-1.184c-6.016 2.85-3.601 13.988-1.059 18.46 1.864 3.289 4.617 5.963 7.456 8.331 1.609 1.359 3.219 2.631 4.871 3.946l2.881 2.324c.508.395 2.669 1.623 2.753 2.368.17-.219.297-.439.466-.614h.085c.085.307.17.614.212.921.042-.044.042-.088.085-.132.339-.745-.72-1.403-1.102-.657-.042.043-.042.087-.084.131-.17.351-.085.658.211.921s.509.263.89.131c.254-.087.508-.35.466-.613-.17-1.36-1.483-1.974-2.499-2.763l-4.491-3.639c-2.796-2.236-5.634-4.473-8.049-7.103-2.711-2.938-4.575-6.358-5.126-10.436-.466-3.332-.889-8.682 2.669-10.392.466-.219.381-1.14-.169-1.184-3.389-.526-2.923-5.524-2.669-8.199.254-2.631.974-5.393 3.474-6.665.296-.175.381-.614.211-.921-.889-1.578-3.05-1.271-3.855-2.674-.635-1.053-.211-3.508-.169-4.78l.042-5.218.17-20.038c.042-.921-1.229-.965-1.229-.088h0z"/><path d="M477.163 280.182c5.93.307 10.082 4.999 13.64 9.384 1.695 2.104 3.474 4.077 5.211 6.051 1.779 1.973 4.109 5.963.89 7.892-.551.351-.297 1.228.339 1.228 4.914.131 7.074 6.314 8.599 10.216a96.99 96.99 0 0 1 4.321 14.558c2.161 10.172 2.584 20.652 1.356 30.956-.085.833 1.186.833 1.271 0 1.313-11.488.635-23.152-2.119-34.333-1.27-5.261-2.965-10.567-5.253-15.478-1.609-3.508-4.109-7.147-8.175-7.235.127.395.211.833.338 1.228 6.185-3.683-1.482-10.699-3.982-13.724-4.448-5.35-8.938-11.707-16.394-12.102-.847 0-.847 1.315-.042 1.359h0z"/><path d="M498.428 295.967c2.966-10.874 7.117-21.353 12.455-31.219-.297.088-.593.175-.89.219l3.474 2.105c.593.351 1.144-.351.89-.921-3.05-6.314 6.1-10.348 9.192-14.119-.254.044-.508.088-.762.088l1.821 1.052c.297.176.678.088.89-.219 3.389-5.963 9.362-9.296 15.123-12.365-.296-.263-.635-.482-.932-.745-1.821 6.182 1.06 12.935 1.61 19.117.297 3.332.339 6.709.085 10.085-.127 1.666 0 4.165-.635 5.656 0 1.096-.594 1.71-1.822 1.93l-1.101.131-2.585.263c-.338.044-.677.263-.635.658.042.877.297 1.14.932 1.71.805.701 1.44.789 1.822 2.017.211.658.211 1.403.211 2.061-.042 3.551-.55 7.191-1.143 10.698-.593 3.421-1.441 6.797-2.457 10.085-.89 2.763-2.076 6.884-5.38 7.323-.424.044-.848.526-.551 1.008 2.457 3.903-1.186 8.638-2.966 12.015-1.948 3.595-3.727 7.278-5.38 11.005-3.304 7.41-6.015 15.084-8.218 22.932-.212.833 1.017 1.184 1.229.351 2.499-9.032 5.761-17.802 9.743-26.221 1.864-3.99 4.109-7.761 6.058-11.707 1.398-2.85 2.499-6.182.678-9.076-.17.351-.382.658-.551 1.008 2.499-.307 4.109-2.148 5.21-4.384 1.653-3.421 2.542-7.367 3.347-11.094.89-4.121 1.483-8.331 1.695-12.54.084-1.403.211-2.982-.382-4.297-.339-.877-2.499-2.236-2.541-2.85l-.636.657c2.372-.263 5.761.351 6.566-2.455 1.059-3.508 1.017-7.849.975-11.444 0-3.859-.382-7.673-1.059-11.444-.763-4.254-2.119-8.507-.848-12.804.17-.57-.466-1.008-.932-.745-5.973 3.201-12.115 6.665-15.589 12.847.297-.088.593-.175.89-.219l-1.822-1.052c-.212-.132-.593-.132-.763.087-3.558 4.341-12.92 8.463-9.404 15.698l.89-.921-3.474-2.105c-.297-.175-.72-.088-.89.219-5.337 9.998-9.574 20.565-12.581 31.527-.339.877.889 1.227 1.143.394h0zm-15.885-7.761c9.997 22.757 16.987 46.785 20.842 71.472.127.833 1.356.482 1.228-.351-3.897-24.774-10.929-48.934-20.969-71.778-.339-.746-1.44-.088-1.101.657h0zm52.743-38.498c-12.37 19.556-23.13 40.164-30.756 62.22-.296.789.932 1.14 1.229.35 7.583-21.967 18.301-42.444 30.628-61.912.424-.702-.678-1.359-1.101-.658h0z"/><path d="M478.222 312.235c6.863 1.929 12.751 6.314 16.691 12.452.466.702 1.567.044 1.101-.657-4.109-6.402-10.252-11.05-17.453-13.067-.805-.219-1.144 1.052-.339 1.272h0zm16.521-18.197c-2.33 3.99-3.897 8.331-4.533 12.979-.127.833 1.102 1.184 1.229.351a34.37 34.37 0 0 1 4.405-12.672c.424-.702-.677-1.36-1.101-.658h0zm13.176-24.642c2.075 2.368 3.516 5.086 4.617 8.024.508 1.315.932 2.675 1.313 3.99.382 1.272 1.271 3.157.763 4.429-.297.789.932 1.14 1.228.35.509-1.271 0-2.543-.381-3.771l-1.737-5.349c-1.186-3.157-2.753-6.095-4.956-8.638-.509-.614-1.398.307-.847.965h0zm14.361 5.042c5.295-6.314 12.158-10.786 19.953-12.979.804-.219.466-1.49-.339-1.271-7.965 2.236-15.081 6.84-20.504 13.286-.508.657.381 1.622.89.964h0zm-14.955 35.21c3.813-3.508 8.303-5.964 13.048-7.805 2.16-.833 4.321-1.491 6.524-2.149l3.643-1.008c.593-.132 3.092-1.184 3.558-.921-.085-.307-.169-.614-.212-.921-.042.044-.042.088-.084.132.296-.088.593-.176.889-.22-.042 0-.084-.043-.127-.043-.72-.395-1.355.745-.635 1.14.042 0 .085.043.127.043.296.176.678.088.889-.219.043-.044.043-.088.085-.131.17-.307.085-.702-.212-.921-.593-.351-1.228-.044-1.864.088l-4.321 1.096c-2.753.745-5.507 1.578-8.218 2.543-5.083 1.885-9.913 4.472-13.937 8.243-.636.658.254 1.623.847 1.053h0zm-21.604 54.107c9.616 2.412 19.402.614 29.018-.57 10.421-1.271 20.885-1.491 31.349-1.666.804 0 .804-1.315 0-1.315-10.21.175-20.419.394-30.544 1.578-9.786 1.184-19.741 3.157-29.484.702-.763-.22-1.102 1.052-.339 1.271h0zm30.332-3.727l51.343-2.806c.805-.044.805-1.359 0-1.315l-51.343 2.806c-.805.044-.805 1.359 0 1.315h0zM45.146 301.822c-1.567 1.841-2.923 3.858-4.067 6.051-.381.745.72 1.403 1.101.657 1.101-2.061 2.372-3.99 3.897-5.788.508-.613-.381-1.578-.932-.92h0z"/><path d="M45.104 302.348l3.813 5.481c.466.701 1.567.044 1.101-.658l-3.813-5.481c-.508-.701-1.61-.044-1.101.658h0zm-.085 2.587l1.101 46.478c0 .833 1.271.833 1.271 0l-1.102-46.478c-.042-.833-1.313-.877-1.271 0h0z"/><path d="M47.519 352.641h56.426c.805 0 .805-1.316 0-1.316H47.519c-.805 0-.805 1.316 0 1.316h0z"/><path d="M101.487 351.325l3.898 1.579-.551-1.447c-.635 1.184-1.525 2.104-2.626 2.806-1.059.658-.085 2.368.974 1.71 1.398-.833 2.542-2.061 3.347-3.508.339-.614 0-1.227-.551-1.447l-3.897-1.578c-1.229-.482-1.737 1.403-.594 1.885h0zm-41.302-1.184c5.973-12.408 6.905-26.396 10.421-39.594.89-3.376 1.779-7.322 4.236-9.865 3.601-3.727 8.176-1.097 9.659 3.288 1.101 3.333 1.144 7.191 1.356 10.699l.593 11.313c.466 8.068 1.271 16.179 3.897 23.853.254.789 1.483.438 1.228-.351-2.754-8.068-3.516-16.618-3.94-25.125l-.678-12.54c-.254-3.333-.381-6.972-1.906-9.997-1.186-2.368-3.474-4.297-6.142-4.297-2.754 0-5.041 1.973-6.439 4.253-1.822 3.025-2.669 6.84-3.516 10.26-.932 3.815-1.695 7.673-2.457 11.532-1.694 8.857-3.431 17.758-7.371 25.914-.424.745.678 1.403 1.059.657h0zm5.803-54.37c-.847-1.272.89-2.982 1.906-1.579.974 1.316-.847 2.631-1.864 1.623-.593-.57-1.483.35-.89.92.89.877 2.33.965 3.347.22 1.144-.833 1.271-2.412.424-3.552s-2.415-1.447-3.474-.482c-.932.877-1.228 2.411-.508 3.507.424.702 1.525.044 1.059-.657h0zm9.362-5.832c-.678-1.008.805-1.929 1.44-.877.678 1.14-1.228 2.412-1.864 1.14-.381-.745-1.44-.087-1.101.658.551 1.184 2.033 1.491 3.092.833 1.101-.658 1.61-2.148.932-3.332-.593-1.009-1.991-1.535-3.008-.877-.974.657-1.313 2.061-.678 3.069.551.745 1.652.088 1.186-.614h0zm-3.686-9.646c-.339-1.009.72-2.061 1.567-1.228s-.127 2.017-1.101 1.666c-.763-.263-1.102 1.009-.339 1.272 2.203.745 4.067-2.149 2.33-3.859-.762-.789-1.949-.921-2.838-.263-.805.614-1.229 1.754-.847 2.762.296.79 1.525.483 1.228-.35h0zM87.847 292c-.127-.088.042.044.085.131v.132c0 .044 0 .044 0-.044v.044c.085-.044 0 0 0 0-.042 0 .127 0 .169 0 .127 0 .254.044.381.088-.169-.22-.297-.439-.466-.614v1.052c.169-.219.296-.438.466-.614-.339.132-.678.176-1.017.088-.763-.263-1.102 1.008-.339 1.272.551.175 1.186.175 1.694-.088.254-.132.466-.307.466-.614v-1.052c0-.307-.212-.57-.466-.614-.678-.176-1.483-.263-1.906.438-.339.526-.297 1.36.339 1.623.296.175.678.087.89-.22.127-.394.042-.833-.297-1.008h0zM475.494 80.529l1.567 18.416c.085.833 1.186.833 1.271 0 0-.132.043-.307.043-.438.084-.833-1.187-.833-1.271 0 0 .132-.043.307-.043.438h1.271l-1.567-18.416c-.085-.833-1.356-.877-1.271 0h0z"/><path d="M476.468 81.011c1.779-.395 4.871-.965 6.227.57 1.229 1.359.932 4.034 1.101 5.876l.89 11.006c.085.833 1.356.833 1.271 0-.424-5.262-.466-10.787-1.313-16.004-.636-4.078-5.55-3.332-8.515-2.719-.805.175-.466 1.447.339 1.272h0zm10.844-24.73c1.356 14.031 1.822 28.106 1.398 42.225-.042.833 1.229.833 1.271 0 .423-14.075-.042-28.194-1.398-42.225-.085-.833-1.356-.877-1.271 0h0z"/><path d="M488.838 56.281c1.737.263 3.855.263 5.465.877 2.16.789 1.821 4.823 2.033 6.884.381 3.99.635 7.98.89 11.97.466 8.287.635 16.574.804 24.861 0 .833 1.271.833 1.271 0-.211-9.559-.423-19.161-1.059-28.72-.296-4.472-.508-8.989-1.186-13.417-.593-3.771-4.956-3.289-7.879-3.771-.805-.044-1.144 1.184-.339 1.316h0zm10.76-8.243l4.363 49.942c.085.833 1.356.833 1.271 0l-4.363-49.942c-.043-.833-1.314-.833-1.271 0h0z"/><path d="M500.404 48.696c2.033-.395 4.109-.526 6.185-.307 1.736.175 2.965.526 3.05 2.455l.042 2.017.424 9.866 1.821 37.708c.043.834 1.313.834 1.271 0l-1.949-40.734-.338-8.506c-.043-1.272-.043-2.543-1.187-3.376-1.059-.745-2.711-.789-3.939-.833-1.907-.132-3.813.044-5.719.438-.805.175-.466 1.447.339 1.272h0zm-34.019-4.867l-4.151 8.55c-.382.745.72 1.403 1.101.658l4.152-8.55c.339-.745-.763-1.447-1.102-.658h0z"/><path d="M466.555 45.144c.593 2.543 1.906 4.779 3.855 6.446.635.526 1.525-.395.889-.921-1.779-1.535-2.965-3.508-3.516-5.832-.211-.877-1.44-.526-1.228.307h0z"/><path d="M465.665 45.758a206.08 206.08 0 0 0 7.202 56.87c.212.833 1.44.482 1.229-.351a204.93 204.93 0 0 1-7.16-56.519c0-.833-1.271-.833-1.271 0h0z"/><path d="M474.392 103.768c9.912-.965 19.868-1.491 29.823-1.535 9.277-.044 19.317-.438 27.874 3.903.721.35 1.356-.746.636-1.14-8.303-4.21-17.792-4.122-26.858-4.078-10.506 0-21.012.526-31.475 1.534-.805.088-.805 1.404 0 1.316h0z"/><path d="M526.878 101.619c2.288 1.447 4.491 3.026 6.524 4.78l.127-1.053-5.168 4.078c-.635.526 0 1.666.636 1.14l5.168-4.078c.296-.219.466-.745.127-1.052-2.161-1.842-4.406-3.508-6.778-4.955-.72-.394-1.356.702-.636 1.14h0zm-57.273-33.631l1.906 2.368c.255.307.805.219 1.017-.132l10.167-20.696c.89-1.754 2.118-.307 3.389.175.805.307 1.652.219 2.457-.088 2.034-.789 3.389-2.982 4.321-4.911 1.525-3.288 2.881-6.709 4.364-10.041.381-.921.804-1.842 1.186-2.719.211-.526.466-1.622.889-2.017 1.314-1.228 4.533 1.579 5.634 2.28 1.822 1.14 4.449 3.683 6.821 3.026 1.779-.482 2.626-2.499 3.135-4.166 2.457-7.498 5.592-14.294 10.421-20.477.381-.482.042-1.315-.636-1.096-2.202.745-4.193 1.885-6.015 3.332-.593.482.169 1.359.762 1.052l4.999-2.543c-.296-.132-.635-.263-.932-.395l1.483 7.893c.169.833 1.398.482 1.228-.351l-1.482-7.892c-.085-.438-.593-.57-.932-.395l-4.999 2.543.763 1.052c1.652-1.359 3.431-2.324 5.464-3.025-.212-.351-.423-.745-.635-1.096-3.686 4.736-6.736 9.953-8.939 15.61-.593 1.491-1.101 3.026-1.567 4.56-.381 1.228-.974 3.858-2.542 4.122-1.779.307-4.067-1.798-5.507-2.719s-2.838-1.929-4.321-2.762c-1.694-.921-2.753-.57-3.601 1.14-1.609 3.289-2.923 6.796-4.405 10.173-1.102 2.543-2.5 7.673-5.508 8.506-2.033.57-3.897-2.587-5.718-.745-1.06 1.052-1.61 3.026-2.246 4.341l-2.88 5.876-5.762 11.707 1.017-.132-1.906-2.368c-.551-.57-1.441.351-.89 1.008h0zM287.537 371.056c4.61 1.261 10.116-1.728 11.266-6.593 1.182-4.956-2.843-10.098-7.772-10.5-5.082-.37-9.949 4.437-9.792 9.493.122 5.269 5.327 9.11 10.396 8.474.825-.105.803 1.175-.022 1.28-4.671.538-9.285-2.216-11.009-6.544-1.664-4.207.095-9.021 3.678-11.825 3.676-2.897 8.491-2.98 12.039-.177 3.397 2.653 5.082 7.439 3.182 11.615-2.091 4.607-7.56 7.261-12.291 5.941-.82-.139-.463-1.394.325-1.164h0zm-18.705-7.295c3.676-1.16 3.108-7.062-1.114-6.075-3.733.856-1.934 6.127 1.343 5.126.797-.257 1.111.987.314 1.244-2.083.645-4.132-.66-4.861-2.567-.876-2.24.595-4.49 2.89-5.047 2.387-.59 4.833.678 5.217 3.17.356 2.341-1.178 4.713-3.476 5.454-.826.166-1.14-1.078-.313-1.305h0zM151.23 58.31c-7.117.526-10.888-8.112-9.701-14.338 1.143-6.095 6.905-10.392 12.793-10.216 7.752.175 11.734 8.024 10.337 15.347-1.229 6.533-7.583 11.357-13.938 8.77-.762-.307-1.101.965-.339 1.272 5.084 2.061 11.015-.351 13.811-5.13 2.965-5.086 2.626-12.365-.805-17.101-3.474-4.823-10.125-5.481-15.166-3.157-5.041 2.28-8.346 7.41-8.218 13.11.127 6.226 4.575 13.242 11.183 12.76.847-.044.89-1.359.043-1.315h0zm-87.1 31.541c.381 8.2.635 16.443.72 24.686 0 .833-1.271.833-1.271 0-.085-8.243-.339-16.443-.72-24.686-.042-.833 1.229-.833 1.271 0h0z"/><path d="M63.283 90.465c-9.786-1.403-19.741-2.762-29.484-.395-.805.175-1.144-1.052-.339-1.272 9.955-2.456 20.165-1.052 30.162.395.805.088.466 1.359-.339 1.272h0z"/><path d="M34.604 90.509c-.212 16.662.085 33.368.932 50.03.042.833-1.228.833-1.271 0-.847-16.662-1.144-33.324-.932-50.03 0-.833 1.271-.833 1.271 0h0zm29.187 45.557l-.678 6.358c-.212 1.008-.551 1.71-1.398 2.324-2.669 1.797-6.99.745-9.913.57l-12.497-.789c-1.864-.132-4.829-.658-3.686-3.333.339-.789 1.44-.088 1.102.658-.212.482 2.16 1.271 2.584 1.359.678.132 1.398.088 2.076.132l3.728.219 7.498.482c2.288.132 4.829.614 7.117.088 2.881-.702 2.499-5.525 2.796-8.024.085-.877 1.356-.877 1.271-.044h0zm7.71-1.622c3.728 5.656 7.583 11.225 11.48 16.749a.62.62 0 0 1 0 .658c-.678 1.096-1.822 1.535-3.05 1.14-1.822-.57-2.711-2.718-3.643-4.209-1.525-2.456-3.262-4.78-5.126-7.016-.805-.921-1.61-1.841-2.457-2.718-.974-1.009-2.627-3.157-4.025-3.377-.805-.131-.466-1.403.339-1.271 1.271.219 2.118 1.271 3.05 2.148 1.229 1.184 2.415 2.412 3.559 3.727a65.16 65.16 0 0 1 6.015 8.112c.508.789.932 1.754 1.567 2.456.678 1.008 1.398 1.096 2.245.263-.254-.351-.508-.702-.72-1.053l-3.389-4.867-6.863-10.172c-.551-.614.551-1.272 1.017-.57h0z"/><path d="M64.892 136.066c-5.253.132-10.294-3.157-12.37-8.155-1.864-4.517-.847-10.392 3.092-13.374 4.533-3.376 10.336-.833 13.853 2.85 2.076 2.193 3.813 4.955 4.236 8.024.169 1.228.127 2.456-.169 3.64a7.91 7.91 0 0 1-.763 1.973c-.085.175-2.033 3.025-1.186 2.981.805-.087.805 1.228 0 1.316-1.313.131-1.991-1.096-1.61-2.324.297-1.009 1.229-1.71 1.737-2.631.763-1.447.932-3.113.72-4.735-.72-5.613-6.481-11.488-12.073-11.401-5.507.044-8.388 6.402-7.244 11.401 1.271 5.437 6.439 9.251 11.777 9.076.847.044.847 1.359 0 1.359h0zm-6.015-40.953l.042-.044v.921c-.551-.658-4.363-.614-5.38-.745l-4.872-.395-4.914-.219c-.72 0-4.49.351-4.745-.351.296.789-.932 1.14-1.229.351-.042-.088-.042-.132-.085-.219-.085-.219 0-.482.169-.658.932-.965 2.627-.526 3.855-.526l6.947.263 6.524.57c1.101.131 3.855-.044 4.66.921.212.263.254.658 0 .921l-.042.044c-.636.702-1.525-.263-.932-.833h0zm.594 6.401c-4.279.614-8.43.439-12.709.264-.805-.044-.805-1.36 0-1.316 4.194.175 8.218.351 12.37-.219.805-.088 1.144 1.184.339 1.271h0zm2.88 4.955c.127.132.254.307.381.439.381.438.127 1.096-.466 1.14a168.84 168.84 0 0 1-22.071-1.053c-.805-.087-.805-1.403 0-1.315a168.67 168.67 0 0 0 22.071 1.052c-.169.395-.297.746-.466 1.14-.127-.131-.254-.307-.381-.438-.508-.658.381-1.579.932-.965h0zm-9.107 7.191a46.1 46.1 0 0 1-11.523-.526c-.805-.132-.466-1.403.339-1.272 3.728.614 7.456.79 11.184.483.847-.044.847 1.271 0 1.315h0zm10.335 17.758c3.431.176 6.354-2.937 5.253-6.533-.847-2.85-4.025-5.875-6.905-6.358-1.398-.219-2.923.132-3.982 1.14-1.567 1.491-1.144 3.683-.424 5.481 1.229 3.157 3.474 6.007 6.905 6.402.805.088.805 1.403 0 1.315-4.406-.482-7.541-4.384-8.6-8.681-1.017-4.034 1.864-7.367 5.888-7.016 3.728.351 7.837 4.253 8.515 8.068.72 4.253-2.626 7.717-6.651 7.498-.805-.044-.805-1.359 0-1.316h0z"/><path d="M62.858 119.097c1.694 3.771 3.262 7.586 4.66 11.444.296.79-.932 1.14-1.229.351-1.398-3.771-2.881-7.498-4.533-11.137-.339-.789.72-1.447 1.101-.658h0zm-1.948 3.771l3.262 7.103c.339.746-.762 1.447-1.101.658l-3.262-7.103c-.339-.746.72-1.447 1.101-.658h0z"/></svg>