<svg width="604" height="517" viewBox="0 0 604 517" fill="none" xmlns="http://www.w3.org/2000/svg" aria-hidden="true"><path fill-rule="evenodd" clip-rule="evenodd" d="M603.276 511.852C580.77 512.502 558.264 512.402 535.758 511.553C534.841 511.503 534.841 510.003 535.758 510.053C558.264 510.903 580.77 511.003 603.276 510.353C604.241 510.303 604.241 511.802 603.276 511.852Z" fill="#DFCBAE" fill-opacity="0.5"></path><path fill-rule="evenodd" clip-rule="evenodd" d="M448.488 503.623C418.641 505.722 389.277 497.724 359.479 497.824C358.561 497.824 358.561 496.324 359.479 496.324C389.277 496.224 418.641 504.173 448.488 502.123C449.405 502.023 449.405 503.573 448.488 503.623Z" fill="#DFCBAE" fill-opacity="0.5"></path><path fill-rule="evenodd" clip-rule="evenodd" d="M500.147 367.791C499.906 366.941 499.664 366.091 499.278 365.292C499.037 364.942 498.843 364.642 498.602 364.292C497.588 364.192 496.525 364.042 495.511 363.942C495.221 364.142 494.98 364.742 494.787 365.042C494.062 366.091 493.289 366.991 492.179 367.691C490.054 368.991 487.494 369.291 485.224 368.391C479.284 366.141 477.062 357.993 469.818 358.793C467.886 358.993 466.051 359.793 464.65 361.192C463.588 362.242 462.767 363.542 461.656 364.542C459.676 366.241 457.213 366.491 454.846 365.591C451.948 364.542 449.727 362.292 447.553 360.143C444.607 357.293 440.309 353.844 436.397 356.893C433.837 358.843 432.34 361.842 429.153 362.892C426.158 363.892 422.971 363.292 420.46 361.342C419.735 360.793 420.46 359.443 421.184 360.043C424.661 362.742 429.008 362.292 432.051 359.143C434.079 357.093 435.818 354.544 438.812 354.194C445.863 353.294 449.534 362.192 455.522 364.242C460.062 365.791 461.559 361.592 464.553 359.293C466.775 357.593 469.576 356.893 472.329 357.343C475.227 357.793 477.448 359.593 479.477 361.642C481.843 364.092 484.355 367.441 488.025 367.441C490.488 367.441 492.372 366.041 493.724 364.042C494.497 362.942 495.125 362.042 496.525 361.892C499.568 361.592 500.872 364.892 501.596 367.341C501.838 368.291 500.437 368.691 500.147 367.791Z" fill="#DFCBAE" fill-opacity="0.5"></path><path fill-rule="evenodd" clip-rule="evenodd" d="M552.636 302.883C550.898 297.634 544.813 302.083 542.494 304.032C540.466 305.732 538.099 307.481 535.347 307.381C530.807 307.182 528.392 302.383 524.673 300.383C519.506 297.634 516.366 304.782 511.344 304.082C509.122 303.782 507.963 301.933 506.562 300.333C505.065 298.633 503.52 298.633 501.395 299.133C499.415 299.633 497.386 300.133 495.406 300.633C494.489 300.883 494.102 299.433 495.02 299.183C497 298.683 499.028 298.184 501.008 297.684C502.361 297.334 503.713 296.934 505.065 297.334C507.722 298.184 508.494 301.833 511.151 302.483C514 303.182 516.801 299.883 519.264 298.833C521.341 297.934 523.369 297.934 525.349 299.033C527.474 300.183 529.068 302.133 530.952 303.682C532.207 304.732 533.608 305.682 535.25 305.782C537.761 305.932 539.838 304.132 541.673 302.633C543.895 300.833 546.261 298.683 549.304 298.933C551.477 299.083 553.264 300.283 553.989 302.433C554.327 303.382 552.926 303.782 552.636 302.883Z" fill="#DFCBAE" fill-opacity="0.5"></path><path fill-rule="evenodd" clip-rule="evenodd" d="M174.894 405.974C179.675 406.924 185.519 402.175 185.374 396.926C185.181 390.978 177.985 388.978 173.396 388.928C168.325 388.928 164.752 392.977 165.959 398.276C166.49 400.575 167.891 402.475 169.629 403.925C170.644 404.774 174.749 407.874 175.908 406.374C176.487 405.624 177.502 406.674 176.922 407.424C175.377 409.423 172.189 407.374 170.547 406.424C168.036 404.874 165.766 402.525 164.8 399.626C162.868 393.777 166.297 387.928 172.237 387.478C177.888 387.028 186.629 389.728 186.774 396.926C186.871 403.225 180.206 408.524 174.459 407.424C173.59 407.274 173.976 405.824 174.894 405.974Z" fill="#DFCBAE" fill-opacity="0.5"></path><path fill-rule="evenodd" clip-rule="evenodd" d="M110.468 147.605C112.399 144.956 109.647 140.907 106.652 142.906C105.3 143.806 104.672 145.656 105.638 147.105C106.507 148.405 108.294 148.955 109.647 148.255C110.468 147.805 111.192 149.105 110.371 149.555C108.391 150.555 105.976 149.955 104.575 148.155C103.078 146.206 103.61 143.456 105.445 141.957C107.232 140.507 109.743 140.507 111.289 142.306C112.689 143.956 112.931 146.605 111.627 148.405C111.192 149.105 109.936 148.355 110.468 147.605Z" fill="#DFCBAE" fill-opacity="0.5"></path><path fill-rule="evenodd" clip-rule="evenodd" d="M158.802 455.565C150.689 456.165 146.39 446.317 147.743 439.219C149.047 432.271 155.615 427.372 162.328 427.572C171.166 427.772 175.706 436.719 174.112 445.068C172.712 452.516 165.467 458.015 158.223 455.065C157.354 454.715 156.967 456.165 157.836 456.515C163.632 458.864 170.393 456.115 173.581 450.666C176.962 444.868 176.575 436.57 172.663 431.171C168.703 425.672 161.121 424.922 155.373 427.572C149.626 430.171 145.859 436.02 146.004 442.518C146.149 449.617 151.22 457.615 158.754 457.065C159.72 457.015 159.768 455.515 158.802 455.565Z" fill="#DFCBAE" fill-opacity="0.5"></path><path fill-rule="evenodd" clip-rule="evenodd" d="M574.975 337.711C574.878 335.362 576.569 333.762 578.79 333.762C579.708 333.762 580.432 334.012 581.302 333.612C582.944 332.862 583.571 330.913 584.103 329.263C584.875 326.864 585.455 325.714 588.353 326.464C589.125 326.664 589.608 327.064 590.429 326.764C592.844 325.814 591.395 321.515 595.066 322.215C595.983 322.415 596.37 320.965 595.452 320.765C594.293 320.515 593.182 320.615 592.168 321.365C591.25 322.065 591.154 322.915 590.623 323.814C590.574 324.764 589.946 325.164 588.787 325.014C588.546 324.864 588.256 324.714 588.015 324.614C587.483 324.564 587.194 324.264 586.614 324.314C585.552 324.364 584.731 325.064 584.103 325.864C583.185 327.014 582.944 328.413 582.412 329.813C581.881 331.213 581.35 332.212 579.708 332.362C578.983 332.412 578.307 332.162 577.583 332.262C575.023 332.662 573.381 335.112 573.478 337.711C573.574 338.711 575.023 338.711 574.975 337.711Z" fill="#DFCBAE" fill-opacity="0.5"></path><path fill-rule="evenodd" clip-rule="evenodd" d="M68.4683 31.8161C68.7802 31.948 68.0941 35.2447 68.4059 36.0359C68.8425 37.0249 69.8405 37.6183 70.8384 37.7501C72.2106 38.0139 73.3957 37.3545 74.5183 36.6293C75.641 35.904 78.323 33.3985 79.1338 36.1677C79.3209 36.7611 78.6972 38.2117 78.8843 39.0029C79.4457 41.6402 81.8158 41.5084 83.4998 40.1238C84.1235 39.5963 84.4978 38.937 84.9967 38.3435C85.6205 36.7611 86.556 36.4315 87.7411 37.3545C87.7411 37.7501 87.8035 38.1457 87.9282 38.4754C88.5519 39.4644 88.8638 40.1238 90.1112 40.0578C91.2963 39.9919 91.2963 38.0139 90.1112 38.0798C90.1736 38.0798 88.8014 35.1128 88.0529 34.7831C87.1797 34.3875 86.1818 34.7172 85.371 35.2447C84.8096 35.5743 84.373 36.1018 83.9364 36.5633C83.0009 37.5523 83.0632 39.0029 81.5663 38.0139C80.1318 37.0908 81.3168 35.6403 80.3189 34.3216C78.6972 32.1458 75.9529 33.3326 74.2065 34.5194C73.2085 35.1787 70.7137 37.5523 70.09 34.0578C70.0276 33.5963 70.4018 32.871 70.4018 32.4095C70.4018 31.3546 70.2147 30.7611 69.3415 30.2996C68.3436 29.5084 67.408 31.2227 68.4683 31.8161Z" fill="#DFCBAE" fill-opacity="0.5"></path><path fill-rule="evenodd" clip-rule="evenodd" d="M99.1186 247.982C101.92 253.381 105.156 258.48 108.826 263.278C109.406 264.028 108.391 265.078 107.812 264.328C104.045 259.429 100.712 254.23 97.8629 248.732C97.4282 247.882 98.6839 247.132 99.1186 247.982Z" fill="#DFCBAE" fill-opacity="0.5"></path><path fill-rule="evenodd" clip-rule="evenodd" d="M99.1675 249.182C97.4288 253.931 95.5936 258.68 93.7101 263.378C93.372 264.278 91.9714 263.878 92.3095 262.979C94.193 258.28 96.0283 253.531 97.7669 248.782C98.105 247.882 99.5056 248.282 99.1675 249.182Z" fill="#DFCBAE" fill-opacity="0.5"></path><path fill-rule="evenodd" clip-rule="evenodd" d="M99.5039 249.882C99.842 268.477 102.16 286.973 106.458 305.019C106.7 305.969 105.299 306.368 105.058 305.419C100.711 287.223 98.3931 268.627 98.055 249.882C98.0067 248.882 99.4556 248.882 99.5039 249.882Z" fill="#DFCBAE" fill-opacity="0.5"></path><path fill-rule="evenodd" clip-rule="evenodd" d="M91.1506 280.424C89.895 291.122 90.1847 301.919 92.0683 312.517C92.2132 313.467 90.8609 313.867 90.6677 312.917C88.7842 302.169 88.4461 291.272 89.7018 280.424C89.8467 279.475 91.2955 279.475 91.1506 280.424Z" fill="#DFCBAE" fill-opacity="0.5"></path><path fill-rule="evenodd" clip-rule="evenodd" d="M96.7034 301.22C95.0131 305.219 92.067 308.868 91.8739 313.367C91.8256 314.117 90.9079 314.417 90.5216 313.767C88.8312 310.717 87.0926 307.668 85.4022 304.619C84.9193 303.769 86.175 303.019 86.6579 303.869C88.3483 306.918 90.0869 309.968 91.7773 313.017C91.3426 313.167 90.8597 313.267 90.425 313.417C90.6182 308.568 93.6608 304.819 95.4477 300.52C95.8341 299.57 97.0898 300.32 96.7034 301.22Z" fill="#DFCBAE" fill-opacity="0.5"></path><path fill-rule="evenodd" clip-rule="evenodd" d="M73.3723 176.549C73.807 185.896 74.0968 195.294 74.1934 204.692C74.1934 205.642 72.7445 205.642 72.7445 204.692C72.6479 195.294 72.3581 185.946 71.9235 176.549C71.8752 175.599 73.324 175.599 73.3723 176.549Z" fill="#DFCBAE" fill-opacity="0.5"></path><path fill-rule="evenodd" clip-rule="evenodd" d="M72.4073 177.248C61.251 175.649 49.9016 174.099 38.7936 176.798C37.876 176.998 37.4896 175.599 38.4072 175.349C49.7567 172.549 61.3959 174.149 72.7937 175.799C73.7113 175.899 73.3249 177.348 72.4073 177.248Z" fill="#DFCBAE" fill-opacity="0.5"></path><path fill-rule="evenodd" clip-rule="evenodd" d="M39.7107 177.298C39.4693 196.294 39.8073 215.34 40.7732 234.335C40.8215 235.285 39.3727 235.285 39.3244 234.335C38.3585 215.34 38.0204 196.344 38.2619 177.298C38.2619 176.349 39.7107 176.349 39.7107 177.298Z" fill="#DFCBAE" fill-opacity="0.5"></path><path fill-rule="evenodd" clip-rule="evenodd" d="M72.9856 229.236C72.7441 231.636 72.6475 234.135 72.2129 236.485C71.9714 237.634 71.585 238.434 70.6191 239.134C67.5765 241.183 62.6504 239.984 59.318 239.784C54.585 239.484 49.8037 239.184 45.0708 238.884C42.9458 238.734 39.5651 238.134 40.869 235.085C41.2554 234.185 42.5111 234.985 42.1247 235.835C41.8833 236.385 44.5878 237.284 45.0708 237.384C45.8435 237.534 46.6645 237.484 47.4372 237.534C48.8378 237.634 50.2867 237.734 51.6873 237.784C54.5367 237.984 57.3861 238.134 60.2356 238.334C62.8435 238.484 65.7413 239.034 68.3492 238.434C71.6333 237.634 71.1987 232.136 71.5367 229.286C71.6333 228.286 73.0822 228.286 72.9856 229.236Z" fill="#DFCBAE" fill-opacity="0.5"></path><path fill-rule="evenodd" clip-rule="evenodd" d="M81.7759 227.387C86.0259 233.835 90.4208 240.184 94.864 246.482C95.0089 246.682 95.0089 247.032 94.864 247.232C94.0913 248.482 92.7873 248.982 91.3867 248.532C89.31 247.882 88.2958 245.433 87.2333 243.733C85.4946 240.934 83.5145 238.284 81.3895 235.735C80.4719 234.685 79.5543 233.635 78.5884 232.636C77.4776 231.486 75.594 229.036 74.0003 228.786C73.0827 228.636 73.469 227.187 74.3867 227.337C75.8355 227.587 76.8014 228.786 77.8639 229.786C79.2645 231.136 80.6168 232.536 81.9208 234.035C84.4321 236.935 86.7503 240.034 88.7787 243.283C89.3583 244.183 89.8412 245.283 90.5657 246.082C91.3384 247.232 92.1594 247.332 93.1253 246.382C92.8356 245.982 92.5458 245.583 92.3043 245.183C91.0003 243.333 89.6964 241.483 88.4407 239.634C85.7844 235.785 83.1765 231.936 80.6168 228.037C79.9889 227.337 81.2446 226.587 81.7759 227.387Z" fill="#DFCBAE" fill-opacity="0.5"></path><path fill-rule="evenodd" clip-rule="evenodd" d="M74.2409 229.236C68.2523 229.386 62.5051 225.637 60.1386 219.938C58.0136 214.79 59.1727 208.091 63.6642 204.692C68.8318 200.843 75.4483 203.742 79.4569 207.941C81.8233 210.441 83.8035 213.59 84.2864 217.089C84.4796 218.489 84.4313 219.888 84.0932 221.238C83.9001 222.038 83.6103 222.788 83.2239 223.488C83.1273 223.688 80.9057 226.937 81.8716 226.887C82.7893 226.787 82.7893 228.286 81.8716 228.386C80.3745 228.536 79.6018 227.137 80.0364 225.737C80.3745 224.587 81.437 223.788 82.0165 222.738C82.8859 221.088 83.079 219.189 82.8376 217.339C82.0165 210.94 75.4483 204.242 69.0733 204.342C62.7949 204.392 59.5108 211.64 60.8148 217.339C62.2636 223.538 68.1557 227.887 74.2409 227.687C75.2069 227.737 75.2069 229.236 74.2409 229.236Z" fill="#DFCBAE" fill-opacity="0.5"></path><path fill-rule="evenodd" clip-rule="evenodd" d="M67.3839 182.547L67.4322 182.497C67.4322 182.847 67.4322 183.197 67.4322 183.547C66.8044 182.797 62.4578 182.847 61.2987 182.697C59.4634 182.497 57.5799 182.347 55.7447 182.247C53.9094 182.147 52.0259 182.047 50.1424 181.997C49.3214 181.997 45.023 182.397 44.7333 181.597C45.0713 182.497 43.6708 182.897 43.3327 181.997C43.2844 181.897 43.2844 181.847 43.2361 181.747C43.1395 181.497 43.2361 181.197 43.4293 180.998C44.4918 179.898 46.4236 180.398 47.8242 180.398C50.4804 180.398 53.0884 180.498 55.7447 180.698C58.2077 180.848 60.6708 181.097 63.1822 181.347C64.4379 181.497 67.5771 181.297 68.4947 182.397C68.7362 182.697 68.7845 183.147 68.4947 183.447L68.4464 183.497C67.722 184.297 66.7078 183.197 67.3839 182.547Z" fill="#DFCBAE" fill-opacity="0.5"></path><path fill-rule="evenodd" clip-rule="evenodd" d="M68.0613 189.845C63.1834 190.545 58.4504 190.345 53.5726 190.145C52.655 190.095 52.655 188.596 53.5726 188.646C58.3538 188.846 62.9419 189.046 67.6749 188.396C68.5925 188.296 68.9789 189.745 68.0613 189.845Z" fill="#DFCBAE" fill-opacity="0.5"></path><path fill-rule="evenodd" clip-rule="evenodd" d="M71.3439 195.494C71.4888 195.644 71.6336 195.844 71.7785 195.994C72.2132 196.494 71.9234 197.244 71.2473 197.294C62.8438 197.444 54.4404 197.044 46.0853 196.094C45.1677 195.994 45.1677 194.494 46.0853 194.594C54.4404 195.544 62.8438 195.944 71.2473 195.794C71.0541 196.244 70.9092 196.644 70.716 197.094C70.5711 196.944 70.4263 196.744 70.2814 196.594C69.7018 195.844 70.716 194.794 71.3439 195.494Z" fill="#DFCBAE" fill-opacity="0.5"></path><path fill-rule="evenodd" clip-rule="evenodd" d="M60.9611 203.692C56.5662 204.042 52.1713 203.842 47.8247 203.092C46.9071 202.942 47.2935 201.493 48.2111 201.643C52.4611 202.343 56.7111 202.542 60.9611 202.193C61.927 202.143 61.927 203.642 60.9611 203.692Z" fill="#DFCBAE" fill-opacity="0.5"></path><path fill-rule="evenodd" clip-rule="evenodd" d="M72.7442 223.938C76.6561 224.138 79.9885 220.588 78.7328 216.489C77.7669 213.24 74.1448 209.791 70.8607 209.241C69.2669 208.991 67.5283 209.391 66.3209 210.541C64.5339 212.24 65.0169 214.74 65.8379 216.789C67.2385 220.388 69.7982 223.638 73.7101 224.088C74.6277 224.188 74.6277 225.687 73.7101 225.587C68.6874 225.037 65.1135 220.588 63.9061 215.69C62.747 211.091 66.0311 207.291 70.6192 207.691C74.8692 208.091 79.5539 212.54 80.3266 216.889C81.1476 221.738 77.3323 225.687 72.7442 225.437C71.8266 225.387 71.8266 223.888 72.7442 223.938Z" fill="#DFCBAE" fill-opacity="0.5"></path><path fill-rule="evenodd" clip-rule="evenodd" d="M71.9224 209.891C73.8542 214.19 75.6411 218.539 77.2349 222.938C77.5729 223.838 76.1724 224.237 75.8343 223.338C74.2405 219.039 72.5502 214.79 70.6667 210.641C70.2803 209.741 71.4877 208.991 71.9224 209.891Z" fill="#DFCBAE" fill-opacity="0.5"></path><path fill-rule="evenodd" clip-rule="evenodd" d="M69.7005 214.19C70.9562 216.889 72.1636 219.589 73.4192 222.288C73.8056 223.138 72.5499 223.938 72.1636 223.038C70.9079 220.338 69.7005 217.639 68.4448 214.94C68.0584 214.09 69.2658 213.29 69.7005 214.19Z" fill="#DFCBAE" fill-opacity="0.5"></path><path fill-rule="evenodd" clip-rule="evenodd" d="M285.897 361.362C285.897 366.77 285.897 372.237 285.897 377.645C285.897 378.774 284.174 378.774 284.174 377.645C284.174 372.237 284.174 366.77 284.174 361.362C284.174 360.233 285.897 360.233 285.897 361.362Z" fill="#DFCBAE" fill-opacity="0.5"></path><path fill-rule="evenodd" clip-rule="evenodd" d="M284.808 378.418C279.927 378.418 275.105 378.418 270.224 378.418C269.133 378.418 269.133 376.635 270.224 376.635C275.105 376.635 279.927 376.635 284.808 376.635C285.899 376.635 285.899 378.418 284.808 378.418Z" fill="#DFCBAE" fill-opacity="0.5"></path><path fill-rule="evenodd" clip-rule="evenodd" d="M269.19 376.516C269.19 370.633 269.19 364.69 269.19 358.807C269.19 357.677 270.913 357.677 270.913 358.807C270.913 364.69 270.913 370.633 270.913 376.516C270.913 377.645 269.19 377.645 269.19 376.516Z" fill="#DFCBAE" fill-opacity="0.5"></path><path fill-rule="evenodd" clip-rule="evenodd" d="M269.822 357.677C274.817 357.677 279.812 357.677 284.75 357.677C285.841 357.677 285.841 359.46 284.75 359.46C279.755 359.46 274.76 359.46 269.822 359.46C268.731 359.46 268.731 357.677 269.822 357.677Z" fill="#DFCBAE" fill-opacity="0.5"></path><path fill-rule="evenodd" clip-rule="evenodd" d="M278.607 379.369C278.607 385.43 278.607 391.433 278.607 397.494C278.607 398.623 276.884 398.623 276.884 397.494C276.884 391.433 276.884 385.43 276.884 379.369C276.884 378.24 278.607 378.24 278.607 379.369Z" fill="#DFCBAE" fill-opacity="0.5"></path><path fill-rule="evenodd" clip-rule="evenodd" d="M298.816 397.256C292.443 390.957 285.783 384.895 278.893 379.131C278.032 378.418 279.238 377.17 280.099 377.883C286.989 383.647 293.591 389.65 300.022 396.008C300.826 396.781 299.62 398.029 298.816 397.256Z" fill="#DFCBAE" fill-opacity="0.5"></path><path fill-rule="evenodd" clip-rule="evenodd" d="M276.77 379.725C269.88 385.133 262.99 390.541 256.101 395.949C255.239 396.662 254.378 395.117 255.239 394.404C262.129 388.996 269.019 383.588 275.909 378.18C276.77 377.467 277.631 379.012 276.77 379.725Z" fill="#DFCBAE" fill-opacity="0.5"></path><path fill-rule="evenodd" clip-rule="evenodd" d="M305.478 399.396C301.688 399.396 297.899 399.396 294.052 399.396C292.961 399.396 292.961 397.613 294.052 397.613C297.841 397.613 301.631 397.613 305.478 397.613C306.569 397.613 306.569 399.396 305.478 399.396Z" fill="#DFCBAE" fill-opacity="0.5"></path><path fill-rule="evenodd" clip-rule="evenodd" d="M295.086 399.752C295.086 404.21 295.086 408.726 295.086 413.183C295.086 414.312 293.363 414.312 293.363 413.183C293.363 408.726 293.363 404.21 293.363 399.752C293.363 398.564 295.086 398.564 295.086 399.752Z" fill="#DFCBAE" fill-opacity="0.5"></path><path fill-rule="evenodd" clip-rule="evenodd" d="M306.74 398.92C306.74 404.15 306.74 409.38 306.74 414.609C306.74 415.739 305.017 415.739 305.017 414.609C305.017 409.38 305.017 404.15 305.017 398.92C305.017 397.732 306.74 397.732 306.74 398.92Z" fill="#DFCBAE" fill-opacity="0.5"></path><path fill-rule="evenodd" clip-rule="evenodd" d="M306.051 415.679C302.491 415.679 298.989 415.679 295.429 415.679C294.338 415.679 294.338 413.896 295.429 413.896C298.989 413.896 302.491 413.896 306.051 413.896C307.142 413.896 307.142 415.679 306.051 415.679Z" fill="#DFCBAE" fill-opacity="0.5"></path><path fill-rule="evenodd" clip-rule="evenodd" d="M283.889 399.336C283.889 404.507 283.889 409.677 283.889 414.788C283.889 415.917 282.166 415.917 282.166 414.788C282.166 409.617 282.166 404.447 282.166 399.336C282.166 398.148 283.889 398.148 283.889 399.336Z" fill="#DFCBAE" fill-opacity="0.5"></path><path fill-rule="evenodd" clip-rule="evenodd" d="M283.027 415.263C279.524 415.263 276.079 415.263 272.577 415.263C271.486 415.263 271.486 413.48 272.577 413.48C276.079 413.48 279.524 413.48 283.027 413.48C284.117 413.48 284.117 415.263 283.027 415.263Z" fill="#DFCBAE" fill-opacity="0.5"></path><path fill-rule="evenodd" clip-rule="evenodd" d="M282.453 400.228C279.353 400.228 276.31 400.228 273.209 400.228C272.119 400.228 272.119 398.445 273.209 398.445C276.31 398.445 279.353 398.445 282.453 398.445C283.544 398.445 283.544 400.228 282.453 400.228Z" fill="#DFCBAE" fill-opacity="0.5"></path><path fill-rule="evenodd" clip-rule="evenodd" d="M273.841 399.099C273.841 403.972 273.841 408.845 273.841 413.777C273.841 414.907 272.118 414.907 272.118 413.777C272.118 408.904 272.118 404.031 272.118 399.099C272.118 397.97 273.841 397.97 273.841 399.099Z" fill="#DFCBAE" fill-opacity="0.5"></path><path fill-rule="evenodd" clip-rule="evenodd" d="M259.544 399.099C259.716 402.962 259.831 406.824 259.831 410.687C259.831 411.816 258.108 411.816 258.108 410.687C258.108 406.824 257.993 402.962 257.821 399.099C257.763 397.97 259.486 397.97 259.544 399.099Z" fill="#DFCBAE" fill-opacity="0.5"></path><path fill-rule="evenodd" clip-rule="evenodd" d="M258.798 399.515C255.008 399.099 251.219 398.623 247.43 398.207C246.339 398.088 246.339 396.306 247.43 396.425C251.219 396.841 255.008 397.316 258.798 397.732C259.889 397.851 259.946 399.634 258.798 399.515Z" fill="#DFCBAE" fill-opacity="0.5"></path><path fill-rule="evenodd" clip-rule="evenodd" d="M248.005 397.672C248.407 401.654 248.292 405.576 247.603 409.499C247.431 410.628 245.765 410.152 245.937 409.023C246.569 405.22 246.684 401.476 246.282 397.672C246.167 396.543 247.89 396.543 248.005 397.672Z" fill="#DFCBAE" fill-opacity="0.5"></path><path fill-rule="evenodd" clip-rule="evenodd" d="M258.224 412.232C254.434 411.638 250.645 411.044 246.855 410.45C245.764 410.271 246.224 408.548 247.315 408.726C251.104 409.32 254.893 409.915 258.683 410.509C259.774 410.687 259.314 412.351 258.224 412.232Z" fill="#DFCBAE" fill-opacity="0.5"></path><path fill-rule="evenodd" clip-rule="evenodd" d="M278.835 415.798C280.96 419.126 282.797 422.632 284.462 426.198C284.921 427.208 283.429 428.159 282.969 427.089C281.304 423.464 279.41 420.017 277.343 416.689C276.768 415.739 278.261 414.847 278.835 415.798Z" fill="#DFCBAE" fill-opacity="0.5"></path><path fill-rule="evenodd" clip-rule="evenodd" d="M278.318 416.511C276.194 419.483 274.356 422.573 272.806 425.841C272.289 426.852 270.797 425.96 271.313 424.95C272.921 421.681 274.758 418.532 276.825 415.62C277.457 414.669 278.95 415.56 278.318 416.511Z" fill="#DFCBAE" fill-opacity="0.5"></path><path fill-rule="evenodd" clip-rule="evenodd" d="M287.564 428.516C286.358 428.516 285.152 428.516 283.889 428.575C283.315 428.575 282.798 428.635 282.224 428.694C281.191 428.753 281.305 428.397 281.133 429.348C280.731 431.606 281.191 434.518 281.363 436.836C281.478 437.965 279.755 437.965 279.64 436.836C279.525 435.053 279.411 433.211 279.411 431.428C279.411 430.417 279.124 428.753 279.64 427.803C280.157 426.911 281.363 427.03 282.224 426.971C284.004 426.852 285.784 426.792 287.564 426.792C288.655 426.733 288.655 428.516 287.564 428.516Z" fill="#DFCBAE" fill-opacity="0.5"></path><path fill-rule="evenodd" clip-rule="evenodd" d="M288.713 428.456C288.541 430.536 288.369 432.557 288.197 434.637C288.082 436.301 288.311 438.737 287.68 440.342C287.45 440.996 287.163 441.233 286.531 441.352C285.039 441.649 282.799 440.877 281.307 440.639C280.216 440.461 280.675 438.797 281.766 438.916C282.799 439.034 284.407 439.688 285.383 439.45C286.474 439.153 286.244 437.608 286.302 436.42C286.531 433.745 286.761 431.13 286.991 428.456C287.106 427.327 288.828 427.268 288.713 428.456Z" fill="#DFCBAE" fill-opacity="0.5"></path><path fill-rule="evenodd" clip-rule="evenodd" d="M275.736 428.219C275.851 429.942 275.908 431.725 275.851 433.448C275.851 433.864 275.334 437.786 275.506 437.905C275.219 437.846 274.932 437.727 274.645 437.668C274.702 437.668 274.76 437.608 274.874 437.608C274.645 437.905 274.472 438.202 274.243 438.44C274.243 438.381 274.243 438.321 274.243 438.202C274.472 438.5 274.645 438.797 274.874 439.034C274.817 439.034 274.76 439.034 274.702 438.975C273.611 438.737 274.07 437.014 275.162 437.252C275.219 437.252 275.277 437.252 275.334 437.311C275.736 437.37 275.966 437.786 275.966 438.143C275.966 438.202 275.966 438.262 275.966 438.381C275.966 438.737 275.679 439.153 275.334 439.213C273.841 439.51 273.841 438.084 273.898 436.954C274.128 433.983 274.243 431.071 274.013 428.04C273.955 427.03 275.679 427.089 275.736 428.219Z" fill="#DFCBAE" fill-opacity="0.5"></path><path fill-rule="evenodd" clip-rule="evenodd" d="M274.702 428.635C274.702 428.219 271.028 428.1 270.511 428.159C269.076 428.397 269.363 428.516 269.133 429.585C268.961 430.299 269.19 431.309 269.248 432.022C269.305 433.508 269.305 434.934 269.248 436.42C269.248 437.252 268.674 439.748 269.076 440.342C268.674 440.223 268.272 440.104 267.87 440.045C267.927 440.045 267.985 439.985 268.042 439.985C267.927 440.342 267.755 440.639 267.64 440.996C267.64 440.936 267.583 440.877 267.583 440.817C267.296 439.688 268.961 439.213 269.248 440.342C269.248 440.401 269.305 440.461 269.305 440.52C269.42 440.877 269.248 441.352 268.903 441.53C268.846 441.53 268.789 441.59 268.731 441.59C268.272 441.768 267.812 441.709 267.525 441.293C267.123 440.698 267.296 440.104 267.353 439.391C267.411 437.786 267.525 436.122 267.525 434.518C267.525 432.913 267.468 431.249 267.411 429.645C267.353 428.932 267.181 427.981 267.64 427.327C268.616 425.96 271.717 426.376 272.98 426.555C274.415 426.733 276.31 426.911 276.425 428.694C276.425 429.764 274.702 429.764 274.702 428.635Z" fill="#DFCBAE" fill-opacity="0.5"></path><path fill-rule="evenodd" clip-rule="evenodd" d="M274.53 440.698C272.808 440.58 271.085 440.758 269.42 441.174C268.329 441.471 267.87 439.748 268.961 439.45C270.798 438.916 272.636 438.737 274.53 438.856C275.679 438.975 275.679 440.758 274.53 440.698Z" fill="#DFCBAE" fill-opacity="0.5"></path><path fill-rule="evenodd" clip-rule="evenodd" d="M252.943 412.589C254.321 415.739 255.527 419.007 256.617 422.276C256.962 423.345 255.297 423.821 254.952 422.751C253.919 419.601 252.771 416.511 251.45 413.48C250.991 412.411 252.483 411.519 252.943 412.589Z" fill="#DFCBAE" fill-opacity="0.5"></path><path fill-rule="evenodd" clip-rule="evenodd" d="M261.726 426.673C258.856 425.841 255.928 425.425 252.884 425.544C251.794 425.604 251.794 423.821 252.884 423.761C256.042 423.643 259.143 424.059 262.186 424.95C263.277 425.247 262.817 426.971 261.726 426.673Z" fill="#DFCBAE" fill-opacity="0.5"></path><path fill-rule="evenodd" clip-rule="evenodd" d="M261.784 425.841C262.3 427.505 261.898 429.05 261.726 430.714C261.554 432.735 261.554 434.696 261.611 436.717C261.726 439.332 261.095 439.629 258.568 439.391C256.846 439.213 254.492 439.688 253.86 437.727C253.286 435.825 253.458 433.27 253.286 431.249C253.114 429.11 252.884 426.911 252.712 424.772C252.597 423.643 254.32 423.643 254.434 424.772C254.664 427.268 254.894 429.823 255.123 432.319C255.238 433.329 255.181 434.577 255.41 435.588C255.755 437.252 255.927 437.37 257.592 437.549C258.109 437.608 258.568 437.668 259.085 437.727C260.061 438.084 260.348 437.786 259.946 436.776C260.176 435.944 259.831 434.637 259.889 433.745C259.946 431.487 260.808 428.456 260.176 426.317C259.774 425.188 261.439 424.712 261.784 425.841Z" fill="#DFCBAE" fill-opacity="0.5"></path><path fill-rule="evenodd" clip-rule="evenodd" d="M250.53 414.253C249.209 416.333 248.061 418.532 246.97 420.79C246.511 421.8 245.018 420.909 245.477 419.899C246.511 417.64 247.717 415.501 249.037 413.362C249.669 412.351 251.162 413.243 250.53 414.253Z" fill="#DFCBAE" fill-opacity="0.5"></path><path fill-rule="evenodd" clip-rule="evenodd" d="M248.577 423.405C245.706 423.405 242.836 423.405 239.965 423.405C238.874 423.405 238.874 421.622 239.965 421.622C240.137 421.622 240.309 421.622 240.482 421.622C241.573 421.622 241.573 423.405 240.482 423.405C240.309 423.405 240.137 423.405 239.965 423.405C238.874 423.405 238.874 421.622 239.965 421.622C242.836 421.622 245.706 421.622 248.577 421.622C249.726 421.622 249.726 423.405 248.577 423.405Z" fill="#DFCBAE" fill-opacity="0.5"></path><path fill-rule="evenodd" clip-rule="evenodd" d="M249.44 423.345C249.21 425.604 249.038 427.862 248.98 430.12C248.923 431.725 249.44 434.458 248.751 435.944C248.349 436.835 247.832 436.954 246.914 436.954C244.789 436.895 242.493 436.36 240.368 436.063C240.024 436.003 239.737 435.528 239.737 435.231C239.794 431.19 239.851 427.208 239.909 423.167C239.909 422.038 241.631 422.038 241.631 423.167C241.574 427.208 241.516 431.19 241.459 435.231C241.229 434.934 241.057 434.637 240.827 434.399C242.205 434.577 243.583 434.756 244.961 434.993C245.421 435.053 246.741 435.469 247.143 435.112C247.43 434.874 247.143 433.032 247.143 432.676C247.201 429.585 247.373 426.495 247.66 423.464C247.832 422.216 249.555 422.216 249.44 423.345Z" fill="#DFCBAE" fill-opacity="0.5"></path><path fill-rule="evenodd" clip-rule="evenodd" d="M313.17 428.218C310.184 425.366 307.141 422.692 303.868 420.255C303.007 419.601 303.868 418.056 304.73 418.71C308.117 421.265 311.333 423.999 314.376 426.97C315.179 427.743 313.974 428.991 313.17 428.218Z" fill="#DFCBAE" fill-opacity="0.5"></path><path fill-rule="evenodd" clip-rule="evenodd" d="M304.386 419.483C302.664 422.038 301.229 424.712 300.08 427.505C299.621 428.575 298.128 427.624 298.587 426.614C299.793 423.761 301.229 421.087 302.894 418.591C303.525 417.64 305.018 418.532 304.386 419.483Z" fill="#DFCBAE" fill-opacity="0.5"></path><path fill-rule="evenodd" clip-rule="evenodd" d="M320.807 431.487C319.257 431.368 317.764 431.249 316.214 431.131C315.525 431.071 314.778 430.893 314.147 430.952C313.343 430.655 313.113 430.715 313.458 431.19C313.688 431.547 313.802 431.903 313.745 432.319C314.376 435.231 314.491 438.321 314.606 441.293C314.089 441.055 313.63 440.877 313.113 440.639C313.171 440.58 313.228 440.52 313.286 440.401C314.032 439.569 315.238 440.817 314.491 441.649C314.434 441.709 314.376 441.768 314.319 441.887C313.802 442.481 312.884 442.006 312.826 441.233C312.769 438.678 312.539 436.122 312.195 433.626C312.022 432.557 311.276 430.774 311.908 429.704C312.424 428.872 313.286 429.051 314.089 429.11C316.329 429.288 318.51 429.467 320.75 429.645C321.898 429.823 321.898 431.606 320.807 431.487Z" fill="#DFCBAE" fill-opacity="0.5"></path><path fill-rule="evenodd" clip-rule="evenodd" d="M319.659 429.764C319.717 429.764 319.774 429.764 319.889 429.764C320.176 429.764 320.463 429.942 320.635 430.18C321.554 431.784 321.497 434.577 321.784 436.42C322.186 439.034 322.587 441.649 322.989 444.264C323.047 444.74 322.875 445.274 322.415 445.334C319.717 445.928 317.19 445.809 314.607 444.799C313.573 444.383 314.033 442.66 315.066 443.076C317.363 443.967 319.544 444.145 321.956 443.61C321.784 443.967 321.554 444.324 321.382 444.68C321.209 443.492 319.2 431.547 319.774 431.487C318.568 431.665 318.568 429.883 319.659 429.764Z" fill="#DFCBAE" fill-opacity="0.5"></path><path fill-rule="evenodd" clip-rule="evenodd" d="M304.041 429.467L304.098 429.526C303.697 429.526 303.295 429.526 302.893 429.526C302.95 429.526 302.95 429.467 303.008 429.467C303.008 429.883 303.008 430.299 303.008 430.715C302.95 430.655 301.917 430.655 301.687 430.655C301.055 430.596 300.366 430.536 299.735 430.536C298.529 430.477 297.323 430.536 296.118 430.655C296.347 430.12 296.52 429.645 296.749 429.11C296.864 429.169 296.979 429.288 297.036 429.348C298.127 429.467 298.127 431.249 297.036 431.131C296.405 431.071 295.945 430.893 295.486 430.358C294.969 429.764 295.314 428.872 296.118 428.813C297.783 428.694 299.448 428.635 301.113 428.753C301.917 428.813 303.582 428.635 304.156 429.407C304.443 429.764 304.558 430.358 304.156 430.655C304.098 430.655 304.098 430.715 304.041 430.715C303.697 431.012 303.122 431.131 302.835 430.715L302.778 430.655C302.089 429.883 303.295 428.635 304.041 429.467Z" fill="#DFCBAE" fill-opacity="0.5"></path><path fill-rule="evenodd" clip-rule="evenodd" d="M304.73 429.882C304.902 432.319 305.074 434.756 305.189 437.192C305.247 438.559 305.993 442.065 305.189 443.313C304.787 443.907 304.385 444.145 303.639 444.086C302.893 444.086 302.089 443.551 301.4 443.373C300.022 442.957 298.586 442.838 297.151 442.838C296.06 442.838 296.06 441.055 297.151 441.055C298.414 441.055 299.677 441.174 300.94 441.471C301.515 441.59 302.606 442.243 303.122 442.125C303.524 442.422 303.696 442.362 303.582 441.887C303.639 441.411 303.639 440.936 303.582 440.401C303.524 436.954 303.237 433.448 303.007 430.001C302.893 428.694 304.615 428.694 304.73 429.882Z" fill="#DFCBAE" fill-opacity="0.5"></path><path fill-rule="evenodd" clip-rule="evenodd" d="M297.323 430.061C297.783 434.042 298.013 438.024 297.955 442.065C297.955 443.194 296.232 443.194 296.232 442.065C296.289 438.024 296.06 434.042 295.6 430.061C295.428 428.932 297.151 428.932 297.323 430.061Z" fill="#DFCBAE" fill-opacity="0.5"></path><path fill-rule="evenodd" clip-rule="evenodd" d="M481.136 390.499C481.087 398.597 480.991 406.745 480.943 414.843C480.943 416.843 480.894 418.842 480.894 420.792C480.894 422.142 480.605 423.841 481.136 425.141C481.957 427.34 484.71 426.741 485.724 428.59C485.82 428.24 485.917 427.89 485.965 427.54C482.44 429.34 481.522 433.389 481.232 437.138C480.991 440.737 480.846 446.536 485.386 447.236C485.338 446.786 485.289 446.336 485.193 445.886C478.335 449.135 481.087 461.832 483.985 466.931C486.11 470.68 489.249 473.73 492.485 476.429C494.32 477.979 496.156 479.428 498.039 480.928C499.15 481.828 500.261 482.678 501.323 483.577C501.903 484.027 504.366 485.427 504.463 486.277C504.656 486.027 504.801 485.777 504.994 485.577C505.042 485.577 505.042 485.577 505.09 485.577C505.187 485.927 505.284 486.277 505.332 486.627C505.38 486.577 505.38 486.527 505.428 486.477C505.815 485.627 504.607 484.877 504.173 485.727C504.124 485.777 504.124 485.827 504.076 485.877C503.883 486.277 503.98 486.627 504.318 486.927C504.656 487.226 504.897 487.226 505.332 487.077C505.622 486.977 505.911 486.677 505.863 486.377C505.67 484.827 504.173 484.127 503.014 483.227C501.323 481.828 499.585 480.478 497.894 479.078C494.707 476.529 491.471 473.98 488.718 470.98C485.627 467.631 483.502 463.732 482.874 459.083C482.343 455.284 481.86 449.185 485.917 447.236C486.448 446.986 486.352 445.936 485.724 445.886C481.86 445.286 482.391 439.588 482.681 436.538C482.971 433.539 483.792 430.39 486.641 428.94C486.98 428.74 487.076 428.24 486.883 427.89C485.869 426.091 483.406 426.441 482.488 424.841C481.764 423.641 482.247 420.842 482.295 419.392C482.295 417.393 482.343 415.393 482.343 413.444C482.391 405.845 482.44 398.197 482.536 390.599C482.585 389.549 481.136 389.499 481.136 390.499Z" fill="#DFCBAE" fill-opacity="0.5"></path><path fill-rule="evenodd" clip-rule="evenodd" d="M481.908 390.899C488.669 391.249 493.402 396.598 497.459 401.596C499.391 403.996 501.419 406.245 503.399 408.495C505.428 410.744 508.084 415.293 504.414 417.493C503.786 417.893 504.076 418.892 504.8 418.892C510.402 419.042 512.865 426.091 514.604 430.54C516.681 435.938 518.323 441.487 519.53 447.136C521.993 458.733 522.476 470.68 521.076 482.428C520.979 483.377 522.428 483.377 522.524 482.428C524.022 469.331 523.249 456.034 520.11 443.287C518.661 437.288 516.729 431.24 514.121 425.641C512.286 421.642 509.436 417.493 504.8 417.393C504.945 417.843 505.041 418.343 505.186 418.792C512.238 414.593 503.496 406.595 500.647 403.146C495.576 397.047 490.456 389.799 481.956 389.349C480.99 389.349 480.99 390.849 481.908 390.899Z" fill="#DFCBAE" fill-opacity="0.5"></path><path fill-rule="evenodd" clip-rule="evenodd" d="M506.152 408.895C509.533 396.498 514.266 384.55 520.351 373.303C520.013 373.403 519.675 373.503 519.337 373.553C520.641 374.353 521.993 375.153 523.297 375.952C523.973 376.352 524.601 375.552 524.311 374.903C520.834 367.704 531.266 363.105 534.791 358.806C534.502 358.856 534.212 358.906 533.922 358.906C534.598 359.306 535.323 359.706 535.999 360.106C536.337 360.306 536.772 360.206 537.013 359.856C540.877 353.058 547.686 349.259 554.255 345.759C553.916 345.459 553.53 345.209 553.192 344.91C551.115 351.958 554.399 359.656 555.027 366.704C555.365 370.504 555.414 374.353 555.124 378.202C554.979 380.101 555.124 382.951 554.399 384.65C554.399 385.9 553.723 386.6 552.323 386.85C551.888 386.9 551.502 386.95 551.067 387C550.101 387.1 549.087 387.2 548.121 387.3C547.735 387.35 547.348 387.6 547.397 388.05C547.445 389.049 547.735 389.349 548.459 389.999C549.377 390.799 550.101 390.899 550.536 392.299C550.777 393.048 550.777 393.898 550.777 394.648C550.729 398.697 550.149 402.846 549.473 406.845C548.797 410.744 547.831 414.593 546.672 418.343C545.658 421.492 544.306 426.191 540.539 426.691C540.056 426.741 539.573 427.29 539.911 427.84C542.712 432.289 538.558 437.688 536.53 441.537C534.308 445.636 532.28 449.835 530.397 454.084C526.629 462.532 523.539 471.28 521.027 480.228C520.786 481.178 522.186 481.578 522.428 480.628C525.277 470.33 528.996 460.333 533.536 450.735C535.661 446.186 538.22 441.887 540.442 437.388C542.036 434.139 543.291 430.34 541.215 427.041C541.022 427.44 540.78 427.79 540.587 428.19C543.436 427.84 545.272 425.741 546.527 423.191C548.411 419.292 549.425 414.793 550.343 410.544C551.357 405.845 552.033 401.047 552.274 396.248C552.371 394.648 552.516 392.848 551.84 391.349C551.453 390.349 548.99 388.799 548.942 388.1C548.701 388.349 548.459 388.599 548.218 388.849C550.922 388.549 554.786 389.249 555.703 386.05C556.911 382.051 556.863 377.102 556.814 373.003C556.814 368.604 556.38 364.255 555.607 359.956C554.737 355.107 553.192 350.258 554.641 345.359C554.834 344.71 554.11 344.21 553.578 344.51C546.769 348.159 539.766 352.108 535.806 359.156C536.144 359.056 536.482 358.956 536.82 358.906C536.144 358.506 535.419 358.106 534.743 357.707C534.502 357.557 534.067 357.557 533.874 357.807C529.817 362.755 519.144 367.454 523.152 375.702C523.49 375.352 523.828 375.003 524.166 374.653C522.862 373.853 521.51 373.053 520.206 372.253C519.868 372.053 519.385 372.153 519.192 372.503C513.107 383.901 508.277 395.948 504.848 408.445C504.462 409.445 505.862 409.844 506.152 408.895Z" fill="#DFCBAE" fill-opacity="0.5"></path><path fill-rule="evenodd" clip-rule="evenodd" d="M488.042 400.047C499.439 425.991 507.408 453.384 511.803 481.528C511.948 482.478 513.349 482.078 513.204 481.128C508.761 452.884 500.743 425.341 489.297 399.297C488.911 398.447 487.655 399.197 488.042 400.047Z" fill="#DFCBAE" fill-opacity="0.5"></path><path fill-rule="evenodd" clip-rule="evenodd" d="M548.171 356.157C534.069 378.452 521.802 401.946 513.109 427.09C512.771 427.99 514.171 428.39 514.509 427.49C523.154 402.446 535.373 379.102 549.427 356.907C549.91 356.107 548.654 355.357 548.171 356.157Z" fill="#DFCBAE" fill-opacity="0.5"></path><path fill-rule="evenodd" clip-rule="evenodd" d="M483.116 427.44C490.939 429.64 497.652 434.639 502.144 441.637C502.675 442.437 503.931 441.687 503.4 440.887C498.715 433.589 491.712 428.29 483.502 425.991C482.584 425.741 482.198 427.19 483.116 427.44Z" fill="#DFCBAE" fill-opacity="0.5"></path><path fill-rule="evenodd" clip-rule="evenodd" d="M501.951 406.695C499.294 411.244 497.507 416.193 496.783 421.492C496.638 422.442 498.039 422.841 498.184 421.892C498.908 416.743 500.598 411.894 503.206 407.445C503.689 406.645 502.434 405.895 501.951 406.695Z" fill="#DFCBAE" fill-opacity="0.5"></path><path fill-rule="evenodd" clip-rule="evenodd" d="M516.972 378.602C519.338 381.301 520.98 384.4 522.236 387.75C522.815 389.249 523.298 390.799 523.733 392.298C524.168 393.748 525.182 395.898 524.602 397.347C524.264 398.247 525.665 398.647 526.003 397.747C526.582 396.298 526.003 394.848 525.568 393.448C524.989 391.399 524.361 389.349 523.588 387.35C522.236 383.75 520.449 380.401 517.937 377.502C517.358 376.802 516.344 377.852 516.972 378.602Z" fill="#DFCBAE" fill-opacity="0.5"></path><path fill-rule="evenodd" clip-rule="evenodd" d="M533.344 384.35C539.381 377.152 547.205 372.053 556.092 369.554C557.009 369.304 556.623 367.854 555.705 368.104C546.626 370.654 538.512 375.902 532.33 383.251C531.751 384 532.765 385.1 533.344 384.35Z" fill="#DFCBAE" fill-opacity="0.5"></path><path fill-rule="evenodd" clip-rule="evenodd" d="M516.295 424.491C520.642 420.492 525.761 417.693 531.17 415.593C533.633 414.643 536.096 413.894 538.607 413.144C540.008 412.744 541.36 412.394 542.761 411.994C543.437 411.844 546.286 410.644 546.818 410.944C546.721 410.594 546.625 410.244 546.576 409.894C546.528 409.944 546.528 409.994 546.48 410.044C546.818 409.944 547.156 409.845 547.494 409.795C547.446 409.795 547.397 409.745 547.349 409.745C546.528 409.295 545.804 410.594 546.625 411.044C546.673 411.044 546.721 411.094 546.769 411.094C547.108 411.294 547.542 411.194 547.784 410.844C547.832 410.794 547.832 410.744 547.88 410.694C548.073 410.344 547.977 409.894 547.639 409.645C546.963 409.245 546.238 409.595 545.514 409.745C543.872 410.144 542.23 410.544 540.588 410.994C537.448 411.844 534.309 412.794 531.218 413.894C525.423 416.043 519.917 418.992 515.329 423.291C514.605 424.041 515.619 425.141 516.295 424.491Z" fill="#DFCBAE" fill-opacity="0.5"></path><path fill-rule="evenodd" clip-rule="evenodd" d="M491.665 486.177C502.628 488.926 513.784 486.877 524.747 485.527C536.628 484.077 548.557 483.827 560.486 483.627C561.404 483.627 561.404 482.128 560.486 482.128C548.847 482.328 537.208 482.578 525.665 483.927C514.509 485.277 503.159 487.526 492.051 484.727C491.182 484.477 490.796 485.927 491.665 486.177Z" fill="#DFCBAE" fill-opacity="0.5"></path><path fill-rule="evenodd" clip-rule="evenodd" d="M526.246 481.928C545.757 480.878 565.269 479.778 584.78 478.728C585.698 478.678 585.698 477.179 584.78 477.229C565.269 478.279 545.757 479.378 526.246 480.428C525.328 480.478 525.328 481.978 526.246 481.928Z" fill="#DFCBAE" fill-opacity="0.5"></path><path fill-rule="evenodd" clip-rule="evenodd" d="M5.92607 324.801C3.68562 327.434 1.74792 330.317 0.112991 333.451C-0.431985 334.516 1.14239 335.456 1.68737 334.391C3.26174 331.445 5.07833 328.687 7.25824 326.118C7.98487 325.24 6.71326 323.861 5.92607 324.801Z" fill="#DFCBAE" fill-opacity="0.5"></path><path fill-rule="evenodd" clip-rule="evenodd" d="M5.8658 325.554C7.68239 328.186 9.49898 330.756 11.3156 333.388C11.9816 334.391 13.556 333.451 12.8899 332.448C11.0734 329.816 9.25676 327.246 7.44018 324.613C6.71354 323.611 5.13916 324.551 5.8658 325.554Z" fill="#DFCBAE" fill-opacity="0.5"></path><path fill-rule="evenodd" clip-rule="evenodd" d="M5.74367 329.251C6.28864 351.376 6.77307 373.5 7.31805 395.687C7.31805 396.878 9.13463 396.878 9.13463 395.687C8.58966 373.563 8.10523 351.439 7.56026 329.251C7.4997 328.061 5.68312 327.998 5.74367 329.251Z" fill="#DFCBAE" fill-opacity="0.5"></path><path fill-rule="evenodd" clip-rule="evenodd" d="M9.31698 397.442C36.2025 397.442 63.088 397.442 89.9735 397.442C91.124 397.442 91.124 395.562 89.9735 395.562C63.088 395.562 36.2025 395.562 9.31698 395.562C8.16648 395.562 8.16648 397.442 9.31698 397.442Z" fill="#DFCBAE" fill-opacity="0.5"></path><path fill-rule="evenodd" clip-rule="evenodd" d="M86.4602 395.562C88.3374 396.314 90.1539 397.066 92.0311 397.818C91.7889 397.129 91.4861 396.439 91.2439 395.75C90.3356 397.442 89.064 398.758 87.4896 399.761C85.9758 400.701 87.3685 403.146 88.8823 402.206C90.8806 401.015 92.5155 399.26 93.666 397.192C94.1504 396.314 93.666 395.437 92.8788 395.123C91.0017 394.371 89.1851 393.619 87.308 392.867C85.5519 392.177 84.8253 394.873 86.4602 395.562Z" fill="#DFCBAE" fill-opacity="0.5"></path><path fill-rule="evenodd" clip-rule="evenodd" d="M27.4227 393.87C35.9607 376.133 37.2928 356.139 42.3187 337.274C43.5904 332.448 44.862 326.807 48.374 323.172C53.521 317.844 60.0608 321.605 62.1801 327.873C63.7545 332.636 63.815 338.151 64.1178 343.165C64.4206 348.555 64.6628 353.945 64.9655 359.336C65.6316 370.868 66.7821 382.463 70.5364 393.431C70.8997 394.559 72.6558 394.058 72.2924 392.93C68.3565 381.397 67.2666 369.176 66.661 357.017C66.3583 351.062 66.1161 345.046 65.6922 339.091C65.3289 334.328 65.1472 329.126 62.9673 324.801C61.2718 321.417 58.002 318.659 54.1871 318.659C50.2512 318.659 46.9813 321.48 44.9831 324.739C42.3793 329.063 41.1682 334.516 39.9572 339.405C38.625 344.858 37.5351 350.373 36.4451 355.888C34.023 368.549 31.5403 381.272 25.9089 392.93C25.3034 393.995 26.8777 394.935 27.4227 393.87Z" fill="#DFCBAE" fill-opacity="0.5"></path><path fill-rule="evenodd" clip-rule="evenodd" d="M35.7186 316.152C34.5075 314.335 36.9902 311.89 38.4434 313.896C39.8362 315.776 37.2324 317.656 35.7791 316.215C34.9314 315.4 33.6598 316.716 34.5075 317.531C35.7791 318.785 37.8379 318.91 39.2912 317.844C40.9261 316.654 41.1078 314.397 39.8967 312.768C38.6856 311.138 36.4452 310.699 34.9314 312.078C33.5992 313.332 33.1753 315.525 34.2047 317.092C34.8103 318.095 36.3846 317.155 35.7186 316.152Z" fill="#DFCBAE" fill-opacity="0.5"></path><path fill-rule="evenodd" clip-rule="evenodd" d="M49.1003 307.816C48.1315 306.375 50.2508 305.059 51.1591 306.563C52.128 308.193 49.4031 310.01 48.4948 308.193C47.9498 307.127 46.436 308.067 46.9204 309.133C47.7076 310.825 49.827 311.264 51.3408 310.324C52.9152 309.383 53.6418 307.252 52.6729 305.56C51.8252 304.119 49.827 303.367 48.3737 304.307C46.981 305.247 46.4965 307.252 47.4048 308.694C48.192 309.759 49.7664 308.819 49.1003 307.816Z" fill="#DFCBAE" fill-opacity="0.5"></path><path fill-rule="evenodd" clip-rule="evenodd" d="M43.8326 294.028C43.3482 292.586 44.862 291.082 46.073 292.273C47.2841 293.464 45.8914 295.156 44.4987 294.655C43.4087 294.279 42.9243 296.096 44.0142 296.472C47.163 297.538 49.8273 293.401 47.3446 290.957C46.2547 289.829 44.5592 289.641 43.2876 290.581C42.1371 291.458 41.5316 293.088 42.0765 294.529C42.5004 295.657 44.2564 295.219 43.8326 294.028Z" fill="#DFCBAE" fill-opacity="0.5"></path><path fill-rule="evenodd" clip-rule="evenodd" d="M66.9641 310.762C66.7824 310.637 67.0246 310.825 67.0852 310.95C67.0852 311.013 67.0852 311.076 67.0852 311.138C67.0852 311.201 67.0852 311.201 67.0852 311.076V311.138C67.2063 311.076 67.0852 311.138 67.0852 311.138C67.0246 311.138 67.2669 311.138 67.3274 311.138C67.5091 311.138 67.6907 311.201 67.8724 311.264C67.6302 310.95 67.4485 310.637 67.2063 310.386C67.2063 310.888 67.2063 311.389 67.2063 311.89C67.4485 311.577 67.6302 311.264 67.8724 311.013C67.388 311.201 66.9035 311.264 66.4191 311.138C65.3292 310.762 64.8447 312.58 65.9347 312.956C66.7219 313.207 67.6302 313.207 68.3568 312.83C68.7201 312.642 69.0229 312.392 69.0229 311.953C69.0229 311.452 69.0229 310.95 69.0229 310.449C69.0229 310.01 68.7201 309.634 68.3568 309.571C67.388 309.321 66.2375 309.195 65.6319 310.198C65.1475 310.95 65.2081 312.141 66.1164 312.517C66.5402 312.768 67.0852 312.642 67.388 312.204C67.5696 311.64 67.4485 311.013 66.9641 310.762Z" fill="#DFCBAE" fill-opacity="0.5"></path><path fill-rule="evenodd" clip-rule="evenodd" d="M457.929 81.0223C458.509 88.0207 459.089 95.0191 459.716 102.017C459.813 102.967 461.069 102.967 461.165 102.017C461.165 101.868 461.214 101.668 461.214 101.518C461.31 100.568 459.861 100.568 459.765 101.518C459.765 101.668 459.716 101.868 459.716 102.017C460.199 102.017 460.682 102.017 461.165 102.017C460.586 95.0191 460.006 88.0207 459.378 81.0223C459.282 80.0726 457.833 80.0226 457.929 81.0223Z" fill="#DFCBAE" fill-opacity="0.5"></path><path fill-rule="evenodd" clip-rule="evenodd" d="M459.04 81.5722C461.068 81.1223 464.594 80.4724 466.139 82.222C467.54 83.7717 467.202 86.821 467.395 88.9205C467.733 93.1195 468.071 97.3185 468.409 101.468C468.506 102.417 469.955 102.417 469.858 101.468C469.375 95.469 469.327 89.1704 468.361 83.2218C467.637 78.5729 462.034 79.4227 458.654 80.1225C457.736 80.3225 458.122 81.7721 459.04 81.5722Z" fill="#DFCBAE" fill-opacity="0.5"></path><path fill-rule="evenodd" clip-rule="evenodd" d="M471.403 53.3788C472.949 69.375 473.48 85.4213 472.997 101.518C472.949 102.467 474.397 102.467 474.446 101.518C474.929 85.4713 474.397 69.375 472.852 53.3788C472.755 52.429 471.306 52.379 471.403 53.3788Z" fill="#DFCBAE" fill-opacity="0.5"></path><path fill-rule="evenodd" clip-rule="evenodd" d="M473.143 53.3788C475.123 53.6787 477.538 53.6787 479.373 54.3786C481.836 55.2784 481.45 59.8773 481.691 62.2267C482.126 66.7757 482.416 71.3246 482.705 75.8736C483.237 85.3214 483.43 94.7692 483.623 104.217C483.623 105.167 485.072 105.167 485.072 104.217C484.83 93.3195 484.589 82.3721 483.864 71.4746C483.526 66.3758 483.285 61.227 482.512 56.1781C481.836 51.8791 476.862 52.429 473.529 51.8791C472.612 51.8292 472.225 53.2288 473.143 53.3788Z" fill="#DFCBAE" fill-opacity="0.5"></path><path fill-rule="evenodd" clip-rule="evenodd" d="M485.409 43.9809C487.051 62.9765 488.742 81.9221 490.384 100.918C490.48 101.867 491.929 101.867 491.833 100.918C490.191 81.9221 488.5 62.9765 486.858 43.9809C486.81 43.0311 485.361 43.0311 485.409 43.9809Z" fill="#DFCBAE" fill-opacity="0.5"></path><path fill-rule="evenodd" clip-rule="evenodd" d="M486.328 44.7307C488.646 44.2809 491.013 44.1309 493.379 44.3808C495.359 44.5808 496.76 44.9807 496.856 47.1802C496.905 47.93 496.905 48.7298 496.905 49.4796C497.05 53.2288 497.195 56.9779 497.388 60.727C498.016 75.0737 498.74 89.3704 499.464 103.717C499.513 104.667 500.962 104.667 500.913 103.717C500.141 88.2207 499.368 72.7742 498.692 57.2778C498.547 54.0286 498.402 50.8293 498.305 47.5801C498.257 46.1304 498.257 44.6808 496.953 43.731C495.746 42.8812 493.862 42.8312 492.462 42.7812C490.288 42.6312 488.115 42.8312 485.942 43.2811C485.024 43.481 485.41 44.9307 486.328 44.7307Z" fill="#DFCBAE" fill-opacity="0.5"></path><path fill-rule="evenodd" clip-rule="evenodd" d="M447.546 39.1821C445.952 42.4313 444.407 45.6806 442.813 48.9298C442.378 49.7796 443.634 50.5295 444.068 49.6797C445.662 46.4304 447.208 43.1812 448.801 39.9319C449.188 39.0821 447.932 38.2823 447.546 39.1821Z" fill="#DFCBAE" fill-opacity="0.5"></path><path fill-rule="evenodd" clip-rule="evenodd" d="M447.739 40.6817C448.415 43.581 449.912 46.1304 452.134 48.03C452.858 48.6299 453.872 47.5801 453.148 46.9802C451.119 45.2306 449.767 42.9812 449.139 40.3318C448.898 39.332 447.497 39.7319 447.739 40.6817Z" fill="#DFCBAE" fill-opacity="0.5"></path><path fill-rule="evenodd" clip-rule="evenodd" d="M446.725 41.3815C446.435 63.2764 449.188 85.1214 454.935 106.216C455.177 107.166 456.577 106.766 456.336 105.817C450.637 84.8714 447.884 63.1765 448.174 41.3815C448.174 40.4317 446.725 40.4317 446.725 41.3815Z" fill="#DFCBAE" fill-opacity="0.5"></path><path fill-rule="evenodd" clip-rule="evenodd" d="M456.674 107.516C467.975 106.416 479.324 105.817 490.674 105.767C501.25 105.717 512.696 105.267 522.452 110.216C523.273 110.616 523.998 109.366 523.177 108.916C513.711 104.117 502.892 104.217 492.557 104.267C480.58 104.267 468.603 104.867 456.674 106.017C455.756 106.117 455.756 107.616 456.674 107.516Z" fill="#DFCBAE" fill-opacity="0.5"></path><path fill-rule="evenodd" clip-rule="evenodd" d="M516.512 105.067C519.12 106.716 521.631 108.516 523.949 110.516C523.997 110.116 524.046 109.716 524.094 109.316C522.114 110.865 520.182 112.415 518.202 113.965C517.477 114.565 518.202 115.864 518.926 115.264C520.906 113.715 522.838 112.165 524.818 110.616C525.156 110.366 525.35 109.766 524.963 109.416C522.5 107.316 519.941 105.417 517.236 103.767C516.415 103.317 515.691 104.567 516.512 105.067Z" fill="#DFCBAE" fill-opacity="0.5"></path><path fill-rule="evenodd" clip-rule="evenodd" d="M451.216 66.7256C451.941 67.6254 452.665 68.5252 453.389 69.425C453.679 69.7749 454.307 69.6749 454.549 69.275C458.412 61.4269 462.228 53.5287 466.139 45.6805C467.154 43.681 468.554 45.3306 470.003 45.8805C470.921 46.2304 471.887 46.1304 472.804 45.7805C475.122 44.8807 476.668 42.3813 477.73 40.1818C479.469 36.4326 481.014 32.5336 482.705 28.7344C483.139 27.6847 483.622 26.6349 484.057 25.6351C484.299 25.0353 484.588 23.7856 485.071 23.3357C486.568 21.936 490.239 25.1353 491.495 25.9351C493.571 27.2348 496.566 30.1341 499.27 29.3843C501.299 28.8344 502.265 26.5349 502.844 24.6354C505.645 16.0874 509.219 8.33916 514.725 1.29079C515.159 0.740919 514.773 -0.208861 514 0.0410811C511.489 0.890884 509.219 2.19058 507.142 3.8402C506.466 4.39007 507.336 5.38984 508.012 5.03992C509.895 4.09014 511.827 3.09037 513.711 2.14059C513.373 1.99063 512.986 1.84066 512.648 1.6907C513.228 4.69 513.807 7.68931 514.338 10.6886C514.532 11.6384 515.932 11.2385 515.739 10.2887C515.159 7.2894 514.58 4.2901 514.049 1.29079C513.952 0.790907 513.373 0.640942 512.986 0.840896C511.103 1.79068 509.171 2.79044 507.287 3.74022C507.577 4.14013 507.867 4.54004 508.157 4.93995C510.04 3.3903 512.069 2.29056 514.387 1.49075C514.145 1.09084 513.904 0.640942 513.662 0.241035C509.461 5.63978 505.983 11.5884 503.472 18.0369C502.796 19.7365 502.216 21.4861 501.685 23.2357C501.25 24.6354 500.574 27.6347 498.787 27.9346C496.759 28.2845 494.151 25.8851 492.509 24.8353C490.867 23.7856 489.273 22.6358 487.583 21.6861C485.651 20.6363 484.443 21.0362 483.478 22.9858C481.642 26.7349 480.145 30.734 478.455 34.5831C477.199 37.4824 475.605 43.331 472.176 44.2808C469.858 44.9307 467.733 41.3315 465.656 43.431C464.449 44.6307 463.821 46.8802 463.097 48.3799C461.986 50.6294 460.924 52.8288 459.813 55.0783C457.639 59.5273 455.418 63.9763 453.245 68.4252C453.631 68.3752 454.017 68.3253 454.404 68.2753C453.679 67.3755 452.955 66.4757 452.23 65.5759C451.602 64.926 450.588 65.9758 451.216 66.7256Z" fill="#DFCBAE" fill-opacity="0.5"></path><path fill-rule="evenodd" clip-rule="evenodd" d="M263.275 129.359C268.008 126.66 270.037 119.812 267.042 114.963C264 110.014 256.61 109.114 252.312 112.763C247.917 116.562 247.869 124.361 252.071 128.31C256.417 132.459 263.71 131.359 267.284 126.76C267.863 126.01 268.877 127.06 268.298 127.81C264.966 132.009 259.025 133.508 254.147 131.409C249.414 129.359 246.951 124.061 247.579 118.912C248.207 113.613 252.022 109.664 257.142 109.064C262.02 108.464 267.235 110.964 269.071 115.863C271.099 121.261 268.829 127.81 263.951 130.559C263.179 131.109 262.454 129.809 263.275 129.359Z" fill="#DFCBAE" fill-opacity="0.5"></path><path fill-rule="evenodd" clip-rule="evenodd" d="M242.315 138.557C244.344 134.658 239.128 130.359 236.52 134.558C234.201 138.257 239.9 141.057 241.736 137.608C242.17 136.758 243.426 137.508 242.991 138.357C241.832 140.557 239.128 141.157 237.003 140.207C234.491 139.107 233.863 136.108 235.264 133.808C236.713 131.409 239.707 130.459 242.025 132.159C244.199 133.758 244.875 136.908 243.619 139.357C243.088 140.157 241.832 139.407 242.315 138.557Z" fill="#DFCBAE" fill-opacity="0.5"></path><path fill-rule="evenodd" clip-rule="evenodd" d="M306.783 516.67C268.775 516.67 230.814 516.67 192.806 516.67C191.888 516.67 191.888 515.17 192.806 515.17C230.814 515.17 268.775 515.17 306.783 515.17C307.749 515.17 307.749 516.67 306.783 516.67Z" fill="#DFCBAE" fill-opacity="0.5"></path><path fill-rule="evenodd" clip-rule="evenodd" d="M168.949 516.67C161.704 516.67 154.46 516.67 147.215 516.67C146.298 516.67 146.298 515.17 147.215 515.17C154.46 515.17 161.704 515.17 168.949 515.17C169.866 515.17 169.866 516.67 168.949 516.67Z" fill="#DFCBAE" fill-opacity="0.5"></path></svg>
