<svg width="612" height="520" viewBox="0 0 612 520" fill="none" xmlns="http://www.w3.org/2000/svg">
<path fill-rule="evenodd" clip-rule="evenodd" d="M423.66 427.602C461.964 427.602 500.316 427.602 538.62 427.602C549.474 427.602 560.278 427.602 571.132 427.602C572.057 427.602 572.057 426.142 571.132 426.142C532.828 426.142 494.476 426.142 456.172 426.142C445.319 426.142 434.514 426.142 423.66 426.142C422.736 426.142 422.736 427.602 423.66 427.602Z" fill="#E0F2FA"/>
<path fill-rule="evenodd" clip-rule="evenodd" d="M101.782 439.285C137.75 439.285 173.717 439.285 209.685 439.285C219.857 439.285 230.029 439.285 240.153 439.285C241.077 439.285 241.077 437.825 240.153 437.825C204.185 437.825 168.218 437.825 132.25 437.825C122.078 437.825 111.906 437.825 101.782 437.825C100.858 437.825 100.858 439.285 101.782 439.285Z" fill="#E0F2FA"/>
<path fill-rule="evenodd" clip-rule="evenodd" d="M95.6936 517.46C128.011 517.46 160.377 517.46 192.694 517.46C193.619 517.46 193.619 516 192.694 516C160.377 516 128.011 516 95.6936 516C94.7688 516 94.7688 517.46 95.6936 517.46Z" fill="#E0F2FA"/>
<path fill-rule="evenodd" clip-rule="evenodd" d="M309.069 423.565C348.103 423.565 387.137 423.565 426.171 423.565C437.121 423.565 448.121 423.565 459.072 423.565C460.97 423.565 460.97 420.645 459.072 420.645C420.038 420.645 381.004 420.645 341.971 420.645C331.02 420.645 320.02 420.645 309.069 420.645C307.171 420.645 307.171 423.565 309.069 423.565Z" fill="#0F2C37"/>
<path fill-rule="evenodd" clip-rule="evenodd" d="M50.6303 504.358C93.2656 504.358 135.95 504.358 178.585 504.358C190.558 504.358 202.482 504.358 214.455 504.358C216.353 504.358 216.353 501.438 214.455 501.438C171.82 501.438 129.136 501.438 86.5004 501.438C74.5275 501.438 62.6032 501.438 50.6303 501.438C48.7808 501.438 48.7808 504.358 50.6303 504.358Z" fill="#0F2C37"/>
<path fill-rule="evenodd" clip-rule="evenodd" d="M1.42361 505.088C13.4939 505.088 25.5155 505.088 37.5858 505.088C39.4839 505.088 39.4839 502.168 37.5858 502.168C25.5155 502.168 13.4939 502.168 1.42361 502.168C-0.474537 502.168 -0.474537 505.088 1.42361 505.088Z" fill="#0F2C37"/>
<path fill-rule="evenodd" clip-rule="evenodd" d="M329.074 519.738C363.922 519.738 398.77 519.738 433.666 519.738C443.692 519.738 453.67 519.738 463.696 519.738C465.594 519.738 465.594 516.818 463.696 516.818C428.848 516.818 394 516.818 359.103 516.818C349.077 516.818 339.1 516.818 329.074 516.818C327.175 516.818 327.175 519.738 329.074 519.738Z" fill="#0F2C37"/>
<path fill-rule="evenodd" clip-rule="evenodd" d="M385.24 508.203C421.646 508.203 458.051 508.203 494.457 508.203C496.355 508.203 496.355 505.283 494.457 505.283C458.051 505.283 421.646 505.283 385.24 505.283C383.342 505.283 383.342 508.203 385.24 508.203Z" fill="#0F2C37"/>
<path fill-rule="evenodd" clip-rule="evenodd" d="M510.564 505.088C516.988 505.088 523.364 505.088 529.789 505.088C531.687 505.088 531.687 502.168 529.789 502.168C523.364 502.168 516.988 502.168 510.564 502.168C508.714 502.168 508.714 505.088 510.564 505.088Z" fill="#0F2C37"/>
<path fill-rule="evenodd" clip-rule="evenodd" d="M24.6252 424.6C81.3263 424.6 137.979 424.6 194.68 424.6C251.381 424.6 308.033 424.6 364.735 424.6C396.468 424.6 428.201 424.6 459.934 424.6C460.859 424.6 460.859 423.14 459.934 423.14C403.233 423.14 346.58 423.14 289.879 423.14C233.178 423.14 176.526 423.14 119.825 423.14C88.0915 423.14 56.3583 423.14 24.6252 423.14C23.7005 423.14 23.7005 424.6 24.6252 424.6Z" fill="#E0F2FA"/>
<path fill-rule="evenodd" clip-rule="evenodd" d="M25.8893 422.848C20.7302 412.384 17.81 400.995 17.226 389.314C17.1773 388.39 15.7172 388.39 15.7658 389.314C16.3499 401.239 19.3675 412.871 24.6239 423.578C25.0619 424.406 26.2787 423.676 25.8893 422.848Z" fill="#E0F2FA"/>
<path fill-rule="evenodd" clip-rule="evenodd" d="M17.4683 389.363C24.5742 390.239 31.7775 391.602 38.932 391.797C45.8432 391.943 52.6571 390.434 59.3736 388.974C60.2984 388.779 59.909 387.368 58.9843 387.562C52.0731 389.071 45.1132 390.629 38.0073 390.288C31.1448 389.996 24.2822 388.73 17.517 387.903C16.5436 387.806 16.5436 389.266 17.4683 389.363Z" fill="#E0F2FA"/>
<path fill-rule="evenodd" clip-rule="evenodd" d="M58.3528 388.682C58.1094 400.265 55.6759 411.654 51.2956 422.41C50.9549 423.286 52.3663 423.676 52.707 422.8C57.1847 411.946 59.5695 400.411 59.8129 388.682C59.8616 387.757 58.4015 387.757 58.3528 388.682Z" fill="#E0F2FA"/>
<path fill-rule="evenodd" clip-rule="evenodd" d="M25.3544 388.828C23.1642 386.297 21.2174 383.571 19.6113 380.602C18.7839 379.094 18.0538 377.585 17.3725 375.979C16.7884 374.567 14.6956 368.629 18.9299 369.505C19.4166 369.603 20.0493 369.165 19.806 368.629C18.2972 364.492 17.3725 360.209 16.399 355.926C15.377 351.497 14.3062 347.068 13.8195 342.542C13.5762 340.449 13.4788 338.308 13.5762 336.166C13.6248 334.706 13.9655 328.282 17.3725 331.689C18.7352 333.051 19.66 335.241 20.6334 336.945C21.7041 338.794 22.6775 340.693 23.651 342.591C31.1462 357.63 35.0885 374.324 35.2345 391.164C35.2345 392.089 36.6946 392.089 36.6946 391.164C36.5486 375.93 33.385 360.842 27.2526 346.874C25.6951 343.369 23.9916 339.914 22.0935 336.604C20.8281 334.414 19.2706 330.423 16.7397 329.401C10.7533 327.016 12.0674 340.157 12.3594 342.591C12.8461 346.922 13.7708 351.157 14.7443 355.44C15.815 360.015 16.7397 364.687 18.3459 369.067C18.6379 368.775 18.9299 368.483 19.2219 368.191C17.5671 367.851 16.0097 368.532 15.231 370.09C14.2575 371.988 14.9876 374.227 15.7177 376.076C17.7132 381.186 20.6334 385.81 24.1863 389.947C24.9164 390.58 25.9385 389.558 25.3544 388.828Z" fill="#E0F2FA"/>
<path fill-rule="evenodd" clip-rule="evenodd" d="M33.9201 369.067C33.6768 367.218 33.3361 356.608 37.1324 357.386C37.6191 357.484 38.0084 357.192 38.0571 356.705C38.8845 349.745 39.7119 342.639 42.5348 336.166C43.2649 334.463 44.1409 332.759 45.2117 331.25C46.1364 329.936 47.8886 329.401 48.9106 330.958C49.3 331.542 49.4947 332.321 49.6894 333.003C50.6628 336.799 51.0521 340.79 51.2468 344.683C51.9282 360.209 47.9372 375.492 44.0436 390.434C43.8002 391.358 45.2117 391.748 45.455 390.823C50.1761 372.864 55.0431 353.979 51.6849 335.339C51.2955 333.1 50.8575 329.352 48.2779 328.379C45.309 327.259 43.4109 331.299 42.3401 333.343C38.5438 340.546 37.5704 348.772 36.6457 356.705C36.9377 356.462 37.2784 356.218 37.5704 356.024C31.9733 354.856 32.1193 365.952 32.5087 369.116C32.606 369.992 34.0661 370.041 33.9201 369.067Z" fill="#E0F2FA"/>
<path fill-rule="evenodd" clip-rule="evenodd" d="M15.6197 390.726C21.9955 403.575 31.0482 414.964 42.1451 424.016C42.8751 424.601 43.8972 423.578 43.1672 422.994C32.119 413.99 23.1636 402.747 16.8851 389.996C16.4957 389.168 15.2303 389.898 15.6197 390.726Z" fill="#E0F2FA"/>
<path fill-rule="evenodd" clip-rule="evenodd" d="M26.7157 390.288C31.3394 395.349 36.0118 400.46 40.6355 405.521C44.5291 409.804 48.3254 414.525 53.4845 417.348C54.3119 417.786 55.0419 416.521 54.2145 416.083C48.9094 413.211 45.0158 408.198 41.0248 403.818C36.5958 398.951 32.1668 394.133 27.7378 389.265C27.1051 388.584 26.083 389.606 26.7157 390.288Z" fill="#E0F2FA"/>
<path fill-rule="evenodd" clip-rule="evenodd" d="M41.2209 391.65C45.5039 397.588 50.4683 402.893 56.1141 407.566C56.8441 408.15 57.8662 407.128 57.1362 406.544C51.6364 401.92 46.7207 396.712 42.4863 390.92C41.951 390.19 40.6855 390.92 41.2209 391.65Z" fill="#E0F2FA"/>
<path fill-rule="evenodd" clip-rule="evenodd" d="M52.9503 389.898C54.7511 391.943 56.5519 393.987 58.3527 396.031C58.9855 396.761 60.0075 395.69 59.3748 395.009C57.574 392.965 55.7732 390.92 53.9724 388.876C53.3397 388.195 52.3176 389.217 52.9503 389.898Z" fill="#E0F2FA"/>
<path fill-rule="evenodd" clip-rule="evenodd" d="M337.963 431.007C348.56 431.007 359.1 431.007 369.697 431.007C370.762 431.007 370.762 429.325 369.697 429.325C359.1 429.325 348.56 429.325 337.963 429.325C336.898 429.325 336.898 431.007 337.963 431.007Z" fill="#E0F2FA"/>
<path fill-rule="evenodd" clip-rule="evenodd" d="M434.174 442.932C479.867 442.932 525.561 442.932 571.254 442.932C584.261 442.932 597.268 442.932 610.275 442.932C611.341 442.932 611.341 441.25 610.275 441.25C564.582 441.25 518.889 441.25 473.195 441.25C460.188 441.25 447.181 441.25 434.174 441.25C433.109 441.25 433.109 442.932 434.174 442.932Z" fill="#E0F2FA"/>
<path fill-rule="evenodd" clip-rule="evenodd" d="M497.031 279.544C491.424 277.414 487.892 271.807 488.901 265.808C489.91 259.697 495.909 254.259 502.076 257.903C506.337 260.426 508.524 266.144 506.898 270.798C505.216 275.788 499.722 278.759 494.62 277.974C493.554 277.806 493.106 279.432 494.171 279.6C500.17 280.497 506.506 277.189 508.524 271.246C510.542 265.303 507.29 258.127 501.46 255.716C494.62 252.913 488.396 258.8 487.219 265.36C485.986 272.312 490.078 278.703 496.526 281.17C497.591 281.562 498.04 279.937 497.031 279.544Z" fill="#E0F2FA"/>
<path fill-rule="evenodd" clip-rule="evenodd" d="M508.522 278.479C497.365 278.142 501.57 260.258 511.438 260.93C521.305 261.659 517.268 281.787 506.448 278.086C505.439 277.75 504.99 279.376 505.999 279.712C518.502 283.973 524.108 261.211 512.166 259.305C506.336 258.351 501.065 263.846 500.168 269.284C499.271 274.666 502.916 279.937 508.522 280.105C509.587 280.217 509.587 278.535 508.522 278.479Z" fill="#E0F2FA"/>
<path fill-rule="evenodd" clip-rule="evenodd" d="M520.752 284.866C519.799 283.857 519.35 282.231 520.079 280.997C520.808 279.82 522.602 279.259 523.723 280.156C524.732 280.941 524.957 282.623 524.003 283.464C522.882 284.473 521.088 283.969 520.023 283.128C519.182 282.455 518.004 283.632 518.845 284.305C520.583 285.651 523.275 286.324 525.125 284.698C526.807 283.184 526.638 280.381 524.957 278.923C523.219 277.409 520.471 277.858 519.014 279.54C517.388 281.446 517.836 284.305 519.518 286.043C520.303 286.828 521.48 285.651 520.752 284.866Z" fill="#E0F2FA"/>
<path fill-rule="evenodd" clip-rule="evenodd" d="M387.821 249.058C386.251 239.527 391.801 228.033 402.566 228.146C408.06 228.202 413.386 230.444 418.937 229.659C422.861 229.099 426.225 226.856 428.58 223.772C430.935 220.689 432.28 216.82 432.505 212.952C432.785 207.233 430.598 201.402 432.168 195.74C432.953 192.88 434.635 190.245 437.495 189.18C440.242 188.227 443.213 188.788 446.073 188.675C450.221 188.507 453.473 186.713 455.548 183.069C458.463 177.967 457.79 171.856 459.809 166.474C462.219 159.97 469.003 154.42 476.18 157.615C477.133 158.064 478.03 156.606 477.021 156.158C467.265 151.784 459.136 160.587 457.23 169.445C455.996 175.22 456.22 184.19 449.324 186.489C444.503 188.115 439.064 185.592 434.635 188.9C430.991 191.591 429.926 196.525 429.982 200.842C430.15 207.177 432.112 213.344 429.309 219.399C426.73 225.118 421.628 228.538 415.293 228.146C409.686 227.809 404.136 225.51 398.473 226.968C388.886 229.379 384.793 240.704 386.307 249.563C386.419 250.516 388.045 250.067 387.821 249.058Z" fill="#E0F2FA"/>
<path fill-rule="evenodd" clip-rule="evenodd" d="M465.3 232.586C463.226 227.876 466.085 223.391 470.627 221.877C473.935 220.756 477.579 220.7 480.438 218.457C482.681 216.719 483.41 214.533 483.129 211.729C482.849 209.094 482.849 207.02 484.923 205.226C486.661 203.712 488.96 203.151 491.203 203.039C497.37 202.815 505.836 205.955 510.321 199.956C512.395 197.152 511.779 193.676 512.732 190.537C514.021 186.163 518.226 183.472 522.711 183.697C523.777 183.753 523.777 182.071 522.711 182.015C519.291 181.846 515.984 183.136 513.629 185.603C510.713 188.686 511.106 192.162 510.209 196.031C507.798 206.627 493.053 199.171 486.101 202.478C483.522 203.712 481.447 205.898 481.223 208.814C480.943 212.234 482.513 215.037 479.036 217.392C477.186 218.625 475.056 219.018 472.925 219.522C469.393 220.363 465.917 221.429 464.123 224.849C462.665 227.54 462.665 230.623 463.899 233.371C464.291 234.436 465.693 233.539 465.3 232.586Z" fill="#E0F2FA"/>
<path fill-rule="evenodd" clip-rule="evenodd" d="M488.556 118.611C488.332 118.106 488.108 117.546 487.94 116.985C488.669 116.144 489.341 115.303 490.07 114.462C490.294 114.406 491.304 115.079 491.64 115.079C492.481 115.191 493.21 114.967 493.883 114.462C495.957 112.836 495.228 110.257 495.845 108.071C496.854 104.314 501.283 106.893 503.302 104.09C505.32 101.343 504.591 95.5119 509.973 97.0817C511.039 97.362 511.487 95.7361 510.422 95.4558C507.338 94.5587 504.535 96.0164 503.414 98.9879C503.077 99.8289 502.965 100.782 502.629 101.623C501.9 103.585 501.115 103.866 498.985 103.978C497.415 104.09 496.181 103.978 495.116 105.323C494.219 106.501 494.219 108.014 494.051 109.416C493.883 111.49 494.051 113.229 490.967 113.004C490.35 112.948 489.846 112.388 489.173 112.388C485.473 112.331 486.09 116.873 486.987 119.059C487.323 120.069 489.005 119.62 488.556 118.611Z" fill="#E0F2FA"/>
<path fill-rule="evenodd" clip-rule="evenodd" d="M499.099 123.265C498.202 122.087 496.688 118.667 499.323 117.77C500.277 117.434 501.51 117.826 502.519 117.826C503.416 117.826 504.201 117.826 504.93 117.21C507.173 115.416 505.547 112.22 506.724 109.977C508.63 106.333 512.443 109.192 515.134 107.286C517.04 105.94 517.545 103.361 517.881 101.231C518.049 100.166 516.423 99.7172 516.255 100.782C515.863 103.305 515.414 106.109 512.275 106.389C510.649 106.557 509.415 105.997 507.901 106.725C505.435 107.903 504.65 110.089 504.594 112.612C504.538 114.743 505.042 115.808 501.454 115.976C501.005 115.976 500.557 115.864 500.108 115.864C498.819 115.976 497.698 116.649 496.969 117.714C495.399 119.957 496.296 122.536 497.866 124.498C498.595 125.339 499.772 124.106 499.099 123.265Z" fill="#E0F2FA"/>
<path fill-rule="evenodd" clip-rule="evenodd" d="M18.4623 194.745C23.1157 189.138 29.7314 184.541 37.3563 185.326C45.654 186.167 49.7468 192.782 50.5317 200.519C51.8772 213.358 48.7376 228.72 57.4277 239.653C60.8477 243.97 65.9497 246.269 71.4441 244.923C78.0598 243.353 83.2178 238.139 89.1047 235.056C96.0568 231.411 105.644 229.449 111.923 235.56C116.521 240.045 117.53 246.885 119.044 252.828C120.445 258.211 122.856 264.154 127.678 267.349C130.593 269.256 133.789 269.424 137.153 269.199C140.909 268.919 148.59 268.695 147.805 274.582C147.693 275.647 149.375 275.647 149.487 274.582C149.767 272.283 148.702 270.433 146.852 269.087C143.937 266.957 140.573 267.293 137.153 267.518C133.284 267.798 129.976 267.461 127.005 264.714C124.314 262.247 122.688 258.771 121.51 255.351C119.548 249.464 118.988 243.017 115.624 237.635C112.316 232.308 106.597 229.729 100.43 229.954C92.6368 230.234 86.0771 234.719 79.8539 238.868C76.8824 240.83 73.6867 242.905 70.0424 243.522C65.6693 244.25 61.8008 242.344 58.9976 239.092C53.7274 232.925 52.8864 224.123 52.6061 216.386C52.3258 209.153 53.2789 201.304 50.8681 194.296C48.6815 187.905 43.131 183.924 36.4593 183.588C28.7222 183.195 21.9383 187.849 17.1728 193.567C16.556 194.408 17.7334 195.586 18.4623 194.745Z" fill="#E0F2FA"/>
<path fill-rule="evenodd" clip-rule="evenodd" d="M398.135 36.2832C404.228 46.4378 409.657 56.9439 414.46 67.7625C414.773 68.4655 415.788 67.8406 415.476 67.1767C410.672 56.3581 405.204 45.852 399.15 35.6973C398.76 35.0334 397.744 35.6192 398.135 36.2832Z" fill="#E0F2FA"/>
<path fill-rule="evenodd" clip-rule="evenodd" d="M398.878 35.8142C408.369 29.9167 418.133 24.4098 428.17 19.4106C428.834 19.0591 428.248 18.0436 427.584 18.3951C417.586 23.3943 407.822 28.9013 398.292 34.7988C397.628 35.2284 398.214 36.2438 398.878 35.8142Z" fill="#E0F2FA"/>
<path fill-rule="evenodd" clip-rule="evenodd" d="M427.467 18.9032C432.427 29.3312 437.661 39.603 443.207 49.7185C443.558 50.3825 444.574 49.7967 444.222 49.1327C438.676 39.0171 433.404 28.7454 428.483 18.3174C428.131 17.6143 427.155 18.2002 427.467 18.9032Z" fill="#E0F2FA"/>
<path fill-rule="evenodd" clip-rule="evenodd" d="M415.79 67.997C425.124 62.3729 434.341 56.5926 443.48 50.656C444.105 50.2655 443.519 49.25 442.895 49.6406C433.755 55.5771 424.538 61.3574 415.204 66.9815C414.579 67.3721 415.165 68.3876 415.79 67.997Z" fill="#E0F2FA"/>
<path fill-rule="evenodd" clip-rule="evenodd" d="M415.047 32.3774C414.812 39.8761 415.242 47.3359 416.336 54.7566C416.453 55.4986 417.585 55.1862 417.468 54.4441C416.375 47.1406 415.984 39.759 416.218 32.3774C416.257 31.6353 415.086 31.6353 415.047 32.3774Z" fill="#E0F2FA"/>
<path fill-rule="evenodd" clip-rule="evenodd" d="M415.087 31.987C420.516 36.2441 425.945 40.4231 431.452 44.5631C432.038 45.0318 432.624 44.0163 432.038 43.5476C426.609 39.4858 421.219 35.3458 415.907 31.1668C415.322 30.6981 414.501 31.5183 415.087 31.987Z" fill="#E0F2FA"/>
<path fill-rule="evenodd" clip-rule="evenodd" d="M417.547 54.991C422.039 50.9682 427.897 48.8201 432.154 44.4849C432.701 43.9381 431.842 43.1179 431.334 43.6647C427.077 47.9609 421.257 50.148 416.727 54.1708C416.141 54.6395 417 55.4597 417.547 54.991Z" fill="#E0F2FA"/>
<path fill-rule="evenodd" clip-rule="evenodd" d="M399.698 42.415C400.948 41.7901 402.198 41.2042 403.448 40.5793C404.112 40.2669 403.526 39.2514 402.862 39.5639C401.612 40.1888 400.362 40.7746 399.113 41.3995C398.449 41.751 399.035 42.7274 399.698 42.415Z" fill="#E0F2FA"/>
<path fill-rule="evenodd" clip-rule="evenodd" d="M403.722 49.0545C404.776 48.3515 405.909 47.7656 407.08 47.2579C407.783 46.9845 407.471 45.8519 406.768 46.1253C405.479 46.672 404.268 47.2969 403.097 48.039C402.511 48.4686 403.097 49.4841 403.722 49.0545Z" fill="#E0F2FA"/>
<path fill-rule="evenodd" clip-rule="evenodd" d="M408.135 56.7093C409.229 56.1625 410.322 55.6157 411.416 55.108C412.08 54.7565 411.494 53.7801 410.83 54.0925C409.737 54.6393 408.643 55.1861 407.549 55.6938C406.885 56.0063 407.471 57.0217 408.135 56.7093Z" fill="#E0F2FA"/>
<path fill-rule="evenodd" clip-rule="evenodd" d="M410.4 64.3644C411.611 63.3099 412.861 62.4116 414.267 61.6305C414.931 61.24 414.345 60.2635 413.681 60.6151C412.236 61.4352 410.869 62.4116 409.58 63.5443C408.994 64.052 409.814 64.8722 410.4 64.3644Z" fill="#E0F2FA"/>
<path fill-rule="evenodd" clip-rule="evenodd" d="M429.694 26.5969C430.592 25.972 431.529 25.5423 432.584 25.2689C433.326 25.0737 433.014 23.9801 432.271 24.1363C431.139 24.4097 430.045 24.8784 429.069 25.5814C428.483 26.011 429.069 27.0265 429.694 26.5969Z" fill="#E0F2FA"/>
<path fill-rule="evenodd" clip-rule="evenodd" d="M433.169 33.2758C434.419 32.4946 435.669 31.7135 436.88 30.8933C437.504 30.5028 436.919 29.4873 436.294 29.8779C435.044 30.659 433.794 31.4401 432.583 32.2603C431.919 32.6899 432.505 33.7054 433.169 33.2758Z" fill="#E0F2FA"/>
<path fill-rule="evenodd" clip-rule="evenodd" d="M437.153 41.2822C438.481 40.6963 439.848 40.1105 441.176 39.5247C441.879 39.2122 441.254 38.1967 440.59 38.5092C439.262 39.095 437.895 39.6809 436.567 40.2667C435.864 40.5792 436.489 41.5946 437.153 41.2822Z" fill="#E0F2FA"/>
<path fill-rule="evenodd" clip-rule="evenodd" d="M440.003 46.5157C441.058 45.5002 442.229 44.641 443.518 43.8989C444.182 43.5474 443.596 42.5319 442.932 42.8834C441.565 43.6645 440.316 44.5628 439.183 45.6564C438.636 46.2032 439.456 47.0234 440.003 46.5157Z" fill="#E0F2FA"/>
<path fill-rule="evenodd" clip-rule="evenodd" d="M419.109 62.8417C420.086 64.2868 420.906 65.81 421.531 67.4113C421.804 68.1143 422.937 67.8018 422.664 67.0988C422 65.3803 421.179 63.74 420.125 62.2168C419.695 61.6309 418.68 62.2168 419.109 62.8417Z" fill="#E0F2FA"/>
<path fill-rule="evenodd" clip-rule="evenodd" d="M425.085 59.5996C425.827 60.9275 426.53 62.2164 427.272 63.5443C427.623 64.2082 428.639 63.6224 428.287 62.9584C427.545 61.6305 426.842 60.3417 426.1 59.0137C425.749 58.3498 424.733 58.9356 425.085 59.5996Z" fill="#E0F2FA"/>
<path fill-rule="evenodd" clip-rule="evenodd" d="M431.997 54.6396C432.778 56.0457 433.559 57.4517 434.34 58.8577C434.692 59.5217 435.707 58.9358 435.356 58.2719C434.574 56.8658 433.793 55.4598 433.012 54.0538C432.661 53.3898 431.645 53.9757 431.997 54.6396Z" fill="#E0F2FA"/>
<path fill-rule="evenodd" clip-rule="evenodd" d="M438.206 50.9292C438.831 52.4133 439.456 53.8975 440.12 55.3425C440.433 56.0455 441.409 55.4206 441.136 54.7567C440.511 53.2726 439.886 51.7884 439.222 50.3433C438.909 49.6794 437.894 50.2652 438.206 50.9292Z" fill="#E0F2FA"/>
<path fill-rule="evenodd" clip-rule="evenodd" d="M402.783 29.7998C403.525 31.0105 404.228 32.2213 404.97 33.393C405.361 34.0569 406.376 33.432 405.986 32.8071C405.244 31.5964 404.541 30.3856 403.799 29.2139C403.408 28.589 402.393 29.1749 402.783 29.7998Z" fill="#E0F2FA"/>
<path fill-rule="evenodd" clip-rule="evenodd" d="M409.501 25.8944C410.204 27.4567 410.907 29.0189 411.61 30.5812C411.922 31.2842 412.938 30.6593 412.625 29.9953C411.922 28.4331 411.219 26.8708 410.516 25.3086C410.165 24.6056 409.189 25.1914 409.501 25.8944Z" fill="#E0F2FA"/>
<path fill-rule="evenodd" clip-rule="evenodd" d="M415.555 22.1448C416.61 23.5509 417.43 25.0741 417.977 26.7144C418.211 27.4174 419.344 27.105 419.109 26.402C418.523 24.6444 417.703 23.0041 416.571 21.559C416.141 20.9732 415.126 21.5199 415.555 22.1448Z" fill="#E0F2FA"/>
<path fill-rule="evenodd" clip-rule="evenodd" d="M422.077 19.1372C422.897 20.387 423.678 21.5977 424.499 22.8475C424.889 23.4724 425.905 22.8866 425.514 22.2617C424.694 21.0119 423.913 19.8011 423.093 18.5513C422.663 17.9264 421.648 18.5123 422.077 19.1372Z" fill="#E0F2FA"/>
<path fill-rule="evenodd" clip-rule="evenodd" d="M101.371 122.434C95.9325 120.752 95.6521 114.978 98.2312 110.661C100.754 106.456 105.632 105.334 109.444 108.81C112.584 111.726 112.864 116.716 109.949 119.911C107.033 123.163 102.268 123.107 98.9039 120.64C98.063 119.967 97.222 121.425 98.063 122.098C102.324 125.238 108.547 124.733 111.743 120.304C115.051 115.819 113.873 109.539 109.22 106.512C98.0069 99.2793 88.3636 120.136 100.922 124.06C101.988 124.397 102.436 122.771 101.371 122.434Z" fill="#E0F2FA"/>
<path fill-rule="evenodd" clip-rule="evenodd" d="M110.398 123.892C106.193 125.181 105.184 120.135 107.034 117.444C108.548 115.258 111.519 113.968 114.21 114.697C116.789 115.37 118.639 118.005 117.967 120.64C117.126 123.948 113.65 125.125 110.566 124.621C109.501 124.452 109.052 126.078 110.117 126.247C114.266 126.975 118.752 125.181 119.649 120.696C120.433 116.828 117.406 113.295 113.65 112.847C109.501 112.342 104.959 115.37 104.399 119.631C103.894 123.331 107.258 126.639 110.958 125.462C111.912 125.181 111.463 123.555 110.398 123.892Z" fill="#E0F2FA"/>
<path fill-rule="evenodd" clip-rule="evenodd" d="M84.9564 183.419C83.6108 186.166 85.517 188.914 88.3203 189.643C90.4508 190.203 92.6934 189.699 94.8799 189.811C97.2347 189.923 99.5894 190.484 101.72 191.437C106.429 193.567 109.457 197.436 109.625 202.65C109.793 207.023 108.504 211.564 110.41 215.713C114.447 224.459 125.548 217.787 131.266 223.45C136.032 228.216 134.07 236.906 140.461 240.55C141.414 241.111 142.255 239.653 141.302 239.092C135.583 235.84 136.929 227.375 132.892 222.665C130.762 220.198 127.678 219.525 124.539 219.301C120.726 219.077 115.792 219.862 112.989 216.61C109.737 212.798 111.475 207.079 111.307 202.594C111.195 199.062 110.018 195.866 107.551 193.343C105.364 191.156 102.505 189.643 99.5334 188.858C98.0196 188.465 96.4498 188.185 94.8799 188.129C92.8616 188.017 84.1154 189.026 86.4701 184.26C86.9186 183.307 85.4609 182.466 84.9564 183.419Z" fill="#E0F2FA"/>
<path fill-rule="evenodd" clip-rule="evenodd" d="M202.067 33.2488C199.881 31.735 196.909 29.3242 197.806 26.2967C198.76 23.157 201.114 24.6708 203.301 23.9419C206.216 22.9888 206.048 19.4567 205.207 17.158C204.366 14.9154 202.572 9.47707 207.225 11.3272C208.291 11.7757 209.076 12.5046 210.309 12.1121C211.43 11.7758 211.991 10.7666 212.271 9.70133C212.496 8.74822 212.327 7.73904 212.271 6.72986C212.159 6.05708 212.103 5.32823 212.103 4.65544C211.879 3.02954 212.888 2.35676 215.019 2.63709C215.075 3.70233 216.757 3.70233 216.701 2.63709C216.588 1.06726 215.411 -0.0540531 213.729 0.00201228C211.767 0.0580777 210.702 1.9643 210.477 3.75839C210.309 4.99183 211.318 7.85117 210.758 8.86035C210.085 9.30887 209.412 9.81346 208.683 10.262C208.403 10.0938 208.123 9.92559 207.842 9.75739C207.338 9.5892 206.945 9.25281 206.441 9.14067C204.703 8.74822 203.301 9.81346 202.684 11.3833C201.619 14.0744 203.525 16.317 204.086 18.84C204.815 22.316 202.18 21.9236 199.881 22.316C198.872 22.4842 198.031 22.9888 197.358 23.7177C193.826 27.8105 197.919 32.3518 201.283 34.7065C202.124 35.3232 202.965 33.8655 202.067 33.2488Z" fill="#E0F2FA"/>
<path fill-rule="evenodd" clip-rule="evenodd" d="M213.112 31.6795C211.262 29.549 209.861 26.6336 213.449 25.5123C214.346 25.232 215.355 25.3441 216.196 24.7835C218.046 23.494 217.261 21.7559 216.925 19.9618C216.757 18.9527 216.364 17.6071 216.981 16.5979C217.429 15.8691 219.055 15.5887 219.896 15.4205C221.074 15.1402 222.307 14.972 223.316 14.2992C224.83 13.234 225.391 11.3278 224.382 9.70187C223.821 8.80482 222.363 9.6458 222.924 10.5428C224.606 13.234 216.757 13.9628 215.411 15.9251C213.841 18.2238 217.149 22.2605 214.402 23.7182C213.337 24.2789 211.991 23.8864 210.982 24.6153C210.253 25.1199 209.748 25.9048 209.524 26.7458C208.907 29.1566 210.533 31.231 211.991 32.913C212.664 33.6979 213.841 32.5205 213.112 31.6795Z" fill="#E0F2FA"/>
<path fill-rule="evenodd" clip-rule="evenodd" d="M106.808 33.3915C105.35 32.3823 105.182 30.5882 105.63 29.0184C105.911 27.9531 107.256 25.0377 108.546 24.9256C110.676 24.7013 111.741 27.3925 112.302 28.9623C112.807 30.4761 112.975 31.9898 113.031 33.5597C113.031 34.6249 114.713 34.6249 114.713 33.5597C114.657 30.42 112.582 20.7767 107.424 23.58C105.462 24.6453 104.004 27.7289 103.78 29.8593C103.556 31.8777 104.341 33.6718 105.967 34.8492C106.808 35.4659 107.649 34.0082 106.808 33.3915Z" fill="#E0F2FA"/>
<path fill-rule="evenodd" clip-rule="evenodd" d="M106.135 34.2888C104.117 34.7934 102.098 35.2979 100.024 35.8025C98.8464 36.0829 96.8281 36.195 95.8749 37.092C94.249 38.6058 94.6976 43.2592 94.6976 45.2215C94.6976 45.7822 95.2582 46.1746 95.7628 46.0064C96.0431 45.9504 96.3235 45.8382 96.6599 45.7822C98.1176 44.9973 98.8464 45.5019 98.9025 47.1838C100.024 48.3051 100.024 48.9779 98.9025 49.09C98.2297 49.3704 97.5569 49.4825 96.8281 49.4825C96.3795 49.5386 95.9871 49.8189 95.9871 50.3235C96.0992 53.9117 96.3795 57.4438 96.772 61.032C96.8841 62.0972 98.5661 62.0972 98.454 61.032C98.0615 57.4438 97.7812 53.9117 97.669 50.3235C97.3887 50.6038 97.1084 50.8841 96.8281 51.1645C99.1828 50.8841 102.939 49.931 102.435 46.7353C101.874 43.3153 97.7251 43.7078 95.3704 44.3805C95.7067 44.6609 96.0992 44.9412 96.4356 45.1655C96.4356 43.876 96.4356 42.6425 96.5477 41.353C96.7159 39.3347 96.6038 38.6058 98.454 37.877C100.977 36.8678 103.948 36.5314 106.583 35.8586C107.649 35.6904 107.2 34.0645 106.135 34.2888Z" fill="#E0F2FA"/>
<path fill-rule="evenodd" clip-rule="evenodd" d="M114.209 34.7927C116.564 34.6806 118.975 34.6806 121.33 34.9609C123.572 35.2412 123.46 35.5776 123.797 37.5399C124.021 38.7734 124.077 40.0629 124.189 41.2963C124.637 46.1179 124.974 50.9396 125.254 55.7612C125.31 56.8264 126.992 56.8264 126.936 55.7612C126.6 49.2015 126.376 42.4737 125.31 35.9701C125.03 34.3442 124.75 33.8396 123.068 33.5593C120.152 32.9986 117.125 32.9986 114.209 33.1668C113.144 33.1668 113.144 34.8488 114.209 34.7927Z" fill="#E0F2FA"/>
<path fill-rule="evenodd" clip-rule="evenodd" d="M98.0046 62.2094C101.313 61.6487 104.62 61.088 107.872 60.5274C111.629 59.9107 115.217 60.191 118.973 59.9107C120.711 59.7425 128.953 58.9015 125.925 55.4815C125.196 54.6966 124.019 55.874 124.748 56.6589C125.196 57.1635 117.571 58.2848 117.403 58.2848C115.049 58.3408 112.694 58.2287 110.339 58.509C106.078 59.0136 101.817 59.9107 97.5561 60.6395C96.4909 60.7517 96.9394 62.3776 98.0046 62.2094Z" fill="#E0F2FA"/>
<path fill-rule="evenodd" clip-rule="evenodd" d="M246.75 349.245C247.042 352.116 247.334 354.939 247.626 357.811C283.204 357.568 318.83 357.324 354.409 357.13C354.019 354.404 353.63 351.727 353.241 349.002C342.582 344.67 325.644 339.267 304.278 338.683C278.483 337.953 258.187 344.524 246.75 349.245Z" fill="white"/>
<path fill-rule="evenodd" clip-rule="evenodd" d="M247.48 358.346C283.058 358.346 318.588 358.346 354.166 358.346C356.064 358.346 356.064 355.426 354.166 355.426C318.588 355.426 283.058 355.426 247.48 355.426C245.582 355.426 245.582 358.346 247.48 358.346Z" fill="#0F2C37"/>
<path fill-rule="evenodd" clip-rule="evenodd" d="M248.844 349.926C274.931 337.564 305.058 334.838 332.898 342.723C339.468 344.572 345.893 347.006 352.074 349.926C353.777 350.754 355.237 348.223 353.534 347.395C325.743 334.157 293.62 331.675 264.175 340.825C258.432 342.626 252.786 344.816 247.335 347.395C245.68 348.223 247.189 350.754 248.844 349.926Z" fill="#0F2C37"/>
<path fill-rule="evenodd" clip-rule="evenodd" d="M245.339 349.196C245.339 351.24 245.339 353.284 245.339 355.377C245.339 357.275 248.259 357.275 248.259 355.377C248.259 353.333 248.259 351.289 248.259 349.196C248.259 347.298 245.339 347.298 245.339 349.196Z" fill="#0F2C37"/>
<path fill-rule="evenodd" clip-rule="evenodd" d="M352.658 349.196C352.658 351.922 352.658 354.696 352.658 357.421C352.658 359.32 355.578 359.32 355.578 357.421C355.578 354.696 355.578 351.922 355.578 349.196C355.578 347.298 352.658 347.298 352.658 349.196Z" fill="#0F2C37"/>
<path fill-rule="evenodd" clip-rule="evenodd" d="M300.629 357.908C300.629 392.513 300.629 427.118 300.629 461.722C300.629 463.62 303.55 463.62 303.55 461.722C303.55 427.118 303.55 392.513 303.55 357.908C303.55 356.059 300.629 356.059 300.629 357.908Z" fill="#0F2C37"/>
<path fill-rule="evenodd" clip-rule="evenodd" d="M300.092 461.576C292.11 465.275 284.177 468.925 276.195 472.624C274.492 473.403 275.952 475.934 277.655 475.155C285.637 471.456 293.57 467.806 301.552 464.107C303.256 463.279 301.796 460.797 300.092 461.576Z" fill="#0F2C37"/>
<path fill-rule="evenodd" clip-rule="evenodd" d="M301.358 463.523C310.362 467.466 319.367 471.408 328.371 475.35C330.074 476.08 331.583 473.598 329.831 472.819C320.827 468.877 311.823 464.935 302.819 460.992C301.115 460.262 299.655 462.793 301.358 463.523Z" fill="#0F2C37"/>
<path fill-rule="evenodd" clip-rule="evenodd" d="M277.121 476.372C294.253 476.226 311.336 475.837 328.468 475.155C330.317 475.058 330.366 472.138 328.468 472.235C311.385 472.916 294.253 473.306 277.121 473.452C275.222 473.452 275.222 476.372 277.121 476.372Z" fill="#0F2C37"/>
<path fill-rule="evenodd" clip-rule="evenodd" d="M280.577 359.368C287.343 366.912 293.621 374.845 299.315 383.168C300.386 384.725 302.917 383.265 301.846 381.708C296.006 373.142 289.581 365.014 282.622 357.275C281.405 355.912 279.361 357.957 280.577 359.368Z" fill="#0F2C37"/>
<path fill-rule="evenodd" clip-rule="evenodd" d="M326.959 356.691C317.128 363.992 308.318 372.509 300.969 382.341C299.85 383.849 302.381 385.31 303.5 383.801C310.509 374.407 319.026 366.182 328.419 359.222C329.928 358.103 328.517 355.572 326.959 356.691Z" fill="#0F2C37"/>
<path fill-rule="evenodd" clip-rule="evenodd" d="M191.948 429.113C193.116 439.48 194.236 449.846 195.404 460.213C178.272 474.376 170.485 482.699 172.042 485.181C173.892 488.101 188.493 483.137 215.943 470.142C214.531 456.806 213.12 443.471 211.66 430.135C205.089 429.794 198.519 429.453 191.948 429.113Z" fill="#0F2C37" stroke="#0F2C37" stroke-width="3"/>
<path fill-rule="evenodd" clip-rule="evenodd" d="M274.834 285.632C277.316 292.105 280.48 303.446 277.559 316.733C276.051 323.644 273.033 330.409 263.64 343.015C255.901 353.382 243.782 367.739 225.677 383.119C223.048 389.154 220.226 397.526 219.106 407.649C217.646 421.034 219.739 432.13 221.832 439.431C219.495 440.891 212.876 444.59 203.483 444.541C192.775 444.493 185.523 439.528 183.431 438.02C181.776 427.993 180.608 415.729 181.192 401.76C181.776 387.5 184.063 375.137 186.594 365.111C191.461 359.903 199.297 351.921 209.81 343.015C224.947 330.214 231.663 327.197 238.088 318.485C242.955 311.817 248.26 301.012 247.773 283.588C256.728 284.221 265.781 284.951 274.834 285.632Z" fill="#016299"/>
<path opacity="0.12" fill-rule="evenodd" clip-rule="evenodd" d="M268.459 285.827C262.619 289.088 265.782 301.402 264.712 313.228C263.398 327.538 256.243 337.174 246.217 350.705C233.66 367.642 219.156 377.62 209.665 383.022C207.329 403.561 204.993 424.1 202.657 444.639C204.798 444.59 207.329 444.347 210.152 443.714C215.116 442.595 218.961 440.648 221.638 439.042C220.762 436.511 219.691 432.909 219.059 428.48C218.329 423.564 218.426 419.865 218.572 415.144C218.767 409.547 218.913 404.34 220.47 397.574C221.249 394.021 222.66 389.106 225.143 383.509C228.549 380.442 232.005 377.23 235.461 373.921C242.907 366.766 248.456 361.461 254.88 354.014C265.588 341.701 270.406 333.183 271.769 330.847C274.056 326.71 275.322 324.471 276.441 321.016C279.945 310.406 278.534 301.012 277.853 296.875C277.366 293.858 276.49 290.013 274.786 285.632C272.986 285.097 270.552 284.659 268.459 285.827Z" fill="#3D3D3D"/>
<path opacity="0.16" fill-rule="evenodd" clip-rule="evenodd" d="M224.899 383.752C218.961 392.318 216.236 399.959 214.824 405.313C213.997 408.428 213.608 411.007 212.001 424.051C211.028 432.13 210.249 438.944 209.665 443.957C213.559 442.497 217.453 440.988 221.395 439.528C218.913 430.476 218.329 422.64 218.329 417.043C218.329 414.609 218.426 408.331 219.983 400.397C221.249 393.681 223.147 388.084 224.899 383.752Z" fill="#3D3D3D"/>
<path fill-rule="evenodd" clip-rule="evenodd" d="M236.625 431.984C237.793 442.351 238.913 452.718 240.081 463.085C222.949 477.248 215.161 485.571 216.719 488.053C218.568 490.973 233.169 486.009 260.62 473.014C259.208 459.678 257.797 446.342 256.337 433.006C249.766 432.666 243.196 432.325 236.625 431.984Z" fill="#0F2C37" stroke="#0F2C37" stroke-width="3"/>
<path fill-rule="evenodd" clip-rule="evenodd" d="M301.551 293.322C303.352 299.99 305.202 309.675 304.764 321.405C304.715 322.086 304.228 333.524 301.551 342.138C294.056 366.425 265.438 380.685 257.359 384.433C258.04 390.225 258.819 396.017 259.646 401.906C261.447 414.706 263.394 427.166 265.584 439.333C264.464 440.502 257.845 447.315 246.456 447.899C235.116 448.483 227.67 442.448 226.404 441.378C222.267 432.228 217.108 417.14 217.741 398.256C218.13 387.305 220.369 378.057 222.754 371C233.851 355.718 242.757 343.891 248.744 336.006C260.133 321.015 263.004 317.755 265.584 310.357C269.672 298.822 267.871 292.3 273.322 288.796C277.216 286.313 284.857 285.34 301.551 293.322Z" fill="#016299"/>
<path opacity="0.18" fill-rule="evenodd" clip-rule="evenodd" d="M288.216 298.286C282.132 306.366 284.517 314.347 281.84 324.617C278.093 339.121 269.381 348.904 257.018 362.775C251.081 369.394 245.629 374.456 241.59 377.911C244.899 400.932 248.258 423.953 251.567 446.926C253.222 446.683 255.656 446.147 258.284 444.784C261.788 442.984 264.027 440.55 265.195 439.041C264.708 435.878 264.222 432.665 263.784 429.502C261.545 414.463 259.403 399.375 257.31 384.287C260.133 382.924 264.124 380.88 268.797 378.154C274.053 375.04 278.725 372.265 283.933 367.69C286.269 365.646 289.968 362.337 293.765 357.032C295.517 354.598 301.649 345.789 303.596 334.108C304.034 331.528 304.277 328.413 304.423 326.807C304.521 325.882 305.007 319.945 304.91 314.834C304.861 310.649 304.326 303.299 301.601 293.517C300.822 292.835 299.654 292.008 298.096 291.813C293.57 291.229 289.676 296.339 288.216 298.286Z" fill="#3D3D3D"/>
<path opacity="0.16" fill-rule="evenodd" clip-rule="evenodd" d="M257.163 384.871C256.578 391.782 256.092 398.84 255.702 406.091C254.972 420.011 254.68 433.444 254.778 446.245C256.335 445.661 258.233 444.784 260.277 443.519C262.419 442.156 264.122 440.696 265.388 439.479C262.662 421.228 259.937 403.025 257.163 384.871Z" fill="#3D3D3D"/>
<path fill-rule="evenodd" clip-rule="evenodd" d="M245.97 192.672C243.001 193.84 238.718 196.03 235.068 200.167C233.9 201.53 230.639 205.472 227.767 219.295C224.847 233.312 223.192 246.355 223.192 246.355C222.608 251.028 222.073 255.651 218.617 257.647C216.184 259.01 213.02 258.766 210.781 257.793C208.445 256.82 207.326 255.019 204.989 251.466C203.286 248.838 202.167 247.085 201.923 244.652C201.729 242.656 202.264 241.44 203.286 238.519C205.379 232.387 206.596 228.688 206.498 224.405C206.45 222.702 206.352 218.175 203.773 216.91C202.994 216.52 201.777 216.374 201.047 216.91C200.268 217.494 200.463 218.565 200.366 220.901C200.268 224.113 200.171 225.719 199.344 226.547C197.981 227.909 195.207 227.277 193.552 226.887C192.286 226.595 187.614 225.476 185.375 221.582C184.645 220.268 184.937 220.073 183.672 211.945C183.185 208.733 182.698 206.202 181.482 205.959C180.46 205.764 179.583 207.176 178.61 206.786C177.637 206.397 177.929 204.742 177.101 204.45C176.225 204.158 175.544 205.764 174.035 205.764C172.818 205.764 172.478 204.791 171.65 204.937C170.482 205.18 169.995 207.322 169.606 209.074C169.314 210.388 169.022 212.383 169.119 214.866C168.341 215.012 167.318 215.352 166.929 216.18C166.442 217.104 167.026 217.981 167.61 220.025C168.438 222.75 167.951 222.896 168.633 224.843C168.827 225.378 169.363 226.936 171.358 229.515C172.964 231.657 175.057 234.334 178.659 236.67C183.38 239.688 188.101 240.32 190.729 240.515C191.264 241.586 192.043 243.241 192.773 245.333C194.428 250.103 194.379 253.218 194.817 255.944C196.229 265.191 202.605 271.567 203.821 272.735C205.914 274.779 209.272 277.943 214.724 279.062C215.843 279.305 222.705 280.571 228.643 276.58C230.493 275.363 232.391 273.514 235.457 267.624C239.789 259.302 241.541 252.147 242.076 250.006C243.731 243.338 245.775 234.723 246.651 222.604C247.235 214.866 247.381 204.693 245.97 192.672Z" fill="white"/>
<path fill-rule="evenodd" clip-rule="evenodd" d="M242.175 193.207C234.679 197.247 230.299 204.84 228.06 212.87C225.237 222.945 224.361 233.701 222.804 244.019C222.122 248.448 221.538 255.798 216.525 257.696C211.804 259.497 206.743 253.364 204.942 249.665C202.606 244.895 203.141 240.028 204.698 235.113C206.013 230.976 207.619 226.79 207.132 222.312C206.889 220.366 205.282 214.476 202.314 215.109C200.853 215.401 200.172 217.64 199.88 218.857C199.442 220.56 199.88 228.055 196.716 227.179C195.792 226.936 195.402 228.347 196.327 228.591C200.026 229.662 200.707 225.427 200.902 222.75C200.999 221.339 201.048 219.879 201.486 218.565C202.216 216.423 203.774 217.348 204.601 218.857C205.867 221.144 205.964 223.967 205.623 226.498C204.942 231.462 202.411 235.94 201.924 240.904C201.535 244.749 202.557 248.643 204.552 251.953C206.451 255.068 209.517 258.134 213.07 259.351C216.72 260.616 220.03 257.55 221.684 254.532C224.021 250.298 224.215 244.993 224.897 240.32C225.724 234.821 226.503 229.321 227.379 223.821C229.131 212.676 232.197 200.313 242.953 194.521C243.781 194.035 243.002 192.769 242.175 193.207Z" fill="#0F2C37"/>
<path fill-rule="evenodd" clip-rule="evenodd" d="M244.56 233.166C243.392 242.705 241.25 252.196 237.892 261.249C234.923 269.279 229.472 277.943 220.03 278.673C211.026 279.354 203.579 272.978 199.54 265.434C197.35 261.395 196.035 256.966 194.965 252.537C193.991 248.4 193.602 243.922 191.412 240.223C190.925 239.396 189.66 240.126 190.146 240.953C192.239 244.506 192.58 248.935 193.553 252.926C194.429 256.625 195.5 260.275 197.058 263.731C199.832 269.961 204.407 275.704 210.831 278.429C216.769 280.96 223.486 280.668 228.839 276.872C234.436 272.93 237.503 266.7 239.742 260.421C242.856 251.612 244.901 242.413 246.02 233.117C246.117 232.241 244.657 232.241 244.56 233.166Z" fill="#0F2C37"/>
<path fill-rule="evenodd" clip-rule="evenodd" d="M197.494 227.228C194.088 227.471 189.172 225.086 186.884 222.604C183.818 219.295 185.035 215.498 184.791 211.459C184.548 207.954 181.725 201.433 178.318 206.543C177.783 207.322 179.048 208.052 179.584 207.273C181.336 204.645 182.455 207.906 182.747 208.685C182.893 209.171 183.039 209.658 183.137 210.145C183.477 211.945 183.234 213.698 183.185 215.498C183.088 217.981 183.429 220.268 184.84 222.361C186.057 224.162 187.858 225.476 189.756 226.449C192.043 227.617 194.866 228.883 197.494 228.688C198.419 228.639 198.419 227.179 197.494 227.228Z" fill="#0F2C37"/>
<path fill-rule="evenodd" clip-rule="evenodd" d="M183.381 223.821C181.823 221.387 180.363 218.857 179.876 215.985C179.39 213.211 179.876 210.388 179.292 207.662C179 206.3 178.416 204.207 176.907 203.817C175.447 203.477 174.279 204.937 173.793 206.105C173.403 206.981 174.669 207.711 175.058 206.835C175.253 205.862 175.983 205.618 177.248 206.105C177.491 206.592 177.686 207.127 177.783 207.662C178.027 208.587 178.076 209.56 178.124 210.534C178.173 212.189 178.124 213.892 178.319 215.547C178.757 218.857 180.314 221.777 182.115 224.551C182.602 225.33 183.867 224.6 183.381 223.821Z" fill="#0F2C37"/>
<path fill-rule="evenodd" clip-rule="evenodd" d="M178.951 226.205C177.102 223.675 176.421 220.073 175.885 217.007C175.35 213.941 175.642 210.68 174.96 207.613C174.668 206.251 173.938 204.109 172.186 204.109C169.996 204.06 169.363 206.689 169.071 208.343C168.925 209.268 170.337 209.658 170.483 208.733C170.531 208.246 170.629 207.759 170.726 207.321C172.186 205.618 173.062 205.618 173.354 207.321C173.744 208.441 173.744 209.658 173.792 210.826C173.89 212.578 173.987 214.379 174.279 216.131C174.814 219.684 175.545 224.015 177.686 226.936C178.221 227.714 179.487 226.984 178.951 226.205Z" fill="#0F2C37"/>
<path fill-rule="evenodd" clip-rule="evenodd" d="M191.897 239.249C180.411 239.493 170.774 231.754 168.341 220.56C168.146 219.635 166.735 220.024 166.93 220.949C169.509 232.776 179.827 240.953 191.897 240.709C192.822 240.709 192.822 239.249 191.897 239.249Z" fill="#0F2C37"/>
<path fill-rule="evenodd" clip-rule="evenodd" d="M176.713 227.52C175.107 225.086 173.987 222.458 172.819 219.781C172.089 218.126 171.262 215.352 169.51 214.476C168.147 213.795 167.076 214.573 166.638 215.888C165.957 217.883 166.492 220.073 167.466 221.874C167.904 222.701 169.169 221.971 168.731 221.144C168.196 220.219 166.833 214.671 169.51 216.423C170.337 216.958 171.018 219.295 171.408 220.122C172.673 222.896 173.793 225.67 175.496 228.201C175.983 229.029 177.248 228.299 176.713 227.52Z" fill="#0F2C37"/>
<path fill-rule="evenodd" clip-rule="evenodd" d="M169.071 208.003C168.877 210.436 168.731 212.821 168.536 215.255C168.487 216.18 169.948 216.18 169.996 215.255C170.191 212.821 170.337 210.436 170.532 208.003C170.629 207.078 169.169 207.078 169.071 208.003Z" fill="#0F2C37"/>
<path opacity="0.11" fill-rule="evenodd" clip-rule="evenodd" d="M167.709 216.618C168.39 216.374 169.558 220.998 173.355 225.914C174.961 228.007 179.633 233.896 187.664 236.086C191.752 237.205 195.305 237.011 197.398 236.767C197.008 238.958 194.332 255.506 204.844 265.142C206.061 266.262 213.994 273.27 221.149 270.788C224.361 269.669 226.162 267.089 227.476 265.045C234.777 253.461 235.896 241.488 239.449 224.843C241.639 214.622 243.489 205.862 244.9 206.008C246.652 206.154 247.334 220.852 245.776 234.042C244.998 240.758 244.024 248.692 239.887 258.328C235.458 268.647 233.803 274 228.352 276.921C221.344 280.717 211.999 279.305 205.964 274.828C202.265 272.054 200.707 268.793 197.787 262.417C195.354 257.16 192.677 249.957 191.119 240.904C189.854 240.71 188.199 240.418 186.252 239.785C183.916 239.055 180.12 237.838 176.372 234.821C175.155 233.847 170.872 230.148 168.731 223.87C167.612 220.56 167.125 216.813 167.709 216.618Z" fill="#3D3D3D"/>
<path fill-rule="evenodd" clip-rule="evenodd" d="M302.331 193.013C305.251 194.181 309.437 196.371 312.941 200.508C314.109 201.871 317.272 205.813 320.095 219.635C322.918 233.653 324.573 246.696 324.573 246.696C325.157 251.369 325.644 255.992 329.051 257.988C331.436 259.351 334.551 259.107 336.692 258.134C338.931 257.16 340.099 255.36 342.338 251.807C344.041 249.178 345.112 247.426 345.307 244.993C345.501 242.997 344.966 241.781 343.993 238.86C341.948 232.728 340.732 229.029 340.829 224.746C340.878 223.042 340.975 218.516 343.506 217.251C344.285 216.861 345.453 216.715 346.183 217.251C346.961 217.835 346.767 218.905 346.864 221.242C346.961 224.454 347.059 226.06 347.838 226.887C349.152 228.25 351.877 227.617 353.483 227.228C354.7 226.936 359.275 225.817 361.465 221.923C362.195 220.609 361.903 220.414 363.12 212.286C363.607 209.074 364.045 206.543 365.262 206.3C366.284 206.105 367.111 207.517 368.084 207.127C369.009 206.738 368.717 205.083 369.593 204.791C370.469 204.499 371.102 206.105 372.562 206.105C373.73 206.105 374.071 205.132 374.898 205.278C376.018 205.521 376.504 207.663 376.894 209.415C377.186 210.729 377.478 212.724 377.381 215.206C378.159 215.352 379.133 215.693 379.522 216.521C379.96 217.445 379.473 218.321 378.841 220.366C378.062 223.091 378.5 223.237 377.867 225.184C377.673 225.719 377.137 227.277 375.19 229.856C373.584 231.998 371.589 234.675 368.036 237.011C363.412 240.028 358.788 240.661 356.258 240.856C355.722 241.927 354.943 243.581 354.262 245.674C352.656 250.444 352.656 253.559 352.267 256.284C350.904 265.532 344.674 271.908 343.457 273.076C341.413 275.12 338.152 278.283 332.847 279.403C331.776 279.646 325.06 280.912 319.219 276.921C317.418 275.704 315.569 273.854 312.551 267.965C308.366 259.643 306.565 252.488 306.078 250.347C304.472 243.679 302.477 235.064 301.601 222.945C301.114 215.255 300.968 205.034 302.331 193.013Z" fill="white"/>
<path fill-rule="evenodd" clip-rule="evenodd" d="M305.347 194.814C314.741 200.021 318.245 210.631 319.949 220.609C320.873 226.011 321.603 231.511 322.431 236.962C323.161 242.073 323.453 247.67 325.156 252.585C326.227 255.7 328.661 259.497 332.213 259.983C335.62 260.47 339.368 256.966 341.315 254.532C343.7 251.612 345.16 247.962 345.452 244.214C345.841 239.298 343.748 234.772 342.483 230.1C341.753 227.423 341.315 224.649 341.899 221.923C342.142 220.706 342.532 219.051 343.505 218.175C345.598 216.229 346.085 219.538 346.279 220.998C346.62 223.675 346.279 230.294 350.903 228.98C351.828 228.737 351.438 227.325 350.514 227.569C347.496 228.445 347.837 221.777 347.642 220.366C347.447 218.954 347.009 216.91 345.793 215.937C343.505 214.136 341.364 218.662 340.828 220.22C337.908 229.175 345.695 237.449 343.651 246.502C342.629 250.979 339.806 255.019 335.912 257.404C329.634 261.2 326.47 253.121 325.594 248.254C323.793 238.082 322.966 227.763 320.922 217.64C319.024 208.198 314.984 198.512 306.126 193.645C305.25 193.11 304.52 194.376 305.347 194.814Z" fill="#0F2C37"/>
<path fill-rule="evenodd" clip-rule="evenodd" d="M302.282 233.555C303.255 241.683 304.91 249.665 307.344 257.501C309.437 264.218 312.016 271.324 317.516 276.093C322.334 280.279 328.613 281.642 334.697 279.646C340.975 277.602 345.696 272.638 348.811 266.943C350.806 263.244 352.169 259.205 353.191 255.116C354.311 250.639 354.603 245.48 356.939 241.391C357.426 240.564 356.16 239.834 355.674 240.661C353.532 244.36 353.191 248.838 352.218 252.975C351.196 257.404 349.882 261.833 347.74 265.873C343.847 273.27 336.643 279.792 327.737 279.111C318.441 278.381 313.184 269.571 310.313 261.687C307.052 252.634 304.91 243.143 303.791 233.604C303.645 232.631 302.185 232.582 302.282 233.555Z" fill="#0F2C37"/>
<path fill-rule="evenodd" clip-rule="evenodd" d="M349.735 229.029C352.217 229.224 354.748 228.007 356.938 226.936C358.983 225.963 360.832 224.6 362.146 222.653C363.46 220.706 363.85 218.565 363.801 216.277C363.752 214.525 363.509 212.822 363.704 211.118C363.801 210.388 363.947 209.707 364.19 209.026C364.482 208.149 365.602 205.035 367.257 207.614C367.743 208.393 369.009 207.663 368.522 206.884C365.212 201.725 362.39 208.393 362.195 211.8C361.951 215.791 363.168 219.587 360.151 222.945C357.912 225.427 353.142 227.861 349.784 227.569C348.81 227.52 348.81 228.98 349.735 229.029Z" fill="#0F2C37"/>
<path fill-rule="evenodd" clip-rule="evenodd" d="M364.774 224.892C366.477 222.264 367.937 219.441 368.424 216.277C368.667 214.768 368.667 213.26 368.667 211.702C368.667 210.777 368.716 209.901 368.862 208.977C368.911 208.49 369.008 208.052 369.105 207.614C369.203 206.056 370.03 205.813 371.587 206.981C371.928 207.857 373.34 207.468 372.999 206.592C372.561 205.472 371.685 204.109 370.322 204.061C368.619 204.012 367.937 206.3 367.645 207.614C367.012 210.242 367.402 212.919 367.061 215.596C366.672 218.759 365.212 221.534 363.508 224.162C363.021 224.94 364.287 225.671 364.774 224.892Z" fill="#0F2C37"/>
<path fill-rule="evenodd" clip-rule="evenodd" d="M369.106 227.325C371.248 224.356 371.929 220.025 372.464 216.52C372.708 214.768 372.854 213.016 372.902 211.215C372.951 210.047 372.951 208.831 373.341 207.711C373.584 206.056 374.46 206.056 375.871 207.711C375.969 208.198 376.066 208.636 376.115 209.123C376.261 210.047 377.672 209.658 377.526 208.733C377.283 207.127 376.699 204.548 374.606 204.499C372.805 204.45 372.075 206.592 371.783 208.003C371.15 210.923 371.442 213.99 370.956 216.959C370.42 220.122 369.788 223.918 367.889 226.595C367.305 227.325 368.571 228.055 369.106 227.325Z" fill="#0F2C37"/>
<path fill-rule="evenodd" clip-rule="evenodd" d="M355.186 241.099C367.208 241.342 377.137 232.971 379.619 221.339C379.813 220.414 378.402 220.025 378.207 220.949C375.871 231.949 366.575 239.882 355.186 239.639C354.261 239.639 354.261 241.099 355.186 241.099Z" fill="#0F2C37"/>
<path fill-rule="evenodd" clip-rule="evenodd" d="M371.297 228.591C373 226.011 374.071 223.14 375.337 220.317C375.726 219.49 376.31 217.251 377.137 216.764C379.814 215.061 378.305 220.706 377.867 221.485C377.429 222.312 378.695 223.043 379.133 222.215C380.058 220.56 381.323 213.308 377.381 214.72C375.58 215.353 374.801 218.078 374.12 219.587C372.854 222.41 371.784 225.233 370.08 227.861C369.496 228.64 370.761 229.37 371.297 228.591Z" fill="#0F2C37"/>
<path fill-rule="evenodd" clip-rule="evenodd" d="M376.017 208.344C376.212 210.777 376.358 213.162 376.552 215.596C376.601 216.521 378.061 216.521 378.013 215.596C377.818 213.162 377.672 210.777 377.477 208.344C377.429 207.419 375.968 207.419 376.017 208.344Z" fill="#0F2C37"/>
<path opacity="0.13" fill-rule="evenodd" clip-rule="evenodd" d="M306.516 202.552C307.587 208.928 309.436 219.976 311.675 233.896C315.325 256.284 316.396 263.828 322.285 266.651C327.59 269.182 335.037 267.138 339.514 263.488C348.956 255.895 343.992 242.608 353.288 237.352C357.425 235.015 359.81 236.768 365.65 233.02C369.982 230.246 372.708 226.644 373.973 224.989C377.38 220.463 378.061 216.18 378.84 216.375C379.473 216.521 379.376 219.392 379.084 221.388C378.937 222.458 378.256 226.255 375.19 230.44C371.199 235.892 365.942 238.228 363.655 239.055C360.735 240.126 358.107 240.467 356.306 240.564C355.916 241.586 355.381 243.192 354.797 245.188C352.266 253.705 352.947 255.554 351.147 260.616C350.222 263.244 348.178 267.868 344.041 272.248C342.337 274.049 340.05 276.434 336.156 278.089C335.183 278.527 331.581 280.036 327.639 279.695C318.878 278.965 313.427 269.474 311.48 266.116C310.117 263.731 309.728 262.514 305.445 247.134C298.242 221.388 303.644 240.467 300.724 229.759C296.49 214.379 295.176 210.729 297.366 207.322C298.583 205.667 300.919 203.428 306.516 202.552Z" fill="#3D3D3D"/>
<path fill-rule="evenodd" clip-rule="evenodd" d="M242.371 195.446C237.845 202.017 237.699 210.339 237.504 221.874C237.309 233.36 239.159 241.391 240.765 249.422C242.906 260.129 245.486 275.558 247.238 295.221C255.95 297.508 268.166 299.552 282.621 298.482C290.117 297.946 296.736 296.681 302.333 295.221C302.43 278.721 303.647 265.483 304.767 256.528C306.227 244.749 307.297 241.099 308.027 230.878C309.342 211.264 310.023 201.433 305.351 194.619C293.67 177.779 254.295 178.071 242.371 195.446Z" fill="white" stroke="#0F2C37" stroke-width="3"/>
<path opacity="0.09" fill-rule="evenodd" clip-rule="evenodd" d="M281.503 183.327C286.127 204.255 289.68 234.626 282.671 269.571C280.481 280.522 277.561 290.402 274.348 299.163C278.826 298.774 283.644 298.238 288.706 297.459C293.427 296.729 297.808 295.853 301.945 294.88C301.993 290.743 302.188 284.416 302.821 276.774C303.697 266.018 304.621 262.125 307.152 244.019C309.634 226.011 310.365 218.175 309.148 208.1C308.077 198.902 306.325 195.543 304.573 193.159C297.662 184.009 285.105 183.376 281.503 183.327Z" fill="#3D3D3D"/>
<path opacity="0.09" fill-rule="evenodd" clip-rule="evenodd" d="M306.228 195.981C305.449 195.981 305.449 202.357 303.356 216.666C302.188 224.843 300.728 232.192 297.905 246.842C296.055 256.284 295.131 261.005 294.741 262.66C292.551 271.372 288.122 283.832 278.047 298.287C285.786 297.216 293.573 296.194 301.312 295.123C302.042 285.486 302.772 277.212 303.307 270.691C304.475 257.55 305.059 250.93 305.887 243.094C307.493 228.445 307.931 228.007 308.174 221.825C308.758 208.538 307.298 195.981 306.228 195.981Z" fill="#3D3D3D"/>
<path fill-rule="evenodd" clip-rule="evenodd" d="M264.138 165.297C261.574 168.42 264.044 172.242 263.578 182.449C263.345 187.53 262.506 191.632 261.854 194.382C264.044 195.407 267.913 196.852 272.9 196.992C279.053 197.132 283.714 195.221 285.998 194.102C284.972 192.051 283.621 188.882 282.782 184.78C280.684 174.339 284.413 169.445 281.337 165.576C277.748 161.102 267.587 161.055 264.138 165.297Z" fill="white" stroke="#0F2C37" stroke-width="2"/>
<path fill-rule="evenodd" clip-rule="evenodd" d="M247.872 120.458C244.936 128.009 246.055 134.814 246.707 137.75C246.427 137.797 240.974 138.962 239.483 143.157C237.991 147.399 241.067 153.411 247.499 155.369C249.83 161.055 255.47 172.055 267.355 178.068C269.36 179.047 271.271 179.839 273.182 180.399C274.906 179.746 277.237 178.721 279.893 177.183C288.19 172.382 292.804 166.416 293.877 164.971C295.834 162.361 298.491 158.166 300.355 152.386C301.381 152.572 303.199 152.666 304.97 151.78C308.978 149.729 310.982 143.344 308.186 139.195C305.855 135.746 301.334 135.606 300.775 135.606C301.381 133.183 303.245 124.467 298.538 115.844C293.131 105.916 281.525 100.695 270.618 102.187C254.491 104.284 248.152 119.712 247.872 120.458Z" fill="white" stroke="#0F2C37" stroke-width="2"/>
<path fill-rule="evenodd" clip-rule="evenodd" d="M263.531 177.649C266.375 179.327 269.497 181.937 272.993 181.657C275.883 181.424 279.099 179.746 281.29 177.975C281.989 177.416 281.01 176.437 280.311 176.996C278.26 178.628 274.951 180.352 272.247 180.306C269.404 180.259 266.514 177.882 264.184 176.437C263.485 175.971 262.786 177.183 263.531 177.649Z" fill="#0F2C37"/>
<path fill-rule="evenodd" clip-rule="evenodd" d="M263.346 178.254C266.003 180.538 269.033 183.102 272.762 182.915C276.397 182.729 279.8 180.305 282.177 177.695C282.783 177.042 281.804 176.064 281.198 176.716C279.147 178.953 276.257 181.144 273.088 181.47C269.592 181.797 266.795 179.42 264.325 177.275C263.673 176.67 262.694 177.648 263.346 178.254Z" fill="#0F2C37"/>
<path fill-rule="evenodd" clip-rule="evenodd" d="M265.115 178.534C265.115 178.487 265.115 178.487 265.115 178.534C264.836 178.115 264.323 178.021 263.997 178.348C263.997 178.348 263.997 178.348 263.95 178.394C263.671 178.627 263.671 179.14 263.95 179.373C269.077 184.267 278.493 185.852 282.175 178.348C282.548 177.555 281.382 176.81 280.963 177.649C277.7 184.36 269.45 182.729 264.976 178.394C264.976 178.721 264.976 179.047 264.976 179.373C264.976 179.373 264.976 179.373 265.022 179.326C264.649 179.28 264.276 179.233 263.904 179.187V179.233C264.37 179.979 265.582 179.28 265.115 178.534Z" fill="#0F2C37"/>
<path fill-rule="evenodd" clip-rule="evenodd" d="M270.71 135.419C270.104 142.97 270.431 150.475 271.643 157.932C271.689 158.305 272.155 158.538 272.482 158.398C274.299 157.792 275.604 156.72 276.583 155.089C277.049 154.297 275.837 153.597 275.371 154.39C274.579 155.741 273.6 156.534 272.109 157.047C272.388 157.186 272.668 157.373 272.948 157.513C271.736 150.195 271.456 142.784 272.062 135.373C272.202 134.487 270.804 134.487 270.71 135.419Z" fill="#0F2C37"/>
<path fill-rule="evenodd" clip-rule="evenodd" d="M262.413 142.831C262.506 143.25 263.205 145.86 262.413 146.28C261.62 146.699 259.383 145.021 258.684 142.831C258.125 140.966 258.591 138.636 259.476 138.449C260.409 138.216 261.854 140.78 262.413 142.831Z" fill="#0F2C37" stroke="#0F2C37"/>
<path fill-rule="evenodd" clip-rule="evenodd" d="M286.464 142.831C286.557 143.25 287.256 145.86 286.464 146.28C285.672 146.699 283.434 145.021 282.735 142.831C282.176 140.966 282.642 138.636 283.528 138.449C284.46 138.216 285.905 140.78 286.464 142.831Z" fill="#0F2C37" stroke="#0F2C37"/>
<path fill-rule="evenodd" clip-rule="evenodd" d="M269.032 164.085C274.718 166.509 279.892 163.106 284.087 159.424C284.786 158.818 283.761 157.839 283.108 158.445C279.472 161.615 274.811 165.017 269.778 162.873C268.892 162.547 268.193 163.759 269.032 164.085Z" fill="#0F2C37"/>
<path fill-rule="evenodd" clip-rule="evenodd" d="M285.439 150.242C286.325 150.242 286.325 148.843 285.439 148.843C284.554 148.843 284.554 150.242 285.439 150.242Z" fill="#0F2C37"/>
<path fill-rule="evenodd" clip-rule="evenodd" d="M290.613 147.632C290.66 147.585 290.706 147.538 290.753 147.492C291.033 147.212 291.033 146.793 290.753 146.513C290.473 146.233 290.054 146.233 289.774 146.513C289.728 146.56 289.681 146.606 289.634 146.653C289.355 146.932 289.355 147.352 289.634 147.632C289.914 147.911 290.333 147.911 290.613 147.632Z" fill="#0F2C37"/>
<path fill-rule="evenodd" clip-rule="evenodd" d="M289.075 151.034C289.122 151.034 289.169 151.034 289.215 151.034C289.588 151.034 289.914 150.708 289.914 150.335C289.914 149.962 289.588 149.636 289.215 149.636C289.169 149.636 289.122 149.636 289.075 149.636C288.702 149.636 288.376 149.962 288.376 150.335C288.376 150.708 288.656 151.034 289.075 151.034Z" fill="#0F2C37"/>
<path fill-rule="evenodd" clip-rule="evenodd" d="M256.913 134.488C258.684 132.996 261.294 132.95 263.065 134.395C263.765 134.954 264.743 133.975 264.044 133.416C261.62 131.458 258.265 131.458 255.887 133.509C255.235 134.068 256.26 135.047 256.913 134.488Z" fill="#0F2C37"/>
<path fill-rule="evenodd" clip-rule="evenodd" d="M279.659 133.975C281.664 132.203 284.507 131.877 286.884 133.136C287.676 133.555 288.375 132.343 287.583 131.924C284.647 130.339 281.151 130.759 278.68 132.996C277.981 133.602 278.96 134.581 279.659 133.975Z" fill="#0F2C37"/>
<path fill-rule="evenodd" clip-rule="evenodd" d="M257.288 150.102C258.173 150.102 258.173 148.704 257.288 148.704C256.402 148.704 256.402 150.102 257.288 150.102Z" fill="#0F2C37"/>
<path fill-rule="evenodd" clip-rule="evenodd" d="M262.227 149.449C263.112 149.449 263.112 148.051 262.227 148.051C261.341 148.051 261.341 149.449 262.227 149.449Z" fill="#0F2C37"/>
<path fill-rule="evenodd" clip-rule="evenodd" d="M259.755 150.521C259.709 150.567 259.662 150.614 259.616 150.661C259.336 150.94 259.336 151.36 259.616 151.639C259.895 151.919 260.315 151.919 260.594 151.639C260.641 151.593 260.688 151.546 260.734 151.5C261.014 151.22 261.014 150.8 260.734 150.521C260.454 150.241 260.035 150.241 259.755 150.521Z" fill="#0F2C37"/>
<path fill-rule="evenodd" clip-rule="evenodd" d="M255.469 105.31C252.672 107.034 246.566 110.81 242.418 118.547C238.27 126.237 238.316 133.509 238.503 136.631C231.698 148.89 228.621 159.703 227.13 167.068C224.706 178.767 226.011 183.055 227.689 185.898C231.791 192.89 240.041 194.614 242.045 195.034C252.346 197.225 260.549 191.958 262.414 190.746C262.927 189.208 263.439 187.297 263.719 185.153C264.232 181.47 263.952 178.301 263.532 176.017C261.202 174.106 258.499 171.542 255.888 168.187C251.927 163.059 249.689 158.026 248.431 154.39C244.329 153.97 241.253 151.174 240.973 148.051C240.694 145.115 242.744 141.339 245.448 141.339C247.452 141.339 248.897 143.39 249.177 143.763C250.715 142.877 252.859 141.339 254.77 138.915C257.52 135.42 257.986 132.297 259.244 129.034C260.456 125.865 262.787 121.483 267.821 116.915C272.668 118.64 276.537 120.318 279.193 121.576C287.723 125.538 292.571 127.869 296.346 132.949C298.443 135.746 299.515 138.496 300.075 140.22C304.409 136.911 306.181 137.797 306.554 137.983C309.304 139.521 309.21 147.958 304.922 150.288C303.291 151.174 301.426 150.941 300.261 150.661C298.909 155.369 295.926 163.059 289.075 169.864C286.791 172.148 284.46 173.92 282.363 175.271C282.176 176.996 282.083 179.373 282.549 182.17C282.969 184.733 283.715 186.831 284.414 188.322C295.74 195.78 309.816 194.428 317.46 186.411C324.265 179.233 324.265 168.373 321.702 160.962C319.371 154.203 314.85 150.148 312.613 148.377C313.219 145.767 316.575 130.293 306.833 116.076C304.316 112.394 297.278 103.492 284.6 100.415C271.176 97.1527 260.13 102.466 255.469 105.31Z" fill="#0F2C37"/>
<path opacity="0.17" fill-rule="evenodd" clip-rule="evenodd" d="M285.019 124.466C290.286 131.085 291.684 137.191 292.15 140.36C294.061 153.691 286.324 164.504 282.409 170.051C279.193 174.572 275.883 177.788 273.506 179.886C275.557 185.386 277.561 190.839 279.612 196.339C281.71 195.64 283.807 194.941 285.905 194.242C284.926 192.517 283.9 190.373 283.108 187.763C281.663 183.102 281.57 179 281.71 176.204C284.273 174.386 287.256 171.915 290.146 168.653C295.926 162.127 298.816 155.415 300.307 150.894C301.239 151.081 303.244 151.314 305.155 150.242C309.163 147.958 308.511 142.271 308.464 141.898C308.324 140.687 308.044 138.729 306.646 137.937C305.015 137.051 302.311 137.89 300.167 140.407C299.515 138.123 297.65 132.856 292.616 128.661C289.82 126.331 286.977 125.119 285.019 124.466Z" fill="#849AA4"/>
<path opacity="0.19" fill-rule="evenodd" clip-rule="evenodd" d="M271.363 135.839C271.083 135.793 270.151 139.848 267.308 157.746C268.939 157.746 270.571 157.746 272.202 157.746C271.876 155.369 271.503 151.92 271.316 147.725C271.083 140.547 271.643 135.886 271.363 135.839Z" fill="#849AA4"/>
<path opacity="0.54" fill-rule="evenodd" clip-rule="evenodd" d="M312.334 148.843C311.541 149.309 314.524 153.318 314.105 159.284C313.965 161.148 313.686 165.39 310.33 168.233C310.097 168.419 305.109 172.521 300.169 169.911C297.232 168.373 295.461 165.11 295.554 161.568C294.156 164.178 291.872 167.627 288.283 170.983C286.046 173.08 283.855 174.618 281.944 175.784C281.804 177.835 281.804 180.631 282.55 183.801C282.969 185.525 283.482 187.017 283.995 188.229C285.44 189.161 287.584 190.419 290.38 191.398C292.152 192.004 301.893 195.407 311.402 190.699C313.08 189.86 316.808 187.949 319.512 183.847C319.838 183.335 321.05 181.517 321.936 178.441C325.105 167.907 320.444 158.398 320.024 157.606C317.461 152.432 313.313 148.284 312.334 148.843Z" fill="#0F2C37"/>
<path opacity="0.35" fill-rule="evenodd" clip-rule="evenodd" d="M248.385 154.577C247.965 154.623 248.898 158.445 247.872 162.221C247.126 165.017 244.749 169.585 240.694 170.517C236.453 171.45 231.186 168.327 228.762 162.5C227.643 165.064 226.152 169.166 225.919 174.386C225.779 177.789 225.593 181.424 227.271 185.013C231.046 193.03 242.139 196.153 250.389 195.407C255.889 194.894 260.037 192.75 262.275 191.305C262.834 189.721 263.393 187.81 263.766 185.619C264.372 181.844 264.232 178.534 263.906 176.111C260.224 173.454 257.707 170.704 256.122 168.7C253.885 165.856 250.855 162.034 249.317 156.721C249.084 156.115 248.665 154.53 248.385 154.577Z" fill="#0F2C37"/>
<path fill-rule="evenodd" clip-rule="evenodd" d="M387.701 149.487C387.701 149.439 387.701 149.39 387.701 149.341C387.701 148.66 386.582 148.611 386.582 149.341C386.582 149.39 386.582 149.439 386.582 149.487C386.582 150.169 387.701 150.169 387.701 149.487C387.701 149.439 387.701 149.39 387.701 149.341C387.701 148.66 386.582 148.611 386.582 149.341C386.582 149.39 386.582 149.439 386.582 149.487C386.582 150.169 387.701 150.169 387.701 149.487Z" fill="#0F2C37"/>
<path fill-rule="evenodd" clip-rule="evenodd" d="M160.752 141.749C161.872 139.121 162.942 136.492 164.062 133.864C164.354 133.232 163.283 132.939 162.991 133.572C161.872 136.2 160.801 138.829 159.681 141.457C159.438 142.09 160.46 142.382 160.752 141.749Z" fill="#0F2C37"/>
<path fill-rule="evenodd" clip-rule="evenodd" d="M169.805 122.865C170.875 121.404 171.946 119.993 173.065 118.533C173.503 117.949 172.53 117.413 172.141 117.997C171.07 119.458 169.999 120.869 168.88 122.329C168.442 122.865 169.415 123.449 169.805 122.865Z" fill="#0F2C37"/>
<path fill-rule="evenodd" clip-rule="evenodd" d="M215.701 67.9157C216.723 66.7963 217.842 65.8229 219.156 65.0928C219.789 64.7521 219.205 63.7787 218.621 64.1681C217.21 64.9468 215.993 65.9689 214.922 67.1856C214.484 67.6723 215.263 68.4511 215.701 67.9157Z" fill="#0F2C37"/>
<path fill-rule="evenodd" clip-rule="evenodd" d="M239.208 52.1954C240.862 51.6113 242.566 50.9786 244.221 50.3946C244.902 50.1512 244.61 49.0805 243.929 49.3238C242.274 49.9079 240.57 50.5406 238.916 51.1246C238.234 51.368 238.526 52.4387 239.208 52.1954Z" fill="#0F2C37"/>
<path fill-rule="evenodd" clip-rule="evenodd" d="M317.714 42.1204C320.585 43.2398 323.262 44.6999 325.842 46.4521C326.426 46.8414 326.961 45.9167 326.377 45.5273C323.749 43.7265 320.975 42.2664 318.006 41.0983C317.324 40.8063 317.032 41.8284 317.714 42.1204Z" fill="#0F2C37"/>
<path fill-rule="evenodd" clip-rule="evenodd" d="M342.292 61.7346C344.58 63.7787 346.819 65.8229 349.106 67.8671C349.642 68.3538 350.42 67.575 349.885 67.0883C347.598 65.0442 345.359 63 343.071 60.9558C342.536 60.4691 341.757 61.2479 342.292 61.7346Z" fill="#0F2C37"/>
<path fill-rule="evenodd" clip-rule="evenodd" d="M378.065 109.918C379.427 111.865 380.693 113.86 381.91 115.905C382.25 116.489 383.224 115.953 382.834 115.369C381.618 113.325 380.352 111.33 378.989 109.383C378.6 108.799 377.675 109.334 378.065 109.918Z" fill="#0F2C37"/>
<path fill-rule="evenodd" clip-rule="evenodd" d="M385.658 129.532C385.999 130.992 386.34 132.404 386.729 133.864C386.875 134.545 387.946 134.253 387.8 133.572C387.459 132.112 387.118 130.7 386.729 129.24C386.534 128.559 385.512 128.851 385.658 129.532Z" fill="#0F2C37"/>
<path fill-rule="evenodd" clip-rule="evenodd" d="M433.305 338.051C433.305 380.881 433.305 423.711 433.305 466.541C433.305 478.66 433.305 490.779 433.305 502.898C433.305 504.796 436.225 504.796 436.225 502.898C436.225 460.068 436.225 417.238 436.225 374.408C436.225 362.289 436.225 350.17 436.225 338.051C436.225 336.153 433.305 336.153 433.305 338.051Z" fill="#0F2C37"/>
<path fill-rule="evenodd" clip-rule="evenodd" d="M108.819 338.051C108.819 380.637 108.819 423.224 108.819 465.811C108.819 477.735 108.819 489.659 108.819 501.632C108.819 503.53 111.739 503.53 111.739 501.632C111.739 459.046 111.739 416.459 111.739 373.872C111.739 361.948 111.739 350.024 111.739 338.051C111.739 336.153 108.819 336.153 108.819 338.051Z" fill="#0F2C37"/>
<path fill-rule="evenodd" clip-rule="evenodd" d="M143.473 340.241C143.473 367.886 143.473 395.482 143.473 423.127C143.473 425.025 146.393 425.025 146.393 423.127C146.393 395.482 146.393 367.886 146.393 340.241C146.393 338.343 143.473 338.343 143.473 340.241Z" fill="#0F2C37"/>
<path fill-rule="evenodd" clip-rule="evenodd" d="M410.721 335.909C410.721 363.554 410.721 391.15 410.721 418.795C410.721 420.693 413.641 420.693 413.641 418.795C413.641 391.15 413.641 363.554 413.641 335.909C413.641 334.011 410.721 334.011 410.721 335.909Z" fill="#0F2C37"/>
<path fill-rule="evenodd" clip-rule="evenodd" d="M103.367 339.268C216.574 339.122 329.782 338.976 443.038 338.829C439.68 325.494 436.37 312.109 433.012 298.774C334.892 299.066 236.773 299.358 138.653 299.65C126.875 312.839 115.145 326.078 103.367 339.268Z" fill="#0F2C37" stroke="#0F2C37" stroke-width="3"/>
<path fill-rule="evenodd" clip-rule="evenodd" d="M101.858 333.184C101.858 335.228 101.858 337.272 101.858 339.316C101.858 340.241 103.319 340.241 103.319 339.316C103.319 337.272 103.319 335.228 103.319 333.184C103.319 332.259 101.858 332.259 101.858 333.184Z" fill="#0F2C37"/>
<path fill-rule="evenodd" clip-rule="evenodd" d="M102.247 334.206C102.393 335.568 102.588 336.98 102.734 338.343C102.831 339.267 104.291 339.267 104.194 338.343C104.048 336.883 103.95 335.422 103.999 333.914C103.561 334.06 103.074 334.157 102.636 334.303C103.123 335.471 102.734 336.785 103.22 337.953C103.512 338.683 104.681 338.635 104.632 337.759C104.632 336.542 104.681 335.325 104.778 334.06C104.291 334.108 103.804 334.206 103.366 334.254C103.707 335.179 103.999 336.152 104.242 337.126C104.437 337.807 105.459 337.807 105.654 337.126C105.8 336.493 105.849 335.52 106.238 335.033C106.092 335.13 105.946 335.276 105.8 335.374C105.849 335.374 105.946 335.325 105.995 335.325C105.8 335.276 105.605 335.276 105.411 335.228C105.459 335.276 105.508 335.325 105.557 335.325C105.459 335.13 105.313 334.887 105.216 334.692C105.459 334.4 105.459 334.254 105.167 334.206C104.973 334.157 104.827 334.06 104.632 333.962C104.486 333.914 104.096 333.622 104.048 333.816C103.902 333.962 103.707 334.157 103.561 334.303C104.729 334.06 105.897 334.254 107.017 334.498C107.941 334.692 108.331 333.281 107.406 333.086C106.238 332.843 105.07 332.794 103.853 332.94C103.902 333.427 103.999 333.914 104.048 334.352C105.265 334.108 106.481 334.06 107.747 334.157C107.503 333.865 107.26 333.524 107.065 333.232C106.968 333.816 106.627 334.06 106.092 334.157C105.703 334.206 104.875 334.303 104.534 334.157C104.242 334.06 104.242 333.816 104.048 333.573C103.95 333.476 103.804 333.378 103.658 333.33C103.123 333.232 103.756 333.281 103.512 333.719C103.22 333.816 102.977 333.962 102.685 334.06C102.831 334.108 102.977 334.157 103.074 334.206C103.95 334.498 104.34 333.086 103.464 332.794C103.318 332.746 103.172 332.697 103.074 332.648C102.782 332.551 102.393 332.697 102.247 332.989C101.906 333.573 102.052 334.303 102.685 334.644C102.831 334.692 103.026 334.692 103.123 334.741C102.88 334.595 103.123 334.887 103.172 334.984C103.366 335.325 103.707 335.52 104.096 335.617C105.8 335.958 108.087 335.666 108.477 333.67C108.574 333.184 108.282 332.794 107.795 332.746C106.433 332.6 105.07 332.697 103.707 332.989C102.928 333.135 103.074 334.546 103.902 334.4C104.973 334.254 105.995 334.254 107.065 334.498C107.211 334.011 107.309 333.573 107.455 333.086C106.043 332.794 104.632 332.6 103.22 332.892C102.977 332.94 102.782 333.184 102.734 333.378C102.49 334.498 103.464 334.936 104.34 335.325C105.07 335.617 106.092 336.055 106.627 335.179C107.017 334.498 106.481 333.67 105.703 333.816C104.583 333.962 104.534 335.86 104.34 336.639C104.827 336.639 105.265 336.639 105.751 336.639C105.508 335.666 105.216 334.692 104.875 333.768C104.583 332.989 103.512 333.135 103.464 333.962C103.366 335.179 103.318 336.396 103.318 337.661C103.804 337.613 104.291 337.515 104.729 337.467C104.194 336.152 104.583 334.741 103.999 333.427C103.707 332.746 102.636 333.135 102.636 333.816C102.636 335.276 102.685 336.737 102.831 338.245C103.318 338.245 103.804 338.245 104.291 338.245C104.145 336.883 103.95 335.471 103.804 334.108C103.61 333.281 102.15 333.281 102.247 334.206Z" fill="#0F2C37"/>
<path fill-rule="evenodd" clip-rule="evenodd" d="M442.454 332.453C442.454 334.546 442.454 336.688 442.454 338.781C442.454 339.705 443.914 339.705 443.914 338.781C443.914 336.688 443.914 334.546 443.914 332.453C443.914 331.48 442.454 331.48 442.454 332.453Z" fill="#0F2C37"/>
<path fill-rule="evenodd" clip-rule="evenodd" d="M441.775 332.697C441.775 333.184 441.775 333.719 441.775 334.206C441.775 334.595 442.115 334.936 442.505 334.936C442.894 334.936 443.235 334.595 443.235 334.206C443.283 333.719 443.235 333.232 443.186 332.746C443.137 332.356 442.894 332.016 442.456 332.016C442.067 332.016 441.726 332.356 441.726 332.746C441.726 333.086 441.726 333.427 441.726 333.768C441.726 334.692 443.186 334.692 443.186 333.768C443.186 333.427 443.186 333.086 443.186 332.746C442.699 332.746 442.213 332.746 441.726 332.746C441.775 333.232 441.775 333.719 441.775 334.206C442.261 334.206 442.748 334.206 443.235 334.206C443.235 333.719 443.235 333.184 443.235 332.697C443.186 331.772 441.726 331.772 441.775 332.697Z" fill="#0F2C37"/>
<path fill-rule="evenodd" clip-rule="evenodd" d="M103.367 332.454C216.574 332.308 329.782 332.162 443.038 332.016C439.68 318.68 436.37 305.295 433.012 291.96C334.892 292.252 236.773 292.544 138.653 292.836C126.875 306.074 115.145 319.264 103.367 332.454Z" fill="white" stroke="#0F2C37" stroke-width="3"/>
<rect x="178.509" y="255.432" width="97.7647" height="61.903" fill="white" stroke="#0F2C37" stroke-width="2"/>
<path fill-rule="evenodd" clip-rule="evenodd" d="M225.642 295.648C218.689 296.508 215.32 288.016 217.138 282.372C218.903 276.782 225.481 274.149 230.829 276.084C236.124 278.019 238.691 284.522 236.819 289.736C234.733 295.541 227.46 297.906 222.112 295.326C221.203 294.896 220.347 296.293 221.31 296.723C226.07 299.035 231.899 298.175 235.696 294.412C239.386 290.703 239.921 284.845 237.621 280.276C232.38 269.849 216.176 273.181 215.053 284.63C214.464 290.757 218.85 298.121 225.642 297.315C226.658 297.153 226.658 295.541 225.642 295.648Z" fill="#0F2C37"/>
<path opacity="0.14" fill-rule="evenodd" clip-rule="evenodd" d="M215.207 255.273C228.446 259.885 237.471 271.693 237.749 284.376C238.107 300.279 224.748 315.228 206.539 316.739C229.718 316.938 252.897 317.136 276.116 317.335C276.036 296.581 275.996 275.828 275.917 255.114C255.68 255.114 235.443 255.194 215.207 255.273Z" fill="#849AA4"/>
<path opacity="0.26" fill-rule="evenodd" clip-rule="evenodd" d="M276.114 255.074C275.756 267.717 273.251 277.577 271.144 284.058C268.043 293.48 265.816 300.358 259.415 306.441C250.708 314.791 239.854 316.341 235.083 316.739C248.641 316.858 262.198 316.977 275.756 317.136C275.796 305.328 275.875 293.52 275.955 281.672C275.955 272.806 276.034 263.94 276.114 255.074Z" fill="#849AA4"/>
<rect x="138" y="152" width="36" height="36" rx="11" fill="#016299" stroke="#0F2C37" stroke-width="2"/>
<path d="M154.371 164.818V175H152.731L147.933 168.065H147.849V175H146.004V164.818H147.655L152.447 171.759H152.537V164.818H154.371ZM156.381 175V164.818H160.199C160.982 164.818 161.638 164.964 162.168 165.256C162.702 165.547 163.104 165.948 163.376 166.459C163.651 166.966 163.789 167.543 163.789 168.189C163.789 168.842 163.651 169.422 163.376 169.929C163.101 170.436 162.695 170.835 162.158 171.127C161.621 171.415 160.96 171.56 160.175 171.56H157.644V170.043H159.926C160.383 170.043 160.758 169.964 161.05 169.805C161.341 169.646 161.557 169.427 161.696 169.148C161.838 168.87 161.91 168.55 161.91 168.189C161.91 167.828 161.838 167.509 161.696 167.234C161.557 166.959 161.34 166.746 161.045 166.593C160.753 166.437 160.377 166.359 159.916 166.359H158.226V175H156.381ZM167.235 164.818V175H165.391V164.818H167.235Z" fill="white"/>
<circle cx="196" cy="93" r="19" fill="#F9D278" stroke="#0F2C37" stroke-width="2"/>
<path d="M186.455 98H183.004V87.8182H186.524C187.535 87.8182 188.403 88.022 189.129 88.4297C189.858 88.834 190.419 89.4157 190.81 90.1747C191.201 90.9337 191.396 91.8419 191.396 92.8991C191.396 93.9598 191.199 94.8712 190.805 95.6335C190.414 96.3958 189.848 96.9808 189.109 97.3885C188.374 97.7962 187.489 98 186.455 98ZM184.849 96.4041H186.365C187.074 96.4041 187.666 96.2749 188.14 96.0163C188.614 95.7545 188.97 95.3651 189.209 94.848C189.447 94.3277 189.567 93.678 189.567 92.8991C189.567 92.1203 189.447 91.474 189.209 90.9602C188.97 90.4432 188.617 90.0571 188.15 89.8018C187.686 89.5433 187.109 89.4141 186.42 89.4141H184.849V96.4041ZM192.869 98V87.8182H199.491V89.3643H194.713V92.1286H199.148V93.6747H194.713V96.4538H199.531V98H192.869ZM202.4 98H200.431L204.016 87.8182H206.293L209.882 98H207.914L205.194 89.9062H205.115L202.4 98ZM202.465 94.0078H207.834V95.4893H202.465V94.0078Z" fill="#0F2C37"/>
<mask id="path-153-inside-1_3935_18079" fill="white">
  <path fill-rule="evenodd" clip-rule="evenodd" d="M281.43 60.3129C281.423 60.3009 281.411 60.2936 281.397 60.2936L266.758 60.2936C264.615 60.2936 262.634 59.15 261.562 57.2936L255.727 47.1862C254.655 45.3298 254.655 43.0426 255.727 41.1862L261.562 31.0788C262.634 29.2224 264.615 28.0788 266.758 28.0788L281.871 28.0788C281.885 28.0788 281.898 28.0861 281.905 28.0981C281.912 28.1101 281.924 28.1175 281.938 28.1175L296.577 28.1175C298.72 28.1175 300.701 29.2611 301.773 31.1175L307.608 41.2249C308.68 43.0813 308.68 45.3685 307.608 47.2249L301.773 57.3323C300.701 59.1887 298.72 60.3323 296.577 60.3323L281.464 60.3323C281.45 60.3323 281.437 60.3249 281.43 60.3129Z"/>
</mask>
<path fill-rule="evenodd" clip-rule="evenodd" d="M281.43 60.3129C281.423 60.3009 281.411 60.2936 281.397 60.2936L266.758 60.2936C264.615 60.2936 262.634 59.15 261.562 57.2936L255.727 47.1862C254.655 45.3298 254.655 43.0426 255.727 41.1862L261.562 31.0788C262.634 29.2224 264.615 28.0788 266.758 28.0788L281.871 28.0788C281.885 28.0788 281.898 28.0861 281.905 28.0981C281.912 28.1101 281.924 28.1175 281.938 28.1175L296.577 28.1175C298.72 28.1175 300.701 29.2611 301.773 31.1175L307.608 41.2249C308.68 43.0813 308.68 45.3685 307.608 47.2249L301.773 57.3323C300.701 59.1887 298.72 60.3323 296.577 60.3323L281.464 60.3323C281.45 60.3323 281.437 60.3249 281.43 60.3129Z" fill="white"/>
<path d="M281.464 60.3323L281.464 58.3323L281.464 60.3323ZM296.577 60.3323L296.577 62.3323L296.577 60.3323ZM307.608 41.2249L305.876 42.2249L307.608 41.2249ZM307.608 47.2249L305.876 46.2249L307.608 47.2249ZM296.577 28.1175V26.1175V28.1175ZM281.938 28.1175L281.938 26.1175L281.938 28.1175ZM281.871 28.0788L281.871 30.0788L281.871 28.0788ZM255.727 47.1862L253.995 48.1862L255.727 47.1862ZM266.758 60.2936L266.758 58.2936L266.758 60.2936ZM281.397 60.2936L281.397 62.2936L281.397 60.2936ZM281.397 58.2936L266.758 58.2936L266.758 62.2936L281.397 62.2936L281.397 58.2936ZM263.294 56.2936L257.459 46.1862L253.995 48.1862L259.83 58.2936L263.294 56.2936ZM257.459 42.1862L263.294 32.0788L259.83 30.0788L253.995 40.1862L257.459 42.1862ZM266.758 30.0788L281.871 30.0788L281.871 26.0788L266.758 26.0788L266.758 30.0788ZM281.938 30.1175L296.577 30.1175L296.577 26.1175L281.938 26.1175L281.938 30.1175ZM300.041 32.1175L305.876 42.2249L309.34 40.2249L303.505 30.1175L300.041 32.1175ZM305.876 46.2249L300.041 56.3323L303.505 58.3323L309.34 48.2249L305.876 46.2249ZM296.577 58.3323L281.464 58.3323L281.464 62.3323L296.577 62.3323L296.577 58.3323ZM281.464 58.3323C282.164 58.3323 282.812 58.7061 283.162 59.313L279.698 61.3129C280.062 61.9438 280.735 62.3323 281.464 62.3323L281.464 58.3323ZM300.041 56.3323C299.326 57.5699 298.006 58.3323 296.577 58.3323L296.577 62.3323C299.435 62.3323 302.076 60.8075 303.505 58.3323L300.041 56.3323ZM305.876 42.2249C306.591 43.4625 306.591 44.9873 305.876 46.2249L309.34 48.2249C310.769 45.7497 310.769 42.7001 309.34 40.2249L305.876 42.2249ZM296.577 30.1175C298.006 30.1175 299.326 30.8799 300.041 32.1175L303.505 30.1175C302.076 27.6423 299.435 26.1175 296.577 26.1175L296.577 30.1175ZM280.173 29.0981C280.537 29.7289 281.21 30.1175 281.938 30.1175L281.938 26.1175C282.639 26.1175 283.286 26.4913 283.637 27.0981L280.173 29.0981ZM281.871 30.0788C281.17 30.0788 280.523 29.705 280.173 29.0981L283.637 27.0981C283.273 26.4673 282.599 26.0788 281.871 26.0788L281.871 30.0788ZM263.294 32.0788C264.009 30.8412 265.329 30.0788 266.758 30.0788L266.758 26.0788C263.9 26.0788 261.259 27.6036 259.83 30.0788L263.294 32.0788ZM257.459 46.1862C256.744 44.9486 256.744 43.4238 257.459 42.1862L253.995 40.1862C252.566 42.6614 252.566 45.711 253.995 48.1862L257.459 46.1862ZM266.758 58.2936C265.329 58.2936 264.009 57.5312 263.294 56.2936L259.83 58.2936C261.259 60.7688 263.9 62.2936 266.758 62.2936L266.758 58.2936ZM281.397 62.2936C280.696 62.2936 280.049 61.9197 279.698 61.3129L283.162 59.313C282.798 58.6822 282.125 58.2936 281.397 58.2936L281.397 62.2936Z" fill="#0F2C37" mask="url(#path-153-inside-1_3935_18079)"/>
<path d="M274.719 42.2536H272.86C272.807 41.9486 272.709 41.6785 272.567 41.4432C272.424 41.2045 272.247 41.0024 272.035 40.8366C271.823 40.6709 271.581 40.5466 271.309 40.4638C271.04 40.3776 270.75 40.3345 270.439 40.3345C269.885 40.3345 269.395 40.4737 268.967 40.7521C268.54 41.0272 268.205 41.4316 267.963 41.9652C267.721 42.4955 267.6 43.1435 267.6 43.9091C267.6 44.688 267.721 45.3442 267.963 45.8778C268.208 46.4081 268.543 46.8092 268.967 47.081C269.395 47.3494 269.884 47.4837 270.434 47.4837C270.739 47.4837 271.024 47.4439 271.289 47.3643C271.558 47.2815 271.798 47.1605 272.01 47.0014C272.225 46.8423 272.406 46.6468 272.552 46.4148C272.701 46.1828 272.804 45.9176 272.86 45.6193L274.719 45.6293C274.65 46.1132 274.499 46.5672 274.267 46.9915C274.038 47.4157 273.738 47.7902 273.367 48.1151C272.996 48.4366 272.562 48.6884 272.065 48.8707C271.567 49.0497 271.016 49.1392 270.409 49.1392C269.514 49.1392 268.715 48.9321 268.013 48.5178C267.31 48.1035 266.757 47.5052 266.352 46.723C265.948 45.9408 265.746 45.0028 265.746 43.9091C265.746 42.812 265.95 41.8741 266.357 41.0952C266.765 40.313 267.32 39.7147 268.023 39.3004C268.725 38.8861 269.521 38.679 270.409 38.679C270.976 38.679 271.503 38.7585 271.99 38.9176C272.477 39.0767 272.911 39.3104 273.293 39.6186C273.674 39.9235 273.987 40.2981 274.232 40.7422C274.481 41.183 274.643 41.6868 274.719 42.2536ZM276.129 38.8182H278.386L281.408 46.196H281.528L284.55 38.8182H286.808V49H285.038V42.005H284.943L282.129 48.9702H280.807L277.993 41.9901H277.898V49H276.129V38.8182ZM288.536 49V38.8182H295.158V40.3643H290.381V43.1286H294.815V44.6747H290.381V47.4538H295.198V49H288.536Z" fill="black"/>
<circle cx="365" cy="90" r="19" fill="#0F2C37" stroke="#0F2C37" stroke-width="2"/>
<path d="M360.719 88.2536H358.86C358.807 87.9486 358.709 87.6785 358.567 87.4432C358.424 87.2045 358.247 87.0024 358.035 86.8366C357.823 86.6709 357.581 86.5466 357.309 86.4638C357.04 86.3776 356.75 86.3345 356.439 86.3345C355.885 86.3345 355.395 86.4737 354.967 86.7521C354.54 87.0272 354.205 87.4316 353.963 87.9652C353.721 88.4955 353.6 89.1435 353.6 89.9091C353.6 90.688 353.721 91.3442 353.963 91.8778C354.208 92.4081 354.543 92.8092 354.967 93.081C355.395 93.3494 355.884 93.4837 356.434 93.4837C356.739 93.4837 357.024 93.4439 357.289 93.3643C357.558 93.2815 357.798 93.1605 358.01 93.0014C358.225 92.8423 358.406 92.6468 358.552 92.4148C358.701 92.1828 358.804 91.9176 358.86 91.6193L360.719 91.6293C360.65 92.1132 360.499 92.5672 360.267 92.9915C360.038 93.4157 359.738 93.7902 359.367 94.1151C358.996 94.4366 358.562 94.6884 358.065 94.8707C357.567 95.0497 357.016 95.1392 356.409 95.1392C355.514 95.1392 354.715 94.9321 354.013 94.5178C353.31 94.1035 352.757 93.5052 352.352 92.723C351.948 91.9408 351.746 91.0028 351.746 89.9091C351.746 88.812 351.95 87.8741 352.357 87.0952C352.765 86.313 353.32 85.7147 354.023 85.3004C354.725 84.8861 355.521 84.679 356.409 84.679C356.976 84.679 357.503 84.7585 357.99 84.9176C358.477 85.0767 358.911 85.3104 359.293 85.6186C359.674 85.9235 359.987 86.2981 360.232 86.7422C360.481 87.183 360.643 87.6868 360.719 88.2536ZM367.662 87.6172C367.616 87.183 367.42 86.8449 367.075 86.603C366.734 86.361 366.29 86.2401 365.743 86.2401C365.358 86.2401 365.029 86.2981 364.754 86.4141C364.478 86.5301 364.268 86.6875 364.122 86.8864C363.976 87.0852 363.902 87.3123 363.898 87.5675C363.898 87.7796 363.947 87.9635 364.043 88.1193C364.142 88.2751 364.276 88.4077 364.445 88.517C364.614 88.6231 364.802 88.7126 365.007 88.7855C365.213 88.8584 365.42 88.9197 365.629 88.9695L366.583 89.2081C366.968 89.2976 367.337 89.4186 367.692 89.571C368.05 89.7235 368.37 89.9157 368.651 90.1477C368.936 90.3797 369.162 90.6598 369.327 90.9879C369.493 91.3161 369.576 91.7005 369.576 92.1413C369.576 92.7379 369.424 93.2633 369.119 93.7173C368.814 94.1681 368.373 94.5211 367.796 94.7763C367.223 95.0282 366.528 95.1541 365.713 95.1541C364.921 95.1541 364.233 95.0315 363.65 94.7862C363.07 94.541 362.616 94.183 362.288 93.7124C361.963 93.2417 361.787 92.6683 361.761 91.9922H363.575C363.602 92.3468 363.711 92.6418 363.903 92.8771C364.096 93.1125 364.346 93.2881 364.654 93.4041C364.966 93.5201 365.314 93.5781 365.698 93.5781C366.099 93.5781 366.451 93.5185 366.752 93.3991C367.057 93.2765 367.296 93.1075 367.468 92.892C367.64 92.6733 367.728 92.4181 367.732 92.1264C367.728 91.8613 367.65 91.6425 367.498 91.4702C367.345 91.2945 367.132 91.1487 366.857 91.0327C366.585 90.9134 366.267 90.8073 365.902 90.7145L364.744 90.4162C363.905 90.2008 363.242 89.8743 362.755 89.4368C362.271 88.996 362.029 88.411 362.029 87.6818C362.029 87.0819 362.192 86.5566 362.516 86.1058C362.844 85.6551 363.29 85.3054 363.854 85.0568C364.417 84.8049 365.055 84.679 365.768 84.679C366.49 84.679 367.123 84.8049 367.667 85.0568C368.214 85.3054 368.643 85.6518 368.955 86.0959C369.266 86.5367 369.427 87.0438 369.437 87.6172H367.662ZM370.94 95V84.8182H374.759C375.541 84.8182 376.197 84.9541 376.727 85.2259C377.261 85.4976 377.664 85.8788 377.935 86.3693C378.21 86.8565 378.348 87.425 378.348 88.0746C378.348 88.7275 378.209 89.2943 377.93 89.7749C377.655 90.2521 377.249 90.6217 376.712 90.8835C376.175 91.142 375.516 91.2713 374.734 91.2713H372.014V89.7401H374.485C374.942 89.7401 375.317 89.6771 375.609 89.5511C375.9 89.4219 376.116 89.2346 376.255 88.9893C376.398 88.7408 376.469 88.4358 376.469 88.0746C376.469 87.7133 376.398 87.4051 376.255 87.1499C376.112 86.8913 375.895 86.6958 375.604 86.5632C375.312 86.4273 374.936 86.3594 374.475 86.3594H372.785V95H370.94ZM376.2 90.3864L378.721 95H376.663L374.187 90.3864H376.2Z" fill="white"/>
<mask id="path-158-inside-2_3935_18079" fill="white">
  <path fill-rule="evenodd" clip-rule="evenodd" d="M397 182.865C394.295 184.231 391.237 185 388 185C376.954 185 368 176.046 368 165C368 153.954 376.954 145 388 145C391.237 145 394.295 145.769 397 147.135C399.705 145.769 402.763 145 406 145C417.046 145 426 153.954 426 165C426 176.046 417.046 185 406 185C402.763 185 399.705 184.231 397 182.865Z"/>
</mask>
<path d="M397 182.865L397.901 181.08L397 180.625L396.099 181.08L397 182.865ZM397 147.135L396.099 148.92L397 149.375L397.901 148.92L397 147.135ZM396.099 181.08C393.667 182.308 390.917 183 388 183V187C391.557 187 394.923 186.154 397.901 184.651L396.099 181.08ZM388 183C378.059 183 370 174.941 370 165H366C366 177.15 375.85 187 388 187V183ZM370 165C370 155.059 378.059 147 388 147V143C375.85 143 366 152.85 366 165H370ZM388 147C390.917 147 393.667 147.692 396.099 148.92L397.901 145.349C394.923 143.846 391.557 143 388 143V147ZM397.901 148.92C400.333 147.692 403.083 147 406 147V143C402.443 143 399.077 143.846 396.099 145.349L397.901 148.92ZM406 147C415.941 147 424 155.059 424 165H428C428 152.85 418.15 143 406 143V147ZM424 165C424 174.941 415.941 183 406 183V187C418.15 187 428 177.15 428 165H424ZM406 183C403.083 183 400.333 182.308 397.901 181.08L396.099 184.651C399.077 186.154 402.443 187 406 187V183Z" fill="#2E4F5E" mask="url(#path-158-inside-2_3935_18079)"/>
<path d="M386.719 163.254H384.86C384.807 162.949 384.709 162.679 384.567 162.443C384.424 162.205 384.247 162.002 384.035 161.837C383.823 161.671 383.581 161.547 383.309 161.464C383.04 161.378 382.75 161.335 382.439 161.335C381.885 161.335 381.395 161.474 380.967 161.752C380.54 162.027 380.205 162.432 379.963 162.965C379.721 163.496 379.6 164.143 379.6 164.909C379.6 165.688 379.721 166.344 379.963 166.878C380.208 167.408 380.543 167.809 380.967 168.081C381.395 168.349 381.884 168.484 382.434 168.484C382.739 168.484 383.024 168.444 383.289 168.364C383.558 168.281 383.798 168.161 384.01 168.001C384.225 167.842 384.406 167.647 384.552 167.415C384.701 167.183 384.804 166.918 384.86 166.619L386.719 166.629C386.65 167.113 386.499 167.567 386.267 167.991C386.038 168.416 385.738 168.79 385.367 169.115C384.996 169.437 384.562 169.688 384.065 169.871C383.567 170.05 383.016 170.139 382.409 170.139C381.514 170.139 380.715 169.932 380.013 169.518C379.31 169.103 378.757 168.505 378.352 167.723C377.948 166.941 377.746 166.003 377.746 164.909C377.746 163.812 377.95 162.874 378.357 162.095C378.765 161.313 379.32 160.715 380.023 160.3C380.725 159.886 381.521 159.679 382.409 159.679C382.976 159.679 383.503 159.759 383.99 159.918C384.477 160.077 384.911 160.31 385.293 160.619C385.674 160.924 385.987 161.298 386.232 161.742C386.481 162.183 386.643 162.687 386.719 163.254ZM389.313 170H387.344L390.929 159.818H393.206L396.795 170H394.827L392.107 161.906H392.028L389.313 170ZM389.378 166.008H394.747V167.489H389.378V166.008ZM401.171 166.58H402.842L403.831 167.862L404.537 168.697L406.232 170.875H404.442L403.289 169.413L402.797 168.717L401.171 166.58ZM406.476 164.909C406.476 166.006 406.27 166.946 405.859 167.728C405.452 168.507 404.895 169.103 404.189 169.518C403.486 169.932 402.689 170.139 401.798 170.139C400.906 170.139 400.107 169.932 399.401 169.518C398.699 169.1 398.142 168.502 397.731 167.723C397.323 166.941 397.119 166.003 397.119 164.909C397.119 163.812 397.323 162.874 397.731 162.095C398.142 161.313 398.699 160.715 399.401 160.3C400.107 159.886 400.906 159.679 401.798 159.679C402.689 159.679 403.486 159.886 404.189 160.3C404.895 160.715 405.452 161.313 405.859 162.095C406.27 162.874 406.476 163.812 406.476 164.909ZM404.621 164.909C404.621 164.137 404.5 163.486 404.259 162.955C404.02 162.422 403.688 162.019 403.264 161.747C402.84 161.472 402.351 161.335 401.798 161.335C401.244 161.335 400.755 161.472 400.331 161.747C399.907 162.019 399.574 162.422 399.332 162.955C399.093 163.486 398.974 164.137 398.974 164.909C398.974 165.681 399.093 166.334 399.332 166.868C399.574 167.398 399.907 167.801 400.331 168.076C400.755 168.348 401.244 168.484 401.798 168.484C402.351 168.484 402.84 168.348 403.264 168.076C403.688 167.801 404.02 167.398 404.259 166.868C404.5 166.334 404.621 165.681 404.621 164.909ZM407.953 170V159.818H409.798V164.129H414.516V159.818H416.365V170H414.516V165.675H409.798V170H407.953Z" fill="#2E4F5E"/>
<path fill-rule="evenodd" clip-rule="evenodd" d="M376.105 289.27C376.105 285.832 376.105 282.393 376.105 278.885C376.105 277.552 374 277.552 374 278.885C374 282.323 374 285.761 374 289.27C374 290.673 376.105 290.673 376.105 289.27Z" fill="#E0F2FA"/>
<path fill-rule="evenodd" clip-rule="evenodd" d="M375.053 279.797C394.49 279.797 413.856 279.797 433.293 279.797C434.626 279.797 434.626 277.692 433.293 277.692C413.856 277.692 394.49 277.692 375.053 277.692C373.72 277.692 373.72 279.797 375.053 279.797Z" fill="#E0F2FA"/>
<path fill-rule="evenodd" clip-rule="evenodd" d="M432.24 278.744C432.24 282.042 432.24 285.34 432.24 288.638C432.24 289.971 434.346 289.971 434.346 288.638C434.346 285.34 434.346 282.042 434.346 278.744C434.346 277.341 432.24 277.341 432.24 278.744Z" fill="#E0F2FA"/>
<path fill-rule="evenodd" clip-rule="evenodd" d="M377.719 283.726C392.595 283.726 407.4 283.726 422.276 283.726C423.609 283.726 423.609 281.621 422.276 281.621C407.4 281.621 392.595 281.621 377.719 281.621C376.386 281.621 376.386 283.726 377.719 283.726Z" fill="#E0F2FA"/>
<path fill-rule="evenodd" clip-rule="evenodd" d="M387.613 287.726C398.98 287.726 410.418 287.726 421.785 287.726C423.119 287.726 423.119 285.621 421.785 285.621C410.418 285.621 398.98 285.621 387.613 285.621C386.28 285.621 386.28 287.726 387.613 287.726Z" fill="#E0F2FA"/>
<path fill-rule="evenodd" clip-rule="evenodd" d="M389.999 278.534C389.999 276.148 389.999 273.833 389.999 271.447C389.999 270.114 387.894 270.114 387.894 271.447C387.894 273.833 387.894 276.148 387.894 278.534C387.894 279.867 389.999 279.867 389.999 278.534Z" fill="#E0F2FA"/>
<path fill-rule="evenodd" clip-rule="evenodd" d="M390.279 272.078C407.19 272.078 424.1 272.078 441.011 272.078C442.344 272.078 442.344 269.973 441.011 269.973C424.1 269.973 407.19 269.973 390.279 269.973C388.946 269.973 388.946 272.078 390.279 272.078Z" fill="#E0F2FA"/>
<path fill-rule="evenodd" clip-rule="evenodd" d="M433.924 279.306C436.1 279.306 438.345 279.306 440.52 279.306C441.854 279.306 441.854 277.201 440.52 277.201C438.345 277.201 436.1 277.201 433.924 277.201C432.591 277.201 432.591 279.306 433.924 279.306Z" fill="#E0F2FA"/>
<path fill-rule="evenodd" clip-rule="evenodd" d="M439.959 271.236C439.959 273.482 439.959 275.797 439.959 278.043C439.959 279.376 442.064 279.376 442.064 278.043C442.064 275.797 442.064 273.482 442.064 271.236C442.064 269.833 439.959 269.833 439.959 271.236Z" fill="#E0F2FA"/>
<path fill-rule="evenodd" clip-rule="evenodd" d="M400.454 275.587C404.524 275.587 408.524 275.587 412.593 275.587C413.927 275.587 413.927 273.482 412.593 273.482C408.524 273.482 404.524 273.482 400.454 273.482C399.051 273.482 399.051 275.587 400.454 275.587Z" fill="#E0F2FA"/>
<path fill-rule="evenodd" clip-rule="evenodd" d="M421.364 277.341C424.943 277.341 428.592 277.341 432.17 277.341C433.504 277.341 433.504 275.236 432.17 275.236C428.592 275.236 424.943 275.236 421.364 275.236C420.031 275.236 420.031 277.341 421.364 277.341Z" fill="#E0F2FA"/>
<path fill-rule="evenodd" clip-rule="evenodd" d="M401.787 268.991C400.103 267.377 399.752 264.921 399.892 262.676C400.173 258.957 403.541 258.816 406.348 259.939C407.611 260.43 408.172 258.395 406.909 257.904C403.752 256.641 399.612 256.711 398.208 260.43C397.016 263.588 397.858 268.149 400.313 270.464C401.296 271.447 402.769 269.903 401.787 268.991Z" fill="#E0F2FA"/>
<path fill-rule="evenodd" clip-rule="evenodd" d="M405.997 258.887C412.593 255.94 415.33 267.026 409.646 269.833C408.453 270.465 409.506 272.219 410.699 271.657C418.838 267.588 414.067 252.992 404.945 257.062C403.682 257.624 404.804 259.448 405.997 258.887Z" fill="#E0F2FA"/>
<path fill-rule="evenodd" clip-rule="evenodd" d="M406.208 258.325C405.857 256.08 405.015 254.045 403.682 252.221C402.91 251.098 401.086 252.151 401.857 253.273C403.05 254.957 403.822 256.782 404.173 258.887C404.383 260.22 406.418 259.659 406.208 258.325Z" fill="#E0F2FA"/>
<path fill-rule="evenodd" clip-rule="evenodd" d="M405.225 254.747C405.435 254.185 405.716 253.694 406.067 253.203C406.207 252.992 406.418 252.712 406.628 252.501C406.698 252.361 406.839 252.291 406.979 252.15C406.628 251.449 406.418 251.308 406.277 251.659C405.927 252.01 405.576 252.922 405.365 253.413C405.014 254.045 404.593 254.606 404.172 255.168C403.401 256.29 405.225 257.343 405.997 256.22C406.769 255.168 407.47 254.045 408.032 252.852C408.523 251.87 408.804 250.607 407.54 250.115C405.435 249.344 403.822 252.642 403.26 254.115C402.699 255.448 404.734 256.01 405.225 254.747Z" fill="#E0F2FA"/>
</svg>
