<svg width="689" height="549" viewBox="0 0 689 549" fill="none" xmlns="http://www.w3.org/2000/svg">
<path fill-rule="evenodd" clip-rule="evenodd" d="M42.0497 465.265C43.4388 478.966 45.838 492.478 49.1843 505.863C49.5 507.062 51.331 506.557 51.0153 505.358C47.7322 492.162 45.3329 478.777 43.9439 465.265C43.8176 464.066 41.9235 464.066 42.0497 465.265V465.265Z" fill="#E0F2FA"/>
<path fill-rule="evenodd" clip-rule="evenodd" d="M49.5632 506.494C62.0014 509.714 74.9446 509.714 87.3828 506.494C88.5824 506.179 88.0773 504.348 86.8777 504.663C74.7552 507.82 62.1908 507.82 50.0683 504.663C48.9318 504.348 48.4267 506.179 49.5632 506.494V506.494Z" fill="#E0F2FA"/>
<path fill-rule="evenodd" clip-rule="evenodd" d="M88.8349 504.6C89.6557 491.152 90.729 477.703 91.9918 464.255C92.1181 463.055 90.2239 463.055 90.0976 464.255C88.8349 477.703 87.7615 491.152 86.9408 504.6C86.8776 505.8 88.7718 505.8 88.8349 504.6V504.6Z" fill="#E0F2FA"/>
<path fill-rule="evenodd" clip-rule="evenodd" d="M43.1232 466.276C58.8445 469.496 75.0078 469.369 90.7292 465.834C91.9288 465.581 91.4237 463.75 90.2241 464.003C74.8815 467.412 59.0339 467.601 43.6283 464.445C42.4287 464.192 41.9236 466.023 43.1232 466.276V466.276Z" fill="#E0F2FA"/>
<path fill-rule="evenodd" clip-rule="evenodd" d="M42.9338 470.821C43.4389 473.41 46.7221 473.284 48.7425 473.473C53.8567 473.915 59.034 474.041 64.1482 473.915C69.0729 473.789 73.9977 473.41 78.9224 472.842C82.837 472.337 86.6253 471.832 90.0978 469.874C91.1712 469.306 90.2241 467.665 89.1508 468.233C82.9001 471.705 74.2502 471.579 67.2419 471.895C63.7693 472.021 60.2336 472.084 56.761 472.021C54.93 471.958 45.1437 472.4 44.7648 470.316C44.5123 469.117 42.7444 469.622 42.9338 470.821V470.821Z" fill="#E0F2FA"/>
<path fill-rule="evenodd" clip-rule="evenodd" d="M46.5326 492.73C49.5632 498.097 53.4146 502.832 58.0237 506.936C58.9076 507.757 60.2967 506.431 59.3496 505.61C54.8037 501.632 51.0785 497.023 48.1742 491.783C47.606 490.71 45.9644 491.657 46.5326 492.73V492.73Z" fill="#E0F2FA"/>
<path fill-rule="evenodd" clip-rule="evenodd" d="M44.07 478.146C50.51 489.005 58.3391 498.981 67.3047 507.947C68.1887 508.831 69.5146 507.442 68.6306 506.621C59.7913 497.781 52.0885 487.932 45.7116 477.198C45.0802 476.188 43.4386 477.135 44.07 478.146V478.146Z" fill="#E0F2FA"/>
<path fill-rule="evenodd" clip-rule="evenodd" d="M54.6144 473.599C61.307 485.532 69.073 496.834 77.8491 507.378C78.6068 508.325 79.9327 506.999 79.175 506.052C70.5251 495.634 62.8223 484.459 56.256 472.652C55.6877 471.579 54.0462 472.526 54.6144 473.599V473.599Z" fill="#E0F2FA"/>
<path fill-rule="evenodd" clip-rule="evenodd" d="M66.6734 474.042C73.1766 483.765 79.743 493.425 86.3724 503.085C87.067 504.095 88.7085 503.148 88.014 502.138C81.3845 492.478 74.8182 482.818 68.315 473.094C67.6205 472.084 65.9789 473.031 66.6734 474.042V474.042Z" fill="#E0F2FA"/>
<path fill-rule="evenodd" clip-rule="evenodd" d="M76.7758 473.473C80.059 478.777 83.5947 483.954 87.2567 489.005C87.9512 489.952 89.5928 489.005 88.8983 488.058C85.2363 483.007 81.7006 477.829 78.4174 472.526C77.786 471.516 76.1444 472.463 76.7758 473.473V473.473Z" fill="#E0F2FA"/>
<path fill-rule="evenodd" clip-rule="evenodd" d="M22.1616 409.704C22.9192 414.061 23.6769 418.48 24.4977 422.837C24.7502 424.036 24.9396 425.299 25.9498 426.057C26.6444 426.625 28.9173 426.562 29.3593 427.193C29.4224 426.814 29.4856 426.436 29.4856 426.057C28.5385 427.004 27.5914 427.951 26.5812 428.835C26.3287 429.087 26.2655 429.466 26.3287 429.782C26.8969 431.487 27.2757 434.012 28.4122 435.464C28.9805 436.222 29.9907 436.096 30.4326 436.538C30.8115 436.916 30.6852 436.664 30.4958 437.8C30.3695 438.747 30.3695 439.758 30.4958 440.768C30.6852 442.283 31.1272 443.735 31.6954 445.124C34.9786 453.08 41.3555 459.52 47.4799 465.455C48.3638 466.276 49.6897 464.95 48.8058 464.129C44.8912 460.341 40.9767 456.426 37.7566 452.006C34.5997 447.65 30.8746 441.778 32.8319 436.222C32.9582 435.906 32.8319 435.464 32.5793 435.275C31.3797 434.328 30.1801 434.707 29.3593 433.191C27.7808 430.35 28.6648 429.403 30.6852 427.446C31.0009 427.193 31.064 426.625 30.8115 426.309C30.3064 425.552 29.9275 425.299 29.1067 425.046C28.6016 424.857 27.844 425.046 27.3389 424.794C26.2655 424.226 26.2655 422.837 26.0761 421.826C25.3185 417.659 24.5608 413.429 23.8663 409.262C23.74 407.999 21.909 408.504 22.1616 409.704V409.704Z" fill="#E0F2FA"/>
<path fill-rule="evenodd" clip-rule="evenodd" d="M23.5505 409.451C48.1743 417.659 65.0321 440.642 65.5372 466.654C65.5372 467.854 67.4313 467.854 67.4313 466.654C66.9262 439.821 49.5002 416.144 24.0556 407.62C22.9191 407.242 22.414 409.073 23.5505 409.451V409.451Z" fill="#E0F2FA"/>
<path fill-rule="evenodd" clip-rule="evenodd" d="M61.3701 440.768C67.4945 423.784 76.5232 407.368 90.9818 396.192C91.9288 395.435 90.9818 393.793 90.0347 394.551C75.1342 406.105 65.8529 422.773 59.5391 440.263C59.1603 441.399 60.9913 441.904 61.3701 440.768V440.768Z" fill="#E0F2FA"/>
<path fill-rule="evenodd" clip-rule="evenodd" d="M89.3397 395.814C89.7816 401.622 90.2867 407.431 90.7287 413.303C90.855 414.502 92.7491 414.502 92.6228 413.303C92.1809 407.494 91.6758 401.685 91.2338 395.814C91.1707 394.614 89.2765 394.614 89.3397 395.814V395.814Z" fill="#E0F2FA"/>
<path fill-rule="evenodd" clip-rule="evenodd" d="M91.5498 412.672C90.729 412.861 89.9082 413.05 89.1505 413.303C87.9509 413.619 88.456 415.45 89.6556 415.134C90.4764 414.945 91.2972 414.755 92.0549 414.503C93.2545 414.187 92.7494 412.419 91.5498 412.672V412.672Z" fill="#E0F2FA"/>
<path fill-rule="evenodd" clip-rule="evenodd" d="M88.2036 415.007C88.4561 416.207 89.4663 416.965 90.6028 417.091C91.1079 417.154 91.5499 416.649 91.5499 416.144C91.5499 415.576 91.1079 415.26 90.6028 415.197C90.7922 415.197 90.6028 415.197 90.5397 415.197C90.4765 415.197 90.3503 415.134 90.4765 415.197C90.4134 415.134 90.3503 415.134 90.2871 415.071C90.1608 415.007 90.4134 415.197 90.224 415.007C90.1608 414.944 90.1608 414.944 90.0977 414.881C90.224 415.007 90.0977 414.881 90.0977 414.818C90.0346 414.755 90.0346 414.629 90.0346 414.755C90.0346 414.692 89.9714 414.566 89.9714 414.502C89.8452 413.997 89.2769 413.682 88.8349 413.871C88.3298 413.997 88.0773 414.502 88.2036 415.007V415.007Z" fill="#E0F2FA"/>
<path fill-rule="evenodd" clip-rule="evenodd" d="M89.6557 416.397C89.7188 419.995 89.5925 423.531 89.2137 427.067C89.0874 428.203 89.2769 430.855 88.5192 431.739C88.4561 431.802 87.3196 431.992 87.067 432.181C86.12 432.939 87.4459 434.265 88.3929 433.507C88.7086 433.254 89.4663 433.507 89.9714 432.939C90.729 432.181 90.6027 430.413 90.729 429.529C91.2973 425.173 91.5498 420.753 91.4867 416.333C91.5498 415.197 89.6557 415.197 89.6557 416.397V416.397Z" fill="#E0F2FA"/>
<path fill-rule="evenodd" clip-rule="evenodd" d="M86.3094 433.823C88.3298 436.222 87.7616 440.2 87.5722 443.104C87.3196 446.45 86.7514 449.544 85.1098 452.448C82.7737 456.742 79.4905 460.341 77.7858 465.013C77.3439 466.149 79.1749 466.654 79.6168 465.518C81.8898 459.394 87.1302 454.848 88.7087 448.408C89.8452 443.799 90.9185 436.411 87.6353 432.497C86.8777 431.613 85.5518 432.939 86.3094 433.823V433.823Z" fill="#E0F2FA"/>
<path fill-rule="evenodd" clip-rule="evenodd" d="M71.4087 465.897C73.1766 447.966 77.9119 430.477 85.4885 414.187C85.9936 413.114 84.352 412.103 83.8469 413.24C76.1441 429.908 71.2824 447.65 69.5146 465.96C69.3883 467.16 71.2824 467.096 71.4087 465.897V465.897Z" fill="#E0F2FA"/>
<path fill-rule="evenodd" clip-rule="evenodd" d="M34.1576 419.995C45.2068 433.886 53.2884 449.86 58.0237 466.907C58.3394 468.107 60.1704 467.601 59.8547 466.402C54.9931 448.976 46.7221 432.812 35.4835 418.67C34.7259 417.722 33.4 419.048 34.1576 419.995V419.995Z" fill="#E0F2FA"/>
<path fill-rule="evenodd" clip-rule="evenodd" d="M35.3572 443.293C40.6608 442.978 45.5856 444.24 50.0683 447.018C51.0786 447.65 52.0888 446.008 51.0154 445.377C46.2801 442.473 40.9134 441.084 35.3572 441.399C34.0945 441.462 34.0945 443.356 35.3572 443.293V443.293Z" fill="#E0F2FA"/>
<path fill-rule="evenodd" clip-rule="evenodd" d="M46.9115 434.833C46.5326 431.36 46.9746 428.014 48.3005 424.731C48.7425 423.594 46.9115 423.089 46.4695 424.226C45.0805 427.635 44.6385 431.171 45.0173 434.833C45.1436 436.032 47.0377 436.032 46.9115 434.833V434.833Z" fill="#E0F2FA"/>
<path fill-rule="evenodd" clip-rule="evenodd" d="M67.3681 424.352C69.4516 429.466 72.4823 434.896 73.2399 440.326C73.4293 441.526 75.2603 441.02 75.0709 439.821C74.2501 434.328 71.2195 428.898 69.1991 423.847C68.7571 422.71 66.9261 423.216 67.3681 424.352V424.352Z" fill="#E0F2FA"/>
<path fill-rule="evenodd" clip-rule="evenodd" d="M78.9855 430.35C80.8165 428.266 82.5844 425.804 84.9205 424.225C86.8778 422.9 89.0245 422.016 90.5398 420.185C91.2974 419.238 89.9715 417.912 89.2139 418.859C87.5723 420.816 85.173 421.637 83.2158 423.152C81.0691 424.794 79.4275 427.004 77.6596 429.024C76.8388 429.971 78.1647 431.297 78.9855 430.35V430.35Z" fill="#E0F2FA"/>
<path fill-rule="evenodd" clip-rule="evenodd" d="M79.6169 465.265C82.6475 464.444 85.7413 464.129 88.8982 464.318C90.0978 464.381 90.0978 462.487 88.8982 462.424C85.5519 462.235 82.3318 462.55 79.1118 463.434C77.9753 463.75 78.4173 465.581 79.6169 465.265V465.265Z" fill="#E0F2FA"/>
<path fill-rule="evenodd" clip-rule="evenodd" d="M79.3643 466.023C82.9 466.339 86.3095 465.897 89.7189 464.823C90.8554 464.445 90.3503 462.614 89.2138 462.992C85.9938 464.003 82.7106 464.381 79.3643 464.129C78.1647 464.066 78.1647 465.96 79.3643 466.023V466.023Z" fill="#E0F2FA"/>
<path fill-rule="evenodd" clip-rule="evenodd" d="M43.9439 465.707C44.7647 465.707 45.5224 465.707 46.3431 465.707C47.5428 465.707 47.5428 463.813 46.3431 463.813C45.5224 463.813 44.7647 463.813 43.9439 463.813C42.7443 463.813 42.7443 465.707 43.9439 465.707V465.707Z" fill="#E0F2FA"/>
<path fill-rule="evenodd" clip-rule="evenodd" d="M90.2239 480.987C110.239 480.987 130.316 480.987 150.331 480.987C151.531 480.987 151.531 479.093 150.331 479.093C130.316 479.093 110.239 479.093 90.2239 479.093C89.0243 479.093 89.0243 480.987 90.2239 480.987V480.987Z" fill="#E0F2FA"/>
<path fill-rule="evenodd" clip-rule="evenodd" d="M429.022 468.485C440.955 468.485 452.825 468.485 464.758 468.485C465.957 468.485 465.957 466.591 464.758 466.591C452.825 466.591 440.955 466.591 429.022 466.591C427.822 466.591 427.822 468.485 429.022 468.485V468.485Z" fill="#E0F2FA"/>
<path fill-rule="evenodd" clip-rule="evenodd" d="M537.367 469.622C588.824 469.622 640.281 469.622 691.739 469.622C706.387 469.622 721.035 469.622 735.683 469.622C736.882 469.622 736.882 467.728 735.683 467.728C684.225 467.728 632.768 467.728 581.31 467.728C566.662 467.728 552.014 467.728 537.367 467.728C536.167 467.728 536.167 469.622 537.367 469.622V469.622Z" fill="#E0F2FA"/>
<path fill-rule="evenodd" clip-rule="evenodd" d="M461.159 262.34C456.361 272.253 451.183 281.976 445.69 291.51C445.438 292.015 445.627 292.836 446.259 292.899C473.345 297.003 497.59 310.451 520.951 324.026C522.024 324.657 522.971 323.015 521.898 322.384C498.347 308.746 473.976 295.235 446.7 291.068C446.89 291.51 447.079 292.015 447.269 292.457C452.825 282.923 457.939 273.2 462.737 263.287C463.306 262.214 461.727 261.203 461.159 262.34V262.34Z" fill="#E0F2FA"/>
<path fill-rule="evenodd" clip-rule="evenodd" d="M465.326 296.751C467.22 291.321 469.114 285.828 471.009 280.398C471.829 278.125 472.398 275.599 473.471 273.39C473.723 272.064 474.544 271.053 475.807 270.296C476.565 270.485 477.322 270.675 478.08 270.864C479.216 271.18 480.353 271.432 481.426 271.748C484.015 272.379 488.182 272.379 487.74 275.852C487.424 278.314 485.972 280.966 485.151 283.365C483.257 288.732 481.426 294.099 479.532 299.465C479.153 300.602 480.984 301.107 481.363 299.971C483.826 292.899 486.288 285.765 488.75 278.693C489.319 277.052 490.897 274.273 489.634 272.506C488.245 270.611 484.078 270.485 481.931 269.917C479.848 269.412 476.186 267.518 474.039 268.528C472.208 269.349 471.829 272.506 471.261 274.084C468.672 281.471 466.084 288.921 463.495 296.309C463.116 297.382 464.947 297.887 465.326 296.751V296.751Z" fill="#E0F2FA"/>
<path fill-rule="evenodd" clip-rule="evenodd" d="M489.697 303.506C493.738 294.982 497.842 286.396 501.883 277.872C503.903 273.579 505.924 269.348 508.007 265.055C508.954 263.098 509.712 260.762 510.911 258.931C511.922 257.352 512.174 256.973 513.942 257.668C514.889 258.047 516.026 258.994 516.846 259.562C517.92 260.32 519.625 261.141 520.382 262.151C521.329 263.35 520.95 264.613 520.382 266.128C519.625 268.149 518.488 270.106 517.541 272.063C515.457 276.357 513.374 280.65 511.164 284.944C506.997 293.088 502.64 301.17 498.158 309.188C497.526 310.262 499.168 311.209 499.799 310.136C505.292 300.412 510.533 290.563 515.457 280.587C517.92 275.662 520.635 270.611 522.718 265.497C524.17 261.772 521.014 260.257 518.235 258.299C516.026 256.784 512.553 253.311 510.154 256.153C508.639 257.921 507.818 260.888 506.808 263.035C505.545 265.623 504.345 268.212 503.082 270.864C498.031 281.471 492.98 292.078 487.992 302.685C487.55 303.632 489.192 304.643 489.697 303.506V303.506Z" fill="#E0F2FA"/>
<path fill-rule="evenodd" clip-rule="evenodd" d="M510.659 316.639C516.089 308.115 522.213 300.033 528.969 292.583C528.59 292.646 528.211 292.709 527.833 292.709C530.232 294.351 532.568 295.929 534.967 297.571C534.841 297.129 534.715 296.687 534.652 296.245C529.285 304.642 523.918 312.977 518.551 321.374C517.92 322.384 519.498 323.331 520.193 322.321C525.56 313.924 530.926 305.589 536.293 297.192C536.609 296.75 536.356 296.182 535.977 295.866C533.578 294.225 531.242 292.646 528.843 291.005C528.527 290.752 527.959 290.878 527.706 291.131C520.824 298.771 514.574 306.915 509.081 315.565C508.386 316.765 510.028 317.712 510.659 316.639V316.639Z" fill="#E0F2FA"/>
<path fill-rule="evenodd" clip-rule="evenodd" d="M585.983 256.594C579.669 254.195 575.691 247.881 576.828 241.126C577.964 234.244 584.72 228.119 591.665 232.223C596.464 235.064 598.926 241.504 597.095 246.745C595.201 252.364 589.013 255.71 583.268 254.826C582.068 254.637 581.563 256.468 582.763 256.657C589.518 257.668 596.653 253.943 598.926 247.25C601.199 240.557 597.537 232.476 590.971 229.761C583.268 226.604 576.259 233.233 574.933 240.62C573.544 248.45 578.154 255.647 585.414 258.425C586.614 258.867 587.119 257.036 585.983 256.594V256.594Z" fill="#E0F2FA"/>
<path fill-rule="evenodd" clip-rule="evenodd" d="M598.926 255.395C586.362 255.016 591.097 234.875 602.21 235.633C613.322 236.454 608.776 259.12 596.59 254.953C595.454 254.574 594.949 256.405 596.085 256.784C610.165 261.582 616.479 235.949 603.03 233.802C596.464 232.728 590.529 238.916 589.519 245.04C588.509 251.102 592.613 257.037 598.926 257.226C600.126 257.352 600.126 255.458 598.926 255.395V255.395Z" fill="#E0F2FA"/>
<path fill-rule="evenodd" clip-rule="evenodd" d="M589.518 198.255C588.445 197.119 587.94 195.288 588.761 193.899C589.582 192.573 591.602 191.942 592.865 192.952C594.001 193.836 594.254 195.73 593.18 196.677C591.918 197.813 589.897 197.245 588.698 196.298C587.751 195.54 586.425 196.866 587.372 197.624C589.329 199.139 592.36 199.897 594.443 198.066C596.337 196.361 596.148 193.204 594.254 191.563C592.296 189.858 589.203 190.363 587.561 192.257C585.73 194.404 586.235 197.624 588.129 199.581C589.013 200.465 590.339 199.139 589.518 198.255V198.255Z" fill="#E0F2FA"/>
<path fill-rule="evenodd" clip-rule="evenodd" d="M406.292 245.799C404.525 235.065 410.775 222.122 422.898 222.248C429.085 222.311 435.083 224.837 441.334 223.953C445.754 223.321 449.542 220.796 452.194 217.323C454.845 213.851 456.361 209.494 456.613 205.138C456.929 198.698 454.467 192.131 456.234 185.754C457.118 182.534 459.013 179.567 462.233 178.367C465.326 177.294 468.673 177.925 471.893 177.799C476.565 177.61 480.227 175.589 482.563 171.485C485.846 165.74 485.088 158.858 487.361 152.796C490.076 145.472 497.716 139.222 505.798 142.821C506.871 143.326 507.881 141.684 506.745 141.179C495.759 136.254 486.604 146.167 484.457 156.143C483.068 162.646 483.321 172.748 475.555 175.337C470.125 177.168 464 174.326 459.013 178.052C454.909 181.082 453.709 186.638 453.772 191.5C453.962 198.635 456.171 205.58 453.014 212.399C450.11 218.839 444.365 222.69 437.23 222.248C430.916 221.869 424.666 219.281 418.289 220.922C407.492 223.637 402.883 236.391 404.588 246.367C404.714 247.44 406.545 246.935 406.292 245.799V245.799Z" fill="#E0F2FA"/>
<path fill-rule="evenodd" clip-rule="evenodd" d="M486.099 200.781C483.763 195.477 486.983 190.426 492.097 188.721C495.822 187.459 499.926 187.396 503.146 184.87C505.671 182.913 506.492 180.45 506.177 177.293C505.861 174.326 505.861 171.99 508.197 169.969C510.154 168.265 512.743 167.633 515.268 167.507C522.214 167.255 531.747 170.79 536.798 164.035C539.135 160.878 538.44 156.963 539.513 153.427C540.965 148.503 545.701 145.472 550.752 145.725C551.951 145.788 551.951 143.894 550.752 143.83C546.9 143.641 543.175 145.093 540.524 147.871C537.24 151.344 537.682 155.258 536.672 159.615C533.957 171.548 517.352 163.151 509.523 166.876C506.618 168.265 504.282 170.727 504.03 174.01C503.714 177.862 505.482 181.019 501.567 183.67C499.484 185.059 497.085 185.501 494.685 186.07C490.708 187.017 486.793 188.216 484.773 192.068C483.131 195.098 483.131 198.571 484.52 201.665C484.962 202.864 486.541 201.854 486.099 200.781V200.781Z" fill="#E0F2FA"/>
<path fill-rule="evenodd" clip-rule="evenodd" d="M598.61 116.681C598.358 116.113 598.105 115.481 597.916 114.85C598.737 113.903 599.494 112.956 600.315 112.009C600.567 111.946 601.704 112.703 602.083 112.703C603.03 112.83 603.851 112.577 604.608 112.009C606.944 110.178 606.124 107.274 606.818 104.811C607.955 100.581 612.943 103.485 615.215 100.328C617.488 97.2346 616.668 90.6682 622.729 92.4361C623.929 92.7518 624.434 90.9208 623.234 90.6051C619.761 89.5949 616.605 91.2365 615.342 94.5828C614.963 95.5299 614.837 96.6032 614.458 97.5503C613.637 99.7601 612.753 100.076 610.354 100.202C608.586 100.328 607.197 100.202 605.997 101.717C604.987 103.043 604.987 104.748 604.798 106.326C604.608 108.663 604.798 110.62 601.325 110.367C600.631 110.304 600.062 109.673 599.305 109.673C595.138 109.61 595.832 114.724 596.842 117.186C597.221 118.323 599.115 117.818 598.61 116.681V116.681Z" fill="#E0F2FA"/>
<path fill-rule="evenodd" clip-rule="evenodd" d="M610.48 121.922C609.47 120.596 607.765 116.744 610.733 115.734C611.806 115.355 613.195 115.797 614.332 115.797C615.342 115.797 616.226 115.797 617.047 115.103C619.572 113.082 617.741 109.484 619.067 106.958C621.214 102.854 625.507 106.074 628.538 103.927C630.684 102.412 631.253 99.5078 631.631 97.1085C631.821 95.9089 629.99 95.4038 629.8 96.6034C629.358 99.4446 628.853 102.602 625.318 102.917C623.487 103.107 622.098 102.475 620.393 103.296C617.615 104.622 616.731 107.084 616.668 109.926C616.605 112.325 617.173 113.524 613.132 113.714C612.627 113.714 612.122 113.588 611.617 113.588C610.165 113.714 608.902 114.471 608.081 115.671C606.313 118.197 607.323 121.101 609.091 123.311C609.912 124.258 611.238 122.869 610.48 121.922V121.922Z" fill="#E0F2FA"/>
<path fill-rule="evenodd" clip-rule="evenodd" d="M73.6821 156.142C78.9226 149.828 86.3728 144.651 94.9596 145.535C104.304 146.482 108.913 153.932 109.797 162.645C111.312 177.104 107.777 194.404 117.563 206.716C121.414 211.577 127.16 214.166 133.347 212.651C140.798 210.883 146.606 205.011 153.236 201.538C161.065 197.434 171.862 195.225 178.933 202.107C184.11 207.158 185.247 214.86 186.951 221.553C188.53 227.614 191.245 234.307 196.675 237.906C199.958 240.052 203.557 240.242 207.345 239.989C211.575 239.674 220.225 239.421 219.341 246.051C219.215 247.25 221.109 247.25 221.235 246.051C221.551 243.462 220.351 241.378 218.268 239.863C214.985 237.464 211.196 237.843 207.345 238.095C202.988 238.411 199.263 238.032 195.917 234.938C192.886 232.16 191.055 228.246 189.73 224.394C187.52 217.765 186.888 210.504 183.1 204.443C179.375 198.445 172.935 195.54 165.99 195.793C157.214 196.109 149.826 201.16 142.818 205.832C139.472 208.042 135.873 210.378 131.769 211.072C126.844 211.893 122.488 209.746 119.331 206.084C113.396 199.139 112.449 189.226 112.133 180.513C111.817 172.369 112.891 163.529 110.176 155.637C107.713 148.439 101.463 143.957 93.9494 143.578C85.2363 143.136 77.5967 148.376 72.2299 154.816C71.5354 155.763 72.8613 157.089 73.6821 156.142V156.142Z" fill="#E0F2FA"/>
<path fill-rule="evenodd" clip-rule="evenodd" d="M41.7973 253.564C51.6468 269.98 60.423 286.964 68.1889 304.453C68.694 305.589 70.3356 304.579 69.8305 303.506C62.0645 286.017 53.2252 269.033 43.4389 252.617C42.8075 251.543 41.1659 252.49 41.7973 253.564V253.564Z" fill="#E0F2FA"/>
<path fill-rule="evenodd" clip-rule="evenodd" d="M42.9969 252.806C58.3394 243.272 74.1238 234.37 90.3503 226.288C91.4236 225.72 90.4765 224.078 89.4032 224.647C73.2399 232.728 57.4554 241.631 42.0498 251.165C40.9764 251.859 41.9235 253.501 42.9969 252.806V252.806Z" fill="#E0F2FA"/>
<path fill-rule="evenodd" clip-rule="evenodd" d="M89.2137 225.468C97.2322 242.326 105.693 258.931 114.658 275.284C115.227 276.357 116.868 275.41 116.3 274.337C107.334 257.984 98.8107 241.379 90.8553 224.521C90.2871 223.384 88.7086 224.331 89.2137 225.468V225.468Z" fill="#E0F2FA"/>
<path fill-rule="evenodd" clip-rule="evenodd" d="M70.3355 304.832C85.4254 295.74 100.326 286.396 115.1 276.799C116.11 276.167 115.163 274.526 114.153 275.157C99.3789 284.754 84.4784 294.099 69.3884 303.19C68.3782 303.822 69.3253 305.463 70.3355 304.832V304.832Z" fill="#E0F2FA"/>
<path fill-rule="evenodd" clip-rule="evenodd" d="M69.1359 247.25C68.7571 259.373 69.4516 271.432 71.2195 283.428C71.4089 284.628 73.2399 284.123 73.0505 282.923C71.2826 271.116 70.6512 259.183 71.0301 247.25C71.0932 246.051 69.1991 246.051 69.1359 247.25V247.25Z" fill="#E0F2FA"/>
<path fill-rule="evenodd" clip-rule="evenodd" d="M69.1991 246.619C77.9753 253.501 86.7514 260.257 95.6539 266.949C96.6009 267.707 97.548 266.065 96.6009 265.308C87.8248 258.741 79.1118 252.049 70.525 245.293C69.5779 244.535 68.252 245.861 69.1991 246.619V246.619Z" fill="#E0F2FA"/>
<path fill-rule="evenodd" clip-rule="evenodd" d="M73.1769 283.807C80.4377 277.304 89.9084 273.831 96.7904 266.823C97.6744 265.939 96.2853 264.613 95.4646 265.497C88.5825 272.442 79.175 275.978 71.851 282.481C70.9039 283.239 72.293 284.565 73.1769 283.807V283.807Z" fill="#E0F2FA"/>
<path fill-rule="evenodd" clip-rule="evenodd" d="M44.3228 263.477C46.3432 262.466 48.3636 261.519 50.384 260.509C51.4574 260.004 50.5103 258.362 49.437 258.868C47.4165 259.878 45.3961 260.825 43.3757 261.835C42.3024 262.403 43.2494 263.982 44.3228 263.477V263.477Z" fill="#E0F2FA"/>
<path fill-rule="evenodd" clip-rule="evenodd" d="M50.826 274.21C52.5307 273.073 54.3617 272.126 56.2558 271.306C57.3923 270.864 56.8872 269.033 55.7507 269.475C53.6672 270.358 51.7099 271.369 49.8158 272.568C48.8687 273.263 49.8158 274.904 50.826 274.21V274.21Z" fill="#E0F2FA"/>
<path fill-rule="evenodd" clip-rule="evenodd" d="M57.9607 286.585C59.7286 285.701 61.4965 284.817 63.2643 283.996C64.3377 283.428 63.3906 281.85 62.3172 282.355C60.5494 283.239 58.7815 284.123 57.0137 284.944C55.9403 285.449 56.8874 287.09 57.9607 286.585V286.585Z" fill="#E0F2FA"/>
<path fill-rule="evenodd" clip-rule="evenodd" d="M61.6224 298.96C63.5797 297.256 65.6001 295.803 67.8731 294.541C68.9464 293.909 67.9993 292.331 66.926 292.899C64.5899 294.225 62.3801 295.803 60.2965 297.634C59.3494 298.455 60.6753 299.781 61.6224 298.96V298.96Z" fill="#E0F2FA"/>
<path fill-rule="evenodd" clip-rule="evenodd" d="M92.8128 237.906C94.265 236.896 95.7803 236.201 97.485 235.759C98.6846 235.444 98.1795 233.676 96.9799 233.928C95.1489 234.37 93.381 235.128 91.8026 236.265C90.8555 236.959 91.8026 238.601 92.8128 237.906V237.906Z" fill="#E0F2FA"/>
<path fill-rule="evenodd" clip-rule="evenodd" d="M98.4322 248.703C100.453 247.44 102.473 246.177 104.43 244.851C105.44 244.22 104.493 242.578 103.483 243.21C101.463 244.472 99.4424 245.735 97.4851 247.061C96.4118 247.756 97.3588 249.397 98.4322 248.703V248.703Z" fill="#E0F2FA"/>
<path fill-rule="evenodd" clip-rule="evenodd" d="M104.872 261.646C107.019 260.698 109.229 259.751 111.375 258.804C112.512 258.299 111.501 256.658 110.428 257.163C108.281 258.11 106.072 259.057 103.925 260.004C102.788 260.509 103.799 262.151 104.872 261.646V261.646Z" fill="#E0F2FA"/>
<path fill-rule="evenodd" clip-rule="evenodd" d="M109.481 270.106C111.186 268.465 113.08 267.075 115.164 265.876C116.237 265.308 115.29 263.666 114.217 264.234C112.007 265.497 109.986 266.949 108.155 268.717C107.271 269.601 108.597 270.927 109.481 270.106V270.106Z" fill="#E0F2FA"/>
<path fill-rule="evenodd" clip-rule="evenodd" d="M75.7025 296.498C77.2809 298.834 78.6068 301.297 79.617 303.885C80.059 305.022 81.89 304.517 81.448 303.38C80.3747 300.602 79.0488 297.95 77.3441 295.488C76.6495 294.541 75.008 295.488 75.7025 296.498V296.498Z" fill="#E0F2FA"/>
<path fill-rule="evenodd" clip-rule="evenodd" d="M85.3624 291.257C86.5621 293.404 87.6985 295.488 88.8982 297.634C89.4664 298.708 91.108 297.761 90.5397 296.687C89.3401 294.541 88.2036 292.457 87.004 290.31C86.4358 289.237 84.7942 290.184 85.3624 291.257V291.257Z" fill="#E0F2FA"/>
<path fill-rule="evenodd" clip-rule="evenodd" d="M96.5377 283.239C97.8005 285.512 99.0633 287.784 100.326 290.057C100.894 291.131 102.536 290.184 101.968 289.11C100.705 286.837 99.4421 284.564 98.1793 282.291C97.6111 281.218 95.9695 282.165 96.5377 283.239V283.239Z" fill="#E0F2FA"/>
<path fill-rule="evenodd" clip-rule="evenodd" d="M106.577 277.241C107.587 279.64 108.597 282.039 109.67 284.375C110.175 285.512 111.754 284.501 111.312 283.428C110.302 281.029 109.291 278.63 108.218 276.293C107.713 275.22 106.071 276.167 106.577 277.241V277.241Z" fill="#E0F2FA"/>
<path fill-rule="evenodd" clip-rule="evenodd" d="M49.3107 243.083C50.5103 245.04 51.6468 246.998 52.8464 248.892C53.4778 249.965 55.1194 248.955 54.488 247.945C53.2884 245.987 52.1519 244.03 50.9523 242.136C50.3209 241.126 48.6793 242.073 49.3107 243.083V243.083Z" fill="#E0F2FA"/>
<path fill-rule="evenodd" clip-rule="evenodd" d="M60.1705 236.769C61.307 239.295 62.4435 241.82 63.58 244.346C64.0851 245.482 65.7267 244.472 65.2216 243.399C64.0851 240.873 62.9486 238.348 61.8121 235.822C61.2439 234.686 59.6654 235.633 60.1705 236.769V236.769Z" fill="#E0F2FA"/>
<path fill-rule="evenodd" clip-rule="evenodd" d="M69.9566 230.708C71.6613 232.981 72.9872 235.444 73.8712 238.095C74.25 239.232 76.081 238.727 75.7022 237.59C74.7551 234.749 73.4292 232.097 71.5982 229.761C70.9037 228.814 69.2621 229.698 69.9566 230.708V230.708Z" fill="#E0F2FA"/>
<path fill-rule="evenodd" clip-rule="evenodd" d="M80.5008 225.846C81.8267 227.867 83.0895 229.824 84.4154 231.845C85.0467 232.855 86.6883 231.908 86.0569 230.898C84.731 228.877 83.4683 226.92 82.1424 224.899C81.4479 223.889 79.8063 224.836 80.5008 225.846V225.846Z" fill="#E0F2FA"/>
<path fill-rule="evenodd" clip-rule="evenodd" d="M178.68 100.644C172.556 98.7502 172.24 92.247 175.144 87.3853C177.986 82.65 183.479 81.3872 187.772 85.3018C191.308 88.585 191.623 94.2042 188.34 97.8031C185.057 101.465 179.69 101.402 175.902 98.6239C174.955 97.8662 174.008 99.5078 174.955 100.265C179.753 103.801 186.762 103.233 190.361 98.2451C194.086 93.194 192.76 86.1226 187.519 82.7131C174.892 74.5684 164.032 98.0556 178.175 102.475C179.375 102.854 179.88 101.023 178.68 100.644V100.644Z" fill="#E0F2FA"/>
<path fill-rule="evenodd" clip-rule="evenodd" d="M188.845 102.285C184.11 103.737 182.973 98.0549 185.057 95.0243C186.762 92.5619 190.108 91.1098 193.139 91.9306C196.043 92.6882 198.126 95.6557 197.369 98.6232C196.422 102.348 192.507 103.674 189.035 103.106C187.835 102.917 187.33 104.748 188.53 104.937C193.202 105.758 198.253 103.737 199.263 98.6863C200.147 94.3298 196.737 90.3521 192.507 89.847C187.835 89.2788 182.721 92.6882 182.089 97.4867C181.521 101.654 185.309 105.379 189.477 104.053C190.55 103.737 190.045 101.906 188.845 102.285V102.285Z" fill="#E0F2FA"/>
<path fill-rule="evenodd" clip-rule="evenodd" d="M148.563 143.388C147.048 146.482 149.195 149.576 152.352 150.396C154.751 151.028 157.276 150.46 159.739 150.586C162.39 150.712 165.042 151.344 167.442 152.417C172.745 154.816 176.155 159.173 176.344 165.044C176.533 169.969 175.081 175.083 177.228 179.756C181.774 189.605 194.275 182.092 200.715 188.469C206.082 193.835 203.872 203.622 211.07 207.726C212.143 208.357 213.09 206.715 212.017 206.084C205.577 202.422 207.092 192.888 202.546 187.585C200.147 184.807 196.674 184.049 193.139 183.796C188.845 183.544 183.289 184.428 180.132 180.766C176.47 176.472 178.427 170.032 178.238 164.981C178.112 161.004 176.786 157.405 174.008 154.564C171.545 152.101 168.325 150.396 164.979 149.513C163.274 149.071 161.507 148.755 159.739 148.692C157.466 148.565 147.616 149.702 150.268 144.335C150.773 143.262 149.132 142.315 148.563 143.388V143.388Z" fill="#E0F2FA"/>
<path fill-rule="evenodd" clip-rule="evenodd" d="M0.947068 484.206C12.375 484.206 23.7398 484.206 35.1678 484.206C36.3674 484.206 36.3674 482.312 35.1678 482.312C23.7398 482.312 12.375 482.312 0.947068 482.312C-0.315689 482.312 -0.315689 484.206 0.947068 484.206V484.206Z" fill="#E0F2FA"/>
<path fill-rule="evenodd" clip-rule="evenodd" d="M19.3833 527.014C41.3553 527.014 63.2642 527.014 85.2362 527.014C86.4358 527.014 86.4358 525.12 85.2362 525.12C63.2642 525.12 41.3553 525.12 19.3833 525.12C18.1206 525.12 18.1206 527.014 19.3833 527.014V527.014Z" fill="#E0F2FA"/>
<path fill-rule="evenodd" clip-rule="evenodd" d="M82.5843 515.144C102.978 515.144 123.434 515.144 143.828 515.144C145.028 515.144 145.028 513.25 143.828 513.25C123.434 513.25 102.978 513.25 82.5843 513.25C81.3215 513.25 81.3215 515.144 82.5843 515.144V515.144Z" fill="#E0F2FA"/>
<path fill-rule="evenodd" clip-rule="evenodd" d="M422.203 511.861C432.494 509.335 442.849 509.083 453.33 510.724C457.749 511.419 462.232 512.113 466.715 511.735C471.072 511.356 475.302 510.03 479.532 508.893C484.33 507.568 489.129 506.557 494.18 506.936C499.357 507.315 504.345 508.767 509.396 509.904C513.753 510.914 518.172 511.608 522.655 511.545C527.391 511.419 532.063 510.598 536.672 509.904C549.299 507.883 561.169 509.146 573.671 511.23C574.87 511.419 575.375 509.588 574.176 509.399C564.074 507.757 553.908 506.052 543.617 507.062C532.884 508.136 522.908 510.788 512.048 508.578C502.956 506.747 494.306 503.906 484.962 505.673C479.974 506.62 475.239 508.388 470.251 509.335C464.695 510.409 459.328 509.777 453.772 508.893C442.975 507.252 432.305 507.378 421.635 510.03C420.561 510.346 421.066 512.177 422.203 511.861V511.861Z" fill="#E0F2FA"/>
<path fill-rule="evenodd" clip-rule="evenodd" d="M519.183 492.667C539.008 491.594 558.833 490.52 578.659 489.51C588.445 489.005 597.916 489.195 607.639 490.52C611.996 491.089 616.163 491.215 620.519 490.71C625.381 490.142 630.432 489.384 634.978 491.72C636.051 492.288 636.998 490.647 635.925 490.079C628.222 486.164 619.32 489.826 611.049 489.068C606.124 488.626 601.325 487.679 596.401 487.427C591.286 487.174 586.172 487.3 581.058 487.553C560.412 488.5 539.766 489.763 519.12 490.836C517.983 490.836 517.983 492.73 519.183 492.667V492.667Z" fill="#E0F2FA"/>
<path fill-rule="evenodd" clip-rule="evenodd" d="M130.948 546.903C140.292 547.787 149.7 548.671 159.044 547.597C163.401 547.092 167.568 546.145 171.798 544.883C177.291 543.241 182.216 542.799 187.898 543.809C192.255 544.567 196.548 545.64 200.904 546.019C205.514 546.398 210.123 546.145 214.732 545.703C224.392 544.756 234.052 543.115 243.649 545.261C244.848 545.514 245.354 543.683 244.154 543.43C234.936 541.41 225.718 542.736 216.436 543.683C211.827 544.125 207.218 544.567 202.609 544.314C197.369 544.062 192.318 542.673 187.204 541.852C182.91 541.157 178.806 541.157 174.576 542.168C170.03 543.304 165.737 544.819 161.064 545.514C151.089 546.966 140.923 545.956 130.948 545.072C129.685 544.883 129.748 546.777 130.948 546.903V546.903Z" fill="#E0F2FA"/>
<path fill-rule="evenodd" clip-rule="evenodd" d="M230.832 37.443C228.37 35.7383 225.023 33.0234 226.034 29.6139C227.107 26.0782 229.759 27.7829 232.221 26.9621C235.504 25.8888 235.315 21.9111 234.368 19.3225C233.421 16.7969 231.4 10.6726 236.641 12.7561C237.84 13.2612 238.724 14.082 240.113 13.64C241.376 13.2612 242.008 12.1247 242.323 10.9251C242.576 9.85177 242.386 8.71529 242.323 7.57881C242.197 6.82116 242.134 6.00036 242.134 5.24271C241.881 3.41171 243.018 2.65406 245.417 2.96975C245.48 4.16937 247.374 4.16937 247.311 2.96975C247.185 1.20189 245.859 -0.0608718 243.965 0.00226613C241.755 0.065404 240.555 2.21209 240.303 4.2325C240.113 5.62154 241.25 8.84157 240.618 9.97805C239.861 10.4832 239.103 11.0514 238.282 11.5565C237.967 11.3671 237.651 11.1777 237.335 10.9883C236.767 10.7988 236.325 10.42 235.757 10.2937C233.8 9.85177 232.221 11.0514 231.527 12.8193C230.327 15.8499 232.474 18.3754 233.105 21.2166C233.926 25.1311 230.958 24.6892 228.37 25.1311C227.233 25.3206 226.286 25.8888 225.529 26.7096C221.551 31.3187 226.16 36.4328 229.948 39.0846C230.895 39.7791 231.842 38.1375 230.832 37.443V37.443Z" fill="#E0F2FA"/>
<path fill-rule="evenodd" clip-rule="evenodd" d="M243.271 35.6756C241.187 33.2763 239.609 29.9932 243.649 28.7304C244.66 28.4147 245.796 28.541 246.743 27.9096C248.827 26.4575 247.943 24.5002 247.564 22.4798C247.375 21.3433 246.933 19.828 247.627 18.6915C248.132 17.8707 249.963 17.555 250.91 17.3656C252.236 17.0499 253.625 16.8605 254.762 16.1028C256.466 14.9032 257.098 12.7565 255.961 10.9255C255.33 9.91533 253.688 10.8624 254.32 11.8726C256.214 14.9032 247.375 15.724 245.859 17.9338C244.091 20.5225 247.817 25.0684 244.723 26.71C243.523 27.3414 242.008 26.8994 240.871 27.7202C240.051 28.2885 239.482 29.1724 239.23 30.1195C238.535 32.8344 240.366 35.1705 242.008 37.0646C242.766 37.9486 244.091 36.6227 243.271 35.6756V35.6756Z" fill="#E0F2FA"/>
<path fill-rule="evenodd" clip-rule="evenodd" d="M168.704 20.7114C167.063 19.5749 166.873 17.5545 167.379 15.7866C167.694 14.587 169.21 11.3038 170.662 11.1776C173.061 10.925 174.261 13.9556 174.892 15.7235C175.46 17.4282 175.65 19.1329 175.713 20.9008C175.713 22.1004 177.607 22.1004 177.607 20.9008C177.544 17.3651 175.208 6.50536 169.399 9.66225C167.189 10.8619 165.548 14.3345 165.295 16.7337C165.042 19.0067 165.926 21.0271 167.757 22.353C168.704 23.0475 169.652 21.4059 168.704 20.7114V20.7114Z" fill="#E0F2FA"/>
<path fill-rule="evenodd" clip-rule="evenodd" d="M167.947 21.7221C165.674 22.2903 163.401 22.8586 161.065 23.4268C159.739 23.7425 157.466 23.8688 156.392 24.879C154.561 26.5837 155.067 31.8242 155.067 34.034C155.067 34.6654 155.698 35.1073 156.266 34.9179C156.582 34.8548 156.898 34.7285 157.276 34.6654C158.918 33.7814 159.739 34.3497 159.802 36.2438C161.065 37.5066 161.065 38.2642 159.802 38.3905C159.044 38.7062 158.287 38.8325 157.466 38.8325C156.961 38.8956 156.519 39.2113 156.519 39.7795C156.645 43.8204 156.961 47.798 157.403 51.8389C157.529 53.0385 159.423 53.0385 159.297 51.8389C158.855 47.798 158.539 43.8204 158.413 39.7795C158.097 40.0952 157.781 40.4109 157.466 40.7266C160.118 40.4109 164.348 39.3376 163.78 35.7387C163.148 31.8873 158.476 32.3293 155.824 33.0869C156.203 33.4026 156.645 33.7183 157.024 33.9709C157.024 32.5187 157.024 31.1297 157.15 29.6775C157.34 27.4045 157.213 26.5837 159.297 25.7629C162.138 24.6264 165.484 24.2476 168.452 23.49C169.651 23.3006 169.146 21.4696 167.947 21.7221V21.7221Z" fill="#E0F2FA"/>
<path fill-rule="evenodd" clip-rule="evenodd" d="M177.039 22.29C179.69 22.1637 182.405 22.1637 185.057 22.4794C187.583 22.7951 187.456 23.1739 187.835 25.3837C188.088 26.7728 188.151 28.2249 188.277 29.614C188.782 35.0438 189.161 40.4737 189.477 45.9035C189.54 47.1032 191.434 47.1032 191.371 45.9035C190.992 38.5164 190.74 30.9399 189.54 23.6159C189.224 21.7849 188.909 21.2166 187.014 20.9009C183.731 20.2696 180.322 20.2696 177.039 20.459C175.839 20.459 175.839 22.3531 177.039 22.29V22.29Z" fill="#E0F2FA"/>
<path fill-rule="evenodd" clip-rule="evenodd" d="M158.792 53.1644C162.517 52.5331 166.242 51.9017 169.904 51.2703C174.134 50.5758 178.175 50.8915 182.405 50.5758C184.362 50.3864 193.644 49.4393 190.234 45.5879C189.413 44.704 188.088 46.0299 188.908 46.9138C189.413 47.482 180.827 48.7448 180.637 48.7448C177.986 48.8079 175.334 48.6816 172.682 48.9973C167.883 49.5656 163.085 50.5758 158.287 51.3966C157.087 51.5229 157.592 53.3539 158.792 53.1644V53.1644Z" fill="#E0F2FA"/>
</svg>
