<svg width="56" height="56" viewBox="0 0 56 56" fill="none" xmlns="http://www.w3.org/2000/svg">
<g filter="url(#filter0_d_755_12195)">
<circle cx="28" cy="27" r="24" fill="white"/>
<path d="M33 36V34C33 32.9391 32.5786 31.9217 31.8284 31.1716C31.0783 30.4214 30.0609 30 29 30H21C19.9391 30 18.9217 30.4214 18.1716 31.1716C17.4214 31.9217 17 32.9391 17 34V36M39 36V34C38.9993 33.1137 38.7044 32.2528 38.1614 31.5523C37.6184 30.8519 36.8581 30.3516 36 30.13M32 18.13C32.8604 18.3503 33.623 18.8507 34.1676 19.5523C34.7122 20.2539 35.0078 21.1168 35.0078 22.005C35.0078 22.8932 34.7122 23.7561 34.1676 24.4577C33.623 25.1593 32.8604 25.6597 32 25.88M29 22C29 24.2091 27.2091 26 25 26C22.7909 26 21 24.2091 21 22C21 19.7909 22.7909 18 25 18C27.2091 18 29 19.7909 29 22Z" stroke="#2E79F6" stroke-width="2" stroke-linecap="round" stroke-linejoin="round"/>
</g>
<defs>
<filter id="filter0_d_755_12195" x="0" y="0" width="56" height="56" filterUnits="userSpaceOnUse" color-interpolation-filters="sRGB">
<feFlood flood-opacity="0" result="BackgroundImageFix"/>
<feColorMatrix in="SourceAlpha" type="matrix" values="0 0 0 0 0 0 0 0 0 0 0 0 0 0 0 0 0 0 127 0" result="hardAlpha"/>
<feOffset dy="1"/>
<feGaussianBlur stdDeviation="2"/>
<feComposite in2="hardAlpha" operator="out"/>
<feColorMatrix type="matrix" values="0 0 0 0 0.121875 0 0 0 0 0.319922 0 0 0 0 0.65 0 0 0 0.08 0"/>
<feBlend mode="normal" in2="BackgroundImageFix" result="effect1_dropShadow_755_12195"/>
<feBlend mode="normal" in="SourceGraphic" in2="effect1_dropShadow_755_12195" result="shape"/>
</filter>
</defs>
</svg>
