<svg width="71" height="100" viewBox="0 0 71 100" fill="none" xmlns="http://www.w3.org/2000/svg">
<path fill-rule="evenodd" clip-rule="evenodd" d="M10.5534 66.2841C7.54161 67.15 4.3884 67.5869 1.32957 67.987C0.670748 68.0709 0.0590751 67.6028 0.0120163 66.9432C-0.0821014 66.2831 0.388763 65.6795 1.00053 65.5956C3.96523 65.2104 7.02378 64.7982 9.89437 63.9645C10.5061 63.7837 11.1652 64.1559 11.3535 64.7962C11.5417 65.436 11.1651 66.1028 10.5534 66.2841Z" fill="#F9D278"/>
<path fill-rule="evenodd" clip-rule="evenodd" d="M19.6824 78.5609C14.8353 83.6287 9.37652 88.0442 4.62358 93.248C4.20005 93.734 3.44711 93.76 2.97652 93.3063C2.50593 92.8521 2.45905 92.0884 2.92964 91.6024C7.68258 86.3837 13.1414 81.9538 17.9885 76.871C18.4591 76.3966 19.2118 76.3898 19.6824 76.8565C20.1059 77.3228 20.153 78.0865 19.6824 78.5609Z" fill="#F9D278"/>
<path fill-rule="evenodd" clip-rule="evenodd" d="M28.7658 98.0535C28.907 95.1529 29.0479 92.2523 29.1891 89.3513C29.1891 88.6869 29.7541 88.1739 30.4129 88.2062C31.0717 88.239 31.542 88.8045 31.542 89.4694C31.4009 92.3748 31.26 95.2797 31.1188 98.1846C31.0717 98.849 30.5069 99.3586 29.8481 99.3225C29.2363 99.2863 28.7188 98.7174 28.7658 98.0535Z" fill="#F9D278"/>
<path fill-rule="evenodd" clip-rule="evenodd" d="M9.8777 43.2287C7.12145 41.9948 4.38395 40.7983 1.6652 39.4849C1.07926 39.2044 0.835544 38.5081 1.11679 37.9285C1.39804 37.3443 2.1011 37.1012 2.68235 37.3816C5.38703 38.6856 8.10105 39.8728 10.8386 41.0974C11.4292 41.3638 11.6918 42.0555 11.4293 42.6398C11.1621 43.2287 10.4683 43.4951 9.8777 43.2287Z" fill="#F9D278"/>
<path fill-rule="evenodd" clip-rule="evenodd" d="M30.1271 28.6322C26.124 19.9901 22.5613 11.1517 18.7457 2.43019C18.4879 1.83661 18.7598 1.14952 19.3504 0.892456C19.9457 0.635391 20.6347 0.901821 20.8972 1.49541C24.7034 10.2029 28.2566 19.0272 32.255 27.6506C32.5269 28.2395 32.2692 28.9313 31.6833 29.2024C31.0926 29.4735 30.399 29.2164 30.1271 28.6322Z" fill="#F9D278"/>
<path fill-rule="evenodd" clip-rule="evenodd" d="M64.4729 26.3885C65.7526 18.4428 67.2572 10.5205 68.4479 2.56086C68.5463 1.92521 69.1415 1.48592 69.779 1.5794C70.4212 1.67288 70.8618 2.27107 70.768 2.90672C69.5727 10.8757 68.068 18.8074 66.7837 26.7624C66.6805 27.398 66.0806 27.8328 65.4431 27.7299C64.8009 27.6271 64.3697 27.0288 64.4729 26.3885Z" fill="#F9D278"/>
</svg>
