<?xml version="1.0" standalone="no"?>
<!DOCTYPE svg PUBLIC "-//W3C//DTD SVG 20010904//EN"
 "http://www.w3.org/TR/2001/REC-SVG-20010904/DTD/svg10.dtd">
<svg version="1.0" xmlns="http://www.w3.org/2000/svg"
 width="700.000000pt" height="700.000000pt" viewBox="0 0 700.000000 700.000000"
 preserveAspectRatio="xMidYMid meet">
<metadata>
Created by potrace 1.14, written by Peter Selinger 2001-2017
</metadata>
<g transform="translate(0.000000,700.000000) scale(0.100000,-0.100000)"
fill="#000000" stroke="none">
<path d="M2427 6798 c2 -106 7 -154 16 -160 9 -6 9 -8 0 -8 -8 0 -10 -12 -7
-37 3 -21 7 -59 9 -85 4 -55 16 -155 21 -183 3 -11 7 -36 10 -55 3 -19 10 -62
16 -95 5 -33 12 -73 15 -90 4 -24 25 -121 49 -217 2 -10 6 -26 8 -35 2 -10 12
-45 22 -78 10 -33 19 -64 20 -70 4 -23 54 -176 82 -250 16 -44 39 -105 50
-135 11 -31 35 -87 52 -125 60 -133 125 -270 130 -275 3 -3 14 -24 24 -47 11
-24 24 -43 29 -43 6 0 8 -3 4 -6 -3 -3 8 -29 25 -57 17 -29 40 -68 51 -87 59
-106 266 -408 312 -456 5 -6 21 -26 35 -44 27 -37 72 -92 80 -100 3 -3 37 -41
75 -85 92 -105 112 -125 125 -125 5 0 9 -4 8 -9 -4 -12 68 -81 77 -73 4 4 5 2
3 -5 -2 -6 18 -31 43 -55 50 -47 170 -154 209 -186 l25 -21 -55 -48 c-118
-104 -185 -169 -184 -180 1 -6 -4 -9 -10 -7 -16 6 -149 -133 -140 -148 4 -6 3
-8 -4 -4 -12 7 -16 4 -97 -89 -33 -37 -67 -76 -77 -86 -9 -9 -14 -20 -11 -23
9 -9 -10 -7 -22 2 -5 4 -35 36 -65 72 -30 36 -88 100 -130 143 -41 43 -76 82
-78 87 -2 6 -10 10 -17 10 -8 0 -16 8 -20 18 -7 18 -266 254 -288 261 -6 2
-19 11 -27 20 -25 27 -227 181 -238 181 -6 0 -12 3 -14 8 -7 17 -160 112 -170
106 -6 -4 -8 -3 -5 3 4 6 -15 22 -41 37 -26 15 -60 36 -77 46 -16 11 -37 23
-45 27 -8 3 -27 15 -42 25 -14 10 -33 18 -42 18 -9 0 -16 4 -16 8 0 7 -218
117 -340 170 -95 42 -373 148 -422 161 -4 1 -13 3 -20 6 -7 2 -33 9 -58 16
-25 7 -49 14 -55 15 -59 17 -241 64 -262 68 -15 3 -39 7 -53 10 -14 3 -41 9
-60 13 -19 4 -37 8 -40 8 -3 1 -27 5 -55 9 -75 12 -98 15 -120 20 -11 2 -47 7
-80 11 -32 3 -63 8 -66 11 -4 2 -11 -1 -15 -7 -5 -8 -8 -8 -13 0 -8 12 -98 19
-333 27 l-137 5 0 -1030 0 -1031 47 -1 c101 -2 271 -17 284 -25 4 -3 8 1 8 8
0 8 3 9 8 3 4 -6 52 -19 107 -29 55 -9 111 -22 125 -26 14 -5 36 -11 50 -14
27 -5 176 -53 250 -81 89 -33 278 -125 322 -156 14 -11 29 -19 32 -19 8 0 73
-42 161 -104 183 -130 363 -300 500 -471 21 -28 42 -52 45 -55 3 -3 10 -14 17
-25 6 -11 16 -19 23 -17 6 1 9 -2 5 -7 -3 -6 9 -32 28 -58 83 -119 218 -377
242 -463 4 -14 13 -38 21 -55 21 -48 72 -223 89 -310 9 -44 19 -89 21 -100 2
-11 5 -32 6 -48 1 -15 5 -27 8 -27 3 0 6 -33 8 -73 2 -39 5 -85 7 -102 2 -16
3 -60 4 -97 l1 -68 1033 0 1033 0 0 58 c1 62 12 225 18 257 2 11 7 42 10 68 9
60 10 66 31 152 31 132 26 113 53 200 27 85 91 245 104 262 6 7 7 13 3 13 -4
0 -2 7 5 15 6 8 8 20 4 27 -4 7 -3 10 1 5 5 -4 29 32 55 80 40 76 132 227 157
258 4 6 28 37 53 70 25 33 57 73 72 90 14 16 36 41 48 55 46 54 136 143 194
193 33 29 70 62 83 74 13 12 23 19 23 15 0 -4 4 -2 8 4 4 5 25 23 47 39 22 17
42 32 45 35 14 14 70 50 79 50 5 0 11 4 13 8 9 22 267 158 408 216 47 19 136
50 198 69 62 18 109 37 105 42 -5 4 -2 5 5 1 7 -4 34 -3 60 3 26 6 58 13 72
15 14 3 36 7 50 10 84 16 257 32 375 35 l40 1 -1 1025 c0 564 -3 1027 -5 1030
-3 2 -50 7 -104 10 -236 12 -406 42 -628 111 -45 14 -97 32 -116 41 -18 8 -39
16 -45 18 -49 10 -397 190 -416 215 -3 4 -24 17 -47 30 -24 13 -43 26 -43 29
0 4 -18 17 -40 31 -22 14 -40 28 -40 32 0 5 -5 8 -11 8 -6 0 -16 6 -23 13 -7
6 -41 37 -76 67 -35 30 -72 65 -83 77 -11 12 -24 20 -29 17 -5 -3 -7 -1 -6 4
2 5 -26 41 -62 79 -62 66 -85 93 -139 163 -13 16 -28 27 -34 23 -5 -3 -7 -2
-4 4 5 8 -117 207 -153 251 -6 6 -8 12 -5 12 3 0 -5 17 -18 38 -28 45 -77 148
-106 222 -12 30 -26 64 -31 75 -27 58 -100 319 -114 405 -3 19 -10 62 -16 95
-10 59 -20 174 -24 265 -1 25 -5 51 -9 58 -5 7 -3 12 3 12 6 0 8 4 5 10 -4 7
-361 10 -1034 10 l-1028 0 4 -152z m618 34 c-3 -3 -11 0 -18 7 -9 10 -8 11 6
5 10 -3 15 -9 12 -12z m960 0 c-3 -3 -11 0 -18 7 -9 10 -8 11 6 5 10 -3 15 -9
12 -12z m1766 -4549 c13 -16 12 -17 -3 -4 -10 7 -18 15 -18 17 0 8 8 3 21 -13z"/>
</g>
</svg>
