<svg width="156" height="33" viewBox="0 0 156 33" fill="none" xmlns="http://www.w3.org/2000/svg">
  <path d="M8.34725 13.0907C8.49726 13.1964 8.73145 13.2114 8.97176 13.1305C9.69268 12.888 10.3891 13.0287 11.0917 13.0736C11.5601 13.1035 12.0346 13.0376 12.4432 12.7751C12.7677 12.6034 13.008 12.5226 13.2116 13.0166C13.2116 13.0166 13.3617 13.1223 13.4458 13.0315C14.0887 12.784 14.7851 12.9247 15.4877 12.9695C15.8 12.9895 16.0464 12.8128 16.227 12.4396C16.2331 12.3438 16.4015 12.1621 16.4673 12.3587C16.599 12.7519 16.9051 12.8677 17.2235 12.7918C17.8602 12.6401 18.5566 12.7807 19.1812 12.8206C19.4153 12.8356 19.5776 12.7497 19.746 12.5681C19.8363 12.3815 19.9266 12.1949 20.0046 12.1998L20.2985 12.5072C20.5143 12.8096 20.6521 13.107 21.0011 12.5521C21.5169 13.066 22.1843 12.4352 22.7904 12.7625C23.0185 12.8733 23.2649 12.6967 23.421 12.7066C24.1236 12.7515 24.7665 12.504 25.4629 12.6446C26.1594 12.7853 26.8619 12.8302 27.5829 12.5876C27.8171 12.6026 28.0574 12.5217 28.2074 12.6275C28.5855 12.8441 28.9038 12.7682 29.2283 12.5965C29.7931 12.344 30.3457 12.2831 30.9641 12.4188C31.5044 12.5495 32.0569 12.4886 32.5973 12.6193C33.1376 12.75 33.7805 12.5025 34.3269 12.5374C34.9514 12.5773 35.5881 12.4255 36.2126 12.4654C36.603 12.4904 37.0652 12.6161 37.4678 12.4494C37.9484 12.2877 38.3142 12.6958 38.7887 12.6299C38.951 12.5441 39.101 12.6499 39.1852 12.5591C39.5097 12.3874 39.8877 12.6039 40.2 12.6239C40.5122 12.6438 40.8367 12.4722 41.2209 12.5929C41.6051 12.7136 42.0138 12.4511 42.4041 12.4761L43.8093 12.5658C44.1996 12.5907 44.6082 12.3282 44.9863 12.5448C45.3889 12.3781 45.7731 12.4988 46.2476 12.4329C46.8782 12.377 47.4905 12.6085 48.1272 12.4568C48.7639 12.3051 49.3104 12.34 49.8446 12.5665C50.1507 12.6822 50.463 12.7022 50.7033 12.6213C51.0217 12.5455 51.34 12.4696 51.6523 12.4895C52.511 12.5444 53.3819 12.4076 54.2345 12.5582C54.4626 12.669 54.6967 12.684 54.9371 12.6031C55.4957 12.4464 56.108 12.6779 56.6667 12.5212C57.2254 12.3645 57.8376 12.596 58.4683 12.5401C58.9427 12.4742 59.3331 12.4991 59.8014 12.529C59.9759 12.2516 60.1259 12.3573 60.3601 12.3723C60.9066 12.4072 61.4408 12.6337 62.0056 12.3812C62.1678 12.2954 62.3239 12.3053 62.474 12.4111C63.0862 12.6426 63.7046 12.7783 64.3475 12.5308C64.5878 12.4499 64.7439 12.4599 64.9781 12.4748C65.6026 12.5147 66.221 12.6504 66.8638 12.4029C67.5067 12.1553 68.0945 12.7701 68.7312 12.6183L68.8874 12.6283C69.9205 12.4057 70.9231 12.6621 72.0282 12.5403C73.5298 12.3476 75.0008 12.634 76.4962 12.5371C77.361 12.4961 78.1294 12.7376 78.9284 12.5C79.3065 12.7166 79.5651 12.3483 79.8835 12.2724C80.2738 12.2974 80.6519 12.5139 81.0422 12.5388C81.979 12.5987 82.9938 12.6635 83.9489 12.4359C84.5076 12.2792 85.0602 12.2183 85.6724 12.4498C86.0566 12.5705 86.597 12.7012 87.0837 12.4437C87.1679 12.3529 87.324 12.3629 87.4021 12.3678C87.774 12.6802 88.2546 12.5185 88.645 12.5434C89.1914 12.5783 89.8343 12.3308 90.3807 12.3657C91.0052 12.4056 91.5639 12.2488 92.17 12.5761C92.3262 12.5861 92.5603 12.6011 92.8007 12.5202C93.4435 12.2727 94.0619 12.4084 94.6864 12.4483C95.0767 12.4732 95.4793 12.3065 95.9415 12.4322C96.3257 12.553 96.7222 12.4821 97.1967 12.4162C97.7492 12.3553 98.2957 12.3902 98.8482 12.3293C99.4008 12.2684 99.9472 12.3033 100.572 12.3432C100.968 12.2723 101.365 12.2014 101.833 12.2313C102.926 12.3011 104.025 12.2751 105.118 12.3449C105.43 12.3649 105.755 12.1932 105.989 12.2081C106.517 12.5305 107.088 12.1821 107.634 12.217C108.181 12.2519 108.799 12.3876 109.358 12.2309C109.676 12.1551 109.994 12.0792 110.385 12.1041C110.775 12.129 111.237 12.2548 111.634 12.1839C112.108 12.118 112.558 12.4353 112.961 12.2686C113.201 12.1878 113.429 12.2986 113.591 12.2127C113.826 12.2277 114.066 12.1468 114.222 12.1568C115.081 12.2116 115.861 12.2615 116.654 12.1197C117.129 12.0539 117.597 12.0838 118.137 12.2145C118.522 12.3352 119.062 12.4659 119.477 12.1076C119.963 11.8501 120.414 12.1674 120.822 11.905C121.26 12.4139 121.903 12.1664 122.443 12.2971C123.218 12.4427 123.998 12.4926 124.791 12.3508C125.506 12.2041 126.124 12.3398 126.833 12.2888C128.172 12.182 129.541 12.8466 130.755 12.2507C130.917 12.1649 131.073 12.1749 131.145 12.2756C131.595 12.593 132.076 12.4313 132.622 12.4662C133.012 12.4911 133.415 12.3244 133.877 12.4501C134.736 12.505 135.607 12.3682 136.537 12.5238C137.39 12.6745 138.351 12.3511 139.27 12.6983C139.576 12.8141 139.822 12.6374 140.134 12.6574C141.005 12.5206 141.792 12.4747 142.645 12.6253C143.341 12.766 144.044 12.8108 144.765 12.5683C145.005 12.4875 145.317 12.5074 145.545 12.6182C145.701 12.6281 145.851 12.7339 146.014 12.6481C146.728 12.5013 147.347 12.637 148.049 12.6819C148.362 12.7018 148.668 12.8176 148.908 12.7367C149.311 12.57 149.635 12.3984 149.947 12.4183C150.26 12.4383 150.553 12.7456 150.866 12.7656L151.1 12.7805C151.821 12.538 152.439 12.6737 153.142 12.7185C153.376 12.7335 153.61 12.7485 153.785 12.471C153.959 12.1936 154.181 12.4001 154.415 12.4151C154.493 12.4201 154.578 12.3292 154.578 12.3292C154.518 12.0368 154.686 11.8552 154.705 11.5678C154.717 11.3762 154.651 11.1796 154.501 11.0738C154.345 11.0639 154.273 10.9631 154.117 10.9531C153.48 11.1048 152.874 10.7775 152.243 10.8334L150.37 10.7138L146.232 10.4495C145.842 10.4246 145.38 10.2989 145.055 10.4706C144.491 10.7231 144.125 10.3149 143.656 10.285L143.266 10.2601C142.623 10.5076 141.921 10.4627 141.302 10.3271C140.84 10.2013 140.587 10.4738 140.407 10.8471C139.873 10.6205 139.429 10.2074 138.798 10.2633L137.081 10.1536C136.534 10.1188 135.91 10.0789 135.357 10.1398C134.805 10.2007 134.198 9.87338 133.628 10.2217C133.549 10.2167 133.393 10.2067 133.321 10.1059C133.015 9.9902 132.859 9.98023 132.547 9.96028C131.201 10.1629 129.959 9.98738 128.631 9.90262C128.085 9.86772 127.539 9.83282 126.98 9.98953C126.662 10.0654 126.343 10.1413 125.965 9.92472C125.893 9.82393 125.737 9.81396 125.659 9.80897C125.094 10.0615 124.554 9.93078 124.02 9.70427C123.707 9.68433 123.401 9.56859 123.155 9.74524C122.674 9.90694 122.14 9.68043 121.659 9.84212C121.101 9.99883 120.645 9.77731 120.176 9.7474C117.912 9.60281 115.63 9.74565 113.444 9.60605L112.273 9.53127C112.117 9.5213 111.883 9.50634 111.643 9.58718C111.24 9.75387 110.85 9.72894 110.388 9.60322C110.238 9.49745 110.082 9.48748 109.919 9.57331C109.354 9.82583 108.736 9.69014 108.196 9.55944C107.349 9.31299 106.538 9.74215 105.77 9.50068C105.62 9.39491 105.451 9.57655 105.295 9.56658C105.055 9.64743 104.743 9.62749 104.508 9.61253C103.572 9.5527 102.641 9.39706 101.758 9.72544C101.518 9.80629 101.29 9.69553 101.133 9.68556C100.119 9.62074 99.1757 9.65673 98.2328 9.69271C97.2899 9.72869 96.4251 9.76965 95.5664 9.71481C94.8638 9.66994 94.1613 9.62506 93.5123 9.9684C93.3501 10.0542 93.2781 9.95345 93.2062 9.85266C93.0623 9.65107 92.9842 9.64609 92.7439 9.72693C92.0352 9.77787 91.3265 9.8288 90.624 9.78393C90.3117 9.76399 89.9214 9.73906 89.603 9.81493C89.3627 9.89578 89.1285 9.88081 88.8943 9.86585C87.8015 9.79606 86.7024 9.82207 85.6096 9.75227L85.0631 9.71737C84.5764 9.97487 84.0361 9.84417 83.5616 9.91006C82.8529 9.961 82.2467 9.63369 81.5258 9.87623C80.9671 10.0329 80.4207 9.99805 79.8742 9.96316C79.3278 9.92826 78.8411 10.1858 78.313 9.86344L77.7604 9.92434C77.514 10.101 77.2017 10.0811 76.8895 10.0611C76.4211 10.0312 75.8747 9.9963 75.4002 10.0622C74.8476 10.1231 74.3976 9.80577 73.917 9.96747L73.5266 9.94254C72.968 10.0992 72.4215 10.0643 71.8751 10.0294C71.2506 9.98956 70.6797 10.3379 70.0735 10.0106L69.7551 10.0865C69.1965 10.2432 68.65 10.2083 68.1036 10.1734C67.6352 10.1435 67.1607 10.2093 66.6984 10.0836C66.1581 9.95292 65.5872 10.3012 65.0469 10.1705C64.1224 9.9191 63.2514 10.0559 62.3024 10.1876C62.2182 10.2785 62.1463 10.1777 62.0682 10.1727C61.5218 10.1378 60.8912 10.1937 60.3447 10.1588C59.7202 10.1189 59.1799 9.98823 58.6151 10.2407C58.4529 10.3266 58.3748 10.3216 58.2248 10.2158C57.9248 10.0043 57.6064 10.0801 57.21 10.151C56.8916 10.2269 56.5855 10.1111 56.2732 10.0912C54.4778 9.97651 52.6517 10.3409 50.9343 10.2312C50.2317 10.1863 49.445 10.2323 48.7424 10.1874C48.1179 10.1475 47.4154 10.1026 46.7786 10.2544C46.0638 10.4011 45.4209 10.6486 44.6587 10.3114C44.6648 10.2156 44.5025 10.3014 44.4184 10.3922C44.1781 10.4731 43.95 10.3623 43.7097 10.4431C43.151 10.5999 42.6168 10.3733 42.0642 10.4343C41.6678 10.5051 41.2116 10.2836 40.8688 10.7427C40.4065 10.617 39.9443 10.4912 39.554 10.4663C39.4759 10.4613 39.3978 10.4564 39.3917 10.5522C38.9953 10.623 38.6111 10.5023 38.1427 10.4724C37.5963 10.4375 37.0621 10.211 36.5631 10.6601C36.4728 10.8467 36.3228 10.7409 36.1667 10.731C35.8666 10.5194 35.5544 10.4995 35.236 10.5753C34.6773 10.7321 34.2151 10.6063 33.6686 10.5714C33.2003 10.5415 32.7258 10.6074 32.239 10.8649C31.8671 10.5526 31.4523 10.9109 31.062 10.8859C30.6716 10.861 30.2874 10.7403 29.963 10.9119C29.8007 10.9978 29.7226 10.9928 29.5726 10.887C29.4287 10.6854 29.2787 10.5797 29.0384 10.6605C28.2394 10.8981 27.3746 10.939 26.5159 10.8842C26.2037 10.8642 25.8134 10.8393 25.495 10.9152C24.8583 11.0669 24.2276 11.1228 23.6154 10.8913C23.4654 10.7855 23.3092 10.7756 23.1409 10.9572C22.8041 11.3205 22.4383 10.9123 22.1735 11.3764C22.0051 11.5581 21.771 11.5431 21.5368 11.5281C20.9245 11.2966 20.3903 11.0701 19.7474 11.3177C18.9132 10.8796 18.1081 11.213 17.3933 11.3597C17.0749 11.4356 16.8346 11.5164 16.6127 11.3099C16.4627 11.2041 16.3065 11.1941 16.1382 11.3757C15.8014 11.739 15.6392 11.8248 15.3575 11.3259C15.3637 11.2301 15.1295 11.2151 15.0453 11.3059C14.9489 11.5884 14.7805 11.77 14.8402 12.0624C14.9122 12.1632 14.906 12.259 14.7499 12.249C14.6718 12.244 14.5938 12.2391 14.5999 12.1433C14.4499 12.0375 14.4621 11.8459 14.3182 11.6443C14.2463 11.5435 14.0963 11.4377 14.0182 11.4327C13.6279 11.4078 13.2437 11.2871 12.9192 11.4587C12.5947 11.6304 12.4325 11.7162 12.1264 11.6005C11.658 11.5706 11.1957 11.4449 10.7151 11.6066C10.2345 11.7683 9.85029 11.6475 9.38803 11.5218C8.92577 11.3961 8.46351 11.2704 8.0426 11.7245C7.95841 11.8153 7.80229 11.8053 7.72422 11.8003C7.17778 11.7654 6.6191 11.9222 6.07266 11.8873C5.91653 11.8773 5.9043 12.0689 5.97624 12.1697C6.12013 12.3713 6.01759 12.7495 6.34208 12.5778C7.0263 12.9101 7.74722 12.6676 8.34725 13.0907ZM32.6603 20.2228C32.8945 20.2377 33.0629 20.0561 33.291 20.1669C33.9935 20.2117 34.4864 19.8584 34.8537 19.0161C34.9854 19.4093 35.117 19.8025 35.4293 19.8225C35.7415 19.8424 36.1257 19.9631 36.4502 19.7915C36.6124 19.7056 36.6966 19.6148 36.6369 19.3224C36.565 19.2216 36.6492 19.1308 36.7272 19.1358C36.9614 19.1507 37.1053 19.3523 37.3395 19.3673C38.1982 19.4221 38.9727 19.5678 39.8436 19.431C40.5584 19.2843 41.2732 19.1375 41.9819 19.0866C43.1651 18.9698 44.3483 18.8529 45.4595 18.6353C46.1743 18.4886 46.805 18.4327 47.5075 18.4775C47.7417 18.4925 48.054 18.5124 48.2943 18.4316C49.4958 18.0274 50.8045 18.3995 52.0903 17.9045C52.4928 17.7378 52.8831 17.7627 53.3515 17.7926C53.6638 17.8126 54.0418 18.0291 54.4505 17.7666C55.3812 17.9222 56.2704 17.4981 57.2072 17.5579C57.7001 17.2046 58.1378 17.7135 58.5404 17.5468C58.8649 17.3752 59.1771 17.3951 59.4113 17.4101C60.1139 17.4549 60.8226 17.404 61.4593 17.2523C61.6216 17.1664 61.7838 17.0806 61.9399 17.0906C63.0145 17.4478 64.1441 16.9428 65.237 17.0126C65.315 17.0175 65.3992 16.9267 65.4773 16.9317C65.5614 16.8409 65.5737 16.6493 65.7237 16.7551C66.0237 16.9666 66.2763 16.6942 66.5824 16.8099C67.3508 17.0514 68.0595 17.0004 68.8585 16.7629C69.6574 16.5253 70.5161 16.5802 71.3748 16.635C71.9213 16.6699 72.4677 16.7048 73.0325 16.4523L73.3448 16.4722C73.9509 16.7995 74.4254 16.7336 75.0805 16.2945C75.3269 16.1178 75.5367 16.516 75.777 16.4352C76.1795 16.2685 76.6479 16.2984 77.0382 16.3233C77.1163 16.3283 77.2846 16.1467 77.3688 16.0559C77.5372 15.8742 77.5311 15.97 77.603 16.0708C77.7469 16.2724 77.7408 16.3682 77.903 16.2824C78.4495 16.3173 79.002 16.2564 79.5071 15.7114C79.5913 15.6206 79.7474 15.6306 79.8194 15.7314C79.9633 15.933 79.9571 16.0288 80.1913 16.0437C80.7378 16.0786 81.3562 16.2143 81.9087 16.1534C82.3052 16.0825 82.5393 16.0975 82.8638 15.9258C83.32 16.1473 83.8787 15.9906 84.3593 15.8289C84.5154 15.8389 84.7496 15.8539 84.9777 15.9646C85.1996 16.1712 85.4399 16.0903 85.6863 15.9137C85.8486 15.8279 86.017 15.6462 86.245 15.757C86.8512 16.0843 87.5599 16.0333 88.1905 15.9774C88.9772 15.9315 89.8359 15.9863 90.641 15.653C91.2839 15.4054 91.8365 15.3445 92.3707 15.571C92.9049 15.7975 93.3733 15.8274 93.9319 15.6707C94.809 15.4382 95.6616 15.5888 96.5264 15.5478C97.2351 15.4969 97.9376 15.5418 98.6524 15.395C98.8866 15.41 99.1269 15.3291 99.355 15.4399C99.9612 15.7672 100.514 15.7063 101.157 15.4588C101.313 15.4687 101.553 15.3879 101.625 15.4887C102.075 15.806 102.568 15.4527 102.958 15.4776C103.973 15.5425 104.988 15.6073 106.015 15.4805C106.567 15.4196 107.114 15.4545 107.66 15.4894C108.057 15.4185 108.453 15.3476 108.843 15.3725C109.234 15.3975 109.69 15.619 110.086 15.5481C110.639 15.4872 111.27 15.4313 111.816 15.4662C112.753 15.526 113.611 15.5808 114.482 15.4441C115.275 15.3023 115.972 15.443 116.68 15.3921C117.311 15.3361 118.007 15.4768 118.716 15.4259C118.956 15.345 119.269 15.365 119.575 15.4807C119.803 15.5915 120.115 15.6114 120.44 15.4398C120.764 15.2681 121.395 15.2122 121.545 15.318C121.995 15.6353 122.469 15.5694 123.022 15.5085C123.418 15.4376 123.809 15.4625 124.259 15.7799C124.409 15.8856 124.733 15.714 124.836 15.3357L124.782 14.9475C124.788 14.8517 124.788 14.8517 124.872 14.7609L124.95 14.7659C125.238 15.1691 125.448 15.5672 125.255 16.1321C125.159 16.4145 125.153 16.5103 125.381 16.6211C126.083 16.666 126.708 16.7058 127.279 16.3575C127.447 16.1759 127.681 16.1908 127.921 16.11C128.006 16.0192 128.168 15.9333 128.024 15.7318C127.952 15.631 127.964 15.4394 127.814 15.3336C127.377 14.8246 126.939 14.3157 126.236 14.2708C125.69 14.2359 125.143 14.201 124.603 14.0703C123.985 13.9346 123.438 13.8997 122.892 13.8648C121.955 13.805 121.012 13.841 120.075 13.7812C119.919 13.7712 119.685 13.7562 119.535 13.6505C119.085 13.3331 118.454 13.3891 117.986 13.3591C117.049 13.2993 116.184 13.3403 115.32 13.3812C114.377 13.4172 113.446 13.2616 112.503 13.2976C111.326 13.3186 110.089 13.0472 108.828 13.159L106.936 13.3268C106.306 13.3827 105.687 13.247 105.063 13.2072C104.828 13.1922 104.6 13.0814 104.36 13.1623C103.639 13.4048 102.943 13.2642 102.312 13.3201C101.285 13.4469 100.354 13.2912 99.4115 13.3272C98.7029 13.3782 98.0125 13.1417 97.3636 13.485C97.2013 13.5708 96.9671 13.5559 96.8952 13.4551C96.361 13.2286 95.8865 13.2945 95.3278 13.4512C95.0094 13.5271 94.6972 13.5071 94.3849 13.4872C94.1507 13.4722 94.0482 13.8504 93.8201 13.7397C93.2859 13.5132 92.7272 13.6699 92.1808 13.635C91.6343 13.6001 91.1599 13.666 90.6073 13.7269C89.9767 13.7828 89.4057 14.1311 88.8838 13.713C88.4093 13.7789 88.0312 13.5624 87.6286 13.729C87.0761 13.7899 86.5235 13.8509 85.9771 13.816C84.7281 13.7362 83.5388 13.9488 82.2898 13.869C82.2117 13.8641 82.1336 13.8591 82.0495 13.9499C81.4066 14.1974 80.7882 14.0617 80.1637 14.0219C79.6953 13.9919 79.2989 14.0628 78.8841 14.4211L78.5657 14.497C78.0438 14.0789 77.407 14.2306 76.8483 14.3873C76.7641 14.4781 76.608 14.4681 76.458 14.3624C75.9177 14.2317 75.4371 14.3934 74.8845 14.4543C74.332 14.5152 73.7794 14.5761 73.233 14.5412C72.8426 14.5162 72.512 14.7837 72.1339 14.5672C71.7559 14.3506 71.263 14.7039 70.8727 14.679C70.3263 14.6441 69.9176 14.9066 69.3773 14.7759C68.8369 14.6452 68.2783 14.8019 67.7257 14.8628C67.1731 14.9237 66.6083 15.1762 66.14 15.1463C65.5155 15.1064 64.9751 14.9757 64.3445 15.0317C63.1613 15.1485 61.894 15.3561 60.7169 15.3772C59.5398 15.3982 58.3628 15.4192 57.1673 15.7276C56.5306 15.8793 55.8219 15.9303 55.1974 15.8904C54.651 15.8555 54.1045 15.8206 53.5397 16.0731C53.2152 16.2448 52.8969 16.3206 52.6688 16.2099C51.2698 16.0243 49.984 16.5194 48.5728 16.5255C48.008 16.778 47.3177 16.5415 46.6809 16.6932C45.7258 16.9208 44.7707 17.1484 43.8339 17.0886C43.4436 17.0636 43.113 17.3311 42.7166 17.402C42.3201 17.4729 41.9482 17.1605 41.6237 17.3322C41.5456 17.3272 41.4614 17.418 41.3834 17.413C39.9782 17.3233 38.6145 17.8134 37.1848 18.1069C36.7884 18.1777 36.542 18.3544 36.3614 18.7276C36.1869 19.0051 36.115 18.9043 35.9711 18.7027C35.9772 18.6069 35.8272 18.5011 35.8272 18.5011C34.7098 18.8145 33.6169 18.7448 32.5057 18.9624C32.3496 18.9524 32.169 19.3257 32.1445 19.7089C32.1322 19.9005 32.4261 20.2078 32.6603 20.2228ZM2.22773 13.1808C2.62416 13.1099 2.93642 13.1299 3.17061 13.1448C3.33285 13.059 3.57928 12.8823 3.5854 12.7865C3.60375 12.4991 3.45986 12.2976 3.21344 12.4742C3.05731 12.4642 2.98537 12.3634 2.83536 12.2577C2.38534 11.9403 1.83277 12.0012 1.34604 12.2587C1.18379 12.3446 1.17156 12.5362 1.2435 12.637C1.38739 12.8386 1.45934 12.9394 1.60934 13.0451C1.83741 13.1559 2.07772 13.075 2.22773 13.1808ZM44.5215 24.7319C44.9302 24.4694 45.4644 24.696 45.8853 24.2419C45.9695 24.151 46.0475 24.156 46.1134 24.3526C46.2389 24.8416 46.7134 24.7757 46.9598 24.5991C47.4527 24.2458 47.9685 24.7597 48.3052 24.3964C48.8945 23.7607 49.242 24.4562 49.7226 24.2945C50.1252 24.1279 50.6594 24.3544 51.0742 23.9961C51.3145 23.9152 51.4706 23.9252 51.6987 24.036C52.3829 24.3683 53.0196 24.2165 53.6686 23.8732C53.8309 23.7874 53.9931 23.7015 54.1431 23.8073C54.4431 24.0189 54.7615 23.943 55.0737 23.9629C55.5544 23.8012 56.1069 23.7403 56.6534 23.7752C56.8095 23.7852 57.0498 23.7044 57.212 23.6185C57.4524 23.5377 57.7646 23.5576 58.0769 23.5776C58.3891 23.5975 58.7075 23.5216 59.0978 23.5466C59.0259 23.4458 59.0259 23.4458 59.032 23.35C58.9539 23.345 58.882 23.2442 58.81 23.1434C58.8881 23.1484 58.9723 23.0576 59.0503 23.0626C59.2845 23.0775 59.5126 23.1883 59.7468 23.2032C60.7616 23.268 61.8667 23.1462 62.8815 23.211C63.3499 23.241 63.7402 23.2659 64.1489 23.0034C64.3112 22.9176 64.4734 22.8317 64.6234 22.9375C65.3918 23.179 66.1066 23.0322 66.8995 22.8905C67.8485 22.7587 68.7133 22.7177 69.6562 22.6818C70.6771 22.6508 71.5603 22.3224 72.569 22.483C72.9838 22.1247 73.4154 22.7294 73.8241 22.467C74.8267 22.7234 75.8905 22.0218 76.8808 22.4698C76.9589 22.4748 77.115 22.4847 77.1992 22.3939C77.6798 22.2322 78.2201 22.3629 78.7727 22.302C79.2472 22.2361 79.7094 22.3619 80.1839 22.296C80.7365 22.2351 81.3732 22.0833 81.9977 22.1232C82.5442 22.1581 83.109 21.9056 83.7274 22.0413C84.4238 22.182 85.2045 22.2318 85.8412 22.0801C86.556 21.9334 87.1744 22.0691 87.805 22.0131C88.3576 21.9522 88.904 21.9871 89.4566 21.9262C89.9311 21.8603 90.4836 21.7994 91.024 21.9301C91.9485 22.1816 92.8255 21.949 93.6842 22.0038C93.7623 22.0088 93.9184 22.0188 94.0807 21.933C94.4832 21.7663 94.8735 21.7912 95.3419 21.8211L96.8251 21.9158C97.4496 21.9557 98.0144 21.7032 98.567 21.6423C98.8379 21.0824 98.8853 21.5664 99.1134 21.6772C99.2634 21.783 99.4976 21.7979 99.6537 21.8079C100.356 21.8528 101.065 21.8018 101.683 21.9375C102.302 22.0732 102.951 21.7299 103.575 21.7698C104.746 21.8446 106.001 21.8285 107.172 21.9033C107.328 21.9133 107.563 21.9282 107.803 21.8474C108.043 21.7665 108.362 21.6907 108.662 21.9022C108.812 22.008 108.968 22.018 109.13 21.9321C109.533 21.7655 109.917 21.8862 110.229 21.9061C110.697 21.936 111.244 21.9709 111.64 21.9001C112.115 21.8342 112.595 21.6725 113.045 21.9898C113.195 22.0956 113.358 22.0097 113.448 21.8231L114.241 21.6814C114.559 21.6055 114.775 21.9079 115.087 21.9278C115.634 21.9627 116.12 21.7052 116.57 22.0225L120.396 22.2668C121.332 22.3267 122.347 22.3915 123.278 22.5471C124.052 22.6928 124.827 22.8384 125.535 22.7875C127.265 22.7056 128.964 23.1027 130.603 23.2074C130.916 23.2273 131.15 23.2423 131.378 23.353C131.834 23.5745 132.303 23.6045 132.771 23.6344L133.239 23.6643C133.839 24.0874 134.548 24.0365 135.251 24.0813C135.557 24.1971 135.875 24.1212 136.103 24.232C136.709 24.5593 137.262 24.4984 138.036 24.644C137.827 24.2458 137.599 24.1351 137.623 23.7519C137.563 23.4595 137.407 23.4495 137.245 23.5353C137.083 23.6212 136.77 23.6012 136.777 23.5054C136.819 22.8348 136.501 22.9106 136.267 22.8957C135.577 22.6592 134.952 22.6193 134.352 22.1962L133.962 22.1713C132.791 22.0965 131.728 21.5477 130.551 21.5687C130.257 21.2614 129.927 21.5288 129.608 21.6047C129.218 21.5798 128.924 21.2724 128.45 21.3383C128.288 21.4241 128.144 21.2225 127.903 21.3034C127.747 21.2934 127.591 21.2834 127.519 21.1827C127.159 20.6787 126.595 20.9312 126.126 20.9013C125.814 20.8814 125.411 21.048 125.093 21.1239C124.853 21.2048 124.703 21.099 124.559 20.8974C124.487 20.7966 124.337 20.6908 124.259 20.6859C123.856 20.8525 123.382 20.9184 123.004 20.7019C122.776 20.5911 122.607 20.7728 122.511 21.0552C122.427 21.146 122.414 21.3376 122.408 21.4334C122.402 21.5292 122.318 21.62 122.318 21.62L122.096 21.4135L121.958 21.1161C121.845 20.4355 121.839 20.5313 121.37 20.5014C121.136 20.4864 120.896 20.5673 120.746 20.4615C120.284 20.3358 119.881 20.5025 119.491 20.4775C119.101 20.4526 118.638 20.3269 118.254 20.2062C117.792 20.0804 117.317 20.1463 116.843 20.2122C116.29 20.2731 115.84 19.9558 115.366 20.0217C114.495 20.1585 113.564 20.0028 112.705 19.948C112.471 19.933 112.165 19.8173 111.919 19.9939C111.588 20.2614 111.132 20.0399 110.664 20.01L109.571 19.9402C108.79 19.8903 108.081 19.9412 107.379 19.8964C106.598 19.8465 105.871 20.1849 105.115 19.7518C105.037 19.7468 104.881 19.7368 104.719 19.8227C104.394 19.9943 104.01 19.8736 103.62 19.8487C102.527 19.7789 101.434 19.7091 100.329 19.8309C99.6981 19.8868 99.0735 19.8469 98.4429 19.9029C97.3378 20.0247 96.251 19.8591 95.2362 19.7943C95.002 19.7793 94.6898 19.7594 94.4495 19.8402C94.0469 20.0069 93.7408 19.8911 93.3505 19.8662C91.8673 19.7715 90.4376 20.065 89.0325 19.9752C88.8764 19.9652 88.7141 20.0511 88.5519 20.1369C88.3055 20.3136 88.1493 20.3036 87.8432 20.1879C87.5371 20.0721 87.1468 20.0472 86.7503 20.1181C85.3207 20.4115 83.9156 20.3218 82.5104 20.2321C82.1982 20.2121 81.892 20.0964 81.5614 20.3638C81.2308 20.6313 80.9905 20.7122 80.6124 20.4956C80.3124 20.2841 79.916 20.3549 79.6037 20.335C79.3695 20.32 79.1231 20.4967 78.8951 20.3859C78.4267 20.356 78.0302 20.4269 77.6338 20.4978C77.1593 20.5637 76.7093 20.2463 76.3542 20.897C76.3542 20.897 76.12 20.8821 75.97 20.7763C75.8139 20.7663 75.5919 20.5598 75.4297 20.6456C74.5649 20.6866 73.6648 20.0519 72.9072 20.8693C72.823 20.9601 72.7449 20.9551 72.673 20.8543C72.3669 20.7386 72.0607 20.6228 71.8143 20.7995C71.4837 21.0669 71.1898 20.7596 70.7934 20.8305C70.0786 20.9772 69.2857 21.119 68.5831 21.0741C67.0999 20.9794 65.6045 21.0763 64.1687 21.4655C64.0126 21.4556 63.8504 21.5414 63.7784 21.4406C63.2381 21.3099 62.7391 21.759 62.2891 21.4417C61.7963 21.795 61.2559 21.6643 60.7876 21.6344C60.6314 21.6244 60.4692 21.7102 60.3008 21.8919C60.2947 21.9877 60.1386 21.9777 60.1386 21.9777C59.2921 21.7313 58.4212 21.868 57.6283 22.0098C56.5171 22.2274 55.4181 22.2534 54.3068 22.471C53.9885 22.5469 53.6946 22.2395 53.442 22.512C53.1895 22.7844 52.8772 22.7645 52.5711 22.6488C52.1149 22.4272 51.6404 22.4931 51.1598 22.6548C50.9195 22.7357 50.7573 22.8215 50.5231 22.8065C50.0547 22.7766 49.646 23.0391 49.1838 22.9134C48.6435 22.7827 48.1567 23.0402 47.6822 23.1061C47.52 23.1919 47.3638 23.1819 47.2077 23.172C46.7393 23.1421 46.2587 23.3038 45.7903 23.2738C45.5562 23.2589 45.2378 23.3348 45.0755 23.4206C44.7511 23.5923 44.451 23.3807 44.2107 23.4615C44.0485 23.5474 43.9582 23.734 43.9459 23.9256L44.1434 24.5154C44.2031 24.8078 44.3531 24.9136 44.5215 24.7319Z" fill="#A9DDFA"/>
</svg>
