<svg width="71" height="99" viewBox="0 0 71 99" fill="none" xmlns="http://www.w3.org/2000/svg">
  <path fill-rule="evenodd" clip-rule="evenodd" d="M10.5534 65.703C7.54161 66.5689 4.3884 67.0057 1.32957 67.4059C0.670748 67.4898 0.0590751 67.0217 0.0120163 66.3621C-0.0821014 65.702 0.388763 65.0984 1.00053 65.0145C3.96523 64.6293 7.02378 64.217 9.89437 63.3834C10.5061 63.2026 11.1652 63.5748 11.3535 64.2151C11.5417 64.8549 11.1651 65.5217 10.5534 65.703Z" fill="#E0F2FA"/>
  <path fill-rule="evenodd" clip-rule="evenodd" d="M19.6824 77.9798C14.8353 83.0476 9.37652 87.4631 4.62358 92.6668C4.20005 93.1528 3.44711 93.1789 2.97652 92.7252C2.50593 92.271 2.45905 91.5073 2.92964 91.0213C7.68258 85.8026 13.1414 81.3726 17.9885 76.2899C18.4591 75.8155 19.2118 75.8087 19.6824 76.2754C20.1059 76.7417 20.153 77.5054 19.6824 77.9798Z" fill="#E0F2FA"/>
  <path fill-rule="evenodd" clip-rule="evenodd" d="M28.7658 97.4724C28.907 94.5718 29.0479 91.6712 29.1891 88.7702C29.1891 88.1058 29.7541 87.5928 30.4129 87.6251C31.0717 87.6579 31.542 88.2234 31.542 88.8883C31.4009 91.7937 31.26 94.6986 31.1188 97.6035C31.0717 98.2679 30.5069 98.7775 29.8481 98.7414C29.2363 98.7052 28.7188 98.1363 28.7658 97.4724Z" fill="#E0F2FA"/>
  <path fill-rule="evenodd" clip-rule="evenodd" d="M9.8777 42.6475C7.12145 41.4136 4.38395 40.2171 1.6652 38.9037C1.07926 38.6233 0.835544 37.9269 1.11679 37.3474C1.39804 36.7631 2.1011 36.52 2.68235 36.8004C5.38703 38.1045 8.10105 39.2916 10.8386 40.5162C11.4292 40.7826 11.6918 41.4744 11.4293 42.0586C11.1621 42.6475 10.4683 42.9139 9.8777 42.6475Z" fill="#E0F2FA"/>
  <path fill-rule="evenodd" clip-rule="evenodd" d="M30.1271 28.051C26.124 19.4089 22.5613 10.5705 18.7457 1.84901C18.4879 1.25543 18.7598 0.568344 19.3504 0.311279C19.9457 0.0542145 20.6347 0.320644 20.8972 0.914234C24.7034 9.62173 28.2566 18.4461 32.255 27.0694C32.5269 27.6583 32.2692 28.3501 31.6833 28.6212C31.0926 28.8923 30.399 28.6352 30.1271 28.051Z" fill="#E0F2FA"/>
  <path fill-rule="evenodd" clip-rule="evenodd" d="M64.4729 25.8073C65.7526 17.8616 67.2572 9.93935 68.4479 1.97968C68.5463 1.34403 69.1415 0.904747 69.779 0.998226C70.4212 1.09171 70.8618 1.68989 70.768 2.32555C69.5727 10.2946 68.068 18.2262 66.7837 26.1812C66.6805 26.8169 66.0806 27.2516 65.4431 27.1487C64.8009 27.0459 64.3697 26.4476 64.4729 25.8073Z" fill="#E0F2FA"/>
</svg>
