<svg width="487" height="148" viewBox="0 0 487 148" fill="none" xmlns="http://www.w3.org/2000/svg">
  <path fill-rule="evenodd" clip-rule="evenodd" d="M29.7029 125.554C89.2592 125.554 148.862 125.554 208.419 125.554C267.694 125.554 326.922 125.554 386.197 125.554C419.56 125.554 452.923 125.554 486.332 125.554C487.223 125.554 487.223 123.554 486.332 123.554C426.776 123.554 367.173 123.554 307.617 123.554C248.341 123.554 189.113 123.554 129.838 123.554C96.4753 123.554 63.1125 123.554 29.7029 123.554C28.7657 123.554 28.7657 125.554 29.7029 125.554Z" fill="#E3E1DE"/>
  <path fill-rule="evenodd" clip-rule="evenodd" d="M103.596 136.212C151.063 136.212 198.581 136.212 246.049 136.212C259.51 136.212 272.97 136.212 286.482 136.212C287.443 136.212 287.443 134.693 286.482 134.693C239.015 134.693 191.497 134.693 144.029 134.693C130.568 134.693 117.108 134.693 103.596 134.693C102.635 134.693 102.635 136.212 103.596 136.212Z" fill="#E3E1DE"/>
  <path fill-rule="evenodd" clip-rule="evenodd" d="M263.001 147.041C308.698 147.041 354.394 147.041 400.039 147.041C413.045 147.041 426 147.041 439.005 147.041C439.966 147.041 439.966 145.523 439.005 145.523C393.309 145.523 347.613 145.523 301.967 145.523C288.962 145.523 276.007 145.523 263.001 145.523C262.04 145.523 262.04 147.041 263.001 147.041Z" fill="#E3E1DE"/>
  <path fill-rule="evenodd" clip-rule="evenodd" d="M1.32353 138.489C20.5534 138.489 39.7832 138.489 59.013 138.489C59.9745 138.489 59.9745 136.97 59.013 136.97C39.7832 136.97 20.5534 136.97 1.32353 136.97C0.311429 136.97 0.311429 138.489 1.32353 138.489Z" fill="#E3E1DE"/>
  <path fill-rule="evenodd" clip-rule="evenodd" d="M53.2005 76.4715C55.2752 91.6023 58.7164 106.531 63.5238 121.004C63.8275 121.915 65.295 121.51 64.9914 120.599C60.1839 106.075 56.7428 91.1975 54.668 76.0666C54.5162 75.1051 53.0486 75.51 53.2005 76.4715Z" fill="#E3E1DE"/>
  <path fill-rule="evenodd" clip-rule="evenodd" d="M53.8074 77.0787C71.8227 83.7079 91.6092 84.4164 110.08 79.1029C111.041 78.8498 110.637 77.3823 109.675 77.6353C91.4574 82.8982 72.0251 82.1392 54.2122 75.6111C53.3013 75.2569 52.8965 76.7244 53.8074 77.0787Z" fill="#E3E1DE"/>
  <path fill-rule="evenodd" clip-rule="evenodd" d="M109.119 78.6474C107.955 93.3734 105.931 107.948 102.945 122.421C102.742 123.382 104.21 123.787 104.412 122.825C107.449 108.251 109.524 93.5252 110.637 78.6474C110.738 77.6859 109.22 77.6859 109.119 78.6474Z" fill="#E3E1DE"/>
  <path fill-rule="evenodd" clip-rule="evenodd" d="M69.8491 79.71C64.2826 75.0038 60.639 68.6276 59.3739 61.4417C59.2221 61.7453 59.0197 62.0489 58.8679 62.3526C60.1836 62.0489 61.1957 62.2007 62.3596 62.8586C63.0175 63.2634 63.7259 62.4538 63.4223 61.7959C62.562 60.1766 61.7524 58.6078 60.8921 56.9884C60.4872 56.1788 60.0318 55.4197 59.627 54.61C58.9691 53.1931 58.3112 49.4989 61.0439 50.0556C61.6511 50.1568 62.1066 49.7014 61.9548 49.1447C60.1836 40.2889 58.463 31.2812 57.9064 22.2735C57.6534 18.1239 57.704 13.8731 58.6655 9.77416C59.1209 7.80057 59.7788 5.87758 60.639 4.05581C61.2463 2.79069 61.6511 1.22194 63.6753 2.23404C64.3838 2.58827 65.0923 3.49916 65.6489 4.10642C70.9624 9.67295 73.6951 17.1625 75.6687 24.4496C77.9965 32.7993 79.9195 41.301 81.5894 49.8026C83.6136 60.1259 84.8281 70.6011 84.4739 81.1775C84.4233 82.139 85.9415 82.139 85.9921 81.1775C86.3463 70.8542 85.1318 60.5308 83.2088 50.3592C81.387 40.6431 79.211 30.8764 76.3265 21.4133C74.0493 13.9237 70.7094 6.0294 64.4344 0.968917C58.5642 -3.73733 56.4388 13.0635 56.287 16.3022C55.8316 27.334 58.2606 38.7707 60.4366 49.5495C60.7403 49.2459 61.0439 48.9423 61.3475 48.6387C59.1209 48.1832 57.4003 49.8532 57.2991 52.0798C57.2485 53.6991 58.1088 55.2173 58.8173 56.5836C59.88 58.6078 60.8921 60.5814 61.9548 62.6056C62.309 62.2513 62.6632 61.8971 63.0175 61.5429C61.4993 60.6826 60.0318 60.4802 58.3618 60.885C57.957 60.9862 57.7546 61.4417 57.8558 61.7959C59.1715 69.1842 62.9669 75.864 68.6852 80.7221C69.5455 81.38 70.6082 80.3173 69.8491 79.71Z" fill="#E3E1DE"/>
  <path fill-rule="evenodd" clip-rule="evenodd" d="M83.6131 50.5618C83.4613 45.0458 86.0421 40.0866 88.7748 35.4309C91.4569 30.8259 94.5437 26.4739 97.9343 22.3243C97.5294 22.2231 97.074 22.1219 96.6691 21.97C96.9222 22.6785 97.1752 23.4376 97.4788 24.1461C97.6812 24.7533 98.4909 24.9051 98.8452 24.3485C102.792 18.5289 107.043 12.9624 111.648 7.64888C111.193 7.44646 110.788 7.29465 110.332 7.09223C110.535 14.3793 109.978 21.6158 108.511 28.7511C107.347 34.3176 106.183 43.1229 100.262 45.6531C99.503 46.0073 100.009 46.9688 100.667 47.07C106.385 47.7785 100.211 58.9116 99.1488 61.796C96.7704 68.2228 94.6956 74.8015 92.6714 81.3295C92.3677 82.2404 93.8353 82.6452 94.1389 81.7343C96.5679 74.0424 98.9464 66.2493 101.983 58.7597C102.843 56.6849 104.159 54.6101 104.614 52.3835C105.221 49.2966 104.159 45.9567 100.718 45.5519C100.869 46.0073 100.971 46.5134 101.122 46.9688C106.993 44.4386 108.409 36.5442 109.675 31.0283C111.446 23.1846 112.205 15.1384 111.952 7.09223C111.952 6.48497 111.092 6.02953 110.636 6.53558C105.98 11.9503 101.628 17.618 97.58 23.5388C98.0355 23.5894 98.4909 23.64 98.9464 23.7412C98.6933 23.0327 98.4403 22.2737 98.1367 21.5652C97.9849 21.0592 97.2764 20.7555 96.8716 21.211C93.228 25.6642 89.8881 30.3704 87.0542 35.3803C84.3722 40.036 81.9938 44.9952 82.1456 50.5112C82.095 51.5739 83.6131 51.5739 83.6131 50.5618Z" fill="#E3E1DE"/>
  <path fill-rule="evenodd" clip-rule="evenodd" d="M54.3136 76.8762C56.0342 76.3196 58.0078 77.0786 59.7283 77.3317C61.6513 77.5847 63.5743 77.7365 65.4973 77.7871C66.4588 77.7871 66.4588 76.269 65.4973 76.269C63.0683 76.2183 60.6898 76.0159 58.3114 75.5605C56.7933 75.3075 55.4269 74.9026 53.9088 75.4087C52.9979 75.7123 53.3521 77.1798 54.3136 76.8762Z" fill="#E3E1DE"/>
  <path fill-rule="evenodd" clip-rule="evenodd" d="M94.9496 78.9005C99.9089 79.0017 104.868 79.2041 109.777 79.5077C110.738 79.5583 110.738 78.0402 109.777 77.9896C104.818 77.686 99.9089 77.4836 94.9496 77.3823C93.9881 77.3317 93.9881 78.8499 94.9496 78.9005Z" fill="#E3E1DE"/>
  <path fill-rule="evenodd" clip-rule="evenodd" d="M60.3857 78.0907C62.4605 78.5967 64.5353 79.1028 66.5595 79.5582C67.521 79.8112 67.9258 78.3437 66.9643 78.0907C64.8895 77.5846 62.8147 77.0786 60.7905 76.6231C59.8291 76.4207 59.4242 77.8882 60.3857 78.0907Z" fill="#E3E1DE"/>
  <path fill-rule="evenodd" clip-rule="evenodd" d="M94.8981 77.9388C93.7342 78.1918 93.3799 79.7606 94.5439 80.3172C95.6572 80.8233 97.9344 80.216 99.0983 80.1654C100.869 80.0642 102.641 79.9124 104.412 79.8112C105.373 79.7606 105.373 78.2424 104.412 78.293C102.792 78.3942 101.122 78.4954 99.5031 78.6472C98.7441 78.6979 97.985 78.7485 97.2259 78.7991C96.8717 78.8497 96.4668 78.8497 96.1126 78.9003C95.4547 78.6979 95.2017 78.9003 95.3535 79.4569C96.2644 79.2039 95.8596 77.7364 94.8981 77.9388Z" fill="#E3E1DE"/>
  <path fill-rule="evenodd" clip-rule="evenodd" d="M61.3981 112.654C63.5235 116.449 66.3574 119.789 69.7985 122.471C70.5576 123.078 71.6203 122.016 70.8612 121.408C67.5213 118.777 64.7887 115.64 62.7139 111.895C62.2584 110.984 60.9427 111.794 61.3981 112.654Z" fill="#E3E1DE"/>
  <path fill-rule="evenodd" clip-rule="evenodd" d="M55.8826 91.3997C63.2203 103.14 72.3291 113.615 83.0067 122.471C83.7658 123.078 84.8285 122.016 84.0694 121.408C73.493 112.654 64.4348 102.33 57.1477 90.6406C56.6922 89.7804 55.3765 90.5394 55.8826 91.3997Z" fill="#E3E1DE"/>
  <path fill-rule="evenodd" clip-rule="evenodd" d="M58.7164 78.2425C63.5744 86.8453 68.6349 95.4481 75.3653 102.735C82.45 110.377 91.0022 116.854 99.3014 123.028C100.111 123.635 100.82 122.269 100.06 121.712C91.8119 115.589 83.4115 109.213 76.428 101.673C69.7988 94.4866 64.8395 85.9344 60.0321 77.4834C59.526 76.6231 58.2103 77.3822 58.7164 78.2425Z" fill="#E3E1DE"/>
  <path fill-rule="evenodd" clip-rule="evenodd" d="M73.5935 81.6836C81.4878 94.183 92.2161 104.658 104.968 112.198C105.829 112.704 106.588 111.389 105.728 110.883C93.2281 103.444 82.6517 93.1709 74.9092 80.874C74.3526 80.1149 73.0368 80.874 73.5935 81.6836Z" fill="#E3E1DE"/>
  <path fill-rule="evenodd" clip-rule="evenodd" d="M90.7995 82.5945C95.0503 88.8189 100.161 94.3854 106.082 99.041C106.841 99.6483 107.904 98.5856 107.145 97.9783C101.325 93.3733 96.2649 87.9586 92.1153 81.8354C91.5586 81.0257 90.2429 81.7848 90.7995 82.5945Z" fill="#E3E1DE"/>
  <path fill-rule="evenodd" clip-rule="evenodd" d="M101.831 81.3293C103.754 84.062 105.93 86.491 108.359 88.7177C109.068 89.3755 110.181 88.3128 109.422 87.655C107.044 85.5296 104.969 83.1511 103.097 80.5703C102.59 79.8112 101.224 80.5703 101.831 81.3293Z" fill="#E3E1DE"/>
</svg>
