<svg width="314" height="18" viewBox="0 0 314 18" fill="none" xmlns="http://www.w3.org/2000/svg">
  <path d="M282.07 2.06408C275.371 1.7534 268.662 1.53178 261.959 1.26504C259.747 1.17788 257.528 1.17253 255.314 1.12713C250.514 1.02999 245.712 0.932753 240.911 0.835608C238.238 0.780952 235.562 0.713949 232.889 0.673185C232.114 0.66111 231.34 0.656843 230.564 0.656843C228.822 0.656843 227.08 0.677815 225.339 0.680267C217.419 0.686623 209.499 0.694069 201.578 0.701241C199.693 0.702966 197.806 0.738461 195.922 0.759342C191.253 0.806553 186.587 0.854767 181.918 0.904792C176.652 0.958357 171.384 0.98105 166.119 1.08419C157.597 1.2516 149.076 1.4183 140.554 1.58644C135.621 1.68177 130.684 1.73715 125.753 1.89312C117.255 2.16132 108.758 2.42724 100.26 2.69216C95.6175 2.83652 90.9703 2.95745 86.3312 3.16245C77.5444 3.5494 68.7584 3.93807 59.9706 4.32746C55.2752 4.53528 50.575 4.6888 45.8899 5.00557C37.142 5.5957 28.3935 6.18683 19.6456 6.77769C17.7559 6.90507 15.8654 7.03199 13.9737 7.16073C10.1967 7.41503 6.43178 7.81078 2.66513 8.1477C2.42933 8.1743 2.19251 8.19882 1.9558 8.22397C1.50552 8.32466 1.1139 8.5045 0.780486 8.76797C0.283231 9.162 0 9.70102 0 10.2604C0 10.8178 0.283231 11.3597 0.780486 11.753C1.2326 12.1127 2.00277 12.4304 2.66513 12.3722C7.21009 11.9666 11.7484 11.536 16.3058 11.2299C20.5282 10.9452 24.7499 10.6618 28.9722 10.3784C33.5808 10.0688 38.1879 9.75922 42.795 9.45071C44.6507 9.32552 46.5116 9.16019 48.3703 9.0783C55.555 8.76235 62.7392 8.45094 69.9247 8.1388C74.4026 7.9427 78.8827 7.74732 83.3603 7.55122C85.2106 7.47032 87.061 7.36964 88.9114 7.31144C96.0311 7.08447 103.152 6.87847 110.27 6.66248C114.587 6.53083 118.901 6.40182 123.216 6.27018C124.667 6.22587 126.117 6.17058 127.568 6.14216C135.257 6.00135 142.944 5.86344 150.632 5.72544C154.925 5.64745 159.217 5.5701 163.51 5.49211C165.04 5.46406 166.567 5.42329 168.095 5.41122C176.024 5.34603 183.951 5.28248 191.88 5.21802C196.827 5.17716 201.769 5.13994 206.716 5.14993C215.135 5.16618 223.555 5.18179 231.973 5.19704C233.634 5.19986 235.295 5.25524 236.955 5.29355C241.602 5.40132 246.249 5.50945 250.895 5.61731C254.381 5.6992 257.867 5.78009 261.354 5.86099C263.826 5.918 266.297 6.06418 268.768 6.17058C276.042 6.4819 283.314 6.8032 290.587 7.16282C292.433 7.25433 294.279 7.36537 296.126 7.4725C298.103 7.58599 300.088 7.69657 302.06 7.87361C302.367 7.91365 302.672 7.95904 302.979 8.01152C303.755 8.14135 304.504 8.10585 305.201 7.781C305.848 7.4824 306.329 6.9855 306.528 6.41453C306.945 5.21266 306.027 3.93525 304.513 3.60287C303.188 3.31243 301.812 3.19614 300.447 3.08728C299.512 3.01174 298.577 2.93657 297.642 2.86276C295.843 2.71949 294.03 2.64677 292.228 2.539C288.847 2.33718 285.456 2.22015 282.07 2.06408Z" fill="#F9D278"/>
  <path d="M292.784 6.18776C287.033 5.73996 281.269 5.38097 275.511 4.97699C273.612 4.84456 271.701 4.79372 269.798 4.70298C265.67 4.5075 261.541 4.3119 257.413 4.11642C255.114 4.00701 252.814 3.88519 250.514 3.78966C249.848 3.76172 249.182 3.74158 248.514 3.72568C247.014 3.68999 245.513 3.67523 244.015 3.642C237.195 3.48601 230.377 3.33113 223.557 3.17593C221.934 3.13903 220.307 3.13582 218.685 3.11808C214.663 3.06957 210.643 3.0221 206.62 2.9764C202.084 2.922 197.548 2.8367 193.01 2.83187C185.664 2.82451 178.32 2.81645 170.974 2.80982C166.723 2.80399 162.47 2.75814 158.216 2.81295C150.887 2.9068 143.558 2.9984 136.228 3.08898C132.224 3.13809 128.217 3.16371 124.212 3.2735C116.628 3.48011 109.044 3.68845 101.458 3.89749C97.4052 4.00895 93.3508 4.06604 89.3011 4.28658C81.7397 4.69705 74.1776 5.10851 66.6161 5.5197C64.9827 5.60827 63.3486 5.69637 61.7134 5.78626C58.4487 5.96299 55.1871 6.28133 51.9271 6.54084C51.7227 6.5626 51.5176 6.58224 51.3125 6.60252C50.9197 6.69392 50.5733 6.86563 50.2728 7.12211C49.8245 7.5057 49.5531 8.03859 49.5245 8.59761C49.4959 9.15471 49.712 9.70211 50.12 10.1054C50.4908 10.474 51.1376 10.8074 51.7108 10.7628C55.6445 10.4506 59.5736 10.1132 63.5129 9.90077C67.1626 9.70277 70.8117 9.50603 74.4613 9.30939C78.4447 9.09444 82.427 8.87947 86.4091 8.66558C88.0131 8.5785 89.6237 8.45141 91.2281 8.40767C97.4297 8.23917 103.631 8.0752 109.833 7.91054C113.698 7.80633 117.565 7.7029 121.43 7.59869C123.027 7.55577 124.625 7.49308 126.221 7.47284C132.362 7.39194 138.503 7.33201 144.643 7.26206C148.366 7.21896 152.087 7.17847 155.808 7.13534C157.06 7.1208 158.311 7.09527 159.561 7.0966C166.188 7.11347 172.813 7.1332 179.439 7.15286C183.139 7.16291 186.838 7.17358 190.538 7.18363C191.856 7.18695 193.173 7.17751 194.49 7.19677C201.319 7.29413 208.147 7.39311 214.976 7.49119C219.238 7.55177 223.494 7.61585 227.753 7.72723C235 7.91604 242.248 8.10422 249.495 8.292C250.925 8.32887 252.351 8.41824 253.779 8.49056C257.774 8.69351 261.769 8.89683 265.764 9.09985C268.76 9.25313 271.757 9.40543 274.755 9.55774C276.881 9.6654 279.001 9.86214 281.122 10.0191C287.369 10.4793 293.613 10.9495 299.856 11.458C301.441 11.5873 303.024 11.7361 304.609 11.881C306.305 12.0349 308.008 12.1861 309.697 12.4035C309.959 12.4498 310.219 12.5014 310.481 12.5601C311.143 12.7058 311.789 12.6857 312.406 12.3753C312.978 12.0901 313.418 11.6034 313.618 11.0369C314.039 9.84428 313.314 8.54884 312.027 8.18561C310.902 7.86821 309.723 7.72378 308.553 7.58699C307.752 7.49234 306.951 7.39805 306.15 7.30512C304.608 7.12507 303.052 7.01524 301.506 6.8706C298.605 6.5996 295.691 6.41313 292.784 6.18776Z" fill="#F9D278"/>
</svg>
