<svg width="120" height="16" viewBox="0 0 120 16" fill="none" xmlns="http://www.w3.org/2000/svg">
<path fill-rule="evenodd" clip-rule="evenodd" d="M31.9841 9.42235C26.8286 10.8682 20.8763 12.3072 15.1502 12.6665C10.2559 12.9731 5.52856 12.4968 1.65914 10.4702C1.11368 10.1849 0.430632 10.381 0.135648 10.9091C-0.159786 11.4368 0.0434631 12.0975 0.588915 12.3833C4.80998 14.5935 9.9569 15.1716 15.2954 14.8366C21.1245 14.4712 27.1843 13.0227 32.4432 11.5559C33.0534 12.7517 34.317 13.8666 36.5429 14.6892C39.9617 15.9528 44.6297 15.9371 49.5474 15.2251C56.6796 14.1928 64.3519 11.7313 69.2848 9.98217C69.4872 9.91083 69.7884 9.79731 70.1572 9.64767C70.2696 9.88778 70.3955 10.1244 70.5349 10.3567C71.7445 12.3811 73.8849 14.018 76.0659 14.6026C89.8978 18.3096 106.041 13.8679 119.185 10.2532C119.778 10.0892 120.125 9.48717 119.958 8.90994C119.787 8.33272 119.167 7.99734 118.569 8.16133C105.794 11.6751 90.1091 16.1085 76.6639 12.5064C75.0091 12.0627 73.3993 10.8047 72.482 9.26836C72.3785 9.09698 72.2886 8.92168 72.2032 8.74377C74.0153 7.8751 76.1468 6.6641 77.2934 5.36784C78.4716 4.03896 78.7639 2.62047 77.7386 1.28071C76.8573 0.135389 75.5217 0.0379499 74.1322 0.631707C72.6348 1.26766 71.0925 2.75442 70.5933 3.45214C69.658 4.75536 69.3612 6.16908 69.5321 7.54756C69.0914 7.72764 68.7335 7.86161 68.5127 7.9399C63.6877 9.65027 56.1886 12.0645 49.2146 13.0741C44.7273 13.7239 40.4649 13.8105 37.3451 12.6578C36.0145 12.1658 35.1354 11.5916 34.6583 10.9252C35.5999 10.6529 36.5078 10.385 37.3752 10.1292C39.0907 9.62331 42.6624 8.78597 45.2143 7.29353C47.2437 6.10689 48.6197 4.49265 48.5397 2.46909C48.4987 1.42947 47.8768 0.735656 46.8871 0.346778C45.4081 -0.23393 42.8504 0.047066 41.898 0.24281C39.0093 0.835262 35.1538 3.28773 33.2463 6.0512C32.485 7.15389 32.0322 8.30748 31.9841 9.42235ZM34.357 8.74289C35.1731 8.50539 35.9619 8.27223 36.7196 8.04865C38.3209 7.57625 41.6682 6.8259 44.051 5.4322C45.3128 4.69446 46.343 3.81058 46.2931 2.55216C46.289 2.45429 46.1888 2.42646 46.1002 2.38644C45.963 2.32511 45.8061 2.2829 45.6388 2.24984C44.507 2.02626 42.9866 2.24244 42.3643 2.37033C39.9406 2.86752 36.7164 4.94023 35.116 7.25915C34.7779 7.74894 34.5085 8.24788 34.357 8.74289ZM71.7535 6.54622C72.8102 6.02032 73.9164 5.38436 74.7888 4.69229C75.2519 4.32473 75.6432 3.94674 75.8905 3.55438C76.0973 3.22988 76.1783 2.89753 75.9309 2.57651C75.832 2.44645 75.6836 2.44386 75.5307 2.46821C75.3689 2.49431 75.2025 2.54998 75.0361 2.62175C73.9389 3.08893 72.8057 4.18031 72.4415 4.69229C72.0143 5.28605 71.803 5.91418 71.7535 6.54622Z" fill="#F9D278"/>
</svg>
