<svg width="108" height="41" viewBox="0 0 108 41" fill="none" xmlns="http://www.w3.org/2000/svg"><path d="M107.52 35.26V5.33a4.91 4.91 0 0 0-4.913-4.914H37.055v39.758h65.552a4.913 4.913 0 0 0 4.913-4.914Z" fill="#2E4F5E"/><path d="M102.608 40.59H36.641V0h65.967a5.334 5.334 0 0 1 5.329 5.33v29.93a5.334 5.334 0 0 1-5.329 5.33Zm-65.135-.833h65.135a4.5 4.5 0 0 0 4.497-4.497V5.33a4.506 4.506 0 0 0-4.497-4.497H37.473v38.924Z" fill="#2E4F5E"/><path fill-rule="evenodd" clip-rule="evenodd" d="m16.235 13.413-1.714 2.365c-.86 1.184-.593 3.282.58 4.128l3.179 2.295c.545.394.588.788.33 1.2l.461.343 1.61-2.23c.995-1.377.908-3.252-.568-4.326l-3.207-2.337c-.383-.28-.424-.67-.211-1.104l-.462-.33M18.984 2.978l-2.67 3.69c-1.252 1.732-.796 4.684.915 5.945l4.388 3.222c.89.653 1.006 2.316.358 3.168l.372.279 3.027-4.258c1.36-1.912 1.28-4.738-.854-6.288l-4.694-3.41c-.658-.474-.986-1.289-.439-2.063l-.403-.285ZM11.95 26.131h3.536l.63 2.145h5.781l.631-2.145h3.538l-.463-1.576h-13.19l-.464 1.576ZM13.607 33.309c.621-.364 1.003-.9 1.003-1.632 0-1.465-1.2-2.063-2.51-2.063H8.44v7.779h3.627c1.549 0 3.188-.677 2.923-2.459-.157-1.02-.56-1.261-1.382-1.627l-.002.002Zm-3.515-2.206h1.905c1.187 0 1.23 1.659.074 1.659h-1.979v-1.66Zm2.124 4.82h-2.124v-1.774h2.124c1.56 0 1.464 1.774 0 1.774ZM20.87 33.309c.622-.364 1.003-.9 1.003-1.632 0-1.465-1.2-2.063-2.51-2.063h-3.658v7.779h3.627c1.547 0 3.188-.677 2.923-2.459-.158-1.02-.561-1.261-1.383-1.627l-.001.002Zm-3.508-2.21h1.9c1.188 0 1.23 1.66.075 1.66H17.36l.001-1.66Zm2.12 4.823H17.36v-1.773h2.119c1.558 0 1.463 1.774 0 1.774l.002-.002ZM29.515 34.936c-.157-1.02-.561-1.261-1.383-1.627.622-.364 1.003-.9 1.003-1.632 0-1.465-1.2-2.063-2.51-2.063h-3.658v7.779h3.626c1.547 0 3.189-.677 2.924-2.459l-.002.002Zm-4.886-3.835h1.893c1.188 0 1.23 1.659.075 1.659h-1.975l.007-1.659Zm2.119 4.822h-2.126v-1.774h2.12c1.557 0 1.463 1.774 0 1.774h.006Z" fill="#fff"/><path d="m47.38 18.67-.355-.98h-2.48l-.365.98h-1.405l2.238-5.784h1.544l2.228 5.783H47.38Zm-1.595-4.554-.901 2.488h1.803l-.901-2.488ZM49.105 15.778c0-1.777 1.344-2.996 3.078-2.996a2.647 2.647 0 0 1 2.42 1.42l-1.059.52a1.566 1.566 0 0 0-1.353-.845c-1.048 0-1.812.805-1.812 1.892 0 1.086.764 1.892 1.812 1.892a1.55 1.55 0 0 0 1.361-.84l1.052.524c-.416.72-1.145 1.42-2.419 1.42-1.728 0-3.08-1.208-3.08-2.987ZM55.125 15.778c0-1.777 1.343-2.996 3.078-2.996a2.647 2.647 0 0 1 2.419 1.42l-1.058.52a1.567 1.567 0 0 0-1.361-.845c-1.049 0-1.812.805-1.812 1.892 0 1.086.763 1.892 1.812 1.892a1.55 1.55 0 0 0 1.36-.84l1.059.51c-.416.72-1.145 1.42-2.42 1.42-1.732.014-3.077-1.194-3.077-2.973ZM64.69 18.67l-1.135-2.05h-.902v2.05h-1.231v-5.784h2.706c1.204 0 1.942.788 1.942 1.864 0 1.023-.641 1.576-1.261 1.717l1.3 2.207-1.418-.005Zm.117-3.92c0-.486-.372-.781-.867-.781h-1.291v1.561h1.291c.5 0 .867-.295.867-.78ZM67.059 18.67v-5.784h4.1v1.083H68.29v1.222h2.8v1.083h-2.8v1.309h2.862v1.083l-4.093.003ZM72.176 18.67v-5.784h2.28c1.812 0 3.07 1.152 3.07 2.896s-1.262 2.887-3.07 2.887h-2.28Zm4.1-2.888c0-1.023-.631-1.811-1.812-1.811h-1.049v3.614h1.049c1.137 0 1.805-.823 1.805-1.804l.006.001ZM78.465 18.67v-5.784h1.231v5.783h-1.231ZM82.235 18.67v-4.701h-1.692v-1.083h4.614v1.083h-1.683v4.7h-1.24ZM86.006 18.67v-5.784h4.1v1.083h-2.869v1.222h2.798v1.083h-2.798v1.309H90.1v1.083l-4.093.003ZM91.123 18.67v-5.784h2.28c1.812 0 3.07 1.152 3.07 2.896s-1.261 2.887-3.07 2.887h-2.28Zm4.1-2.888c0-1.023-.631-1.811-1.812-1.811h-1.049v3.614h1.049c1.138 0 1.805-.823 1.805-1.804l.007.001ZM43.393 28.6v-5.785h3.043c1.104 0 1.665.702 1.665 1.475 0 .728-.451 1.214-.997 1.326.615.094 1.104.694 1.104 1.419 0 .867-.58 1.561-1.682 1.561l-3.133.003Zm3.451-4.1a.632.632 0 0 0-.676-.631h-1.544v1.261h1.544c.414 0 .675-.26.675-.624l.001-.006Zm.112 2.365c0-.365-.26-.677-.746-.677h-1.586v1.344h1.586c.464 0 .746-.254.746-.667ZM49.197 26.292v-3.477h1.262v3.435c0 .805.473 1.36 1.36 1.36.888 0 1.353-.555 1.353-1.36v-3.435h1.262v3.47c0 1.439-.85 2.418-2.61 2.418-1.76 0-2.627-.988-2.627-2.41ZM55.23 27.784l.668-.936a2.534 2.534 0 0 0 1.838.78c.677 0 1.006-.315 1.006-.642 0-.424-.538-.545-1.17-.701-.946-.216-2.159-.474-2.159-1.795 0-.962.833-1.76 2.194-1.76.919 0 1.682.278 2.255.806l-.686.904a2.484 2.484 0 0 0-1.683-.631c-.528 0-.823.235-.823.58 0 .374.528.494 1.153.642.946.226 2.168.513 2.168 1.821 0 1.058-.754 1.856-2.315 1.856-1.11-.01-1.908-.378-2.446-.924ZM60.885 28.6v-5.785h1.231V28.6h-1.231ZM67.31 28.6l-2.758-3.773V28.6H63.32v-5.784h1.262l2.68 3.627v-3.627h1.232V28.6H67.31ZM69.701 28.6v-5.785h4.1V23.9h-2.868v1.222h2.8v1.083h-2.8v1.309h2.86v1.083l-4.092.003ZM74.424 27.784l.667-.936a2.536 2.536 0 0 0 1.838.78c.677 0 1.006-.315 1.006-.642 0-.424-.537-.545-1.17-.701-.946-.216-2.158-.474-2.158-1.795 0-.962.832-1.76 2.193-1.76.92 0 1.683.278 2.255.806l-.681.904a2.485 2.485 0 0 0-1.683-.631c-.528 0-.823.235-.823.58 0 .374.53.494 1.153.642.946.226 2.168.513 2.168 1.821 0 1.058-.754 1.856-2.315 1.856-1.11-.01-1.908-.378-2.45-.924ZM79.695 27.784l.667-.936a2.533 2.533 0 0 0 1.839.78c.676 0 1.006-.315 1.006-.642 0-.424-.538-.545-1.17-.701-.946-.216-2.159-.474-2.159-1.795 0-.962.833-1.76 2.194-1.76.919 0 1.682.278 2.254.806l-.685.904a2.485 2.485 0 0 0-1.683-.631c-.528 0-.823.235-.823.58 0 .374.53.494 1.153.642.946.226 2.168.513 2.168 1.821 0 1.058-.754 1.856-2.315 1.856-1.112-.01-1.91-.378-2.446-.924Z" fill="#fff"/><path d="M37.473 40.59H5.33A5.336 5.336 0 0 1 0 35.26V5.33A5.336 5.336 0 0 1 5.33 0h32.143v40.59ZM5.33.833A4.502 4.502 0 0 0 .833 5.33v29.93a4.502 4.502 0 0 0 4.497 4.497h31.31V.833H5.33Z" fill="#2E4F5E"/></svg>
