<svg width="110" height="66" viewBox="0 0 110 66" fill="none" xmlns="http://www.w3.org/2000/svg">
<path fill-rule="evenodd" clip-rule="evenodd" d="M79.1502 62.3248C88.9513 62.5615 98.9674 62.088 108.339 65.4454C108.897 65.6434 109.512 65.355 109.714 64.7954C109.911 64.2359 109.624 63.6204 109.065 63.4181C99.4744 59.9832 89.2306 60.4136 79.2017 60.1726C78.6087 60.1554 78.1146 60.6288 78.1017 61.2228C78.0846 61.8168 78.5572 62.3075 79.1502 62.3248Z" fill="#123441"/>
<path fill-rule="evenodd" clip-rule="evenodd" d="M78.2701 48.07C81.3252 45.254 84.6595 43.1445 88.69 42.099C89.2658 41.9501 89.6095 41.3625 89.4634 40.7874C89.313 40.2124 88.7244 39.8667 88.1529 40.0157C83.7701 41.152 80.1392 43.4256 76.8177 46.4855C76.3795 46.8876 76.3494 47.5689 76.7533 48.0063C77.1529 48.4432 77.8361 48.472 78.2701 48.07Z" fill="#123441"/>
<path fill-rule="evenodd" clip-rule="evenodd" d="M69.7713 17.327C71.172 12.5169 73.9306 8.75409 78.1588 6.03675C78.6572 5.71608 78.8033 5.04977 78.481 4.55004C78.1631 4.0503 77.497 3.9048 76.9986 4.22548C72.3193 7.23422 69.2599 11.3982 67.7087 16.724C67.5412 17.2939 67.872 17.8922 68.4392 18.0584C69.0107 18.2249 69.608 17.8969 69.7713 17.327Z" fill="#123441"/>
<path fill-rule="evenodd" clip-rule="evenodd" d="M21.4951 10.799C20.6615 11.7817 19.9138 12.8406 19.2779 13.9679C18.9943 14.4698 18.4958 15.5364 18.4185 16.4511C18.3326 17.4256 18.6634 18.2477 19.5142 18.6808C20.6442 19.255 21.5466 19.1951 22.2427 18.8478C22.913 18.5142 23.4372 17.8586 23.7681 16.9797C24.3997 15.2997 24.3052 12.7321 23.9743 11.2669C24.8638 10.3475 25.8392 9.51377 26.8833 8.77256C34.6607 3.25223 46.0689 5.28777 54.8474 13.5418C57.9197 16.4317 59.3978 22.5008 60.1669 29.049C61.3658 39.2448 60.6826 50.6324 60.588 53.9687C60.5665 54.7925 60.6439 55.2815 60.6868 55.3792C60.8888 55.8596 61.2454 55.9844 61.4947 56.0317C61.8556 56.0963 62.1435 56.0274 62.3755 55.9069C62.6892 55.7416 62.947 55.4506 63.0673 55.0017C63.1318 54.7538 63.1489 54.4086 63.1403 54.0405C63.1318 53.7853 63.0802 53.5064 63.1317 53.3234C63.4669 52.1518 63.8708 51.0077 64.2661 49.8554C65.5853 45.9819 67.2912 42.3521 69.1861 38.7265C75.206 27.2064 81.0282 15.0341 90.8981 6.2571C91.3407 5.86325 91.3837 5.18231 90.9884 4.7381C90.5974 4.29389 89.9185 4.25342 89.4716 4.6477C79.404 13.5982 73.4228 25.9801 67.2825 37.7283C65.6712 40.8124 64.1931 43.9008 62.9642 47.1312C63.0888 41.4167 63.0415 33.5066 61.9974 26.5078C61.0692 20.2832 59.3032 14.7823 56.3169 11.9728C46.7005 2.9307 34.1579 0.969216 25.6415 7.01682C24.7306 7.6642 23.8627 8.37615 23.0548 9.14835C18.599 1.08846 9.05989 -2.14198 0.629422 1.713C0.0880155 1.95964 -0.148309 2.59841 0.0966134 3.1386C0.345832 3.6788 0.981746 3.91727 1.52315 3.67063C9.12003 0.197022 17.7353 3.297 21.4951 10.799ZM22.1181 13.4974C21.7701 13.9899 21.4478 14.5004 21.147 15.0281C20.988 15.3113 20.713 15.8558 20.597 16.3887C20.5712 16.5135 20.5669 16.7089 20.5669 16.7993C20.8634 16.9457 21.0954 17.0163 21.2845 16.9211C21.5208 16.8041 21.6412 16.5286 21.7572 16.2208C22.0494 15.4486 22.1439 14.425 22.1181 13.4974Z" fill="#123441"/>
</svg>
