<svg width="184" height="105" viewBox="0 0 184 105" fill="none" xmlns="http://www.w3.org/2000/svg">
  <path fill-rule="evenodd" clip-rule="evenodd" d="M176.694 2.29028H7.30708C5.7655 2.29028 4.41078 2.89466 3.38306 3.91745C2.40205 4.89375 1.74805 6.28846 1.74805 7.82264V97.2703C1.74805 98.8045 2.35534 100.153 3.38306 101.175C4.36406 102.152 5.7655 102.803 7.30708 102.803H176.694C178.236 102.803 179.59 102.198 180.618 101.175C181.599 100.199 182.253 98.8045 182.253 97.2703V7.82264C182.253 6.28846 181.646 4.94024 180.618 3.91745C179.637 2.89466 178.236 2.29028 176.694 2.29028Z" fill="#FFFDFC" stroke="#016299" stroke-width="3.3766"/>
  <path fill-rule="evenodd" clip-rule="evenodd" d="M86.9548 1.5H176.694C180.197 1.5 183 4.33592 183 7.77621V97.2238C183 100.711 180.15 103.5 176.694 103.5H86.9548V1.5ZM1 97.2703V7.8227V97.2703Z" fill="#016299"/>
  <path d="M124.84 53.3369L122.505 47.4326H110.873L108.677 53.3369H100.829L113.395 23.3506H120.449L132.922 53.3369H124.84ZM116.805 31.3004L112.975 41.6213H120.496L116.805 31.3004ZM149.225 43.1555V52.0352H143.713V43.1555H134.697V37.8091H143.666V28.9294H149.179V37.8091H158.195V43.1555H149.225ZM105.314 80.0224H103.632V63.3323H108.537C109.331 63.3323 110.125 63.4253 110.826 63.5648C111.527 63.7043 112.134 63.9832 112.648 64.3086C113.162 64.6806 113.535 65.099 113.816 65.7033C114.096 66.2612 114.236 66.9586 114.236 67.7954C114.236 68.3998 114.143 68.9577 113.909 69.4691C113.676 69.9805 113.395 70.3989 113.022 70.7708C112.648 71.1427 112.181 71.4217 111.667 71.6541C111.153 71.8866 110.592 72.026 109.985 72.0725L114.843 80.0224H112.788L108.163 72.212H105.36V80.0224H105.314ZM105.314 70.7708H108.257C109.611 70.7708 110.686 70.5383 111.433 70.027C112.181 69.5156 112.554 68.7717 112.554 67.7954C112.554 67.2375 112.461 66.7726 112.227 66.4007C112.041 66.0288 111.76 65.7033 111.387 65.4709C111.013 65.2384 110.592 65.0525 110.079 64.9595C109.565 64.8665 109.004 64.7735 108.35 64.7735H105.314V70.7708ZM124.327 72.9094C124.327 71.9331 124.093 71.2357 123.579 70.7708C123.065 70.3059 122.365 70.0734 121.384 70.0734C120.73 70.0734 120.122 70.2129 119.562 70.4454C119.001 70.6778 118.534 71.0032 118.113 71.3752L117.226 70.3059C117.693 69.841 118.3 69.4691 119.048 69.1901C119.795 68.9112 120.636 68.7252 121.57 68.7252C122.178 68.7252 122.738 68.8182 123.252 68.9577C123.766 69.0971 124.233 69.3761 124.607 69.7015C124.981 70.0269 125.308 70.4454 125.541 70.9568C125.775 71.4682 125.868 72.026 125.868 72.7234V77.5584C125.868 77.9768 125.868 78.4417 125.915 78.8601C125.962 79.325 126.008 79.697 126.055 80.0224H124.607C124.56 79.7434 124.513 79.4645 124.467 79.1391C124.42 78.8136 124.42 78.5347 124.42 78.2093H124.373C123.859 78.9531 123.299 79.4645 122.645 79.7899C121.991 80.1154 121.243 80.2548 120.356 80.2548C119.935 80.2548 119.515 80.2084 119.048 80.0689C118.581 79.9294 118.207 79.7434 117.833 79.511C117.459 79.232 117.179 78.9066 116.899 78.4882C116.665 78.0698 116.525 77.5584 116.525 76.954C116.525 76.1172 116.759 75.4198 117.179 74.9549C117.6 74.4435 118.207 74.0716 118.908 73.8392C119.608 73.6067 120.449 73.4208 121.384 73.3743C122.318 73.2813 123.299 73.2813 124.28 73.2813V72.9094H124.327ZM123.859 74.49C123.205 74.49 122.551 74.5365 121.851 74.583C121.197 74.6295 120.589 74.769 120.029 74.9084C119.468 75.0944 119.048 75.3269 118.721 75.6058C118.394 75.8847 118.207 76.3497 118.207 76.861C118.207 77.233 118.3 77.6049 118.441 77.8373C118.581 78.0698 118.767 78.3022 119.048 78.4882C119.328 78.6742 119.562 78.7671 119.889 78.8601C120.216 78.9531 120.496 78.9531 120.823 78.9531C121.384 78.9531 121.897 78.8601 122.318 78.6742C122.738 78.4882 123.112 78.2093 123.439 77.8838C123.719 77.5584 123.953 77.14 124.14 76.7216C124.327 76.3032 124.373 75.8382 124.373 75.3269V74.49H123.859ZM134.65 70.3059H131.521V76.7216C131.521 77.14 131.567 77.4654 131.661 77.7444C131.754 78.0233 131.848 78.2093 131.988 78.3487C132.128 78.4882 132.315 78.5812 132.502 78.6742C132.688 78.7207 132.922 78.7671 133.156 78.7671C133.389 78.7671 133.623 78.7207 133.856 78.6742C134.09 78.6277 134.323 78.5347 134.557 78.3952L134.65 79.7899C134.37 79.8829 134.09 79.9759 133.763 80.0224C133.436 80.0689 133.109 80.1154 132.782 80.1154C132.502 80.1154 132.175 80.0689 131.848 79.9759C131.521 79.8829 131.194 79.7434 130.913 79.511C130.633 79.2785 130.399 78.9996 130.213 78.6277C130.026 78.2558 129.932 77.7444 129.932 77.14V70.2594H127.643V68.9112H129.932V65.7963H131.521V68.9112H134.65V70.3059ZM138.808 80.0224H137.22V69.0042H138.808V80.0224ZM139.135 64.727C139.135 65.0525 138.995 65.3314 138.761 65.5174C138.528 65.7498 138.247 65.8428 137.967 65.8428C137.687 65.8428 137.407 65.7498 137.173 65.5174C136.939 65.2849 136.799 65.0525 136.799 64.727C136.799 64.4016 136.939 64.1227 137.173 63.9367C137.407 63.7043 137.687 63.6113 137.967 63.6113C138.247 63.6113 138.528 63.7043 138.761 63.9367C138.995 64.1227 139.135 64.4016 139.135 64.727ZM144.461 69.0042C144.507 69.2831 144.507 69.655 144.554 69.9805C144.554 70.3524 144.601 70.6313 144.601 70.8638H144.647C144.974 70.2129 145.488 69.7015 146.189 69.2831C146.89 68.8647 147.637 68.6787 148.431 68.6787C149.833 68.6787 150.86 69.0971 151.561 69.934C152.262 70.7708 152.589 71.8866 152.589 73.2348V79.9759H151.001V73.8857C151.001 73.3278 150.954 72.7699 150.86 72.305C150.767 71.8401 150.627 71.4217 150.393 71.0962C150.16 70.7708 149.879 70.4919 149.459 70.3059C149.085 70.1199 148.571 70.027 148.011 70.027C147.59 70.027 147.17 70.1199 146.796 70.3059C146.376 70.4919 146.049 70.7243 145.722 71.0962C145.395 71.4681 145.161 71.8866 144.974 72.4445C144.788 73.0023 144.694 73.6067 144.694 74.3506V80.0224H143.106V71.4217C143.106 71.1427 143.106 70.7243 143.059 70.2594C143.059 69.7945 143.012 69.3761 142.966 69.0042H144.461ZM157.307 82.2074C157.727 82.7653 158.335 83.2302 159.129 83.6486C159.876 84.0206 160.717 84.253 161.558 84.253C162.352 84.253 163.006 84.16 163.567 83.9276C164.127 83.6951 164.548 83.3697 164.875 82.9978C165.202 82.6259 165.482 82.1609 165.622 81.6031C165.762 81.0917 165.856 80.5338 165.856 79.9294V77.8373H165.762C165.342 78.5347 164.735 79.0461 163.94 79.418C163.146 79.7899 162.352 79.9759 161.558 79.9759C160.717 79.9759 159.923 79.8364 159.222 79.5575C158.522 79.2785 157.914 78.9066 157.447 78.3952C156.933 77.8838 156.56 77.326 156.279 76.6286C155.999 75.9312 155.859 75.1874 155.859 74.397C155.859 73.6067 155.999 72.8629 156.279 72.1655C156.56 71.4682 156.933 70.8638 157.447 70.3524C157.961 69.841 158.522 69.4226 159.222 69.1436C159.923 68.8647 160.717 68.6787 161.558 68.6787C162.352 68.6787 163.146 68.8647 163.894 69.2366C164.641 69.6085 165.248 70.1664 165.716 70.8638H165.762V68.9577H167.351V79.8829C167.351 80.4873 167.257 81.1382 167.117 81.789C166.93 82.4864 166.65 83.0908 166.183 83.6486C165.716 84.2065 165.108 84.6714 164.361 85.0433C163.613 85.4153 162.586 85.6012 161.371 85.6012C160.343 85.6012 159.362 85.4153 158.475 84.9969C157.541 84.6249 156.746 84.0671 156.092 83.3697L157.307 82.2074ZM157.634 74.3506C157.634 74.9084 157.727 75.4663 157.914 75.9777C158.101 76.4891 158.381 76.954 158.708 77.326C159.082 77.6979 159.503 78.0233 160.016 78.2558C160.53 78.4882 161.138 78.5812 161.792 78.5812C162.399 78.5812 162.959 78.4882 163.473 78.2558C163.987 78.0698 164.454 77.7444 164.828 77.3724C165.202 77.0005 165.482 76.5356 165.716 76.0242C165.949 75.5128 166.043 74.9084 166.043 74.2576C166.043 73.6997 165.949 73.1418 165.716 72.6304C165.482 72.119 165.202 71.6541 164.828 71.2822C164.454 70.9103 163.987 70.5848 163.473 70.3524C162.959 70.1199 162.399 69.9805 161.792 69.9805C161.138 69.9805 160.53 70.1199 160.016 70.3524C159.503 70.5848 159.082 70.9103 158.708 71.2822C158.335 71.6541 158.101 72.119 157.914 72.6304C157.727 73.2348 157.634 73.7927 157.634 74.3506Z" fill="white"/>
  <path d="M70.1839 89.7388C70.5576 89.7388 70.9313 89.8782 71.1649 90.1572C71.4452 90.4361 71.5853 90.7616 71.5853 91.1335C71.5853 91.5054 71.4452 91.8773 71.1649 92.1563C70.8846 92.4352 70.5576 92.5747 70.1839 92.5747C69.8102 92.5747 69.4365 92.4352 69.2029 92.1563C68.9226 91.8773 68.7825 91.5519 68.7825 91.1335C68.7825 90.7616 68.9226 90.4361 69.2029 90.1572C69.4832 89.8782 69.8102 89.7388 70.1839 89.7388ZM70.1839 89.9247C69.8569 89.9247 69.5766 90.0642 69.343 90.2967C69.1095 90.5291 68.9693 90.8081 68.9693 91.1335C68.9693 91.4589 69.1095 91.7379 69.343 92.0168C69.5766 92.2493 69.8569 92.3887 70.1839 92.3887C70.5109 92.3887 70.7912 92.2493 71.0248 92.0168C71.2583 91.7843 71.3985 91.5054 71.3985 91.1335C71.3985 90.8081 71.2583 90.5291 71.0248 90.2967C70.8379 90.0642 70.5109 89.9247 70.1839 89.9247ZM26.7394 74.025C28.8415 74.025 30.57 74.5364 31.5977 75.6057C32.4853 76.489 32.8122 77.5118 32.8122 78.7206C32.8122 80.8126 31.7845 82.0214 30.3831 82.7187C32.4852 83.602 33.84 84.8108 33.84 87.2283C33.84 90.3896 31.2707 92.1563 27.3466 92.2493H26.9262H18.2373V73.9785H26.7394V74.025ZM44.0705 74.025C46.1726 74.025 47.9011 74.5364 48.9288 75.6057C49.8164 76.489 50.1434 77.5118 50.1434 78.7206C50.1434 80.8126 49.1156 82.0214 47.7142 82.7187C49.8164 83.602 51.1711 84.8108 51.1711 87.2283C51.1711 90.3896 48.6018 92.1563 44.6778 92.2493H44.2573H35.5684V73.9785H44.0705V74.025ZM61.4483 74.025C63.5504 74.025 65.2789 74.5364 66.3066 75.6057C67.1942 76.489 67.5212 77.5118 67.5212 78.7206C67.5212 80.8126 66.4935 82.0214 65.092 82.7187C67.1942 83.602 68.5489 84.8108 68.5489 87.2283C68.5489 90.3896 65.9796 92.1563 62.0556 92.2493H61.6351H52.9462V73.9785H61.4483V74.025ZM70.1839 90.3896C70.3708 90.3896 70.5109 90.3896 70.6043 90.4361C70.7445 90.4826 70.8379 90.6221 70.8379 90.8081C70.8379 90.9475 70.7912 91.0405 70.6978 91.1335C70.6511 91.18 70.5576 91.18 70.4642 91.2265C70.6043 91.2265 70.6511 91.3195 70.7445 91.3659C70.7912 91.4589 70.8379 91.5054 70.8379 91.5984V91.6914C70.8379 91.7379 70.8379 91.7843 70.8379 91.7843C70.8379 91.8308 70.8379 91.8308 70.8379 91.8773H70.6043V91.8308V91.6914C70.6043 91.5054 70.5576 91.4124 70.4642 91.3195C70.4175 91.273 70.3241 91.273 70.1372 91.273H69.9036V91.8773H69.6233V90.3432H70.1839V90.3896ZM26.9262 84.8108H22.0679V88.809H26.9262C28.6547 88.809 29.8692 88.1116 29.8692 86.9029C29.8692 85.6941 28.9817 84.8108 26.9262 84.8108ZM44.2573 84.8108H39.399V88.809H44.2573C45.9858 88.809 47.2003 88.1116 47.2003 86.9029C47.2003 85.6941 46.3595 84.8108 44.2573 84.8108ZM61.4483 84.8108H56.7768V88.809H61.5884C63.3169 88.809 64.3446 88.1116 64.3446 86.9029C64.3913 85.6941 63.5037 84.8108 61.4483 84.8108ZM26.2255 77.6978H22.0679V81.51H25.8985C27.6269 81.51 28.8415 80.9986 28.8415 79.6039C28.8415 78.3951 27.9539 77.6978 26.2255 77.6978ZM43.5566 77.6978H39.399V81.51H43.2296C44.958 81.51 46.1726 80.9986 46.1726 79.6039C46.1726 78.3951 45.285 77.6978 43.5566 77.6978ZM60.8877 77.6978H56.917V81.51H60.5607C62.2891 81.51 63.5037 80.9986 63.5037 79.6039C63.5037 78.3951 62.6161 77.6978 60.8877 77.6978ZM58.8323 62.0305L60.0001 65.7032H51.7316L50.1901 70.9102H36.5027L34.9611 65.7032H26.6926L27.8605 62.0305H58.8323ZM36.7363 35.3915L37.8107 36.2748C37.8107 36.2748 36.7363 37.7625 38.1844 39.1572L38.418 39.3432L45.4252 44.4106C46.7799 45.4799 47.7142 46.9211 48.1813 48.5018C48.3215 48.9667 48.7886 51.2447 47.9478 53.4298C47.8076 53.7552 47.6208 54.0806 47.4806 54.4061L47.2003 54.871L43.2296 60.2638L42.1085 59.334C42.1552 59.2875 42.2019 59.2411 42.2019 59.1946C42.2486 59.1016 42.2953 59.0551 42.342 58.9621C42.5756 58.5437 42.5756 58.1253 42.4822 57.8463C42.4822 57.7534 42.4355 57.7069 42.4355 57.6139V57.5674C42.4355 57.5209 42.3887 57.4744 42.342 57.4279L42.2953 57.3349L42.2486 57.242L42.1552 57.1025C42.015 56.963 41.8749 56.8236 41.7347 56.6841L41.6413 56.5911L34.4005 51.4307C32.859 50.2219 31.7845 48.4553 31.4575 46.5492C31.4108 46.1772 31.4108 45.7588 31.4108 45.3869C31.4108 43.8527 31.7378 42.458 32.532 41.2028L32.8122 40.7844L35.6618 36.9721L36.7363 35.3915ZM43.2296 10.9375L44.1172 11.6349C43.6033 12.3322 43.4165 13.2155 43.6033 14.0524C43.7435 14.7962 44.1639 15.4471 44.7245 15.912L44.958 16.0979L56.2163 24.2803C58.6454 26.0004 60.0468 28.4644 60.5607 31.2538C61.0279 33.8573 60.4673 36.6002 58.9724 38.8318L58.6454 39.2502L51.1711 49.5246L50.1434 48.7807C50.1434 48.7807 50.6572 48.0834 50.9375 47.1071L51.0309 46.8281L51.1244 46.4562C51.2178 45.9913 51.2178 45.5264 51.2178 45.0615L51.1711 44.736V44.6431C51.1244 44.2711 51.0309 43.9457 50.8908 43.5738C50.8908 43.5273 50.8908 43.5273 50.8441 43.4808C50.5171 42.644 49.9098 41.8536 49.2091 41.2493L48.8821 41.0168L39.5392 34.2292C37.11 32.5091 35.7086 30.0451 35.1947 27.2556C35.0078 26.7442 35.0078 26.0469 35.0078 25.5355C35.0078 23.4434 35.5684 21.5373 36.7363 19.7707L37.0633 19.3058L43.2296 10.9375Z" fill="#016299"/>
</svg>
